<svg width="42" height="42" viewBox="0 0 42 42" fill="none" xmlns="http://www.w3.org/2000/svg">
<path d="M16.8055 8.54702C17.9542 8.38322 18.8992 9.34082 18.8992 10.5V23.1H31.4992C32.6584 23.1 33.616 24.045 33.4522 25.1937C32.9141 28.866 31.0072 32.199 28.1141 34.5239C25.221 36.8488 21.5557 37.9936 17.8536 37.7286C14.1516 37.4637 10.6867 35.8085 8.15418 33.0953C5.62164 30.3821 4.20883 26.8115 4.19922 23.1C4.1994 19.5638 5.47394 16.1461 7.78923 13.4733C10.1045 10.8005 13.3055 9.05154 16.8055 8.54702ZM35.8294 21C36.8752 21 37.7761 20.2314 37.7971 19.1856L37.7992 18.9C37.7993 16.9455 37.4096 15.0106 36.653 13.2085C35.8963 11.4063 34.7878 9.77322 33.3925 8.40462C31.9971 7.03602 30.3428 5.95944 28.5263 5.23784C26.7099 4.51625 24.7678 4.16414 22.8136 4.20212C21.7678 4.22312 20.9992 5.12612 20.9992 6.16982V18.9C20.9992 19.457 21.2205 19.9911 21.6143 20.3849C22.0081 20.7788 22.5423 21 23.0992 21H35.8294Z" fill="#185CFF"/>
</svg>
