<svg width="179" height="186" viewBox="0 0 179 186" fill="none" xmlns="http://www.w3.org/2000/svg">
<path fill-rule="evenodd" clip-rule="evenodd" d="M97.2363 0.687134C97.0256 0.735787 96.8216 0.809838 96.6286 0.907676C96.2487 1.00705 95.8554 1.04429 95.4637 1.01795C93.9865 1.01795 94.0794 1.46751 95.9195 3.28273C96.7453 4.0688 97.5074 4.91973 98.1986 5.82744L98.494 6.17521C98.6544 6.35334 98.5869 6.36183 97.5993 6.28549C94.13 6.03101 92.9229 5.98012 89.5634 5.98012C81.8296 5.91365 74.1227 6.90383 66.6544 8.9235L65.4473 9.23734C65.1856 9.29672 64.8396 9.39851 64.6707 9.45788C64.5019 9.51726 63.9701 9.68691 63.4721 9.83111C61.6573 10.374 57.3355 11.8923 56.331 12.3758L55.0142 12.9272C48.7003 15.5143 38.5288 21.5198 34.5615 25.006L33.8271 25.6168C32.1389 26.9655 31.5565 27.4744 31.2948 27.6949L30.2144 28.7213C27.6868 30.9898 25.2885 33.3998 23.031 35.9398C22.5668 36.4657 22.1109 36.9831 22.0097 37.0849C21.9084 37.1867 21.6129 37.5514 21.3513 37.8738C20.4649 38.9849 19.5871 40.0537 19.3338 40.3506C16.8015 43.2092 12.4037 50.3089 9.7448 55.6697C8.15789 58.7912 8.26762 58.5961 7.42351 60.5386C7.09431 61.3359 6.74823 62.1502 6.66382 62.3453C6.57941 62.5404 6.25021 63.4141 5.93789 64.2793C5.62557 65.1445 5.33013 65.9758 5.27105 66.086C5.11911 66.4762 4.48603 68.4187 4.19903 69.4026C4.05553 69.8946 3.89515 70.4375 3.83607 70.6071C3.65036 71.1161 2.99196 73.6862 2.56147 75.5523C-0.626093 89.7282 -0.374219 104.466 3.29584 118.524C3.40557 118.923 3.54063 119.457 3.60816 119.728C3.67027 119.992 3.74635 120.253 3.83607 120.509C3.89515 120.678 4.05553 121.221 4.19903 121.713C4.34253 122.205 4.50291 122.731 4.55356 122.858C4.6042 122.986 4.77302 123.478 4.91652 123.944C5.06002 124.411 5.2204 124.894 5.27105 125.03C5.32169 125.166 5.57492 125.878 5.81971 126.54C6.23333 127.702 6.44435 128.236 6.72291 128.889C6.77355 129.017 7.05211 129.67 7.32222 130.331C8.10724 132.214 8.21697 132.452 9.63507 135.336C10.3694 136.829 11.1967 138.44 11.4837 138.924C11.7707 139.407 11.9986 139.823 11.9986 139.857C11.9986 139.891 14.6659 144.268 15.0205 144.675C15.0796 144.743 15.2484 145.014 15.4088 145.277C15.5141 145.468 15.6356 145.65 15.7717 145.82C15.7717 145.82 16.1853 146.397 16.6158 147.025C17.3249 148.068 19.5618 151.105 19.739 151.266C19.739 151.266 20.026 151.597 20.2792 151.927C20.9883 152.776 21.2162 153.089 21.4188 153.302C21.6214 153.514 21.8155 153.768 22.0772 154.09C22.3389 154.413 22.7187 154.854 22.9213 155.057C23.1239 155.261 23.4784 155.651 23.7147 155.906L24.1537 156.389L23.6894 156.924C22.9466 157.772 23.2421 158.128 24.0693 157.399C24.5251 156.991 24.6601 156.949 24.6601 157.212C24.6601 157.314 24.4576 157.492 24.2128 157.602C23.2589 158.069 23.8836 158.23 25.538 157.958C25.5971 157.958 25.6731 158.001 25.6984 158.069C25.7237 158.136 25.4789 158.238 25.0231 158.289C23.5037 158.459 23.0395 158.857 23.0395 159.986C23.0395 161.453 23.6303 161.801 24.8965 161.071C25.3017 160.834 25.3185 160.91 24.9809 161.453C24.829 161.708 24.6264 162.047 24.542 162.2L24.39 162.488L25.1835 162.437C25.4449 162.38 25.7155 162.38 25.977 162.437C25.977 162.564 25.4114 162.904 25.2004 162.904C24.6264 162.904 25.1244 163.582 25.977 163.964C26.9024 164.374 27.903 164.585 28.9144 164.583C33.2194 164.914 33.8187 165.084 34.7303 166.161C34.8832 166.292 35.0439 166.414 35.2115 166.526C35.5922 166.781 35.9533 167.064 36.2919 167.374C36.4404 167.512 36.6047 167.631 36.7815 167.73C36.8994 167.786 37.0076 167.86 37.1023 167.951C37.2373 168.061 37.4652 168.239 37.6172 168.341C37.7691 168.443 37.997 168.604 38.1405 168.714C41.327 170.935 44.6355 172.974 48.0503 174.821C48.2964 174.935 48.536 175.062 48.7678 175.203C48.8691 175.313 51.9416 176.789 53.2669 177.366L54.111 177.739L54.9551 178.104L55.9764 178.537C56.4639 178.76 56.9626 178.959 57.4705 179.13C57.7997 179.241 58.2387 179.41 58.4328 179.487C58.6269 179.563 59.1418 179.758 59.5723 179.911C60.0028 180.063 60.4586 180.216 60.5937 180.275C60.7288 180.335 61.2099 180.496 61.6742 180.64C62.1384 180.784 62.6196 180.946 62.7546 181.005C63.2442 181.217 68.7984 182.701 70.1321 182.981L71.871 183.346C75.0182 183.992 78.2003 184.454 81.4009 184.729L84.2287 184.975C85.9169 185.127 93.0074 185.127 94.8222 184.975L97.7175 184.729C102.679 184.303 107.596 183.452 112.413 182.184L113.966 181.751L116.549 180.962L116.972 180.852C117.14 180.812 117.301 180.75 117.453 180.666C117.623 180.579 117.805 180.519 117.993 180.487C118.199 180.446 118.396 180.369 118.575 180.258C118.668 180.182 118.753 180.148 118.761 180.182C119.379 180.03 119.984 179.826 120.567 179.571L121.952 179.037C122.576 178.808 123.193 178.562 123.328 178.503L124.172 178.129C126.442 177.162 126.999 176.908 129.633 175.585C131.156 174.862 132.641 174.061 134.082 173.184C134.492 172.917 134.924 172.684 135.373 172.489C135.449 172.489 135.508 172.446 135.508 172.395C135.508 172.344 135.711 172.192 135.955 172.065C136.566 171.727 137.158 171.356 137.728 170.953C137.796 170.894 138.066 170.724 138.327 170.563C138.516 170.455 138.697 170.333 138.868 170.198C139.039 170.064 139.219 169.942 139.408 169.834C139.67 169.672 139.94 169.494 140.007 169.443C140.075 169.393 141.636 168.273 142.033 168.001C142.159 167.915 142.28 167.822 142.396 167.722C142.611 167.541 142.836 167.374 143.071 167.221C143.402 166.989 143.72 166.74 144.025 166.475C144.175 166.33 144.342 166.204 144.523 166.101C144.676 166.021 144.815 165.918 144.937 165.796L145.528 165.287L146.372 164.592C146.701 164.329 147.022 164.057 147.098 163.989C147.174 163.921 147.494 163.642 147.815 163.37L148.659 162.607C150.398 161.105 154.72 156.754 156.256 154.973C157.151 153.921 157.489 153.531 157.632 153.369L158.24 152.64C158.873 151.843 159.16 151.486 159.346 151.3C159.531 151.113 159.692 150.876 159.936 150.562C160.094 150.338 160.263 150.123 160.443 149.917C160.598 149.725 160.742 149.524 160.873 149.315C161.068 149.018 161.287 148.713 161.355 148.628L161.599 148.331C161.667 148.246 161.988 147.797 162.308 147.33C162.523 147.003 162.76 146.691 163.017 146.397C163.093 146.346 163.11 146.304 163.017 146.304C162.925 146.304 163.017 146.227 163.077 146.125C163.397 145.778 163.541 145.591 163.541 145.532C163.792 145.081 164.089 144.657 164.427 144.268C164.512 144.208 164.512 144.183 164.427 144.175C164.343 144.166 164.368 144.132 164.427 144.081C164.7 143.755 164.94 143.403 165.145 143.029C165.336 142.674 165.563 142.339 165.82 142.029C165.831 142.019 165.839 142.007 165.845 141.994C165.851 141.981 165.854 141.967 165.854 141.952C165.854 141.938 165.851 141.923 165.845 141.91C165.839 141.897 165.831 141.885 165.82 141.876C165.82 141.816 165.82 141.766 165.879 141.766C165.894 141.767 165.91 141.765 165.925 141.76C165.94 141.755 165.953 141.747 165.965 141.737C165.977 141.727 165.986 141.714 165.993 141.7C166 141.686 166.005 141.671 166.006 141.655C166.215 141.199 166.455 140.757 166.723 140.332C166.993 139.904 167.236 139.459 167.449 139C167.448 138.971 167.455 138.941 167.47 138.916C167.485 138.89 167.507 138.869 167.533 138.856C167.692 138.661 167.823 138.444 167.922 138.211C168.031 137.984 168.152 137.764 168.285 137.55C168.428 137.406 170.817 132.35 171.399 130.976C171.67 130.314 171.973 129.61 172.066 129.407C172.159 129.203 172.37 128.635 172.547 128.143C172.659 127.792 172.8 127.452 172.969 127.125C173.071 126.913 173.15 126.692 173.206 126.463C173.301 126.114 173.42 125.771 173.56 125.437C173.788 124.928 174.81 121.747 175.249 120.186C175.637 118.812 176.228 116.539 176.27 116.276C176.27 116.14 176.413 115.572 176.548 115.004C176.684 114.435 176.819 113.791 176.861 113.562C176.903 113.333 176.962 113.002 176.996 112.841C177.03 112.68 177.114 112.238 177.173 111.874C177.232 111.509 177.317 111.076 177.35 110.907C177.384 110.737 177.469 110.22 177.536 109.745C177.604 109.27 177.688 108.752 177.713 108.6C177.907 107.607 178.304 103.926 178.465 101.627C178.574 100.049 178.574 91.2786 178.465 89.5737C178.414 88.8781 178.321 87.7076 178.245 86.9781C178.169 86.2486 178.085 85.4682 178.059 85.2307C178.034 84.9932 177.967 84.3825 177.891 83.8481C177.815 83.3137 177.73 82.6945 177.696 82.4655C177.637 81.9905 177.359 80.3618 177.165 79.2676C177.089 78.8689 177.013 78.4194 176.987 78.3006C176.911 77.8596 176.675 76.7823 176.439 75.7559C176.363 75.4251 176.278 75.0349 176.253 74.9077C176.228 74.7805 176.059 74.1188 175.89 73.4657C175.721 72.8125 175.561 72.1933 175.544 72.0916C175.249 70.8616 174.016 66.9513 173.392 65.3057C173.25 64.9643 173.146 64.6089 173.079 64.2454C173.079 64.1181 173.029 64.0079 172.961 64.0079C172.927 64.0036 172.895 63.9863 172.873 63.9595C172.851 63.9326 172.84 63.8983 172.843 63.8637C172.784 63.5738 172.699 63.2899 172.59 63.0154C172.319 62.3368 172.218 62.0739 171.745 61.0221C171.374 60.1738 171.231 59.8261 171.205 59.7582C171.18 59.6904 171.121 59.5377 171.045 59.3341C170.969 59.1305 170.817 58.7827 170.429 57.9515L170.218 57.5274C170.142 57.3916 169.72 56.5519 169.281 55.6612C168.437 54.0411 167.947 53.0232 167.432 52.1071L166.959 51.1401C166.86 50.934 166.732 50.7427 166.58 50.5718C166.504 50.5125 166.504 50.4785 166.58 50.4785C166.656 50.4785 166.656 50.4361 166.58 50.3852C166.144 49.8539 165.791 49.259 165.533 48.6209C165.575 48.6209 165.533 48.5445 165.533 48.5445C165.533 48.5445 165.288 48.3155 165.128 48.0356C164.967 47.7557 164.697 47.3146 164.512 47.0517C164.371 46.8777 164.257 46.6832 164.174 46.4749C164.155 46.3802 164.111 46.2924 164.047 46.2204C163.566 45.6436 163.448 45.4824 163.448 45.3722C163.45 45.3345 163.442 45.2969 163.426 45.2629C163.41 45.2289 163.385 45.1994 163.355 45.1771C162.838 44.6008 162.369 43.9823 161.954 43.3279C161.853 43.1837 161.718 42.9971 161.65 42.9208C161.582 42.8444 161.371 42.539 161.177 42.2422C161.01 41.9903 160.827 41.7494 160.629 41.5212C160.455 41.3313 160.295 41.1301 160.147 40.9189C159.834 40.4599 159.496 40.0182 159.135 39.5957C158.29 38.5948 157.818 37.984 157.657 37.8229C157.497 37.6617 157.522 37.6617 157.548 37.6617C157.428 37.4756 157.286 37.3047 157.126 37.1528C156.864 36.8728 156.484 36.4318 156.282 36.1773C156.079 35.9228 155.623 35.4224 155.285 35.0661C154.948 34.7098 154.686 34.413 154.695 34.413C154.703 34.413 150.55 30.2481 150.474 30.1718C150.459 30.1676 150.445 30.1599 150.433 30.1492C150.421 30.1386 150.412 30.1253 150.406 30.1104C150.4 30.0956 150.398 30.0796 150.4 30.0637C150.401 30.0478 150.406 30.0326 150.415 30.0191C150.415 29.9597 150.415 29.9088 150.364 29.9088C150.147 29.7912 149.951 29.6394 149.782 29.4593C149.52 29.2048 148.862 28.611 148.305 28.1275L147.14 27.2114C147.072 27.1436 146.642 26.7873 146.178 26.4141C145.713 26.0409 145.224 25.6422 145.072 25.5235C143.865 24.4886 141.265 22.5886 138.859 20.9854C138.133 20.5019 137.492 20.0608 137.424 20.0099C137.357 19.959 133.651 17.7027 132.68 17.1599C130.992 16.2183 126.653 14.0808 124.83 13.3004L122.551 12.3249C122.348 12.2401 121.487 11.9178 120.626 11.6039C119.765 11.2901 118.938 10.9932 118.829 10.9338C118.44 10.7726 116.507 10.145 115.528 9.85655L114.329 9.48333C113.283 9.11011 108.91 8.0583 106.353 7.5748L105.095 7.32881L104.099 7.1422C103.837 7.09979 103.677 7.01497 103.727 6.94711C103.778 6.87925 103.221 6.09887 103.061 6.09887C102.887 6.20063 102.728 6.32625 102.588 6.4721C101.651 7.32033 100.858 6.87925 99.5998 4.77563C99.1958 3.98097 98.6188 3.28804 97.9116 2.74835C97.7618 2.66479 97.6477 2.529 97.5909 2.36664C97.5149 2.07824 97.5402 2.06976 97.9791 2.29878L98.3168 2.47691L98.6966 1.67957C98.8648 1.3842 98.9738 1.05856 99.0174 0.721065C98.9499 0.542935 97.8525 0.509005 97.2026 0.67017M96.6032 7.05738C97.135 7.12524 97.9285 7.21854 98.3759 7.25247L99.22 7.32881L99.6251 8.17705C100.441 9.94138 100.461 10.931 99.6842 11.1459C99.3297 11.2477 99.2115 11.341 99.2115 11.5191C100.082 13.1864 101.126 14.756 102.326 16.2014C102.613 16.5067 103.542 17.7621 104.251 18.7969C104.641 19.4153 105.081 19.9998 105.568 20.5443C105.812 20.8073 106.944 22.2408 107.062 22.4698C107.18 22.6988 107.112 22.614 106.935 22.5461C104.628 21.9903 102.292 21.5655 99.9375 21.2738C94.623 20.5527 89.2494 20.3765 83.8995 20.7479C80.5229 20.9929 77.1652 21.4519 73.8462 22.122L72.2846 22.4868L70.7905 22.843C69.1023 23.2926 66.2577 24.1578 65.9285 24.2935C65.8018 24.3529 65.2616 24.548 64.7298 24.7176C63.5818 25.1078 62.2988 25.5659 61.9696 25.7355C61.843 25.8034 61.4378 25.9645 61.0833 26.1087C60.7288 26.2529 60.1548 26.482 59.8171 26.6346L58.1964 27.3811C56.9303 27.9494 53.8493 29.5356 53.25 29.9258C53.0862 30.038 52.9107 30.1319 52.7266 30.2057C52.2624 30.2057 43.4415 36.2451 42.8422 36.9916C42.8422 36.9916 42.513 37.28 42.1838 37.5429C41.8546 37.8059 41.5169 38.0773 41.4494 38.1452L40.6053 38.8662C39.3307 39.9519 38.7229 40.5627 36.714 42.5475C35.4295 43.7839 34.2095 45.0863 33.059 46.4494L32.3331 47.2976C32.2655 47.3655 31.9954 47.6963 31.7337 48.0271C31.4721 48.3579 31.2188 48.6633 31.1851 48.6972C30.4929 49.2655 24.4829 58.1381 24.4829 58.5961C24.4068 58.7912 24.3076 58.9763 24.1874 59.1475C23.8245 59.7158 22.1616 62.9985 21.6551 64.0927L20.963 65.6195C20.7773 66.0267 20.5156 66.6544 20.3805 67.0021C20.2455 67.3499 20.0851 67.7571 20.0851 67.9267C19.9332 68.2575 19.4605 69.5468 19.0806 70.7004C18.9033 71.2263 18.7092 71.7692 18.6501 71.9049C18.591 72.0407 18.0086 73.9407 17.6541 75.2215L17.2827 76.5448C17.1814 76.9095 16.9872 77.6984 16.8522 78.2921C16.7171 78.8859 16.5567 79.5984 16.4892 79.8614C16.3626 80.4127 16.2107 81.2186 15.9405 82.7539C14.0215 94.0842 14.6795 105.704 17.8651 116.743C18.2872 118.176 19.6124 122.137 19.7221 122.29C19.8643 122.585 19.9883 122.888 20.0935 123.198C20.2455 123.622 20.4059 124.046 20.4481 124.097C20.5624 124.334 20.6639 124.578 20.7519 124.826C21.8674 127.435 23.1184 129.983 24.4998 132.46C24.6348 132.706 24.8205 133.029 24.9049 133.19C24.9739 133.31 25.05 133.426 25.1328 133.538C25.1328 133.538 25.2763 133.758 25.3861 133.962C25.5971 134.36 27.0743 136.778 27.2516 136.973C27.4288 137.168 27.5639 137.423 27.8255 137.821C28.0872 138.22 28.332 138.568 28.3658 138.602C28.3995 138.636 28.6443 138.975 28.906 139.374C29.6488 140.468 29.9696 140.765 30.3916 140.765C30.8137 140.765 30.8812 140.697 30.0287 139.543C29.0073 138.161 26.6522 134.666 26.6522 134.513C26.6534 134.496 26.6512 134.48 26.6459 134.464C26.6406 134.448 26.6322 134.433 26.6212 134.421C26.6102 134.408 26.5969 134.398 26.5819 134.39C26.567 134.383 26.5507 134.379 26.5341 134.377C26.5178 134.377 26.5017 134.374 26.4868 134.368C26.4719 134.361 26.4585 134.352 26.4474 134.34C26.4363 134.328 26.4278 134.314 26.4223 134.298C26.4169 134.283 26.4147 134.266 26.4159 134.25C26.3044 133.975 26.1629 133.713 25.9938 133.47C25.8377 133.236 25.6967 132.992 25.5718 132.74C25.5201 132.599 25.446 132.467 25.3523 132.35C24.9387 131.748 22.9382 127.871 22.2967 126.413L21.7733 125.301C21.6045 124.911 21.3259 124.266 21.1571 123.851C20.9883 123.435 20.8026 123.003 20.7351 122.858C20.5916 122.562 19.7812 120.246 19.2494 118.617C17.5572 113.495 16.4499 108.196 15.949 102.823L15.7295 100.16C15.3586 93.2078 15.9036 86.2372 17.3502 79.4288C17.4599 78.9707 17.595 78.3685 17.6541 78.0971C18.3274 75.3795 19.1388 72.6984 20.0851 70.0643C20.1695 69.8692 20.389 69.2924 20.5662 68.8004C20.7435 68.3084 20.963 67.7401 21.0474 67.5365C21.1318 67.333 21.4441 66.6289 21.7142 65.9673C22.8024 63.4675 24.0311 61.032 25.3945 58.6725C25.5064 58.5201 25.5999 58.355 25.6731 58.1805C25.6731 58.0617 27.8424 54.584 28.6359 53.4389C30.0118 51.437 32.8564 47.7472 33.9453 46.6106L35.279 45.2195C37.0162 43.3211 38.8504 41.5148 40.7741 39.8077L41.728 38.9595C42.1162 38.6117 43.2811 37.6532 44.0239 37.0849L44.9778 36.3384C45.7459 35.6938 49.3671 33.2085 50.7346 32.3857C50.9231 32.2804 51.1036 32.1613 51.2748 32.0294C51.3874 31.9428 51.5091 31.8688 51.6377 31.8089C51.9377 31.6726 52.221 31.5018 52.4819 31.2999C52.632 31.1946 52.7901 31.101 52.9546 31.02L54.1616 30.3669C55.1661 29.807 58.7198 28.0257 59.4964 27.6949L60.3405 27.3217L61.1846 26.9655C61.5138 26.8297 61.8768 26.6601 62.0287 26.5922C62.1384 26.5321 62.2589 26.4946 62.3832 26.482C62.5493 26.4532 62.7093 26.3959 62.8559 26.3123C63.2073 26.1494 63.5681 26.0078 63.9364 25.8882C64.35 25.744 64.7805 25.5828 64.9324 25.5235C65.27 25.3708 67.144 24.7516 68.2329 24.4377C68.7309 24.2935 69.2711 24.1239 69.4315 24.0645C69.5919 24.0051 69.9802 23.8948 70.2756 23.827L71.5333 23.5131C83.2996 20.5604 95.6052 20.5371 107.382 23.4453C107.576 23.487 107.762 23.5615 107.931 23.6658C108.108 23.8779 109.501 26.1003 109.501 26.2105C109.588 26.4176 109.699 26.6139 109.83 26.7958C110.008 27.0672 110.261 27.4998 110.387 27.7458C110.734 28.4329 112.396 28.2632 112.194 27.5677C111.888 26.8631 111.475 26.2106 110.97 25.6337C110.48 25.0739 110.539 24.9127 111.08 25.3368C112.768 26.5922 113.696 26.6431 112.852 25.4132C112.481 24.8873 112.481 24.8873 113.097 25.5319L113.713 26.1851L113.435 26.4735C113.316 26.5881 113.225 26.729 113.169 26.8851C113.114 27.0411 113.095 27.208 113.115 27.3725C113.134 27.5371 113.192 27.6948 113.282 27.8332C113.373 27.9716 113.495 28.0869 113.637 28.1699C114.912 28.6195 114.777 28.4329 114.777 29.7646C114.791 30.224 114.766 30.6838 114.701 31.1388C114.583 31.4441 114.38 31.3593 114.465 31.037C114.549 30.7147 114.465 30.6468 114.135 30.316C113.864 30.01 113.615 29.6839 113.392 29.3405C113.046 28.7976 112.937 28.7383 112.38 28.7892C111.535 28.8655 111.62 29.9682 112.548 30.7825C113.477 31.5968 115.013 34.9558 115.013 35.9228C115.118 36.416 115.341 36.876 115.663 37.263C115.857 37.3903 116.195 37.263 116.938 36.7541C117.23 36.5478 117.541 36.3689 117.866 36.2197C118.018 36.1688 118.136 36.084 118.136 36.0161C118.136 35.7532 118.499 35.9398 118.567 36.2367C118.613 36.421 118.708 36.5894 118.842 36.7238C118.976 36.8582 119.143 36.9537 119.327 37.0001C119.535 37.0392 119.734 37.1138 119.917 37.2206L120.323 37.4412L119.901 37.509C119.588 37.5705 119.29 37.6936 119.025 37.8713C118.76 38.0489 118.533 38.2775 118.356 38.5439L118.179 38.9171L117.79 38.0688C117.394 37.2206 116.946 36.9577 116.372 37.3224C116.237 37.4072 116.853 39.5787 117.647 41.8605C117.816 42.3355 117.9 42.3524 116.212 41.5212C114.25 40.5273 112.229 39.6576 110.16 38.9171C109.56 38.705 108.969 38.4845 108.834 38.4251C108.699 38.3657 106.015 37.5345 105.298 37.3478C103.525 36.8728 102.976 36.7371 101.398 36.4233C92.1649 34.5899 82.6356 34.9208 73.5507 37.3903C72.2846 37.7465 70.4866 38.2979 70.2503 38.3912C70.0139 38.4845 69.7354 38.5863 69.4062 38.6965C67.2939 39.4387 65.2326 40.3199 63.2358 41.3346C52.2117 46.7463 42.1331 56.3059 36.9756 66.3575L36.4439 67.3499C36.0134 68.1982 36.0134 68.1981 36.3172 68.0455C36.8743 67.8334 37.0601 67.6892 37.2373 67.3584C38.4557 65.0758 39.8146 62.8718 41.3059 60.7591C41.365 60.6913 41.7955 60.123 42.2597 59.4868C43.0448 58.435 44.3109 56.8827 45.3576 55.6952C47.292 53.6089 49.3347 51.627 51.4774 49.7575C51.6449 49.6245 51.8055 49.483 51.9585 49.3334C52.0092 49.274 55.3349 46.7887 55.7401 46.4833C56.1453 46.178 57.2848 45.4485 58.1964 44.8717L59.4542 44.0744C59.627 43.9676 59.8076 43.874 59.9944 43.7944C60.1249 43.7471 60.2453 43.6751 60.3489 43.5824C60.4587 43.4382 64.1896 41.5296 65.3291 41.0377L66.1732 40.6729C69.6912 39.1565 73.3461 37.9834 77.0875 37.1697C80.827 36.3772 84.636 35.9623 88.4576 35.9313C94.2732 35.7994 100.075 36.5486 105.669 38.1537C106.96 38.5184 109.738 39.426 110.168 39.6296L111.071 39.9859C111.434 40.1216 111.831 40.2827 111.966 40.3506L113.654 41.0886C115.528 41.8605 117.917 43.2176 118.018 43.5484C118.077 43.7435 118.17 44.015 118.221 44.1507C118.271 44.2864 118.44 44.7953 118.584 45.2958C118.727 45.7963 118.93 46.3985 119.023 46.653C119.142 46.8881 119.192 47.1521 119.168 47.4148C119.144 47.6774 119.047 47.9279 118.888 48.1374C118.288 49.274 118.719 50.7669 119.512 50.2919L119.85 50.0883L119.554 50.3428L119.099 50.7245C118.795 50.979 118.913 51.7169 119.251 51.6321L119.85 51.4879C120.019 51.4455 120.154 51.4879 120.154 51.4879C120.154 51.4879 119.403 51.8527 118.685 51.9205C117.968 51.9884 117.841 52.0902 117.714 53.8121C117.687 54.6005 117.603 55.3858 117.461 56.1617C117.115 57.7224 116.094 57.1202 126.063 61.2511C130.891 63.2275 136.918 65.7128 139.458 66.7646C144.827 68.9785 144.126 68.7919 144.523 68.1557C145.916 65.9503 149.267 64.7628 152.475 65.3481C153.006 65.4499 153.487 65.5262 153.555 65.5347C153.918 65.5347 153.994 65.7383 153.85 66.2302C153.707 66.7222 154.095 68.3678 154.365 68.2745C154.976 67.492 155.489 66.6374 155.893 65.7298C155.893 65.7298 155.758 65.6704 155.598 65.6704C155.015 65.6704 154.897 65.1615 155.125 63.5329C155.226 62.7525 155.336 62.0993 155.353 62.0739C155.37 62.0484 156.974 65.2548 156.974 65.365C156.974 65.4753 157.489 66.578 157.818 67.299C158.037 67.7571 159.236 71.0397 159.649 72.3036C160.063 73.5675 160.215 74.0679 160.696 75.7983C161.118 77.3167 161.16 77.4948 161.414 78.6314C161.549 79.2252 161.709 79.9292 161.777 80.2007C162.495 83.6783 162.977 87.2009 163.22 90.7442C163.38 92.763 163.313 99.7355 163.11 102.017C162.718 106.255 161.996 110.456 160.949 114.58C160.502 116.276 160.105 117.548 160.038 117.769C159.97 117.99 159.818 118.397 159.675 118.855C159.531 119.313 159.371 119.805 159.32 119.94C159.27 120.076 159.016 120.789 158.763 121.45C158.609 121.92 158.432 122.381 158.231 122.833C158.118 123.067 158.02 123.308 157.936 123.554C157.818 123.893 157.59 124.462 157.429 124.826C157.269 125.191 156.906 125.971 156.644 126.574C156.037 127.922 154.627 130.688 154.112 131.587C153.954 131.827 153.816 132.079 153.699 132.342C152.269 134.808 150.717 137.2 149.048 139.509C148.203 140.654 148.203 140.731 148.651 140.731C149.621 140.731 153.715 134.522 156.45 128.855C156.991 127.744 157.48 126.743 157.539 126.642C157.742 126.243 159 123.249 159.354 122.282C165.107 107.079 165.8 90.4122 161.329 74.7805L161.017 73.6947C160.519 71.9982 158.957 67.6638 158.257 66.0606C157.556 64.4574 157.269 63.8637 156.501 62.286C155.581 60.4029 155.48 59.877 156.104 60.2163C156.729 60.5556 158.088 59.368 159.481 57.2305C160.325 56.0005 160.325 55.992 160.08 55.7376C159.79 55.0266 159.766 54.2341 160.012 53.5067C160.083 53.3998 160.12 53.2744 160.12 53.1462C160.12 53.018 160.083 52.8926 160.012 52.7857C159.844 52.4549 159.852 52.4125 160.131 52.0902C160.409 51.7678 160.418 51.6661 160.342 51.3692C160.19 50.6991 160.249 50.5209 161.304 48.341L162.351 46.1949L162.123 45.8896C161.912 45.6012 161.279 45.3637 160.164 45.1007C159.967 45.0388 159.798 44.906 159.692 44.7275C159.287 43.9641 156.813 43.752 155.581 44.3797C154.712 44.8499 153.887 45.3978 153.116 46.0168C153.095 46.0466 153.067 46.0706 153.035 46.0869C153.003 46.1032 152.967 46.1112 152.93 46.1101C152.623 46.3485 152.355 46.6348 152.137 46.9584C151.774 47.4418 151.453 47.8575 151.411 47.8914C151.369 47.9253 151.056 48.324 150.71 48.7396C150.3 49.3404 149.708 49.7925 149.022 50.029C148.795 49.8524 148.601 49.637 148.448 49.3928C146.608 46.9951 144.606 44.7278 142.455 42.6069C139.863 39.8998 137.038 37.4275 134.014 35.2188L131.912 33.658L131.431 33.3357C131.183 33.1615 130.949 32.9687 130.73 32.7589C130.589 32.5971 130.404 32.4794 130.199 32.4196C129.331 32.084 128.571 31.5147 128.004 30.774C127.823 30.3195 127.501 29.9355 127.086 29.6789C126.671 29.4223 126.185 29.3066 125.7 29.349C124.855 29.349 124.729 29.2642 123.1 28.4329C122.137 27.9409 120.829 27.3047 120.188 27.0079C119.775 26.8495 119.381 26.6447 119.014 26.3971C118.968 26.2779 118.896 26.1706 118.803 26.0833C118.685 25.9561 118.221 25.3623 117.773 24.7685C116.668 23.2841 116.642 23.2587 116.465 23.2587C115.95 23.2587 115.621 22.5461 115.621 21.5113C115.621 20.6631 115.621 20.468 115.385 20.3068C115.148 20.1456 115.342 20.222 115.579 20.3577C115.838 20.5037 116.126 20.5906 116.423 20.6122H116.811L116.727 19.8063C116.679 19.3688 116.588 18.937 116.457 18.517C116.333 18.1123 116.243 17.6981 116.186 17.2786C116.126 16.7701 115.943 16.284 115.655 15.8621C115.495 15.626 115.351 15.3795 115.224 15.1241C115.224 15.1241 114.912 14.5982 114.54 14.0214C113.798 12.8848 113.654 12.1892 114.017 11.4767C114.211 11.1204 114.135 10.9932 113.823 11.1544C113.573 11.2737 113.317 11.3785 113.055 11.4682C112.727 11.5683 112.435 11.7595 112.211 12.0196C111.898 12.4437 111.595 12.4776 111.282 12.1298C111.102 11.9504 110.89 11.8066 110.658 11.7057C110.134 11.4852 110.261 11.2901 110.936 11.2901C111.232 11.2901 111.468 11.2392 111.468 11.1713C111.411 11.0357 111.328 10.9127 111.224 10.8094C111.119 10.7061 110.996 10.6244 110.86 10.5691C110.268 10.2863 109.717 9.92387 109.223 9.49181C108.962 9.27519 108.679 9.08749 108.379 8.93198C107.897 8.67751 107.864 8.6351 108.167 8.68599C108.784 8.78778 110.767 9.26279 112.253 9.66146C112.641 9.77173 113.181 9.90745 113.452 9.97531C113.722 10.0432 114.068 10.145 114.228 10.2043C114.389 10.2637 115.174 10.5097 115.967 10.7472C116.76 10.9847 117.512 11.2392 117.655 11.2901C117.799 11.341 118.246 11.5106 118.677 11.6548C119.107 11.799 119.521 11.9687 119.664 12.028C119.774 12.087 119.895 12.1244 120.019 12.1383C120.238 12.193 120.45 12.2727 120.652 12.3758C120.852 12.4815 121.065 12.5613 121.285 12.6133C121.412 12.6339 121.535 12.677 121.648 12.7406C121.758 12.7999 122.34 13.0544 122.931 13.2834L124.256 13.8263C127.114 15.0651 129.904 16.4583 132.613 17.9996C132.777 18.113 132.953 18.2096 133.136 18.288C133.229 18.288 138.099 21.2823 138.201 21.418C138.302 21.5537 138.589 21.6979 138.986 21.9609L139.83 22.5377C139.897 22.5886 140.328 22.9024 140.792 23.2247C141.256 23.5471 141.687 23.8609 141.746 23.9203L142.472 24.4632C143.173 24.9891 143.088 24.9212 144.16 25.761C145.232 26.6007 145.916 27.169 147.393 28.4583C149.377 30.1548 153.471 34.2179 155.209 36.1688L156.341 37.4412C156.442 37.5429 156.737 37.9077 156.999 38.23C157.843 39.2225 157.953 39.4091 158.139 39.6126C158.309 39.8079 158.47 40.0118 158.62 40.2234C158.749 40.4151 158.893 40.5966 159.05 40.7662C160.012 41.6145 165.6 50.0968 166.9 52.7009C167.003 52.9325 167.128 53.154 167.272 53.3625C167.449 53.5067 170.446 59.7752 170.868 60.8948C170.994 61.2257 171.155 61.6074 171.214 61.7431C171.471 62.2303 171.672 62.7454 171.813 63.2784C171.819 63.3785 171.858 63.4739 171.923 63.5498C172.092 63.7449 173.814 68.7665 174.295 70.4799C174.776 72.1933 175.215 73.8728 175.35 74.4581C175.915 76.8671 176.067 77.5966 176.439 79.6408C176.844 81.8462 177.283 84.9423 177.443 87.275C177.519 88.1232 177.629 89.3786 177.688 90.1165C177.848 91.813 177.848 99.1078 177.688 100.83C177.629 101.559 177.519 102.84 177.443 103.671C177.021 108.453 176.202 113.192 174.995 117.837C174.886 118.227 174.751 118.77 174.683 119.041C174.624 119.306 174.548 119.567 174.455 119.822C174.396 119.991 174.236 120.534 174.092 121.026C173.712 122.333 172.784 125.149 172.649 125.395C172.588 125.508 172.548 125.632 172.531 125.759C172.502 125.926 172.445 126.087 172.362 126.234C172.254 126.453 172.172 126.684 172.117 126.921C172.092 127.083 172.025 127.235 171.923 127.363C171.886 127.397 171.858 127.44 171.839 127.486C171.82 127.533 171.811 127.583 171.813 127.634C171.765 127.873 171.685 128.104 171.577 128.321C171.482 128.501 171.403 128.688 171.34 128.881C171.235 129.17 171.114 129.453 170.977 129.729C170.841 130.005 170.72 130.288 170.614 130.577C170.614 130.823 167.567 137.049 166.807 138.339C166.529 138.822 166.293 139.238 166.293 139.272C166.293 139.306 163.912 143.25 163.296 144.158L162.773 144.938C161.929 146.219 160.924 147.644 160.004 148.857C159.084 150.07 158.94 150.265 158.679 150.553L158.079 151.3C157.362 152.19 157.142 152.47 156.94 152.682L156.349 153.352C154.922 155.049 154.213 155.795 151.901 158.111C149.588 160.427 148.769 161.207 147.165 162.581L146.498 163.175C146.279 163.379 145.983 163.625 145.122 164.312C144.793 164.575 144.498 164.829 144.464 164.863C144.219 165.16 140.657 167.764 138.555 169.206C136.935 170.3 133.288 172.599 133.153 172.599C133.018 172.599 132.706 172.836 132.224 173.116C131.49 173.557 126.316 176.153 125.598 176.509C125.463 176.56 125.007 176.764 124.577 176.959C121.481 178.283 118.32 179.446 115.106 180.445C114.363 180.674 114.009 180.776 112.287 181.293C110.911 181.667 110.717 181.717 109.645 181.963L108.083 182.32C104.668 183.038 101.216 183.567 97.7428 183.906C94.6949 184.22 91.6297 184.33 88.5674 184.237C86.2883 184.237 84.0514 184.143 83.5871 184.101L81.3671 183.906C76.6119 183.476 71.8999 182.653 67.279 181.446L66.072 181.132C65.8103 181.064 65.4642 180.962 65.2954 180.903C65.1266 180.844 64.5948 180.683 64.0967 180.538C62.341 180.021 58.4497 178.681 57.7997 178.367L56.8965 178.011L56.0018 177.646L54.9804 177.213C50.4354 175.226 46.0499 172.89 41.863 170.224C39.145 168.417 35.3887 165.728 35.068 165.363C35.068 165.321 34.7472 165.084 34.4349 164.829C33.7934 164.312 33.8018 164.066 34.4855 163.718C35.1693 163.37 36.9756 164.346 37.4821 165.414C37.8873 166.263 38.1827 166.534 38.9508 166.627C39.8617 166.702 40.7783 166.656 41.6773 166.492C41.9301 166.429 42.1939 166.425 42.4482 166.482C42.7025 166.539 42.9403 166.653 43.143 166.818C43.3457 166.982 43.5078 167.191 43.6167 167.429C43.7256 167.667 43.7783 167.926 43.7707 168.188C43.7707 169.723 44.8511 170.283 46.8601 169.825C49.3165 169.265 50.4222 169.299 50.4222 169.952C50.4222 171.021 56.7699 170.733 58.0192 169.613C58.285 169.409 58.5992 169.277 58.9308 169.231C59.7155 169.044 60.4482 168.681 61.0748 168.171C61.2194 168.048 61.3854 167.953 61.5644 167.891C61.8936 167.891 62.1131 167.416 62.0287 166.873C61.9443 166.33 61.9612 166.33 62.4339 166.025L62.915 165.703L63.7591 166.008C65.4473 166.636 68.2582 167.535 70.2756 168.095L71.3561 168.392C71.584 168.451 72.0145 168.561 72.3099 168.621L73.6942 168.918C83.4824 171.05 93.5961 171.194 103.44 169.342C104.614 169.138 108.26 168.29 109.349 167.959L110.615 167.594C112.304 167.102 116.828 165.533 117.689 165.134L118.533 164.761L119.377 164.405L120.221 164.032C122.913 162.796 125.537 161.414 128.08 159.892C130.718 158.259 133.267 156.486 135.719 154.582C135.803 154.515 136.065 154.294 136.318 154.099C136.901 153.632 139.138 151.724 139.838 151.088C140.775 150.239 144.675 146.287 145.215 145.625L145.739 144.997H145.207C144.709 144.997 144.633 144.997 144.067 145.693C143.223 146.694 140.902 148.993 139.602 150.18L138.277 151.385C135.812 153.561 133.203 155.568 130.469 157.39C128.637 158.62 126.324 160.062 126.189 160.062C125.938 160.185 125.692 160.321 125.455 160.469C124.535 161.029 121.783 162.446 120.466 163.014L118.727 163.794C118.364 163.964 117.799 164.193 117.47 164.312C117.222 164.396 116.98 164.496 116.744 164.609C116.685 164.651 116.06 164.897 115.368 165.143C114.676 165.389 114 165.643 113.865 165.703C113.73 165.762 113.249 165.915 112.785 166.059C112.32 166.203 111.839 166.364 111.713 166.424C111.105 166.67 107.906 167.526 105.652 168.044C95.0809 170.329 84.1472 170.329 73.5761 168.044C72.0735 167.688 71.2716 167.493 70.6301 167.314L69.4315 167.001C69.1361 166.924 68.79 166.814 68.6549 166.763C68.5199 166.712 68.0134 166.542 67.5154 166.398C66.7142 166.183 65.9275 165.917 65.1603 165.601C64.9995 165.525 64.8291 165.47 64.6539 165.44C64.4428 165.44 63.9195 165.16 63.9195 165.058C63.9195 164.956 63.9701 164.956 64.0461 164.956C64.5372 164.701 64.9963 164.388 65.4135 164.023L65.8609 163.718C66.1898 163.399 66.4536 163.019 66.6375 162.598C67.3634 161.131 68.1485 160.707 70.934 160.232C72.8923 159.892 73.3988 158.883 72.1326 157.84C71.3392 157.195 71.3476 157.237 71.9891 156.406C72.2677 156.033 72.8332 155.286 73.154 154.71C73.6773 153.912 73.863 153.726 74.0487 153.768L75.011 153.997C77.5934 154.656 80.2198 155.127 82.8696 155.405L85.2331 155.651C88.1095 155.804 90.992 155.804 93.8683 155.651L96.2994 155.405C100.476 154.981 104.592 154.09 108.573 152.75C109.467 152.453 110.261 152.165 110.43 152.114L111.392 151.732C111.682 151.629 111.964 151.504 112.236 151.359C112.312 151.302 112.403 151.269 112.498 151.266C113.224 151.266 119.841 147.72 122.711 145.803L123.826 145.057H123.294C122.593 145.121 121.933 145.42 121.42 145.905C121.336 145.998 118.888 147.466 118.044 147.949C115.966 149.089 113.821 150.101 111.62 150.977L109.881 151.681C109.586 151.817 107.661 152.462 107.003 152.648L105.922 152.962C105.019 153.234 103.584 153.615 103.044 153.726C101.153 154.141 100.647 154.243 99.6673 154.404C96.3266 155.019 92.934 155.303 89.5381 155.252C84.4913 155.331 79.4578 154.709 74.5805 153.403L73.9643 153.251L73.9137 152.513C73.8727 152.143 73.916 151.769 74.0403 151.418C74.4815 150.648 74.9662 149.903 75.4922 149.188C76.1433 148.576 76.6757 147.849 77.0622 147.042C77.0867 146.76 77.1671 146.486 77.2986 146.236C77.4354 145.972 77.5186 145.684 77.5433 145.388V145.057H33.3207L33.5823 145.337C33.9284 145.71 33.9115 145.854 33.5823 145.608C33.0168 145.235 32.6707 145.404 31.8941 146.456C31.4942 146.945 31.0687 147.412 30.6195 147.856C29.7079 148.772 29.691 148.789 29.6066 149.552C29.48 150.68 29.3871 150.859 29.2014 150.401C28.9482 149.807 28.6528 149.909 28.4586 150.655C28.3151 151.189 28.2307 151.308 27.9184 151.41C27.3275 151.597 27.2009 151.766 26.4243 153.335C25.6477 154.905 25.5802 155.397 26.0529 155.643C26.3062 155.77 26.2639 155.787 25.5887 155.872L24.8374 155.957L24.2212 155.286C23.1239 154.09 22.2544 153.106 21.9674 152.742C21.8155 152.547 21.6129 152.301 21.5116 152.19C21.2331 151.893 20.887 151.461 20.4903 150.935C20.2961 150.672 20.102 150.426 20.0682 150.392C19.942 150.237 19.8237 150.076 19.7137 149.909C19.6026 149.74 19.4814 149.579 19.3507 149.425C19.2663 149.357 18.5066 148.382 18.2787 147.983C18.1826 147.841 18.0783 147.705 17.9664 147.576C17.8567 147.457 17.2995 146.651 16.8015 145.879C16.7171 145.761 16.5061 145.464 16.3288 145.235C16.1924 145.078 16.0813 144.9 15.9996 144.709C15.9213 144.538 15.8158 144.38 15.6873 144.242C15.51 144.039 15.4172 143.878 15.4763 143.878C15.5354 143.878 15.5185 143.878 15.4763 143.784C14.8417 142.921 14.2772 142.007 13.7881 141.053C13.7902 141.019 13.7835 140.984 13.7688 140.953C13.754 140.922 13.7316 140.895 13.7037 140.875C13.4161 140.548 13.1799 140.179 13.0031 139.781C12.9133 139.542 12.7911 139.316 12.6401 139.111C12.4037 138.746 12.2602 138.449 12.3109 138.449C12.3615 138.449 12.3109 138.407 12.2602 138.356C12.2096 138.305 9.93051 134.013 9.40716 132.783C9.2299 132.359 8.90914 131.646 8.70656 131.222C8.50397 130.798 8.32671 130.374 8.31827 130.374C8.30982 130.374 8.2423 130.162 8.16633 129.975C8.10375 129.836 8.05566 129.691 8.02283 129.542C7.94779 129.309 7.85465 129.082 7.74427 128.864C7.60326 128.572 7.47925 128.271 7.37287 127.965C7.2922 127.72 7.19923 127.479 7.09431 127.244C7.01015 127.068 6.93685 126.886 6.87485 126.701C6.87485 126.633 6.6807 126.116 6.46968 125.556C5.94633 124.148 5.14443 121.705 5.14443 121.501C5.13231 121.368 5.09507 121.239 5.0347 121.12C4.76266 120.383 4.53988 119.629 4.36785 118.863C4.36785 118.728 4.24124 118.337 4.14839 118.015L3.95424 117.319C3.95424 117.319 3.95424 117.192 3.89515 117.116C3.83607 117.04 3.73477 116.42 3.59128 115.759C3.44778 115.097 3.27896 114.385 3.22831 114.189C3.17767 113.994 3.05105 113.443 2.92443 112.68C2.92443 112.578 2.83158 112.179 2.75561 111.78C2.57835 110.839 2.56147 110.737 2.39265 109.668C2.31668 109.168 2.23227 108.659 2.21538 108.523C2.21538 108.252 1.90307 106.157 1.85242 105.69C1.47599 102.368 1.31527 99.0243 1.37128 95.681C1.31686 92.3407 1.47475 89.0003 1.84398 85.6803C1.84398 85.4513 1.96215 84.7727 2.03812 84.1704C2.19006 82.9999 2.19006 82.9829 2.38421 81.8208C2.45173 81.3882 2.53614 80.8793 2.56147 80.6757C2.629 80.2176 2.84846 78.9792 2.93287 78.5721C2.93287 78.4024 3.05105 78.0207 3.11014 77.7238C3.16922 77.4269 3.30428 76.8756 3.39713 76.46C3.48998 76.0443 3.65036 75.3318 3.76854 74.8313L3.99645 73.805C3.99645 73.7371 4.07242 73.5251 4.11462 73.3215C4.15683 73.1179 4.24968 72.8295 4.30877 72.6599C4.36785 72.4902 4.49447 72.0661 4.59576 71.7014C5.0769 69.954 5.29637 69.2075 5.38078 68.987C5.46519 68.7665 5.60869 68.3339 5.75219 67.8419C5.84666 67.4925 5.97092 67.152 6.12359 66.824C6.18829 66.7354 6.22371 66.6286 6.22488 66.5186C6.25301 66.337 6.31303 66.1618 6.40215 66.0012C6.52036 65.7594 6.60554 65.5026 6.65538 65.2378C6.67547 65.0634 6.73937 64.897 6.84108 64.7543C6.87451 64.7267 6.90108 64.6916 6.91866 64.6518C6.93624 64.6121 6.94436 64.5688 6.94237 64.5253C6.96669 64.3526 7.015 64.1841 7.08587 64.0248C7.16184 63.8382 7.23781 63.6516 7.24625 63.6177C7.25469 63.5838 7.33066 63.4056 7.40663 63.219C7.4626 63.0921 7.51053 62.9618 7.55013 62.8288C7.614 62.6347 7.69013 62.4449 7.77804 62.2605C7.90465 61.9806 8.14944 61.4123 8.31827 60.9966C8.48709 60.581 8.79096 59.8854 8.98511 59.4613C9.17925 59.0372 9.35652 58.6131 9.3734 58.6131C9.43248 58.401 11.7538 53.8375 11.9057 53.6849C12.0577 53.5322 12.007 53.5237 11.9732 53.5237C12.0922 53.1928 12.254 52.8791 12.4544 52.5906C13.2141 51.2928 13.6699 50.4955 13.8303 50.1732C13.9062 50.029 14.016 49.9017 14.0751 49.9017C14.1342 49.9017 14.151 49.8508 14.0751 49.783C13.9991 49.7151 14.0751 49.6642 14.1257 49.6642C14.1764 49.6642 14.2523 49.5794 14.2523 49.4861C14.2523 49.3928 14.3114 49.2995 14.3789 49.2995C14.4465 49.2995 14.4802 49.2995 14.4465 49.1977C14.4127 49.0959 14.4887 48.9856 14.6237 48.8414C14.7208 48.7507 14.7984 48.6411 14.8516 48.5191C14.8516 48.3919 17.8398 43.9556 18.1859 43.5654C18.3902 43.3202 18.5791 43.0624 18.7514 42.7935C18.954 42.4966 19.2072 42.1489 19.3254 42.0131C19.4436 41.8774 19.8065 41.4194 20.1695 40.9868C20.8448 40.1385 20.8701 40.0792 21.5454 39.2394C21.8071 38.9086 22.1025 38.5523 22.2038 38.4506C22.3051 38.3488 22.9888 37.6023 24.0693 36.3045C24.5757 35.7023 29.843 30.3669 30.4254 29.8919C32.1136 28.4329 32.4681 28.1275 32.6369 27.9664C32.8058 27.8052 33.0928 27.5677 33.422 27.3047C33.7512 27.0418 34.0466 26.7958 34.0804 26.7534C34.1141 26.711 35.9796 25.2605 36.4185 24.9297L37.5581 24.0815C38.1236 23.6573 38.9846 23.0466 39.4658 22.7158L42.3104 20.8242C42.8928 20.434 43.4499 20.0863 43.5512 20.0439C43.6425 20.0148 43.7261 19.9655 43.796 19.8997C44.3224 19.5171 44.8884 19.1929 45.4842 18.9327C45.5009 18.9338 45.5176 18.9317 45.5334 18.9263C45.5492 18.921 45.5638 18.9125 45.5763 18.9015C45.5889 18.8905 45.5991 18.877 45.6065 18.862C45.6139 18.847 45.6182 18.8306 45.6193 18.8139C45.6204 18.7972 45.6247 18.7808 45.6321 18.7658C45.6395 18.7508 45.6497 18.7374 45.6623 18.7263C45.6748 18.7153 45.6894 18.7069 45.7052 18.7015C45.721 18.6962 45.7377 18.694 45.7543 18.6952C46.1023 18.5556 46.4359 18.3823 46.7504 18.1777C47.8646 17.4992 54.4233 14.2334 54.6681 14.2334C54.9554 14.1326 55.2372 14.0165 55.5122 13.8857C55.9342 13.6991 56.542 13.4446 56.8712 13.3174C57.2004 13.1901 57.6056 13.029 57.7744 12.9441C57.9291 12.8617 58.0982 12.8098 58.2724 12.7914C58.3235 12.7941 58.3746 12.7848 58.4214 12.7642C58.4683 12.7435 58.5098 12.7122 58.5425 12.6727C58.6771 12.5725 58.8332 12.5057 58.9983 12.4776C59.1926 12.4383 59.3821 12.3786 59.5639 12.2995C59.6652 12.2486 60.1041 12.0874 60.5262 11.9432C60.9482 11.799 61.4209 11.6378 61.5475 11.5785C61.6742 11.5191 62.3917 11.2816 63.2358 11.0356C64.0799 10.7896 64.8142 10.5436 64.9746 10.4927C65.135 10.4418 65.4895 10.3316 65.7596 10.2637L66.9583 9.94986C72.6097 8.4449 78.394 7.49886 84.2287 7.12524C86.1701 6.98952 95.6241 7.07434 96.8227 7.23551M101.963 8.06678C102.09 8.43152 101.896 8.91501 101.609 8.91501C101.322 8.91501 101.398 8.42304 101.516 8.06678C101.634 7.71052 101.803 7.61721 101.963 8.06678ZM104.09 7.99892L104.715 8.07526L104.361 8.42304C104.238 8.55567 104.099 8.67249 103.947 8.77081C103.665 8.67995 103.412 8.51613 103.213 8.2958C102.909 7.90561 103.002 7.87168 104.057 7.99892M114.616 19.8742C114.971 20.0778 115.022 20.1541 114.853 20.1796C114.456 20.2644 114.059 20.0947 114.059 19.8403C114.059 19.5858 114.059 19.5434 114.616 19.8403M125.328 23.4453C125.277 23.6694 125.197 23.886 125.092 24.0899C124.771 24.7685 124.788 24.8788 125.379 25.6677C126.383 27.0163 127.616 27.8306 127.616 27.1436C127.571 26.581 127.44 26.0287 127.227 25.5065C127.197 25.4709 127.177 25.4274 127.169 25.381C127.162 25.3346 127.167 25.287 127.185 25.2435C127.261 25.1248 127.109 24.7431 126.873 24.4547C126.096 23.4962 125.337 22.9957 125.328 23.4453ZM121.952 28.8061C126.029 30.8249 126.24 30.9861 126.375 32.2754C126.409 32.6657 126.48 33.0519 126.586 33.429C126.704 33.7683 126.687 33.8446 126.4 34.133C126.113 34.4214 126.012 34.7438 126.206 35.0915C126.72 36.1549 127.121 37.2693 127.405 38.4166C127.334 38.7308 127.165 39.0137 126.921 39.2231C126.678 39.4325 126.374 39.5573 126.054 39.5787C125.539 39.5787 125.32 39.18 125.21 38.0095C125.016 36.313 124.492 35.6005 123.319 35.6005C122.932 35.6166 122.552 35.4865 122.256 35.2357C122.08 35.0928 121.877 34.9868 121.659 34.9242C121.442 34.8615 121.214 34.8434 120.989 34.871C120.624 34.9031 120.257 34.8357 119.926 34.6759C119.565 34.5199 119.179 34.4335 118.786 34.4214C118.477 34.4223 118.171 34.3647 117.883 34.2518C117.883 34.1924 118.195 34.1839 118.685 34.2518C119.529 34.3366 119.529 34.3281 119.487 34.0737C119.445 33.8192 119.487 33.8192 119.816 33.8192C120.407 33.8192 120.567 33.7174 120.719 33.2509C120.871 32.7843 120.795 32.6317 120.078 33.1321C119.36 33.6326 119.234 33.6495 119.234 33.4205C119.186 33.2009 119.106 32.9895 118.997 32.7928C118.668 32.0973 118.693 31.9446 119.335 31.5205L119.901 31.1048H119.242C118.398 31.0539 118.28 30.9352 118.28 30.2566C118.28 29.7646 118.331 29.6374 118.609 29.4084C118.888 29.1793 118.93 29.1369 118.803 28.7976C118.677 28.4583 118.677 28.4159 119.073 28.2463C119.293 28.153 119.478 27.9918 119.478 27.89C119.478 27.6525 119.478 27.6695 121.943 28.8655M121.943 33.412C120.998 33.7344 120.998 33.7259 122.247 34.3281L123.505 34.9389C123.902 35.1594 123.969 35.0746 123.893 34.4808C123.691 32.9964 123.48 32.8777 121.943 33.412ZM131.423 34.413C132.092 34.8408 132.737 35.3052 133.356 35.8041C133.586 36.0005 133.828 36.1818 134.082 36.3469C134.352 36.5335 134.596 36.7117 134.63 36.7456L135.525 37.4666C136.268 38.0519 136.757 38.4506 137.213 38.8492C137.281 38.9171 137.694 39.2733 138.116 39.6381C141.529 42.6365 144.662 45.9413 147.477 49.5115C148.035 50.1986 148.035 50.1986 147.579 50.3598C146.456 50.716 145.198 50.5294 145.198 50.012C145.198 49.8508 144.683 49.6218 143.223 49.1638C142.497 48.9178 141.797 48.6718 141.662 48.6124L140.345 48.0611C139.745 47.8151 139.214 47.5691 139.146 47.5267C139.079 47.4843 138.564 47.1959 138.007 46.899L136.141 45.8726C135.297 45.4315 134.571 45.2704 134.807 45.5842C135.044 45.8981 135.094 46.1525 134.63 45.949C132.891 45.2025 132.731 44.9989 132.495 43.26C132.334 42.0556 131.431 36.7202 131.169 35.4308C130.95 34.3196 130.874 34.2179 130.182 34.2094C129.692 34.2094 129.658 34.2094 129.895 34.0737C130.131 33.9379 130.165 33.8955 130.165 33.8362C130.165 33.6241 130.452 33.7598 131.397 34.4214M132.925 43.4891C132.96 43.6473 133.02 43.7991 133.102 43.9386C133.195 44.1014 133.258 44.2795 133.288 44.4645C133.278 44.6198 133.31 44.7749 133.381 44.913C133.453 45.051 133.561 45.1666 133.693 45.2472C133.826 45.3278 133.978 45.3702 134.132 45.3698C134.287 45.3694 134.439 45.3262 134.571 45.2449L134.883 45.0244L134.419 44.6003L133.508 43.752C133.043 43.3279 132.934 43.2685 132.934 43.4551M34.1141 72.4902C34.0745 72.5049 34.0396 72.5299 34.0128 72.5627C33.9861 72.5955 33.9686 72.6349 33.9622 72.6768C33.9283 72.8516 33.8686 73.0203 33.7849 73.1773C32.9408 75.0858 32.6369 76.18 33.0674 76.1291C33.346 76.1291 33.4388 75.9256 33.9791 74.526C34.8232 72.3291 34.8232 72.2018 34.1141 72.4902ZM52.8195 72.6938C52.7137 72.7944 52.6253 72.9119 52.5578 73.0416C52.422 73.3344 52.2669 73.6178 52.0936 73.8898C51.6293 74.6532 50.8781 76.0358 50.8781 76.1122C50.8781 76.3921 51.4943 76.1122 51.7222 75.705C51.8488 75.459 52.0767 75.0349 52.2286 74.772C52.3806 74.509 52.6422 74.0425 52.8026 73.7456C52.963 73.4487 53.1993 73.067 53.326 72.8974C53.6805 72.3884 53.326 72.2357 52.8533 72.7108M111.417 72.5326C111.592 72.6374 111.789 72.6985 111.991 72.7108C112.835 72.8295 113.536 73.2621 114.726 74.4072C115.238 74.9421 115.804 75.4224 116.414 75.8407L117.005 76.1546H144.27L144.608 75.3657C144.937 74.5938 145.156 74.3733 145.156 74.8059C145.154 74.9177 145.186 75.0275 145.249 75.1198C145.347 75.2825 145.418 75.4601 145.46 75.6457C145.57 76.0274 145.637 76.0952 145.967 76.1291C146.296 76.1631 146.38 76.0189 145.967 75.1282C145.485 74.017 145.376 73.4996 145.612 73.4996C145.68 73.4996 145.73 73.4148 145.73 73.313C145.73 73.2112 145.663 73.1434 145.494 73.1943C145.325 73.2451 145.224 73.1943 145.131 72.9398C145.073 72.7776 144.981 72.63 144.861 72.5072C144.65 72.38 111.274 72.3884 111.358 72.5072M31.3539 80.54C31.3539 80.6418 31.2695 80.8199 31.2273 80.9302C31.1851 81.0404 31.0838 81.5239 30.9825 81.9905C30.8812 82.457 30.763 83.0338 30.7124 83.2882C30.6111 83.7208 30.6195 83.7378 30.9572 83.7378C31.2948 83.7378 31.3117 83.67 31.3623 83.407C31.413 83.1441 31.5649 82.5588 31.7253 81.8717C31.8857 81.1846 32.0207 80.5909 32.0207 80.5145C32.0207 80.294 31.4214 80.3279 31.3539 80.5145M48.9282 80.5569C48.9295 80.6751 48.8941 80.7907 48.8269 80.8877C48.4096 81.9215 48.0682 82.9847 47.8055 84.0686C47.5064 84.9665 47.3193 85.8982 47.2484 86.8424C47.2484 87.1817 47.1978 87.4446 47.1133 87.4785C46.8517 87.5634 46.4549 90.9478 46.3452 94.0693C46.2376 97.2458 46.4668 100.425 47.0289 103.553C47.3159 104.961 47.6705 106.538 47.7549 106.81C47.8393 107.081 47.9743 107.522 48.1178 108.014C48.5368 109.476 49.0413 110.912 49.6288 112.315L50.3885 114.011C50.6501 114.588 51.0975 115.479 51.3845 116.005L52.1611 117.379C52.2382 117.548 52.3439 117.703 52.4734 117.837C52.5016 117.853 52.525 117.877 52.5413 117.905C52.5576 117.933 52.5662 117.965 52.5663 117.998C52.5663 118.1 54.3136 120.797 54.6428 121.196L54.9044 121.51C54.972 121.586 55.1661 121.841 55.3265 122.078C55.6194 122.499 55.938 122.901 56.2803 123.283L57.1244 124.249C58.1542 125.454 58.7029 125.946 58.8126 125.819C58.9224 125.692 58.8126 125.352 57.9179 124.351C57.479 123.859 56.9725 123.274 56.7868 123.045C56.6011 122.816 56.4069 122.595 56.3732 122.562C55.024 120.843 53.7835 119.041 52.6591 117.167C52.585 116.976 52.4857 116.796 52.3637 116.632C51.6062 115.314 50.9269 113.951 50.3294 112.552C50.1521 112.12 49.9242 111.594 49.8229 111.373C49.6457 110.975 48.8944 108.829 48.5483 107.675C46.9238 102.041 46.4444 96.1358 47.1387 90.3116C47.4792 87.3556 48.1503 84.4476 49.1392 81.6427C49.3587 80.9895 49.5444 80.4297 49.5444 80.4127C49.5444 80.3958 49.4009 80.4127 49.2405 80.4127C49.0801 80.4127 48.9366 80.4806 48.9366 80.6333M123.311 80.4382C123.311 80.4382 123.42 80.8284 123.547 81.2864C123.877 82.655 123.877 84.0827 123.547 85.4512C123.412 85.9772 123.252 86.6557 123.176 86.9526C123.143 87.1646 123.071 87.3688 122.965 87.5549C122.767 87.8274 122.583 88.1106 122.416 88.4031C122.234 88.7289 122.028 89.0407 121.8 89.3362C121.575 89.6823 121.378 90.0452 121.209 90.4219C120.642 91.6205 119.899 92.727 119.006 93.7046L118.288 94.4849V95.3926C118.288 96.8939 118.373 97.2332 118.744 97.1399C118.858 97.1266 118.968 97.0901 119.067 97.0328C119.166 96.9754 119.253 96.8984 119.321 96.8064C119.39 96.7143 119.44 96.6092 119.467 96.4974C119.494 96.3856 119.498 96.2694 119.478 96.156C119.478 95.7064 119.479 95.6301 119.732 95.6301C119.985 95.6301 119.977 95.6725 119.901 96.5377C119.757 98.073 120.272 98.4801 121.53 97.8355C122.61 97.2841 123.48 97.6574 123.623 98.7431C123.826 100.194 124.087 100.694 124.636 100.694C125.48 100.694 130.131 97.8949 131.659 96.4529L132.14 96.0033V96.4189C132.097 98.663 131.882 100.9 131.499 103.111C131.012 105.767 130.289 108.373 129.338 110.898C129.257 111.063 129.198 111.236 129.16 111.416C129.146 111.535 129.109 111.65 129.051 111.755C128.983 111.874 128.814 112.239 128.671 112.603C126.761 117.02 124.131 121.085 120.888 124.631C120.044 125.479 120.044 125.573 120.128 125.912C120.213 126.251 120.213 126.175 120.618 125.725L121.589 124.657C123.417 122.628 125.051 120.43 126.468 118.091C128.157 115.236 129.533 112.204 130.57 109.049C131.258 106.859 131.791 104.622 132.165 102.357C132.413 100.762 132.557 99.1523 132.596 97.5386L132.68 95.3671L133.263 94.5189C133.506 94.1705 133.729 93.8079 133.93 93.4331C134.027 93.2132 134.14 93.0006 134.267 92.797C134.411 92.5679 134.968 91.5161 135.517 90.4558C136.065 89.3955 136.605 88.3861 136.732 88.208C137.146 87.6227 137.137 87.6143 134.318 87.6143H131.684V83.882H136.082H140.48L140.657 83.2374C140.853 82.622 141.223 82.0769 141.721 81.6681C142.03 81.3567 142.313 81.019 142.565 80.6587C142.565 80.6078 138.218 80.5654 132.908 80.5654C127.599 80.5654 123.252 80.5654 123.252 80.5654M146.937 80.8708C147.022 81.2101 147.292 82.4061 147.486 83.2543C147.532 83.4418 147.569 83.6315 147.596 83.8226C147.596 83.8735 147.764 83.9159 147.967 83.9159C148.17 83.9159 148.322 83.8735 148.271 83.7039C148.22 83.5342 147.748 81.4391 147.638 80.8708C147.587 80.5993 147.511 80.54 147.216 80.54C146.92 80.54 146.861 80.54 146.937 80.8708ZM148.296 86.0365C148.296 86.9611 148.296 88.0129 148.338 88.3777C149.011 94.2135 148.866 100.115 147.908 105.911C147.621 107.607 147.486 108.286 147.368 108.744C147.309 108.981 147.14 109.66 147.005 110.254C146.87 110.847 146.701 111.475 146.642 111.636C146.583 111.797 146.422 112.349 146.279 112.841C145.916 114.122 145.342 115.843 145.114 116.344C144.89 117.024 144.807 117.743 144.869 118.456C144.954 118.889 146.557 114.597 147.19 112.179C147.781 109.982 147.874 109.584 148.381 107.09C149.507 100.866 149.712 94.509 148.988 88.225C148.777 86.5285 148.448 84.4588 148.381 84.391C148.322 84.929 148.294 85.4699 148.296 86.0111M30.3157 85.3325C30.2312 85.833 30.1131 86.537 30.0455 86.9017C28.9651 92.9412 29.3196 101.899 30.8896 109.202C31.5565 112.222 33.6499 118.651 33.8862 118.405C34.1226 118.159 33.7512 115.979 33.27 115.106C33.1827 114.913 33.1176 114.711 33.0759 114.503C33.0326 114.3 32.9705 114.101 32.8902 113.91C32.8902 113.808 32.7214 113.426 32.6116 113.061C32.5019 112.697 32.3415 112.128 32.2402 111.797C32.1389 111.467 32.0039 110.949 31.9279 110.652C31.5396 109.049 31.4383 108.583 31.2779 107.76C31.1766 107.259 31.05 106.606 30.9909 106.309C30.763 105.207 30.4338 102.653 30.2481 100.643C30.1722 99.8797 30.1131 97.6319 30.1131 95.6385C30.068 93.2835 30.1865 90.9282 30.4676 88.5897C30.5133 87.7676 30.5133 86.9435 30.4676 86.1214L30.4085 84.4249L30.2566 85.324M97.785 85.6209C97.785 85.7566 97.9032 85.8075 98.1817 85.799C98.4603 85.7905 98.4856 85.799 98.3843 85.7227C98.283 85.6463 98.1142 85.6039 97.996 85.5446C97.8778 85.4852 97.785 85.4852 97.785 85.6209ZM92.56 88.2844C92.56 88.7339 92.8132 92.1947 93.0411 95.9694C93.269 99.744 93.5138 103.68 93.5813 104.706C93.6489 105.733 93.8093 108.371 93.9443 110.559C94.0794 112.747 94.2313 115.377 94.2988 116.403C94.4508 118.736 94.6112 121.315 94.8475 125.233C95.2611 132.113 95.1767 131.519 95.7338 131.629C96.0321 131.715 96.3164 131.843 96.5779 132.011C97.0117 132.253 97.5129 132.346 98.004 132.274C98.4952 132.201 98.9492 131.969 99.2959 131.612C99.9797 130.959 100.309 129.916 99.9543 129.5C99.0387 128.868 98.0049 128.429 96.9156 128.211C95.3202 128.211 94.9404 123.571 96.4091 122.137C97.1309 121.509 97.9643 121.022 98.8654 120.704C100.447 119.935 101.803 118.766 102.799 117.311C103.371 116.177 103.884 115.013 104.335 113.825C104.757 112.569 105.34 111.925 106.023 111.925C106.234 111.925 106.454 111.679 107.121 110.72C107.525 110.151 107.974 109.615 108.463 109.117C108.768 108.81 109.024 108.458 109.223 108.074C109.46 107.37 109.808 106.708 110.252 106.114C110.658 105.597 110.632 105.817 110.936 100.898C111.029 99.3453 111.021 99.2011 110.818 98.9212C110.615 98.6413 110.539 98.285 110.869 97.6658C111.08 97.2145 111.193 96.7227 111.198 96.2238C111.265 95.189 111.248 95.1635 110.514 95.4689C110.033 95.6725 109.56 95.7234 109.873 95.5368C110.148 95.4196 110.43 95.3177 110.717 95.2314L111.333 95.0278L111.417 93.5434C111.502 92.1353 111.493 92.0505 111.248 91.8469C111.135 91.7422 111.048 91.6112 110.995 91.4652C110.995 91.2532 110.767 91.338 110.1 91.7876C109.434 92.2371 109.307 92.3898 109.788 92.5934C110.269 92.797 110.092 93.0938 109.51 93.1108C109.138 93.1108 109.113 93.1108 109.231 92.8988C109.349 92.6867 109.299 92.517 108.944 92.6528C107.399 93.2296 107.492 92.8394 109.138 91.8639C109.636 91.6045 110.098 91.2824 110.514 90.9054C110.514 90.5916 110.033 90.617 109.29 90.9648C109.04 91.1027 108.773 91.2081 108.497 91.2786C108.652 90.8225 108.886 90.3975 109.189 90.0232C110.033 88.929 110.033 87.0629 109.189 88.0214C108.948 88.2769 108.682 88.5071 108.395 88.7085C108.038 88.898 107.746 89.191 107.556 89.5494C107.367 89.9078 107.288 90.3152 107.332 90.7188V91.567L106.648 92.2711C105.99 92.9327 105.931 92.9666 105.458 92.9157C105.31 92.8728 105.153 92.8715 105.004 92.9118C104.855 92.9522 104.72 93.0328 104.614 93.1447C104.221 93.4357 103.803 93.6912 103.365 93.9082C102.738 94.2008 102.187 94.633 101.752 95.172C100.748 96.3341 100.798 96.3171 100.233 95.7319C98.8486 94.3068 98.3421 92.6019 99.0512 91.7621C99.7602 90.9224 98.722 88.5982 97.8019 89.1156C97.1266 89.4888 96.6201 89.5567 96.2825 89.3362C95.7182 88.9385 95.2625 88.4048 94.9572 87.7839L94.8813 87.4531H92.5009L92.56 88.3013M108.547 94.451C108.569 94.6774 108.531 94.9056 108.438 95.1127C108.286 95.3926 108.125 94.9684 108.1 94.205C108.1 93.7894 108.514 94.0269 108.547 94.451ZM85.0137 100.711C84.1962 101.589 83.076 102.12 81.882 102.195C81.1055 102.195 80.6581 102.704 80.6412 103.603C80.5873 104.041 80.4648 104.468 80.2782 104.867C80.0925 105.291 79.8393 105.902 79.7296 106.233L79.4257 107.081C79.147 107.734 78.9595 108.422 78.8686 109.125C78.8513 109.415 78.7945 109.7 78.6998 109.974C78.6491 110.033 78.3452 110.61 78.016 111.238C77.1948 112.991 76.0943 114.599 74.7578 115.996C72.6053 118.32 71.8034 118.94 69.9717 119.754L69.2205 120.085L69.288 120.874C69.288 121.306 69.4315 123.02 69.5328 124.674C69.6341 126.328 69.7607 128.474 69.8282 129.441C69.8957 130.408 70.0561 133.164 70.1912 135.582C70.3262 137.999 70.4697 140.162 70.5035 140.374L70.5626 140.765H77.957L78.2693 140.29C78.4131 140.097 78.5191 139.878 78.5816 139.645C78.7192 139.14 78.9544 138.667 79.2738 138.254C79.6114 137.804 79.5354 137.813 81.2827 138.169C83.03 138.525 83.3846 138.542 83.3846 138.279C83.3846 138.016 83.2073 138.016 82.1522 137.83C80.7087 137.575 80.3542 137.482 80.312 137.329C80.2698 137.177 81.6457 136.057 82.5742 135.633C83.6631 135.107 83.5618 135.412 83.7475 132.24C83.815 131.018 83.9501 128.737 84.0514 127.15C84.1527 125.564 84.3046 123.011 84.4059 121.425C84.5072 119.839 84.6676 117.184 84.7604 115.572C85.0559 110.763 85.2838 107.149 85.4864 103.943C85.5961 102.289 85.6636 100.736 85.6468 100.499V100.066L85.0559 100.711M58.2387 128.024C58.0698 128.109 57.614 128.304 57.2173 128.465C55.9429 129.052 54.7346 129.775 53.613 130.62C50.6417 132.715 50.1774 133.02 49.7385 133.164C49.6263 133.217 49.5038 133.245 49.3798 133.245C49.2558 133.245 49.1333 133.217 49.021 133.164C48.4217 132.842 47.088 133.08 45.6446 133.767L44.8933 134.131V134.691C44.8933 135.005 44.9693 136.388 45.0706 137.787C45.1719 139.187 45.2479 140.417 45.2479 140.536C45.2479 140.654 45.6277 140.739 51.5871 140.739H57.9179L58.1289 137.457C58.2471 135.65 58.4159 133.012 58.5088 131.595C58.7029 128.677 58.7198 127.846 58.5932 127.846C58.457 127.878 58.3262 127.929 58.2049 127.999M108.277 134.089C108.007 134.233 107.121 134.64 106.294 134.988L104.555 135.726C103.998 135.972 101.271 136.829 100.14 137.109L98.4518 137.524C98.2239 137.584 97.4811 137.728 96.8058 137.847C95.7507 138.033 95.5734 138.093 95.5734 138.296C95.5734 138.5 95.9026 138.542 97.6162 138.203C98.9156 137.982 100.199 137.673 101.457 137.278C103.446 136.685 105.397 135.968 107.298 135.132C107.416 135.064 107.779 134.886 108.142 134.734C108.801 134.428 108.919 134.318 108.927 134.004C108.936 133.69 108.868 133.75 108.269 134.089M132.798 136.311C132.106 137.075 130.823 138.347 129.962 139.145C128.375 140.612 128.215 140.841 129.008 140.739C129.523 140.637 133.921 136.354 134.073 135.819C134.326 134.81 134.115 134.895 132.815 136.311M28.1463 157.661C27.7073 157.88 27.2139 157.962 26.7282 157.899C26.6269 157.806 26.8886 157.738 28.1463 157.56C28.2138 157.56 28.2138 157.56 28.1463 157.661ZM38.2165 170.911C37.5074 171.344 37.2204 172.124 37.634 172.531C37.8633 172.828 37.9878 173.194 37.9878 173.57C37.9878 173.946 37.8633 174.312 37.634 174.609C37.513 174.802 37.4352 175.019 37.4061 175.245C37.4061 175.44 37.2711 175.568 36.8828 175.737C36.2666 176 35.9712 176.374 35.9712 176.882C35.9712 177.222 35.7517 177.544 35.1946 178.011C35.1141 178.098 35.0542 178.203 35.0195 178.318C34.9847 178.432 34.9759 178.552 34.9938 178.67C35.0116 178.788 35.0556 178.901 35.1225 179C35.1894 179.098 35.2775 179.181 35.3803 179.241C35.7179 179.385 35.8108 179.368 36.4861 178.995C37.2766 178.503 38.128 178.118 39.0184 177.849C39.8769 177.636 40.7224 177.372 41.5507 177.061C41.7129 176.978 41.8864 176.921 42.0656 176.891C42.9772 176.696 43.433 176.297 43.585 175.551L43.661 175.186L42.4286 174.66C40.8163 173.982 40.7404 173.931 41.9474 173.931C42.8506 173.931 42.935 173.931 42.935 173.693C42.935 173.456 42.935 173.456 42.8422 173.456C42.1936 173.027 41.6227 172.491 41.154 171.869C41.0194 171.608 40.8349 171.376 40.611 171.186C40.3871 170.997 40.1282 170.853 39.8491 170.764C39.57 170.675 39.2762 170.643 38.9845 170.668C38.6928 170.693 38.4089 170.775 38.1489 170.911" fill="white"/>
<path fill-rule="evenodd" clip-rule="evenodd" d="M88.9487 46.4406C88.9487 46.5339 88.8305 46.5848 88.763 46.5509C88.6954 46.517 88.5772 46.5509 88.476 46.6188C88.3747 46.6866 88.3071 46.729 88.3071 46.6781C88.3071 46.6272 88.2312 46.6781 88.1383 46.729C88.0052 46.8207 87.8564 46.8869 87.6994 46.9241C87.526 46.9619 87.364 47.0404 87.2267 47.1531C87.0763 47.2696 86.8931 47.3349 86.7033 47.3398C86.5261 47.3398 86.3826 47.3907 86.3826 47.45C86.3826 47.5094 85.8086 47.7554 85.5385 47.7215C85.4541 47.7215 85.3865 47.7215 85.3865 47.8148C85.3865 47.9081 85.2937 47.942 85.184 47.9505C85.0219 47.9697 84.8677 48.0311 84.7366 48.1286C84.6211 48.2202 84.4847 48.2814 84.3398 48.3068C84.0883 48.3649 83.8445 48.4532 83.6139 48.5697C83.4079 48.6776 83.1896 48.7602 82.9639 48.8157C82.9133 48.8157 82.8711 48.8157 82.8711 48.909C82.8711 49.0023 82.7698 49.0278 82.6432 49.0278C82.5857 49.0235 82.5279 49.032 82.474 49.0525C82.4201 49.073 82.3712 49.1051 82.3309 49.1465C82.2957 49.1733 82.2527 49.1879 82.2085 49.1879C82.1643 49.1879 82.1213 49.1733 82.0861 49.1465C81.9932 49.1465 81.9088 49.1465 81.9088 49.1465C81.9088 49.1465 81.6303 49.3586 81.2842 49.4773C81.0265 49.5634 80.7754 49.6683 80.5329 49.7912C80.4006 49.8689 80.2587 49.9288 80.1109 49.9693C79.8868 50.035 79.6669 50.1143 79.4525 50.2068C78.8447 50.4697 78.6084 50.5546 78.524 50.5291C78.4395 50.5037 78.4311 50.5291 78.4311 50.6309C78.4311 50.7327 78.3214 50.7497 78.1948 50.7497C78.0681 50.7497 77.95 50.809 77.95 50.8854C77.95 50.9617 77.8487 50.9957 77.7136 50.9617C77.5786 50.9278 77.4773 50.9617 77.4773 50.9617C77.4773 50.9617 77.376 51.089 76.937 51.1992C76.8323 51.2386 76.7352 51.296 76.65 51.3689C76.2516 51.599 75.8224 51.7704 75.3754 51.8778C75.2104 51.9162 75.0493 51.9701 74.8943 52.039C74.0342 52.4659 73.1491 52.8398 72.2438 53.1587C71.922 53.2456 71.6148 53.38 71.3322 53.5573C71.2393 53.6846 71.1887 53.7015 70.7497 53.727C70.6062 53.727 70.5387 53.7948 70.5809 53.8712C70.6231 53.9475 70.5809 53.9814 70.4965 53.9645C70.2942 53.9761 70.0962 54.028 69.9141 54.1172C69.2219 54.431 68.4285 54.7618 68.3609 54.7703C68.2539 54.8012 68.1516 54.8469 68.0571 54.906C67.8651 54.9972 67.6642 55.0683 67.4577 55.1181C67.299 55.1468 67.1505 55.217 67.0272 55.3217C66.9255 55.4178 66.7949 55.4775 66.6558 55.4913C66.4302 55.5429 66.2118 55.6227 66.0059 55.7288C65.8332 55.8235 65.6441 55.8839 65.4488 55.9069C65.3306 55.9069 65.2377 55.9663 65.2377 56.0342C65.2377 56.102 65.1533 56.1529 65.0605 56.1529C64.9212 56.1631 64.7859 56.2036 64.6637 56.2717C64.3441 56.4345 64.0142 56.5762 63.6761 56.6958L63.2625 56.8739L62.8067 57.0605L62.6632 57.1199H62.5113C62.3067 57.2087 62.1067 57.3078 61.912 57.4168C61.625 57.561 61.3971 57.6543 61.3971 57.6119C61.3971 57.5695 61.2789 57.6119 61.1269 57.7306C60.9212 57.8457 60.6992 57.9287 60.4685 57.9766C60.2593 58.0102 60.0552 58.0701 59.8608 58.1548C59.4047 58.4607 58.8947 58.6766 58.3583 58.7909C58.3583 58.7909 58.2823 58.7909 58.2823 58.8588C58.2823 58.9266 58.1557 59.003 58.0122 59.003C57.8167 59.0185 57.6282 59.0826 57.4635 59.1896C57.284 59.3087 57.0834 59.3922 56.8727 59.4356C56.7318 59.4556 56.5982 59.511 56.4844 59.5968C56.3128 59.7436 56.0935 59.8221 55.8682 59.8173C55.826 59.8173 55.674 59.8852 55.5305 60.0124C55.387 60.1396 55.2435 60.2075 55.2013 60.1651C55.1591 60.1227 55.0072 60.1651 54.8721 60.2499C54.6711 60.3643 54.4552 60.45 54.2306 60.5044C54.0196 60.5044 53.8423 60.6401 53.8423 60.6995C53.8423 60.7588 53.7495 60.8097 53.6313 60.8097C53.4974 60.8144 53.3692 60.8653 53.2683 60.9539C53.1924 61.0303 53.1248 61.0642 53.1248 61.0133C53.1248 60.9624 52.9307 61.0133 52.6943 61.1745C52.458 61.3356 52.2132 61.3865 52.1541 61.3441C52.095 61.3017 52.0444 61.3441 52.0444 61.395C52.0444 61.4459 51.9093 61.5392 51.7405 61.5816C51.4154 61.6868 51.0969 61.8115 50.7867 61.9548C50.537 62.0854 50.2737 62.1878 50.0016 62.2602C49.841 62.2896 49.6868 62.3471 49.5458 62.4299C49.2738 62.6016 48.969 62.7143 48.6511 62.7607C48.6409 62.758 48.6303 62.7578 48.62 62.76C48.6098 62.7622 48.6002 62.7668 48.592 62.7734C48.5838 62.78 48.5772 62.7884 48.5728 62.798C48.5684 62.8075 48.5663 62.818 48.5667 62.8285C48.5667 62.9727 47.8661 63.2442 47.7226 63.1593C47.5791 63.0745 47.5959 63.1593 47.5959 63.1593C46.9264 63.6435 46.1898 64.0265 45.4097 64.296C45.2821 64.3211 45.1613 64.3732 45.0552 64.4487C44.9194 64.5296 44.775 64.595 44.6247 64.6438C44.4559 64.6946 44.0507 64.8558 43.7215 65C43.1728 65.246 42.7339 65.4326 42.582 65.4835L42.1852 65.6447C42.0267 65.7141 41.8589 65.7598 41.6872 65.7804C41.6363 65.7888 41.5885 65.8104 41.5485 65.8432C41.5085 65.8759 41.4778 65.9186 41.4593 65.967C41.4593 66.0688 41.3496 66.1451 41.2989 66.1366C40.9866 66.0773 40.6574 66.1367 40.7334 66.2724C40.8093 66.4081 40.7334 66.3911 40.649 66.3742C40.4457 66.3795 40.2464 66.4317 40.0665 66.5268C39.8302 66.6371 39.1633 66.9255 38.564 67.1715C37.9647 67.4175 37.205 67.7483 36.8758 67.9179C36.5499 68.0751 36.2072 68.1947 35.8544 68.2742C35.6838 68.2898 35.5205 68.3514 35.3817 68.4523C35.354 68.4911 35.3187 68.5238 35.2781 68.5485C35.2375 68.5733 35.1924 68.5896 35.1454 68.5965C35.0331 68.6196 34.9249 68.6596 34.8246 68.7153C34.7402 68.7662 34.6727 68.7747 34.6727 68.7153C34.6727 68.6559 34.5883 68.7153 34.487 68.7916C34.3624 68.882 34.2221 68.9482 34.0734 68.9867C33.8483 69.0438 33.6324 69.1323 33.4319 69.2497C33.2039 69.3854 32.9845 69.4532 32.9507 69.4193C32.9169 69.3854 32.8747 69.4193 32.8747 69.4872C32.8773 69.5049 32.8759 69.5229 32.8706 69.54C32.8653 69.5571 32.8562 69.5727 32.8441 69.5858C32.8319 69.5988 32.8169 69.6089 32.8003 69.6154C32.7837 69.6218 32.7659 69.6244 32.7481 69.6229C32.516 69.6608 32.2928 69.7413 32.0897 69.8604C31.8112 70.0046 31.5833 70.0979 31.5833 70.0555C31.5833 70.0131 31.4482 70.0555 31.2963 70.1658C31.1123 70.2763 30.9132 70.3592 30.7054 70.4118C30.5019 70.4531 30.3056 70.5246 30.123 70.6238C29.9616 70.7117 29.7881 70.7746 29.6081 70.8104C29.4494 70.8492 29.302 70.9247 29.1776 71.031C29.0665 71.1297 28.9281 71.1918 28.7808 71.2091C28.6402 71.2146 28.5023 71.2493 28.3757 71.3109C27.94 71.5335 27.4886 71.7234 27.0251 71.8792C26.8951 71.9096 26.772 71.9642 26.6621 72.0404C26.5551 72.1305 26.4357 72.2048 26.3076 72.2609C26.0797 72.3627 41.3833 72.3966 89.5564 72.4051C134.395 72.4051 153.084 72.4051 153.033 72.2864C152.982 72.1676 152.923 72.1846 152.89 72.2185C152.856 72.2524 152.712 72.2185 152.569 72.1422C152.464 72.0779 152.35 72.0293 152.231 71.998C152.168 71.9819 152.11 71.9498 152.062 71.9046C151.974 71.841 151.867 71.8083 151.759 71.8113C151.632 71.8113 151.539 71.752 151.539 71.6841C151.539 71.6162 151.488 71.5908 151.421 71.6247C151.405 71.6338 151.388 71.6396 151.371 71.642C151.353 71.6443 151.335 71.6431 151.317 71.6384C151.3 71.6336 151.284 71.6255 151.27 71.6144C151.256 71.6033 151.244 71.5895 151.235 71.5738C151.188 71.5298 151.132 71.4958 151.071 71.4739C151.01 71.4521 150.945 71.4428 150.881 71.4466C150.802 71.4466 150.724 71.4309 150.652 71.4003C150.579 71.3697 150.514 71.3249 150.459 71.2685C150.362 71.1629 150.229 71.099 150.087 71.0903C149.858 71.0513 149.638 70.9708 149.437 70.8528C149.209 70.7171 149.015 70.6408 149.015 70.6832C149.015 70.7256 148.948 70.6832 148.855 70.6238C148.762 70.5644 148.661 70.522 148.618 70.5644C148.576 70.6068 148.534 70.5644 148.534 70.4966C148.534 70.4287 148.458 70.3693 148.357 70.4033C148.293 70.4186 148.227 70.4165 148.164 70.3971C148.102 70.3777 148.046 70.3417 148.002 70.293C147.885 70.1836 147.738 70.1126 147.58 70.0894C147.445 70.0894 147.335 70.0385 147.335 69.9876C147.335 69.9367 147.023 69.7841 146.576 69.6908C146.407 69.6396 146.248 69.5624 146.103 69.4617C145.963 69.3625 145.801 69.3012 145.63 69.2836C145.512 69.2836 145.419 69.2242 145.419 69.1479C145.419 69.0715 145.31 69.0546 145.166 69.1479C145.023 69.2412 144.93 69.1479 145.006 69.0715C145.082 68.9952 145.006 68.9443 144.904 68.9952C144.844 69.0123 144.779 69.0109 144.719 68.9913C144.659 68.9717 144.606 68.9347 144.567 68.8849C144.533 68.8396 144.488 68.8046 144.436 68.7836C144.384 68.7626 144.327 68.7566 144.271 68.7662C144.122 68.7812 143.971 68.7486 143.841 68.6729C143.689 68.5965 143.208 68.4014 142.777 68.2403C142.471 68.1382 142.173 68.0164 141.882 67.8755C141.646 67.7625 141.404 67.6634 141.157 67.5786C140.608 67.3836 139.857 67.0697 139.24 66.7898C139.105 66.7304 138.329 66.3996 137.502 66.0688C136.674 65.738 135.813 65.3817 135.645 65.2884C135.476 65.1951 135.011 65.0339 134.682 64.9152C134.437 64.8327 134.197 64.7335 133.965 64.6183C133.897 64.6183 133.568 64.4487 133.239 64.3214C132.91 64.1942 132.395 63.9991 132.099 63.8719L131.145 63.4562C130.909 63.3629 130.614 63.2272 130.487 63.1678L129.162 62.6334L127.845 62.0906C127.71 62.0227 127.305 61.8615 126.942 61.7258C126.579 61.5901 126.174 61.4289 126.047 61.3696L124.722 60.8267C123.751 60.4365 123.329 60.2499 122.569 59.9191C121.81 59.5883 121.177 59.3253 120.645 59.1302C120.4 59.046 120.16 58.9469 119.927 58.8333C119.86 58.8333 119.455 58.6298 119.024 58.4686C118.594 58.3074 118.112 58.1123 117.952 58.0275C117.829 57.9607 117.699 57.9094 117.564 57.8748C117.442 57.8301 117.33 57.7608 117.235 57.6713C117.087 57.5509 116.914 57.4666 116.728 57.4253C116.536 57.3852 116.353 57.3105 116.188 57.2047C116.05 57.1136 115.895 57.0529 115.732 57.0266C115.631 57.0266 115.546 56.9757 115.546 56.9163C115.546 56.857 115.437 56.84 115.293 56.9163C115.15 56.9927 115.057 56.9163 115.133 56.823C115.209 56.7297 115.133 56.6873 115.04 56.7382C114.98 56.7574 114.916 56.7579 114.855 56.7398C114.795 56.7216 114.742 56.6856 114.702 56.6364C114.616 56.5375 114.495 56.4766 114.365 56.4668C114.137 56.4223 113.918 56.3422 113.715 56.2293C113.47 56.0935 113.267 56.0087 113.267 56.0511C113.267 56.0935 113.099 56.0511 112.879 55.9069C112.714 55.8065 112.53 55.7429 112.339 55.7203C112.254 55.7203 112.187 55.7203 112.187 55.627C112.187 55.5337 112.187 55.5083 112.102 55.5252C111.947 55.5004 111.796 55.4517 111.655 55.381C111.513 55.308 111.358 55.262 111.199 55.2453C111.149 55.2453 111.115 55.2453 111.115 55.1605C111.115 55.0757 110.895 55.0163 110.625 54.9739C110.355 54.9315 110.169 54.8466 110.203 54.7957C110.237 54.7449 110.127 54.6855 109.958 54.6855C109.82 54.6972 109.682 54.658 109.57 54.5752C109.426 54.4315 109.239 54.3392 109.038 54.3123C108.882 54.2652 108.732 54.1997 108.591 54.1172C108.469 54.0449 108.339 53.988 108.203 53.9475C108.11 54.0154 107.629 53.7779 107.629 53.6761C107.629 53.5743 107.553 53.5743 107.468 53.6167C107.429 53.6368 107.386 53.6473 107.342 53.6473C107.298 53.6473 107.254 53.6368 107.215 53.6167C107.174 53.5676 107.117 53.5345 107.055 53.5234C106.584 53.3558 106.127 53.1516 105.687 52.9127C105.502 52.8194 105.299 52.7685 105.231 52.8109C105.164 52.8533 105.08 52.8109 105.046 52.7006C105.037 52.6769 105.024 52.6551 105.007 52.6366C104.99 52.6181 104.97 52.6033 104.947 52.593C104.924 52.5827 104.899 52.5771 104.874 52.5767C104.849 52.5762 104.824 52.5809 104.801 52.5903C104.708 52.5903 104.632 52.5903 104.632 52.514C104.632 52.4377 104.581 52.4037 104.522 52.4377C104.463 52.4716 104.32 52.4377 104.202 52.2935C104.083 52.1493 103.974 52.0984 103.948 52.1238C103.923 52.1493 103.197 51.9966 103.197 51.8863C103.197 51.776 103.13 51.7845 103.045 51.8015C102.86 51.7877 102.68 51.7295 102.522 51.6318C102.311 51.5216 102.108 51.4622 102.066 51.5046C102.024 51.547 101.999 51.5046 101.999 51.4452C101.999 51.3858 101.897 51.301 101.779 51.301C101.612 51.2831 101.452 51.2217 101.315 51.1229C101.18 51.0296 101.036 50.9787 101.002 51.0126C100.969 51.0465 100.732 50.9617 100.479 50.826C100.289 50.7151 100.085 50.6323 99.8714 50.58C99.787 50.58 99.7194 50.5291 99.7194 50.4697C99.7194 50.4104 99.5 50.334 99.2383 50.2916C98.9766 50.2492 98.7572 50.1644 98.7572 50.0965C98.7572 50.0287 98.6728 50.0117 98.5799 50.0965C98.4871 50.1814 98.3942 50.0965 98.3942 50.0202C98.3942 49.9438 98.3182 49.9014 98.2085 49.9438C98.1847 49.9535 98.1592 49.9582 98.1335 49.9579C98.1079 49.9575 98.0825 49.9521 98.059 49.9418C98.0354 49.9315 98.0141 49.9167 97.9963 49.8981C97.9785 49.8795 97.9646 49.8576 97.9553 49.8336C97.9428 49.7886 97.9165 49.7488 97.8801 49.7199C97.8437 49.6909 97.7991 49.6743 97.7527 49.6724C97.4135 49.6787 97.0836 49.5612 96.8242 49.3416C96.7324 49.2409 96.6052 49.1801 96.4696 49.1719C96.4216 49.1764 96.3732 49.1687 96.329 49.1494C96.2847 49.1301 96.246 49.1 96.2164 49.0617C96.0893 48.9582 95.9324 48.8987 95.769 48.892C95.5883 48.8787 95.4167 48.8074 95.2794 48.6885C95.2581 48.6559 95.2294 48.629 95.1956 48.6098C95.1618 48.5906 95.124 48.5798 95.0853 48.5782C94.8996 48.5782 94.4353 48.4255 94.4353 48.3152C94.4353 48.205 94.3594 48.2474 94.2581 48.3152C94.1568 48.3831 94.0808 48.3152 94.0808 48.2304C94.0808 48.1456 94.0048 48.1201 93.9036 48.1541C93.8485 48.1683 93.7906 48.1662 93.7367 48.1481C93.6828 48.1301 93.6352 48.0968 93.5997 48.0523C93.5598 48.0062 93.5074 47.9729 93.4489 47.9563C93.3904 47.9397 93.3284 47.9407 93.2705 47.959C93.1439 48.0099 93.1101 47.959 93.1692 47.8911C93.2283 47.8233 93.1692 47.7554 93.0257 47.7554C92.914 47.761 92.8038 47.7281 92.7134 47.6621C92.6467 47.6048 92.5643 47.5692 92.477 47.5603C92.1731 47.5603 91.8017 47.3567 91.8017 47.2465C91.8017 47.1362 91.7511 47.1701 91.6836 47.204C91.6681 47.2131 91.651 47.219 91.6332 47.2213C91.6154 47.2236 91.5974 47.2224 91.5801 47.2177C91.5628 47.2129 91.5466 47.2048 91.5325 47.1937C91.5184 47.1826 91.5066 47.1688 91.4979 47.1531C91.4576 47.1111 91.409 47.078 91.3552 47.0561C91.3014 47.0342 91.2436 47.0239 91.1855 47.0259C91.0285 47.0177 90.8792 46.9547 90.7635 46.8478C90.6622 46.746 90.5271 46.6951 90.468 46.7375C90.409 46.7799 90.2401 46.7375 90.0966 46.6103C89.7506 46.3728 89.0584 46.3643 88.9655 46.6103M25.6914 78.2664V80.387H89.3791H153.075V76.1543H25.6914V78.2664ZM31.0599 83.8308H30.697V85.6376V87.4358H35.9811L35.8966 87.826C35.8281 88.3153 35.7858 88.808 35.77 89.3019C35.7194 90.9984 35.6265 92.5846 35.5252 93.5431C35.483 94.0436 35.4324 94.7985 35.4155 95.2396C35.4155 96.4186 35.2467 98.5732 35.1623 99.4808C35.1623 99.9134 35.0779 100.617 35.061 101.05C35.0441 101.483 35.0103 102.187 34.9681 102.619C34.8668 103.544 34.7487 105.647 34.5798 109.185C34.5729 109.993 34.5137 110.801 34.4026 111.602C34.4026 111.602 34.4026 112.086 34.3435 112.688C34.2844 113.29 34.2675 114.147 34.2338 114.613C34.2 115.08 34.1578 116.123 34.1578 116.929C34.2093 117.425 34.1664 117.925 34.0312 118.405C33.9721 118.405 33.9214 118.617 33.9299 118.863C33.9299 119.558 33.8201 122.137 33.7273 122.807C33.6851 123.138 33.6344 123.791 33.6176 124.258C33.6176 125.428 33.4487 127.591 33.3643 128.592C33.3643 129.059 33.2799 129.788 33.263 130.221C33.2039 131.417 33.0858 133.308 33.0014 134.377C32.9592 134.912 32.9085 135.7 32.8916 136.125C32.8747 136.549 32.8241 137.533 32.7734 138.296C32.7228 139.059 32.6806 139.916 32.6806 140.196V140.713H25.7505V142.766C25.7252 143.454 25.7535 144.144 25.8349 144.827H153.075V142.783C153.024 142.088 153.066 141.389 153.202 140.705C153.261 140.705 151.716 140.705 149.75 140.705C148.624 140.765 147.495 140.74 146.373 140.629C146.491 140.552 146.5 140.501 146.373 140.442C146.326 140.386 146.291 140.321 146.269 140.251C146.247 140.181 146.24 140.108 146.247 140.035C146.247 139.857 146.247 138.949 146.179 138.025C146.111 137.1 146.095 136.158 146.095 135.946C146.095 135.734 146.095 135.548 146.019 135.548C145.927 135.205 145.893 134.85 145.917 134.496C145.917 133.919 145.867 132.927 145.833 132.299C145.799 131.671 145.757 130.857 145.74 130.492C145.749 130.231 145.694 129.972 145.58 129.737C145.504 129.678 145.529 129.602 145.639 129.525C145.749 129.449 145.765 129.406 145.698 129.406C145.63 129.406 145.571 129.093 145.563 128.711C145.554 128.329 145.512 127.396 145.47 126.633C145.428 125.869 145.394 124.936 145.386 124.555C145.403 124.319 145.372 124.082 145.293 123.859C145.25 123.859 145.2 123.723 145.191 123.554C145.183 123.384 145.191 123.274 145.301 123.325C145.411 123.376 145.402 123.325 145.301 123.257C145.2 123.189 145.158 122.629 145.065 120.424C145.051 119.899 145.008 119.375 144.938 118.854C144.867 118.314 144.824 117.771 144.812 117.226C144.812 116.199 144.71 114.605 144.609 112.586C144.601 112.462 144.551 112.345 144.465 112.255C144.381 112.199 144.398 112.131 144.516 112.052C144.66 111.958 144.66 111.933 144.516 111.924C144.373 111.916 144.39 111.857 144.44 111.712C144.489 111.609 144.515 111.496 144.516 111.381C144.415 110.33 144.364 109.685 144.314 108.608C144.229 106.911 144.195 106.572 144.094 106.402C143.993 106.233 144.094 106.258 144.162 106.258C144.229 106.258 144.271 106.258 144.162 106.131C144.052 106.004 144.018 105.987 144.162 105.936C144.305 105.885 144.288 105.834 144.246 105.775C144.058 104.144 143.954 102.505 143.934 100.863C143.934 100.651 143.934 100.473 143.832 100.473C143.731 100.473 143.756 100.329 143.832 100.142C143.913 99.7965 143.913 99.4365 143.832 99.0906C143.832 98.8191 143.74 97.903 143.706 97.0378C143.71 96.2824 143.654 95.5278 143.537 94.7815C143.487 94.6606 143.461 94.5309 143.461 94.3998C143.461 94.2688 143.487 94.1391 143.537 94.0181C143.565 93.9976 143.586 93.9673 143.593 93.9329C143.601 93.8985 143.596 93.8624 143.579 93.8315C143.41 93.0229 143.331 92.1979 143.343 91.3716C143.327 90.5657 143.265 89.7614 143.157 88.9627C143.129 88.712 143.115 88.46 143.115 88.2077V87.4528H148.407V83.7121L143.073 83.7715C140.135 83.7715 136.421 83.8308 134.826 83.8308H131.846V87.4443H137.147L137.063 87.8175C136.995 88.287 136.952 88.7599 136.936 89.2341C136.793 92.627 136.767 93.2293 136.691 93.7721C136.691 94.103 136.598 94.7561 136.582 95.2226C136.582 96.3508 136.413 98.4035 136.32 99.4638C136.32 99.9303 136.235 100.694 136.219 101.16C136.219 101.958 136.159 102.484 135.974 104.96C135.974 105.52 135.881 106.394 135.856 106.886C135.813 107.946 135.704 109.965 135.619 111.127C135.619 111.585 135.535 112.374 135.51 112.874C135.4 114.749 135.324 115.979 135.248 116.853C135.172 117.726 135.147 118.167 135.037 120.771C135.037 121.501 134.978 122.095 134.969 122.095C134.784 123.634 134.685 125.184 134.674 126.735C134.674 127.583 134.573 128.431 134.53 128.719C134.488 129.008 134.437 129.636 134.421 130.17C134.404 130.704 134.353 131.731 134.311 132.46C134.269 133.19 134.201 134.25 134.176 134.81C134.151 135.37 134.1 136.082 134.075 136.379C134.075 136.973 133.847 140.009 133.83 140.451V140.713H127.448C123.937 140.713 121.058 140.713 121.058 140.629C121.058 140.425 120.915 137.745 120.898 137.439C120.896 137.296 120.858 137.156 120.788 137.032C120.72 136.926 120.683 136.802 120.683 136.676C120.683 136.549 120.72 136.426 120.788 136.32C120.82 136.3 120.844 136.269 120.853 136.232C120.863 136.196 120.858 136.157 120.839 136.125C120.667 135.256 120.588 134.372 120.603 133.486C120.595 132.739 120.533 131.994 120.417 131.256C120.332 131.256 120.341 130.586 120.417 130.526C120.431 130.513 120.443 130.496 120.451 130.478C120.459 130.46 120.463 130.44 120.463 130.42C120.463 130.4 120.459 130.381 120.451 130.362C120.443 130.344 120.431 130.328 120.417 130.314C120.235 129.479 120.166 128.623 120.214 127.769C120.196 127.094 120.14 126.42 120.045 125.751C119.97 125.352 119.978 125.165 120.045 125.131C120.113 125.097 120.13 125.072 120.045 125.064C120 125.057 119.959 125.033 119.93 124.997C119.902 124.96 119.889 124.914 119.894 124.868C119.894 124.758 119.953 124.716 120.037 124.767C120.121 124.818 120.138 124.767 120.088 124.724C119.877 123.104 119.767 121.472 119.759 119.838C119.759 119.66 119.758 119.508 119.649 119.508C119.539 119.508 119.539 119.372 119.539 119.202C119.539 119.033 119.581 118.922 119.674 118.982C119.767 119.041 119.775 118.982 119.733 118.931C119.544 117.89 119.453 116.833 119.463 115.775C119.387 114.02 119.379 113.943 119.252 113.74C119.235 113.719 119.224 113.695 119.217 113.669C119.211 113.643 119.211 113.616 119.217 113.59C119.222 113.564 119.234 113.539 119.25 113.518C119.267 113.497 119.287 113.48 119.311 113.468C119.446 113.383 119.446 113.366 119.311 113.366C119.176 113.366 119.176 113.29 119.235 113.154C119.294 113.019 119.328 112.925 119.235 112.221C119.235 111.95 119.142 111.034 119.109 110.169C119.033 108.268 119.016 108.031 118.923 107.878C118.887 107.739 118.887 107.593 118.923 107.454C118.988 107.055 118.988 106.648 118.923 106.25C118.923 105.885 118.83 104.935 118.788 104.138C118.831 103.37 118.755 102.6 118.56 101.856C118.492 101.703 118.501 101.61 118.56 101.576C118.577 101.572 118.594 101.564 118.607 101.552C118.621 101.541 118.632 101.526 118.638 101.509C118.645 101.492 118.648 101.474 118.646 101.456C118.644 101.438 118.637 101.421 118.627 101.406C118.469 100.499 118.398 99.5788 118.416 98.658C118.396 97.9909 118.34 97.3255 118.248 96.6646C118.172 96.2066 118.079 94.7391 118.037 93.4159C117.961 90.6082 117.952 90.5064 117.834 90.3877C117.765 90.2817 117.729 90.1579 117.729 90.0314C117.729 89.9049 117.765 89.7812 117.834 89.6752C117.865 89.6589 117.888 89.6312 117.899 89.598C117.91 89.5648 117.908 89.5287 117.893 89.497C117.825 89.274 117.785 89.0431 117.775 88.81C117.775 88.4961 117.707 88.1483 117.69 88.0466C117.623 87.4189 117.513 87.4443 120.332 87.4443H123.067L123.143 86.8845C123.143 86.5791 123.219 85.7394 123.219 85.0184V83.7121H106.54V87.4443H111.79L111.74 88.1992C111.74 88.6149 111.664 89.7685 111.63 90.7439C111.596 91.7194 111.545 92.9578 111.512 93.4583C111.292 96.5204 111.199 97.6995 111.14 98.2169C111.105 98.4783 111.088 98.7419 111.09 99.0058C111.132 99.4214 110.794 105.13 110.684 105.876C110.608 106.402 110.516 107.81 110.482 109.066C110.482 109.43 110.451 109.793 110.389 110.152C110.327 110.49 110.299 110.834 110.305 111.178C110.305 112.054 110.22 113.468 110.051 115.419C109.967 116.505 109.933 117.192 109.849 119.279C109.849 120.076 109.747 120.975 109.705 121.272C109.641 121.75 109.601 122.231 109.587 122.714C109.545 123.927 109.427 126.107 109.334 127.116C109.334 127.574 109.249 128.287 109.233 128.677C109.216 129.067 109.165 129.865 109.123 130.433C109.081 131.001 109.021 132.078 108.979 132.842C108.937 133.605 108.895 134.538 108.878 134.827C108.861 135.115 108.802 135.946 108.76 136.574C108.701 137.592 108.591 139.059 108.515 139.967C108.515 140.137 108.515 140.366 108.515 140.484C108.515 140.603 108.135 140.688 102.193 140.663H95.8872L95.8197 139.942C95.7814 139.572 95.7645 139.201 95.769 138.83C95.769 138.61 95.7184 138.432 95.6509 138.432C95.5833 138.432 95.5496 138.321 95.6509 138.101C95.6906 137.954 95.7132 137.803 95.7184 137.651C95.6424 137.134 95.5833 136.337 95.5242 134.937C95.4398 133.088 95.4229 132.91 95.2879 132.613C95.2296 132.457 95.2296 132.285 95.2879 132.129C95.3597 131.953 95.3597 131.755 95.2879 131.578C95.1707 130.839 95.0974 130.094 95.0684 129.347C95.0009 128.278 94.8658 126.107 94.7645 124.512C94.6633 122.918 94.5029 120.271 94.41 118.668C94.1652 114.69 93.912 110.669 93.6925 107.039C93.2283 99.5401 93.1354 98.0642 92.9666 95.3414C92.8737 93.7552 92.7387 91.694 92.6796 90.7609C92.6205 89.8279 92.5614 88.7082 92.5614 88.2586V87.4104H97.7442V85.5443V83.6697H81.166V85.5273V87.3934H86.4417L86.3826 88.335C86.2728 89.8363 86.1715 91.4989 86.1293 92.3386C86.0449 94.1199 85.9436 95.7994 85.9014 96.1981C85.9014 96.4271 85.817 97.5129 85.7748 98.6071C85.6989 100.643 85.606 102.399 85.2937 107.463C85.1924 109.057 85.032 111.636 84.9392 113.188C84.7788 115.852 84.6437 117.972 84.2217 124.885C84.1204 126.438 83.96 129.127 83.8587 130.891C83.7574 132.655 83.6561 134.106 83.6224 134.148C83.5886 134.191 83.386 137.159 83.3944 137.872C83.3944 138.152 83.3944 138.381 83.3269 138.381C83.2461 138.717 83.2149 139.062 83.2341 139.407C83.2439 139.791 83.2128 140.175 83.1412 140.552C83.0737 140.654 70.3783 140.747 70.353 140.646C70.3277 140.544 70.277 139.314 70.1842 137.719C70.0913 136.125 69.931 133.478 69.8297 131.875C69.7284 130.272 69.568 127.591 69.4752 125.937C69.3823 124.283 69.2641 122.68 69.2304 122.315C69.1966 121.951 69.1291 120.738 69.0953 119.609C69.0193 117.014 69.0025 116.751 68.8758 116.547C68.8592 116.527 68.8474 116.504 68.8413 116.478C68.8352 116.453 68.835 116.427 68.8407 116.401C68.8464 116.376 68.8579 116.352 68.8742 116.332C68.8906 116.311 68.9113 116.295 68.9349 116.284C69.0278 116.225 69.0531 116.174 68.9856 116.174C68.918 116.174 68.8505 115.784 68.8421 115.326C68.8421 114.605 68.707 112.009 68.6564 111.085C68.6528 110.96 68.6014 110.841 68.5129 110.754C68.4285 110.694 68.4453 110.618 68.5635 110.542C68.6817 110.465 68.6901 110.423 68.5635 110.423C68.5179 110.417 68.4766 110.393 68.4483 110.356C68.4199 110.32 68.4068 110.274 68.4116 110.228C68.4116 110.126 68.4622 110.075 68.5213 110.118C68.5804 110.16 68.6057 110.067 68.572 109.914C68.4434 108.983 68.3673 108.046 68.344 107.106C68.3949 106.399 68.3466 105.688 68.2005 104.994C68.189 104.978 68.1815 104.959 68.1788 104.939C68.176 104.919 68.178 104.898 68.1846 104.879C68.1912 104.86 68.2022 104.843 68.2167 104.829C68.2312 104.815 68.2488 104.805 68.2681 104.799C68.3863 104.748 68.3863 104.731 68.2681 104.731C68.2227 104.721 68.1824 104.695 68.1545 104.658C68.1267 104.621 68.113 104.574 68.1161 104.528C68.1161 104.417 68.1752 104.375 68.2596 104.426C68.344 104.477 68.3609 104.426 68.3103 104.384C68.1007 102.726 67.9908 101.058 67.9811 99.3875C67.9811 99.2008 67.9811 99.0566 67.8798 99.0566C67.7785 99.0566 67.8038 98.904 67.8798 98.7258C67.9666 98.3778 67.9666 98.0136 67.8798 97.6655C67.8123 97.1142 67.6688 94.2726 67.6772 93.6619C67.6772 93.4413 67.6772 93.2632 67.5844 93.2632C67.4915 93.2632 67.4577 92.6779 67.5844 92.5931C67.6081 92.5679 67.6213 92.5345 67.6213 92.4998C67.6213 92.4651 67.6081 92.4317 67.5844 92.4065C67.4208 91.6086 67.3444 90.7951 67.3564 89.9805C67.3564 89.3783 67.2805 88.5809 67.2551 88.1992L67.1961 87.5037H72.573V83.7715H55.9188V87.5037H61.262V88.0211C61.262 88.301 61.1945 88.8693 61.1523 89.3783C61.1101 89.8872 61.051 90.5743 61.0257 90.9984C60.899 94.0181 60.8568 94.7476 60.7893 95.2396C60.7269 95.7179 60.6902 96.1993 60.6796 96.6816C60.6796 97.8522 60.5107 99.8964 60.4095 100.923C60.4095 101.389 60.325 102.144 60.3082 102.619C60.3082 103.467 60.2322 104.316 60.0634 106.538C60.0634 107.098 59.9705 107.938 59.9536 108.404C59.903 109.583 59.8017 111.483 59.7173 112.645C59.6329 113.807 59.5654 114.902 59.4894 116.683C59.4894 117.446 59.3965 118.286 59.3459 118.558C59.2952 118.829 59.253 119.499 59.2277 120.059C59.2277 121.476 59.0758 123.24 58.9914 124.097C58.9519 124.449 58.9321 124.803 58.9323 125.157C58.966 125.566 58.966 125.977 58.9323 126.387C58.9323 126.658 58.8479 127.956 58.8057 129.271C58.7635 130.586 58.7044 131.714 58.679 131.765C58.6537 131.815 58.4427 134.742 58.181 139.56L58.0713 140.756H45.148L45.0721 139.059C45.0721 138.152 44.937 136.888 44.8779 136.26C44.8188 135.633 44.7597 134.733 44.7597 134.267C44.7599 132.776 44.6782 131.287 44.515 129.805C44.515 129.805 44.515 129.347 44.4559 128.787C44.4052 127.651 44.287 125.097 44.2448 124.444C44.2385 124.252 44.1985 124.063 44.1267 123.884C44.115 123.868 44.1072 123.849 44.1039 123.829C44.1006 123.809 44.1018 123.788 44.1075 123.768C44.1132 123.749 44.1231 123.731 44.1367 123.716C44.1502 123.701 44.167 123.689 44.1858 123.681C44.3124 123.63 44.3124 123.622 44.1858 123.613C44.1395 123.605 44.0981 123.579 44.0699 123.541C44.0417 123.504 44.0288 123.456 44.0338 123.409C44.0338 123.299 44.0845 123.257 44.1689 123.308C44.2533 123.359 44.2786 123.308 44.228 123.265C44.0098 121.649 43.8998 120.019 43.8988 118.388C43.8988 118.201 43.8481 118.057 43.789 118.057C43.7299 118.057 43.7215 117.972 43.7215 117.794C43.7215 117.616 43.7721 117.514 43.865 117.565C43.9578 117.616 43.9663 117.565 43.9156 117.514C43.7237 116.474 43.636 115.417 43.654 114.359C43.5696 112.594 43.5611 112.527 43.4345 112.332C43.4178 112.311 43.406 112.287 43.3999 112.261C43.3938 112.235 43.3936 112.208 43.3993 112.182C43.4049 112.156 43.4163 112.131 43.4327 112.11C43.449 112.089 43.4698 112.072 43.4936 112.06C43.6371 111.975 43.6371 111.958 43.4936 111.95C43.3501 111.941 43.3585 111.882 43.4176 111.738C43.4767 111.594 43.5105 111.517 43.4176 110.805C43.4176 110.542 43.3248 109.617 43.2826 108.76C43.2924 108.002 43.2387 107.245 43.1222 106.496C43.0791 106.127 43.0566 105.756 43.0547 105.384C43.0795 103.731 42.958 102.079 42.6917 100.448C42.6242 100.295 42.641 100.193 42.7339 100.168C42.7514 100.164 42.7678 100.156 42.7815 100.144C42.7952 100.133 42.8058 100.118 42.8125 100.101C42.8192 100.084 42.8216 100.066 42.8197 100.048C42.8178 100.03 42.8115 100.013 42.8014 99.9982C42.6249 98.9903 42.5457 97.9677 42.5651 96.9445C42.4807 95.0445 42.4722 94.9257 42.354 94.7391C42.2972 94.583 42.2972 94.4118 42.354 94.2556C42.399 94.1103 42.4162 93.9578 42.4047 93.8061C42.2888 92.9486 42.2296 92.0843 42.2274 91.219C42.2451 90.4708 42.1829 89.7229 42.0417 88.9881C41.9573 88.9881 41.9573 88.318 42.0417 88.2671C42.1261 88.2162 42.1008 88.0805 42.0417 87.9108C41.8729 87.4867 41.8898 87.4782 44.6247 87.4782H47.157V87.0881C47.157 86.876 47.157 86.0362 47.157 85.2219V83.746H39.2731C34.9428 83.746 31.2287 83.746 31.0346 83.8139" fill="#E1E1E1"/>
</svg>
