<svg width="64" height="61" viewBox="0 0 64 61" fill="none" xmlns="http://www.w3.org/2000/svg">
<path d="M0.710938 55.5479H4.55456V17.5579L24.6842 14.3771L27.8458 15.499L30.542 37.7703L31.5874 38.7201V3.89165L51.717 0.710938L60.1946 3.72592V55.5542H63.1777V60.7109H46.828V6.6899L36.4764 8.32806V60.7046H19.7952V20.3497L9.44354 21.9879V60.7046H0.710938V55.5479ZM42.449 17.0352C42.449 18.361 42.449 19.6868 42.449 21.0126C42.8378 20.9744 43.2266 20.9362 43.6218 20.8979C44.0106 20.8597 44.4058 20.8214 44.801 20.7768C44.801 19.4446 44.801 18.106 44.801 16.7675C44.4058 16.8121 44.0106 16.8567 43.6218 16.9013C43.2266 16.9523 42.8314 16.9906 42.449 17.0352ZM42.449 10.03C42.449 11.3622 42.449 12.6944 42.449 14.0138C42.8378 13.9628 43.2266 13.9118 43.6218 13.8672C44.0106 13.8162 44.4058 13.7652 44.801 13.7206C44.801 12.382 44.801 11.0435 44.801 9.69851C44.4058 9.75588 44.0106 9.80687 43.6218 9.86424C43.2266 9.9216 42.8314 9.9726 42.449 10.03ZM42.449 24.0404C42.449 25.3662 42.449 26.692 42.449 28.0179C42.8378 27.9924 43.2266 27.9605 43.6218 27.9286C44.0106 27.8967 44.4058 27.8712 44.801 27.8394C44.801 26.5072 44.801 25.1622 44.801 23.83C44.4058 23.8619 44.0106 23.9001 43.6218 23.9384C43.2266 23.9703 42.8314 24.0085 42.449 24.0404ZM42.449 31.0456C42.449 32.3714 42.449 33.6972 42.449 35.0231C42.8378 35.0039 43.2266 34.9848 43.6218 34.9657C44.0106 34.9466 44.4058 34.9274 44.801 34.9083C44.801 33.5761 44.801 32.2375 44.801 30.899C44.4058 30.9245 44.0106 30.95 43.6218 30.9755C43.2266 30.9946 42.8314 31.0201 42.449 31.0456ZM42.449 38.0444C42.449 39.3702 42.449 40.6961 42.449 42.0219C42.8378 42.0091 43.2266 42.0028 43.6218 41.99C44.0106 41.9773 44.4058 41.9709 44.801 41.9581C44.801 40.6259 44.801 39.2874 44.801 37.9488C44.4058 37.9615 44.0106 37.9807 43.6218 37.9934C43.2266 38.0125 42.8314 38.0317 42.449 38.0444ZM38.2229 17.5196C38.2229 18.8199 38.2229 20.133 38.2229 21.4397C38.599 21.4015 38.975 21.3632 39.3575 21.325C39.7399 21.2867 40.1224 21.2485 40.5048 21.2102C40.5048 19.8972 40.5048 18.5713 40.5048 17.2583C40.1224 17.3029 39.7399 17.3475 39.3575 17.3857C38.9814 17.4304 38.599 17.475 38.2229 17.5196ZM38.2229 10.61C38.2229 11.9231 38.2229 13.2298 38.2229 14.5365C38.599 14.4919 38.975 14.4409 39.3575 14.3963C39.7399 14.3453 40.1224 14.3007 40.5048 14.256C40.5048 12.943 40.5048 11.6171 40.5048 10.2977C40.1224 10.3487 39.7399 10.406 39.3575 10.457C38.9814 10.508 38.599 10.559 38.2229 10.61ZM38.2229 24.4165C38.2229 25.7168 38.2229 27.0299 38.2229 28.3366C38.599 28.3111 38.975 28.2792 39.3575 28.2537C39.7399 28.2218 40.1224 28.1963 40.5048 28.1645C40.5048 26.8514 40.5048 25.5256 40.5048 24.2125C40.1224 24.2443 39.7399 24.2826 39.3575 24.3145C38.9814 24.3463 38.599 24.3846 38.2229 24.4165ZM38.2229 31.3133C38.2229 32.62 38.2229 33.9267 38.2229 35.2334C38.599 35.2143 38.975 35.1952 39.3575 35.176C39.7399 35.1569 40.1224 35.1378 40.5048 35.1187C40.5048 33.8056 40.5048 32.4798 40.5048 31.1667C40.1224 31.1922 39.7399 31.2177 39.3575 31.2432C38.9814 31.2623 38.599 31.2878 38.2229 31.3133ZM38.2229 38.2101C38.2229 39.5168 38.2229 40.8235 38.2229 42.1302C38.599 42.1175 38.975 42.1111 39.3575 42.1048C39.7399 42.092 40.1224 42.0856 40.5048 42.0729C40.5048 40.7598 40.5048 39.4404 40.5048 38.1209C40.1224 38.14 39.7399 38.1528 39.3575 38.1655C38.9814 38.1783 38.599 38.1974 38.2229 38.2101ZM42.449 45.1261C42.449 46.4519 42.449 47.7841 42.449 49.1036C42.8378 49.1036 43.2266 49.1036 43.6218 49.1036C44.0106 49.1036 44.4058 49.1036 44.801 49.1036C44.801 47.7714 44.801 46.4392 44.801 45.0942C44.4058 45.1006 44.0106 45.107 43.6218 45.107C43.2266 45.1197 42.8314 45.1261 42.449 45.1261ZM38.2229 45.1898C38.2229 46.4965 38.2229 47.8033 38.2229 49.1036C38.599 49.1036 38.975 49.1036 39.3575 49.1036C39.7399 49.1036 40.1224 49.1036 40.5048 49.1036C40.5048 47.7905 40.5048 46.4774 40.5048 45.158C40.1224 45.1644 39.7399 45.1707 39.3575 45.1707C38.9814 45.1771 38.599 45.1835 38.2229 45.1898ZM11.1709 30.7524C11.1709 32.0591 11.1709 33.3658 11.1709 34.6725C11.547 34.6406 11.9231 34.6087 12.2992 34.5769C12.6816 34.545 13.0641 34.5067 13.4401 34.4749C13.4401 33.1554 13.4401 31.836 13.4401 30.5165C13.0577 30.5548 12.6752 30.593 12.2992 30.6376C11.9167 30.6695 11.547 30.7078 11.1709 30.7524ZM15.3843 30.3062C15.3843 31.6384 15.3843 32.9706 15.3843 34.3028C15.7731 34.2709 16.1683 34.2327 16.5571 34.2008C16.9459 34.1689 17.3411 34.1307 17.7427 34.0924C17.7427 32.7475 17.7427 31.4089 17.7427 30.0576C17.3411 30.1022 16.9459 30.1404 16.5571 30.1851C16.1683 30.2233 15.7731 30.2679 15.3843 30.3062ZM15.3843 23.2818C15.3843 24.614 15.3843 25.9462 15.3843 27.2784C15.7731 27.2338 16.1619 27.1892 16.5571 27.1446C16.9459 27.1 17.3411 27.049 17.7427 27.0044C17.7427 25.6594 17.7427 24.3208 17.7427 22.9695C17.3475 23.0269 16.9523 23.0779 16.5571 23.1289C16.1619 23.1799 15.7731 23.2309 15.3843 23.2818ZM15.3843 37.3305C15.3843 38.6627 15.3843 39.9949 15.3843 41.3271C15.7731 41.3016 16.1683 41.2825 16.5571 41.257C16.9459 41.2379 17.3411 41.2124 17.7427 41.1869C17.7427 39.8419 17.7427 38.497 17.7427 37.152C17.3411 37.1839 16.9459 37.2094 16.5571 37.2413C16.1683 37.2731 15.7731 37.305 15.3843 37.3305ZM15.3843 44.3548C15.3843 45.687 15.3843 47.0192 15.3843 48.3514C15.7731 48.3387 16.1683 48.3259 16.5571 48.3196C16.9459 48.3068 17.3411 48.2941 17.7427 48.2813C17.7427 46.9364 17.7427 45.5914 17.7427 44.2465C17.3411 44.2656 16.9459 44.2847 16.5571 44.2975C16.1683 44.3166 15.7731 44.3357 15.3843 44.3548ZM15.3843 51.3728C15.3843 52.705 15.3843 54.0372 15.3843 55.363C15.7731 55.363 16.1619 55.363 16.5571 55.363C16.9459 55.363 17.3411 55.363 17.7427 55.363C17.7427 54.0244 17.7427 52.6795 17.7427 51.3345C17.3475 51.3409 16.9523 51.3473 16.5571 51.3537C16.1619 51.36 15.7731 51.3664 15.3843 51.3728ZM11.1709 23.8491C11.1709 25.1622 11.1709 26.4689 11.1709 27.7756C11.547 27.731 11.9231 27.6864 12.2992 27.6418C12.6816 27.5972 13.0641 27.5525 13.4401 27.5079C13.4401 26.1885 13.4401 24.869 13.4401 23.5432C13.0577 23.5942 12.6752 23.6452 12.2992 23.6962C11.9167 23.7472 11.547 23.7982 11.1709 23.8491ZM11.1709 37.6492C11.1709 38.9559 11.1709 40.2626 11.1709 41.5693C11.547 41.5502 11.9231 41.5247 12.2992 41.5056C12.6816 41.4801 13.0641 41.461 13.4401 41.4355C13.4401 40.116 13.4401 38.7966 13.4401 37.4707C13.0577 37.5026 12.6752 37.5281 12.2992 37.56C11.9167 37.5918 11.547 37.6173 11.1709 37.6492ZM11.1709 44.5461C11.1709 45.8528 11.1709 47.1658 11.1709 48.4725C11.547 48.4598 11.9231 48.447 12.2992 48.4407C12.6816 48.4279 13.0641 48.4152 13.4401 48.4088C13.4401 47.0893 13.4401 45.7699 13.4401 44.4441C13.0577 44.4632 12.6752 44.4823 12.2992 44.4951C11.9167 44.5142 11.547 44.5269 11.1709 44.5461ZM11.1709 51.4429C11.1709 52.7496 11.1709 54.0627 11.1709 55.363C11.547 55.363 11.9231 55.363 12.2992 55.363C12.6816 55.363 13.0641 55.363 13.4401 55.363C13.4401 54.0499 13.4401 52.7305 13.4401 51.411C13.0577 51.4174 12.6752 51.4238 12.2992 51.4302C11.9167 51.4302 11.547 51.4365 11.1709 51.4429Z" fill="#1E4397"/>
</svg>
