<svg width="53" height="61" viewBox="0 0 53 61" fill="none" xmlns="http://www.w3.org/2000/svg">
<path d="M51.5703 56.3984H49.2266V2.96094C49.2266 1.40762 47.9674 0.148438 46.4141 0.148438H7.03906C5.48574 0.148438 4.22656 1.40762 4.22656 2.96094V56.3984H1.88281C1.10621 56.3984 0.476562 57.0281 0.476562 57.8047V60.1484H52.9766V57.8047C52.9766 57.0281 52.3469 56.3984 51.5703 56.3984ZM15.4766 9.05469C15.4766 8.27809 16.1062 7.64844 16.8828 7.64844H21.5703C22.3469 7.64844 22.9766 8.27809 22.9766 9.05469V13.7422C22.9766 14.5188 22.3469 15.1484 21.5703 15.1484H16.8828C16.1062 15.1484 15.4766 14.5188 15.4766 13.7422V9.05469ZM15.4766 20.3047C15.4766 19.5281 16.1062 18.8984 16.8828 18.8984H21.5703C22.3469 18.8984 22.9766 19.5281 22.9766 20.3047V24.9922C22.9766 25.7688 22.3469 26.3984 21.5703 26.3984H16.8828C16.1062 26.3984 15.4766 25.7688 15.4766 24.9922V20.3047ZM21.5703 37.6484H16.8828C16.1062 37.6484 15.4766 37.0188 15.4766 36.2422V31.5547C15.4766 30.7781 16.1062 30.1484 16.8828 30.1484H21.5703C22.3469 30.1484 22.9766 30.7781 22.9766 31.5547V36.2422C22.9766 37.0188 22.3469 37.6484 21.5703 37.6484ZM30.4766 56.3984H22.9766V46.5547C22.9766 45.7781 23.6062 45.1484 24.3828 45.1484H29.0703C29.8469 45.1484 30.4766 45.7781 30.4766 46.5547V56.3984ZM37.9766 36.2422C37.9766 37.0188 37.3469 37.6484 36.5703 37.6484H31.8828C31.1062 37.6484 30.4766 37.0188 30.4766 36.2422V31.5547C30.4766 30.7781 31.1062 30.1484 31.8828 30.1484H36.5703C37.3469 30.1484 37.9766 30.7781 37.9766 31.5547V36.2422ZM37.9766 24.9922C37.9766 25.7688 37.3469 26.3984 36.5703 26.3984H31.8828C31.1062 26.3984 30.4766 25.7688 30.4766 24.9922V20.3047C30.4766 19.5281 31.1062 18.8984 31.8828 18.8984H36.5703C37.3469 18.8984 37.9766 19.5281 37.9766 20.3047V24.9922ZM37.9766 13.7422C37.9766 14.5188 37.3469 15.1484 36.5703 15.1484H31.8828C31.1062 15.1484 30.4766 14.5188 30.4766 13.7422V9.05469C30.4766 8.27809 31.1062 7.64844 31.8828 7.64844H36.5703C37.3469 7.64844 37.9766 8.27809 37.9766 9.05469V13.7422Z" fill="#1E4397"/>
</svg>
