<svg width="121" height="121" viewBox="0 0 121 121" fill="none" xmlns="http://www.w3.org/2000/svg">
<circle cx="60.9355" cy="60.5078" r="59.5" stroke="#1F4497" stroke-dasharray="2 2"/>
<path d="M64.2034 46.4453V30.5078H40.8389C39.2852 30.5078 38.0352 31.7617 38.0352 33.3203V87.6953C38.0352 89.2539 39.2852 90.5078 40.8389 90.5078H80.0912C81.645 90.5078 82.895 89.2539 82.895 87.6953V49.2578H67.0071C65.4651 49.2578 64.2034 47.9922 64.2034 46.4453ZM71.8179 71.759H64.2034V81.134C64.2034 82.1699 63.3669 83.009 62.3342 83.009H58.5959C57.5632 83.009 56.7267 82.1699 56.7267 81.134V71.759H49.1123C47.444 71.759 46.6111 69.7328 47.7957 68.5527L59.0597 57.3379C59.8366 56.5633 61.0912 56.5633 61.8681 57.3379L73.1321 68.5527C74.3179 69.7328 73.4861 71.759 71.8179 71.759ZM82.0772 42.8125L70.6403 31.3281C70.1146 30.8008 69.402 30.5078 68.6543 30.5078H67.9417V45.5078H82.895V44.793C82.895 44.0547 82.6029 43.3398 82.0772 42.8125Z" fill="#1F4497"/>
</svg>
