<svg width="121" height="121" viewBox="0 0 121 121" fill="none" xmlns="http://www.w3.org/2000/svg">
<circle cx="60.4551" cy="60.5078" r="59.5" stroke="#1F4497" stroke-dasharray="2 2"/>
<path d="M79.9202 53.0082H62.1632V59.5707C62.1632 64.2231 58.3898 68.0082 53.752 68.0082C49.1141 68.0082 45.3408 64.2231 45.3408 59.5707V45.3207L37.759 49.891C35.5043 51.2387 34.1258 53.6879 34.1258 56.3129V61.8559L24.78 67.2699C22.9926 68.3012 22.3735 70.598 23.4132 72.391L32.759 88.6332C33.787 90.4262 36.0768 91.0356 37.8641 90.0043L49.9436 83.0082H65.9015C70.0254 83.0082 73.3782 79.6449 73.3782 75.5082H75.2473C77.3151 75.5082 78.9856 73.8324 78.9856 71.7582V64.2582H79.9202C81.474 64.2582 82.724 63.0043 82.724 61.4457V55.8207C82.724 54.2621 81.474 53.0082 79.9202 53.0082ZM97.1749 48.6254L87.8291 32.3832C86.8011 30.5902 84.5113 29.9809 82.724 31.0121L70.6445 38.0082H58.7053C57.3034 38.0082 55.9366 38.4066 54.745 39.1449L50.8314 41.5941C49.7333 42.2738 49.0791 43.4809 49.0791 44.7699V59.5707C49.0791 62.1606 51.1702 64.2582 53.752 64.2582C56.3338 64.2582 58.4249 62.1606 58.4249 59.5707V49.2582H79.9202C83.53 49.2582 86.4623 52.1996 86.4623 55.8207V59.1606L95.8081 53.7465C97.5955 52.7035 98.2029 50.4184 97.1749 48.6254V48.6254Z" fill="#1F4497"/>
</svg>
