<svg width="121" height="121" viewBox="0 0 121 121" fill="none" xmlns="http://www.w3.org/2000/svg">
<circle cx="60.8818" cy="60.5078" r="59.5" stroke="#1F4497" stroke-dasharray="2 2"/>
<path d="M51.7609 55.8207H70.4525C71.4852 55.8207 72.3217 54.9816 72.3217 53.9457V52.0707C72.3217 51.0347 71.4852 50.1957 70.4525 50.1957H51.7609C50.7282 50.1957 49.8918 51.0347 49.8918 52.0707V53.9457C49.8918 54.9816 50.7282 55.8207 51.7609 55.8207ZM49.8918 65.1957C49.8918 66.2316 50.7282 67.0707 51.7609 67.0707H70.4525C71.4852 67.0707 72.3217 66.2316 72.3217 65.1957V63.3207C72.3217 62.2847 71.4852 61.4457 70.4525 61.4457H51.7609C50.7282 61.4457 49.8918 62.2847 49.8918 63.3207V65.1957ZM61.1067 79.3906C59.1885 79.3906 57.2703 78.7976 55.6324 77.6105L31.2002 59.9058V84.8832C31.2002 87.9898 33.7107 90.5082 36.8077 90.5082H85.4058C88.5028 90.5082 91.0133 87.9898 91.0133 84.8832V59.9058L66.581 77.6105C64.9432 78.7965 63.025 79.3906 61.1067 79.3906ZM88.8649 49.6039C87.831 48.7906 86.8509 48.0254 85.4058 46.9308V41.7582C85.4058 38.6515 82.8953 36.1332 79.7983 36.1332H70.7387C70.3836 35.8754 70.053 35.634 69.6827 35.3644C67.7189 33.9265 63.817 30.4672 61.1067 30.5082C58.3965 30.4672 54.4958 33.9265 52.5308 35.3644C52.1605 35.634 51.8299 35.8754 51.4747 36.1332H42.4151C39.3182 36.1332 36.8077 38.6515 36.8077 41.7582V46.9308C35.3626 48.0242 34.3824 48.7906 33.3486 49.6039C32.6794 50.13 32.1382 50.8018 31.766 51.5687C31.3938 52.3355 31.2003 53.1772 31.2002 54.03V55.2781L42.4151 63.405V41.7582H79.7983V63.405L91.0133 55.2781V54.03C91.0133 52.3027 90.2212 50.6703 88.8649 49.6039V49.6039Z" fill="#1F4497"/>
</svg>
