<svg width="120" height="120" viewBox="0 0 120 120" fill="none" xmlns="http://www.w3.org/2000/svg">
<circle cx="60" cy="60" r="59.5" stroke="#1F4497" stroke-dasharray="2 2"/>
<g clip-path="url(#clip0_337_844)">
<path d="M48.8197 60C56.969 60 63.5738 53.2852 63.5738 45C63.5738 36.7148 56.969 30 48.8197 30C40.6703 30 34.0656 36.7148 34.0656 45C34.0656 53.2852 40.6703 60 48.8197 60ZM59.1475 63.75H57.2226C54.6637 64.9453 51.8166 65.625 48.8197 65.625C45.8227 65.625 42.9872 64.9453 40.4168 63.75H38.4918C29.939 63.75 23 70.8047 23 79.5V84.375C23 87.4805 25.4782 90 28.5328 90H60.2195C59.9429 89.2031 59.8276 88.3594 59.9198 87.5039L60.7036 80.3672L60.842 79.0664L61.7526 78.1406L70.6626 69.082C67.8386 65.8359 63.7467 63.75 59.1475 63.75V63.75ZM64.3691 80.7773L63.5853 87.9258C63.4585 89.1211 64.4498 90.1289 65.614 89.9883L72.6337 89.1914L88.5289 73.0313L80.2643 64.6289L64.3691 80.7773V80.7773ZM95.9636 61.5117L91.595 57.0703C90.523 55.9805 88.771 55.9805 87.699 57.0703L83.342 61.5L82.8694 61.9805L91.1455 70.3828L95.9636 65.4844C97.0356 64.3828 97.0356 62.6133 95.9636 61.5117V61.5117Z" fill="#1F4497"/>
</g>
<defs>
<clipPath id="clip0_337_844">
<rect width="73.7705" height="60" fill="white" transform="translate(23 30)"/>
</clipPath>
</defs>
</svg>
