<?xml version="1.0" standalone="no"?>
<!DOCTYPE svg PUBLIC "-//W3C//DTD SVG 20010904//EN"
 "http://www.w3.org/TR/2001/REC-SVG-20010904/DTD/svg10.dtd">
<svg version="1.0" xmlns="http://www.w3.org/2000/svg"
 width="150.000000pt" height="150.000000pt" viewBox="0 0 150.000000 150.000000"
 preserveAspectRatio="xMidYMid meet">
<metadata>
Created by potrace 1.14, written by Peter Selinger 2001-2017
</metadata>
<g transform="translate(0.000000,150.000000) scale(0.100000,-0.100000)"
fill="#000000" stroke="none">
<path d="M605 1486 c-291 -63 -515 -279 -584 -563 -23 -91 -21 -275 2 -358 65
-228 216 -407 422 -501 118 -54 314 -75 460 -49 168 30 367 165 468 318 33 50
112 217 103 217 -3 0 2 26 9 58 13 54 15 239 2 287 -32 124 -61 192 -120 279
-105 155 -277 270 -471 312 -54 12 -236 12 -291 0z"/>
</g>
</svg>
