<svg width="32" height="32" viewBox="0 0 32 32" fill="none" xmlns="http://www.w3.org/2000/svg">
<g clip-path="url(#clip0_1_196)">
<path d="M20.6087 18.8281C20.1729 16.6825 18.2721 15.0625 15.9997 15.0625C13.7273 15.0625 11.8264 16.6824 11.3906 18.8281H20.6087Z" fill="#583FBC"/>
<path d="M24.1472 20.7031H7.08475C6.4915 20.7031 6.04763 21.2472 6.16625 21.8284C6.22956 22.1385 6.29112 22.4349 6.342 22.6703L6.4125 22.9971C7.10681 26.2153 7.56556 28.3413 8.23131 29.7161C8.99625 31.2956 10.1116 32 11.8478 32C12.5601 32 13.5889 31.9177 14.2952 31.2061C15.2066 30.2877 15.1958 28.8483 15.1778 26.4637C15.1751 26.1007 15.1722 25.7256 15.1721 25.3213C15.172 24.8758 15.5136 24.4914 15.9586 24.4697C16.4334 24.4467 16.8271 24.8264 16.8271 25.2962C16.8271 25.7102 16.8242 26.0933 16.8214 26.4637C16.8034 28.8484 16.7926 30.2878 17.7041 31.2061C18.4104 31.9177 19.4391 32 20.1515 32C21.8876 32 23.003 31.2956 23.7679 29.7161C24.4337 28.3413 24.8924 26.2153 25.5868 22.9971L25.6572 22.6706C25.7081 22.4351 25.7696 22.1386 25.8329 21.8284C25.9516 21.2472 25.5077 20.7031 24.9144 20.7031H24.1472Z" fill="#583FBC"/>
<path d="M6.75196 13.1718H25.2475C25.6054 13.1718 25.932 12.9681 26.0895 12.6467C26.9018 10.9884 27.3017 9.14123 27.312 6.99948V6.99942C27.3208 5.10729 26.5874 3.33017 25.2469 1.99548C23.938 0.692293 22.2116 -0.014645 20.3833 0.000230044C19.3403 0.00935504 18.3392 0.24723 17.408 0.707418C16.5131 1.14967 15.4865 1.14967 14.5915 0.707418C13.6602 0.247293 12.6591 0.00935504 11.6164 0.000292544C9.78702 -0.0163325 8.06145 0.692418 6.75264 1.99554C5.41214 3.33023 4.6787 5.10736 4.68758 6.99954C4.69783 9.14129 5.0977 10.9885 5.91008 12.6468C6.06745 12.9681 6.39408 13.1718 6.75196 13.1718Z" fill="#583FBC"/>
</g>
<defs>
<clipPath id="clip0_1_196">
<rect width="32" height="32" fill="white"/>
</clipPath>
</defs>
</svg>
