<svg width="32" height="32" viewBox="0 0 32 32" fill="none" xmlns="http://www.w3.org/2000/svg">
<g clip-path="url(#clip0_1_966)">
<path d="M19.437 18.6667C18.3184 18.6667 17.3517 17.9147 17.137 16.8774L16.389 12.6347C16.3717 12.5521 16.2144 12.4307 15.9997 12.4307C15.785 12.4307 15.6277 12.5521 15.6037 12.6654L14.8664 16.8494C14.6477 17.9147 13.681 18.6667 12.5624 18.6667C11.3677 18.6667 10.3664 17.8201 10.233 16.6987L9.94505 14.2627C9.92771 14.1374 9.79705 13.4427 9.10505 10.2454C8.81438 8.90141 8.66638 7.52141 8.66638 6.14275C8.66638 4.22675 10.221 2.66675 12.1317 2.66675C12.7704 2.66675 13.3997 2.84141 13.949 3.17208C15.2144 3.93475 16.785 3.93475 18.0477 3.17341C18.5997 2.84141 19.229 2.66675 19.8677 2.66675C21.7784 2.66675 23.333 4.22675 23.333 6.14275C23.333 7.52141 23.185 8.90141 22.8944 10.2467C22.2024 13.4414 22.0717 14.1361 22.053 14.2667L21.7664 16.6987C21.6344 17.8201 20.633 18.6667 19.437 18.6667Z" fill="#583FBC"/>
<path d="M28.3333 29.3333H3.66667C1.644 29.3333 0 27.6893 0 25.6667V14.3333C0 13.0467 1.04667 12 2.33333 12H3.692C5.44 12 6.95333 13.248 7.292 14.968C7.74 17.2373 7.992 18.8427 7.992 18.8427C8.24933 21.0387 10.136 22.6667 12.3813 22.6667C13.468 22.6667 14.5147 22.2707 15.3267 21.552C15.7027 21.2187 16.2707 21.2173 16.6493 21.5507C17.4693 22.2707 18.5227 22.6667 19.6187 22.6667C21.8653 22.6667 23.7507 21.0413 24.0027 18.8853C24.008 18.8507 24.2507 17.2747 24.7067 14.968C25.0467 13.248 26.56 12 28.3053 12H29.6667C30.9533 12 32 13.0467 32 14.3333V25.6667C32 27.6893 30.356 29.3333 28.3333 29.3333Z" fill="#583FBC"/>
</g>
<defs>
<clipPath id="clip0_1_966">
<rect width="32" height="32" fill="white"/>
</clipPath>
</defs>
</svg>
