<svg width="32" height="32" viewBox="0 0 32 32" fill="none" xmlns="http://www.w3.org/2000/svg">
<path d="M28.6706 18.9198C28.1489 21.1812 27.0315 23.2618 25.4342 24.9455C23.8369 26.6291 21.818 27.8545 19.5872 28.4944C17.3563 29.1344 14.9949 29.1654 12.748 28.5845C10.5011 28.0035 8.45064 26.8317 6.80958 25.1906C5.16853 23.5496 3.99667 21.4992 3.41568 19.2523C2.83469 17.0054 2.86576 14.6439 3.50565 12.4131C4.14554 10.1822 5.37093 8.16334 7.05459 6.56603C8.73825 4.96872 10.8188 3.85122 13.0802 3.32956C13.2453 3.29165 13.4173 3.29631 13.5801 3.34309C13.7429 3.38987 13.8912 3.47724 14.011 3.59701C14.1308 3.71678 14.2182 3.86502 14.265 4.02781C14.3118 4.19061 14.3165 4.36263 14.2786 4.52774C13.8617 6.34554 13.9133 8.23945 14.4286 10.0318C14.9439 11.8242 15.9061 13.4564 17.2249 14.7751C18.5436 16.0939 20.1757 17.0561 21.9681 17.5714C23.7605 18.0867 25.6544 18.1384 27.4722 17.7214C27.6373 17.6835 27.8094 17.6882 27.9722 17.735C28.135 17.7818 28.2832 17.8692 28.403 17.989C28.5228 18.1088 28.6102 18.2571 28.657 18.4199C28.7038 18.5827 28.7085 18.7547 28.6706 18.9198Z" fill="#583FBC"/>
</svg>
