<svg width="32" height="32" viewBox="0 0 32 32" fill="none" xmlns="http://www.w3.org/2000/svg">
<g clip-path="url(#clip0_1_220)">
<path d="M30.6006 13.1243C30.0376 14.8152 29.7947 16.627 29.8955 18.4292C30.1748 23.5132 30.0647 27.3821 25.3167 30.5667C24.8513 30.8784 24.3098 31.0432 23.75 31.0432H19.6875C18.1367 31.0432 16.875 29.7815 16.875 28.2307V22.6641C16.875 22.134 16.4651 21.6609 15.9133 21.6667C15.4199 21.6765 15 22.105 15 22.6021V28.2307C15 29.7815 13.7383 31.0432 12.1875 31.0432H8.4375C7.90161 31.0432 7.37939 30.8911 6.92725 30.6033C1.97339 27.4497 1.64771 23.5786 1.98828 18.2854C2.09668 16.605 1.87134 14.8616 1.33521 13.1758C0.519531 13.8643 0 14.8933 0 16.0417V31.0432C0 31.561 0.419678 31.9807 0.9375 31.9807H31.0625C31.5803 31.9807 32 31.561 32 31.0432V16.0432C32 14.865 31.4531 13.8123 30.6006 13.1243Z" fill="#583FBC"/>
<path d="M3.85961 18.4058C3.53857 23.3951 3.81884 26.4016 7.93432 29.0218C8.21728 29.2017 8.40136 29.1682 9.1018 29.1682C8.56298 26.8936 7.50024 22.0088 7.50024 18.8557C7.50024 17.337 7.92895 15.8296 8.72119 14.5196C8.74926 13.8982 8.76342 11.6597 7.65771 10.001C7.3706 9.5701 7.48681 8.98807 7.91772 8.70096C8.34838 8.41361 8.93066 8.53006 9.21777 8.96097C9.73144 9.73124 10.0588 10.575 10.2656 11.3772C10.7981 10.0901 11.2502 8.67216 11.2502 7.60575C11.2502 7.08817 11.6699 6.66825 12.1877 6.66825C12.7056 6.66825 13.1252 7.08817 13.1252 7.60575C13.1252 8.72269 12.7773 10.0286 12.3325 11.2422C12.8118 11.0115 13.3118 10.8247 13.8262 10.6897C14.3269 10.5589 14.8396 10.8582 14.9707 11.3589C15.102 11.8599 14.8025 12.3723 14.3018 12.5035C11.447 13.252 9.37524 15.9234 9.37524 18.8557C9.37524 21.9961 10.5605 27.2185 11.031 29.1682H12.1877C12.7056 29.1682 13.1252 28.7486 13.1252 28.2307V22.6021C13.1252 21.083 14.3608 19.8225 15.8796 19.792C17.4646 19.7635 18.7502 21.0721 18.7502 22.6641V28.2307C18.7502 28.7486 19.1699 29.1682 19.6877 29.1682H20.8445C21.3149 27.2181 22.5002 21.9937 22.5002 18.8557C22.5002 16.022 20.6934 13.521 18.0137 12.6282C17.5225 12.4644 17.2568 11.9336 17.4206 11.4422C17.5842 10.9512 18.1152 10.6853 18.6064 10.8492C18.8484 10.93 19.0842 11.0218 19.3147 11.1221C19.019 9.6558 19.4038 8.64383 19.8611 8.00028C20.1609 7.57816 20.7463 7.47928 21.1685 7.77909C21.5903 8.07889 21.6894 8.6641 21.3896 9.08622C20.8848 9.79667 21.0752 10.8238 21.4871 11.7874C21.7483 11.2576 22.1025 10.6866 22.581 10.1426C22.9231 9.75394 23.5154 9.71586 23.9043 10.0579C24.293 10.3999 24.3308 10.9922 23.9888 11.3811C23.1938 12.2849 22.8523 13.305 22.7195 13.8316C23.8252 15.3257 24.3752 17.0889 24.3752 18.8557C24.3752 22.0088 23.3125 26.8936 22.7737 29.1682C23.7744 29.1682 23.968 29.2137 24.2725 29.0093C26.1279 27.7649 27.1855 26.4219 27.7017 24.6543C28.9001 20.5486 26.8308 16.989 29.3027 11.2701C32.5146 3.83255 24.8975 -2.79025 18.1506 1.20121C16.8049 1.99662 15.1331 1.99686 13.7876 1.20145C7.08032 -2.76657 -0.522222 3.75614 2.60009 11.1863C3.57836 13.5174 4.01391 16.0137 3.85961 18.4058Z" fill="#583FBC"/>
</g>
<defs>
<clipPath id="clip0_1_220">
<rect width="32" height="32" fill="white"/>
</clipPath>
</defs>
</svg>
