<svg width="40" height="40" viewBox="0 0 40 40" fill="none" xmlns="http://www.w3.org/2000/svg">
<path fill-rule="evenodd" clip-rule="evenodd" d="M19.547 36.5228C19.7316 36.6192 19.9379 36.6683 20.1443 36.6666C20.3507 36.665 20.5554 36.6143 20.7416 36.5163L26.6881 33.3375C28.3744 32.4386 29.6949 31.4335 30.7251 30.2633C32.9651 27.7137 34.1883 24.4597 34.1665 21.1044L34.096 10.0367C34.0893 8.76189 33.252 7.62439 32.0138 7.2109L20.9514 3.49931C20.2853 3.27378 19.5554 3.27868 18.901 3.51075L7.88057 7.35472C6.64899 7.78456 5.82683 8.93023 5.83354 10.2066L5.90401 21.2662C5.92582 24.6264 7.19096 27.8657 9.46786 30.3891C10.5082 31.543 11.8404 32.5334 13.5451 33.4176L19.547 36.5228ZM17.9728 23.5149C18.2212 23.7536 18.5433 23.8712 18.8655 23.868C19.1876 23.8663 19.5081 23.7454 19.7531 23.5035L26.2516 17.0969C26.7399 16.6148 26.7348 15.8401 26.2415 15.3645C25.7465 14.8889 24.9495 14.8922 24.4613 15.3743L18.847 20.9082L16.5483 18.6985C16.0533 18.223 15.258 18.2279 14.7681 18.71C14.2798 19.1921 14.2848 19.9668 14.7798 20.4424L17.9728 23.5149Z" fill="#583FBC"/>
</svg>
