<svg width="32" height="32" viewBox="0 0 32 32" fill="none" xmlns="http://www.w3.org/2000/svg">
<g clip-path="url(#clip0_1_956)">
<path d="M30.038 5.64884C29.1601 3.10041 27.3675 1.22535 25.1197 0.504479C20.8514 -0.864143 17.3414 0.894603 15.9998 1.73779C14.6581 0.894541 11.1479 -0.864206 6.87971 0.504479C4.6309 1.22567 2.83784 3.10185 1.96028 5.65184C0.806406 9.00502 1.3874 12.8727 3.51471 15.9979C4.9354 18.0851 5.86302 20.4406 6.19746 22.8097C6.21677 22.9464 6.23558 23.086 6.25402 23.2288C6.57608 25.7272 7.05039 27.7325 7.66389 29.1889C8.39902 30.9342 9.34751 31.8767 10.4832 31.9904C11.6869 32.1106 12.6861 31.1096 13.4539 29.0149C13.9908 27.5502 14.4141 25.5874 14.6457 23.4882C14.7752 22.3147 15.0779 21.3646 15.5213 20.7407C15.6794 20.5182 15.9086 20.4942 15.9998 20.4942C16.0909 20.4942 16.3201 20.5182 16.4782 20.7407C16.9215 21.3646 17.2242 22.3147 17.3537 23.4882C17.5854 25.5874 18.0087 27.5502 18.5456 29.0149C19.2721 30.9973 20.2061 32 21.3242 32C21.3876 32 21.4517 31.9968 21.5162 31.9904C22.6519 31.8767 23.6004 30.9342 24.3355 29.1889C24.949 27.7325 25.4234 25.7272 25.7454 23.2287C25.7632 23.0912 25.7813 22.9567 25.7999 22.8247C26.1337 20.4516 27.0637 18.0886 28.4893 15.9912C30.6134 12.8661 31.1923 8.99984 30.038 5.64884Z" fill="#583FBC"/>
</g>
<defs>
<clipPath id="clip0_1_956">
<rect width="32" height="32" fill="white"/>
</clipPath>
</defs>
</svg>
