<svg width="32" height="32" viewBox="0 0 32 32" fill="none" xmlns="http://www.w3.org/2000/svg">
<g clip-path="url(#clip0_1_209)">
<path d="M28.2905 31.8533C29.5288 30.3338 29.4145 27.3309 29.4133 27.2994C29.4127 26.1783 29.0951 24.8566 28.8293 23.94C28.5316 22.9143 28.7253 21.8188 29.3619 20.9342C29.4253 20.8463 29.487 20.7559 29.5458 20.6668C30.4002 19.3777 30.851 17.832 30.851 16.1948V15.3005C30.851 12.7433 27.2624 12.7027 27.1087 12.7021C25.9179 12.7027 24.7064 13.0638 23.7555 13.7919C23.6458 13.8759 23.5389 13.965 23.4167 14.0301C23.3607 14.0598 23.3012 14.085 23.2481 14.1198C23.0276 14.2638 22.8452 14.5215 22.6487 14.7004C22.4075 14.9192 22.1532 15.1256 21.8841 15.3095C21.3327 15.6861 20.6869 16.0016 20.0052 16.0016C19.6898 16.0016 19.4338 15.7462 19.4338 15.4301C19.4338 15.1141 19.6898 14.8587 20.0052 14.8587C20.7378 14.8587 21.6624 14.0827 22.1995 13.5404C21.9681 13.3969 21.6698 13.2364 21.3052 13.0941C20.2194 12.6706 19.0091 12.6003 17.8765 12.8689C16.965 13.0849 15.9862 13.5295 15.6153 14.4552C15.517 14.7009 15.4604 14.9809 15.4604 15.3009V16.1957C15.4604 17.3432 15.6856 18.4918 16.1502 19.5426C16.4541 20.2295 16.9325 20.8198 17.2582 21.4952C17.6274 22.2592 17.7193 23.1215 17.4817 23.941C17.2154 24.8576 16.8982 26.1793 16.8982 27.2754C16.8965 27.3308 16.7828 30.3348 18.0206 31.8543C18.6085 29.8743 20.4343 24.5907 23.1555 24.5907C25.8767 24.5907 27.7025 29.8733 28.2905 31.8533Z" fill="#583FBC"/>
<path d="M14.848 19.3472C14.4378 18.1746 14.276 16.8928 14.2983 15.6551C14.3097 15.0174 14.3783 14.3654 14.6561 13.7917C15.1041 12.8671 16.0407 12.2653 17.0127 11.9317C19.0367 11.2374 21.4162 11.5339 23.1563 12.8025C23.246 12.7368 23.3545 12.6642 23.4734 12.5894C23.4911 12.578 23.5117 12.5665 23.5305 12.5551C23.966 12.2871 24.4322 12.0762 24.9162 11.9139C24.9574 11.9002 24.9917 11.8842 25.0339 11.8711C25.8579 10.0808 26.2923 8.06533 26.2923 6.02356V4.57148C26.2923 0.0639791 20.2625 0.00051389 20.0059 0C16.4298 0 14.292 1.95946 14.1383 2.10515C13.7589 2.5566 11.0212 5.71437 8.57763 5.71437C8.26219 5.71437 8.00618 5.45897 8.00618 5.14292C8.00618 4.82688 8.26219 4.57148 8.57763 4.57148C10.0097 4.57148 11.9297 2.82459 12.9034 1.77489C12.1097 1.17544 10.2011 0 7.43474 0C7.17874 0.000599538 1.14893 0.0639791 1.14893 4.57148V6.02347C1.14893 8.75154 1.88661 11.3304 3.28157 13.4796C3.37818 13.6287 3.47873 13.7773 3.58331 13.9259C4.53015 15.2699 4.8193 16.9328 4.37701 18.4871C3.94731 19.9974 3.43471 22.1797 3.43471 23.9998C3.43188 24.0792 3.22787 29.4998 5.56392 31.9645C5.59424 31.9959 5.63253 32.0068 5.67767 31.9959C5.70567 31.9884 5.75483 31.9679 5.77196 31.9061C6.55599 29.113 9.44576 19.9996 13.7206 19.9996C14.2527 19.9996 14.7812 20.1402 15.3041 20.4203C15.2893 20.3905 15.2789 20.358 15.2647 20.3283C15.1264 20.0477 15.0001 19.7609 14.8915 19.4654C14.876 19.4267 14.8617 19.3872 14.848 19.3472Z" fill="#583FBC"/>
</g>
<defs>
<clipPath id="clip0_1_209">
<rect width="32" height="32" fill="white"/>
</clipPath>
</defs>
</svg>
