<svg width="32" height="32" viewBox="0 0 32 32" fill="none" xmlns="http://www.w3.org/2000/svg">
<path d="M27.5914 3.44843C27.5358 1.90093 26.4311 0.60405 24.9051 0.294751C20.6407 -0.569524 17.1941 0.690109 16.0006 1.22059C14.8072 0.690109 11.3609 -0.569524 7.09613 0.294751C5.57013 0.60405 4.46549 1.90087 4.40993 3.44837C4.3165 6.04788 4.66098 10.6974 7.88335 13.4479C7.66067 14.7909 7.14238 18.3535 7.14238 22.4215C7.14238 25.7175 7.72635 28.417 8.21621 30.1012C8.54144 31.2191 9.58134 31.9999 10.745 31.9999C12.1643 31.9999 13.3201 30.8886 13.3763 29.4699C13.6792 21.8166 15.1118 19.0385 16.0007 19.0385C16.8896 19.0385 18.3221 21.8166 18.6251 29.4699C18.6812 30.8886 19.837 31.9999 21.2563 31.9999C22.4201 31.9999 23.46 31.2191 23.7852 30.1012C24.2751 28.417 24.8591 25.7175 24.8591 22.4216C24.8591 18.3536 24.3408 14.7909 24.118 13.448C27.3404 10.6976 27.6848 6.04794 27.5914 3.44843ZM18.3503 13.3379L17.0246 14.6636L16.0006 13.6397L14.9767 14.6636L13.6509 13.3379L15.0632 11.9256V10.8773H14.0148L12.6026 12.2895L11.2768 10.9638L12.3008 9.93984L11.2768 8.91588L12.6026 7.59013L14.0148 9.00238H15.0632V7.95405L13.6509 6.54179L14.9767 5.21604L16.0006 6.24L17.0246 5.21604L18.3503 6.54179L16.9381 7.95405V9.00238H17.9864L19.3987 7.59013L20.7244 8.91588L19.7005 9.93984L20.7244 10.9638L19.3987 12.2895L17.9864 10.8773H16.9381V11.9256L18.3503 13.3379Z" fill="#583FBC"/>
<path d="M1.33423 17.7771H4.00074V19.652H1.33423V17.7771Z" fill="#583FBC"/>
<path d="M2.62231 14.6626L3.94788 13.337L5.32811 14.7173L4.00254 16.0428L2.62231 14.6626Z" fill="#583FBC"/>
<path d="M2.62122 22.7634L4.00144 21.3832L5.32701 22.7088L3.94679 24.089L2.62122 22.7634Z" fill="#583FBC"/>
<path d="M27.9999 17.7771H30.6664V19.652H27.9999V17.7771Z" fill="#583FBC"/>
<path d="M26.6663 14.72L28.0464 13.3398L29.372 14.6654L27.9918 16.0455L26.6663 14.72Z" fill="#583FBC"/>
<path d="M26.6655 22.7117L27.9911 21.3861L29.3713 22.7663L28.0457 24.0919L26.6655 22.7117Z" fill="#583FBC"/>
</svg>
