<svg width="32" height="32" viewBox="0 0 32 32" fill="none" xmlns="http://www.w3.org/2000/svg">
<g clip-path="url(#clip0_1_917)">
<path d="M27.5912 3.44852C27.5356 1.90096 26.431 0.604147 24.9049 0.294848C22.1599 -0.261564 19.7552 0.0622961 18.0709 0.505026L15.1378 6.80543H19.8506L15.839 14.8285L14.162 13.99L16.8169 8.68035H12.1968L15.7246 1.10269C14.3324 0.528025 11.0699 -0.510616 7.096 0.294848C5.57007 0.604084 4.46543 1.9009 4.40981 3.44852C4.31638 6.04796 4.66086 10.6976 7.88322 13.4481C7.66054 14.791 7.14225 18.3537 7.14225 22.4216C7.14225 25.7176 7.72622 28.4171 8.21608 30.1012C8.54125 31.2191 9.58114 32 10.7449 32C12.1642 32 13.32 30.8887 13.3762 29.47C13.6791 21.8166 15.1116 19.0386 16.0005 19.0386C16.8895 19.0386 18.322 21.8166 18.6249 29.47C18.681 30.8887 19.8368 32 21.2562 32C22.4199 32 23.4598 31.2191 23.785 30.1012C24.2749 28.4171 24.8588 25.7176 24.8588 22.4216C24.8588 18.3537 24.3405 14.7909 24.1179 13.4481C27.3402 10.6976 27.6846 6.04796 27.5912 3.44852Z" fill="#583FBC"/>
<path d="M1.33423 17.7771H4.00079V19.652H1.33423V17.7771Z" fill="#583FBC"/>
<path d="M2.62244 14.6626L3.94796 13.3371L5.32814 14.7173L4.00262 16.0428L2.62244 14.6626Z" fill="#583FBC"/>
<path d="M2.62122 22.7637L4.00139 21.3835L5.32696 22.7091L3.94678 24.0892L2.62122 22.7637Z" fill="#583FBC"/>
<path d="M27.9999 17.7771H30.6664V19.652H27.9999V17.7771Z" fill="#583FBC"/>
<path d="M26.6658 14.7197L28.046 13.3395L29.3715 14.6651L27.9913 16.0452L26.6658 14.7197Z" fill="#583FBC"/>
<path d="M26.665 22.7114L27.9906 21.3859L29.3708 22.766L28.0452 24.0916L26.665 22.7114Z" fill="#583FBC"/>
</g>
<defs>
<clipPath id="clip0_1_917">
<rect width="32" height="32" fill="white"/>
</clipPath>
</defs>
</svg>
