<svg width="32" height="32" viewBox="0 0 32 32" fill="none" xmlns="http://www.w3.org/2000/svg">
<g clip-path="url(#clip0_1_282)">
<path d="M22.442 3.81282C22.0589 3.83187 21.6878 3.61385 21.5303 3.24105L20.9844 1.94807C20.7833 1.47151 21.0076 0.922682 21.4852 0.721998C21.9627 0.521558 22.5128 0.744947 22.7139 1.22151L23.2598 2.51448C23.461 2.99105 23.2369 3.53988 22.7591 3.74031C22.6556 3.78402 22.5482 3.80745 22.442 3.81282Z" fill="#583FBC"/>
<path d="M26.2987 3.10763C26.161 3.11447 26.0199 3.09127 25.8849 3.03366C25.4081 2.83102 25.1861 2.28146 25.3893 1.80587L25.9437 0.507039C26.1468 0.0314515 26.6979 -0.189985 27.1747 0.0126526C27.6515 0.215046 27.8734 0.764852 27.6703 1.24044L27.1156 2.53927C26.9701 2.88009 26.6461 3.0903 26.2987 3.10763Z" fill="#583FBC"/>
<path d="M28.5186 6.23977C28.1323 6.25906 27.7586 6.03689 27.6035 5.65969C27.407 5.18117 27.6365 4.63454 28.116 4.43849L29.4458 3.89455C29.9253 3.6985 30.4734 3.92726 30.67 4.40578C30.8665 4.88405 30.6372 5.43069 30.1577 5.62673L28.8277 6.17068C28.7263 6.21218 28.6221 6.2344 28.5186 6.23977Z" fill="#583FBC"/>
<path d="M28.9535 10.9381C27.7845 7.83967 24.9434 5.82965 21.7152 5.81744C21.7091 5.81744 21.703 5.81744 21.6968 5.81744C20.0013 5.81744 18.7684 6.71247 17.68 7.50226C16.8531 8.10236 16.1382 8.62141 15.4036 8.62824C14.6692 8.62141 13.9542 8.10261 13.1275 7.50226C12.0391 6.71222 10.8062 5.81744 9.11064 5.81744C9.10454 5.81744 9.09843 5.81744 9.09233 5.81744C5.86405 5.82965 3.02274 7.83967 1.85379 10.9381C0.534448 14.4359 1.88113 17.2064 3.18362 19.8858C3.38138 20.2928 3.58597 20.714 3.77738 21.1302C4.07913 21.7865 4.37454 22.9647 4.68729 24.212C5.4224 27.1449 6.25565 30.4691 8.11576 31.5643C8.75029 31.9379 9.47124 32.0333 10.2007 31.8402C12.1299 31.33 12.7835 29.1393 13.3599 27.2064C13.971 25.1583 14.4144 23.9107 15.4039 23.899C16.3931 23.9107 16.8367 25.1583 17.4476 27.2064C18.0242 29.1393 18.6776 31.33 20.6068 31.8402C20.8524 31.9051 21.097 31.9376 21.3377 31.9376C21.8118 31.9376 22.2711 31.8121 22.6917 31.5643C24.5518 30.4689 25.3853 27.1449 26.1204 24.212C26.4329 22.9647 26.7284 21.7865 27.0301 21.1302C27.2215 20.7137 27.4261 20.2928 27.6241 19.8856C28.9264 17.2064 30.273 14.4359 28.9535 10.9381ZM9.11381 11.4334C8.21611 11.4368 7.47196 11.9913 7.12284 12.9163C6.98124 13.2916 6.62406 13.5228 6.24467 13.5228C6.1348 13.5228 6.02323 13.5035 5.91434 13.4625C5.42923 13.2804 5.18412 12.7406 5.36649 12.2567C5.99149 10.6007 7.4246 9.56794 9.10673 9.56135H9.1104C9.627 9.56135 10.0467 9.9781 10.0486 10.494C10.0506 11.0108 9.63212 11.4315 9.11381 11.4334Z" fill="#583FBC"/>
</g>
<defs>
<clipPath id="clip0_1_282">
<rect width="32" height="32" fill="white"/>
</clipPath>
</defs>
</svg>
