<svg width="32" height="32" viewBox="0 0 32 32" fill="none" xmlns="http://www.w3.org/2000/svg">
<g clip-path="url(#clip0_1_271)">
<path d="M21.2682 14.582C22.5239 12.8945 23.1875 10.8907 23.1875 8.78731V3.4375C23.1875 2.91975 22.7677 2.5 22.25 2.5C21.0654 2.5 20.0003 1.84175 19.4704 0.782188L19.3385 0.51825C19.1797 0.200625 18.8551 0 18.5 0H13.5C13.1449 0 12.8203 0.200625 12.6615 0.51825L12.5296 0.782188C11.9997 1.84175 10.9346 2.5 9.75 2.5C9.23225 2.5 8.8125 2.91975 8.8125 3.4375V8.78731C8.8125 10.8907 9.47612 12.8945 10.7317 14.5821C11.9874 16.2696 13.7159 17.4811 15.7306 18.0855C15.8184 18.1119 15.9092 18.1251 16 18.1251C16.0908 18.1251 16.1815 18.1119 16.2694 18.0855C18.2841 17.4811 20.0126 16.2696 21.2682 14.582ZM19.3146 7.95762L15.779 11.4931C15.5959 11.6762 15.3559 11.7677 15.1161 11.7677C14.8762 11.7677 14.6363 11.6762 14.4532 11.4931L12.6855 9.72538C12.3194 9.35931 12.3194 8.76569 12.6855 8.39956C13.0516 8.0335 13.6452 8.0335 14.0113 8.39956L15.1162 9.50444L17.9889 6.63181C18.3549 6.26569 18.9486 6.26569 19.3147 6.63181C19.6807 6.99794 19.6807 7.59156 19.3146 7.95762Z" fill="#224594"/>
<path d="M30.0721 8.56316C29.0508 8.59122 28.2497 9.45478 28.2497 10.4765V18.25L24.7062 24.3431C24.5372 24.6337 24.2264 24.8125 23.8902 24.8125C23.1626 24.8125 22.7085 24.024 23.0738 23.3947L25.5393 19.1467C26.1609 18.07 25.792 16.6932 24.7153 16.0716C23.6826 15.4754 22.3642 15.7879 21.7089 16.7842L18.1763 22.1556C17.5727 23.0734 17.251 24.1479 17.251 25.2464V31.0625C17.251 31.5802 17.6707 32 18.1885 32H27.9372C28.455 32 28.8747 31.5802 28.8747 31.0625V27.625L31.9998 20.125V10.4375C31.9998 9.38441 31.1316 8.53416 30.0721 8.56316Z" fill="#224594"/>
<path d="M10.2909 16.7842C9.63563 15.7879 8.31719 15.4754 7.2845 16.0716C6.20781 16.6932 5.83888 18.07 6.46056 19.1467L8.92606 23.3947C9.29131 24.024 8.83725 24.8124 8.10969 24.8125C7.7735 24.8125 7.46269 24.6337 7.29369 24.3431L3.75 18.25V10.4765C3.75 9.45478 2.949 8.59122 1.92769 8.56316C0.868125 8.53416 0 9.38441 0 10.4375V20.125L3.125 27.625V31.0625C3.125 31.5802 3.54475 32 4.0625 32H13.8113C14.3291 32 14.7488 31.5802 14.7488 31.0625V25.2464C14.7488 24.1479 14.4271 23.0734 13.8235 22.1556L10.2909 16.7842Z" fill="#224594"/>
</g>
<defs>
<clipPath id="clip0_1_271">
<rect width="32" height="32" fill="white"/>
</clipPath>
</defs>
</svg>
