<?xml version="1.0" standalone="no"?>
<!DOCTYPE svg PUBLIC "-//W3C//DTD SVG 20010904//EN"
 "http://www.w3.org/TR/2001/REC-SVG-20010904/DTD/svg10.dtd">
<svg version="1.0" xmlns="http://www.w3.org/2000/svg"
 width="512.000000pt" height="512.000000pt" viewBox="0 0 512.000000 512.000000"
 preserveAspectRatio="xMidYMid meet">
<metadata>
Created by potrace 1.14, written by Peter Selinger 2001-2017
</metadata>
<g transform="translate(0.000000,512.000000) scale(0.100000,-0.100000)"
fill="#000000" stroke="none">
<path d="M2648 5115 c-2 -2 -34 -6 -73 -9 -67 -6 -85 -8 -165 -22 -67 -12 -84
-15 -164 -35 -45 -11 -91 -22 -103 -24 -88 -20 -349 -124 -473 -188 -152 -79
-351 -210 -454 -297 -165 -141 -267 -247 -431 -451 -98 -123 -281 -464 -350
-653 -52 -141 -106 -352 -121 -470 -3 -22 -7 -42 -9 -46 -18 -28 -27 -492 -12
-620 64 -557 296 -1076 648 -1455 98 -105 126 -132 194 -190 39 -33 72 -63 75
-66 15 -17 178 -135 260 -188 216 -140 571 -292 766 -327 15 -3 30 -7 34 -9
12 -7 244 -46 320 -53 41 -4 158 -7 260 -7 244 1 326 9 536 55 263 58 478 141
734 283 199 109 508 362 588 480 89 130 121 295 86 446 -45 197 -189 349 -394
416 -83 28 -228 26 -328 -4 -59 -18 -164 -81 -216 -131 -90 -85 -119 -109
-209 -170 -160 -110 -320 -178 -518 -221 -85 -19 -135 -23 -274 -24 -93 0
-190 3 -215 7 -113 17 -246 52 -317 84 -17 8 -35 14 -40 14 -11 0 -150 72
-204 105 -77 48 -227 175 -300 254 -169 182 -299 441 -343 682 -9 46 -18 98
-21 114 -6 34 -7 274 -1 320 12 91 18 121 35 192 97 398 375 746 746 930 200
100 382 144 610 149 242 5 435 -35 645 -134 64 -30 224 -124 240 -142 3 -3 27
-23 54 -44 27 -22 72 -62 100 -90 103 -102 212 -168 301 -182 22 -3 43 -8 48
-11 10 -6 135 -5 167 2 73 14 90 20 148 46 196 88 322 277 327 492 2 91 -12
173 -39 228 -9 18 -16 36 -16 41 0 47 -240 290 -405 410 -5 4 -23 18 -40 31
-16 13 -73 50 -125 84 -323 207 -647 324 -1055 384 -71 10 -498 22 -507 14z"/>
</g>
</svg>
