<svg width="20" height="20" viewBox="0 0 20 20" fill="none" xmlns="http://www.w3.org/2000/svg">
<path d="M4.00012 7.175C4.08383 7.0847 4.18451 7.01178 4.2964 6.9604C4.4083 6.90902 4.52922 6.88019 4.65226 6.87554C4.7753 6.8709 4.89805 6.89054 5.0135 6.93334C5.12895 6.97614 5.23484 7.04127 5.32512 7.125L10.0001 11.5337L14.6751 7.125C14.7654 7.04128 14.8713 6.97616 14.9867 6.93337C15.1022 6.89057 15.2249 6.87094 15.348 6.87558C15.471 6.88022 15.5919 6.90905 15.7038 6.96043C15.8157 7.0118 15.9164 7.08471 16.0001 7.175C16.0838 7.26528 16.149 7.37117 16.1917 7.48662C16.2345 7.60207 16.2542 7.72481 16.2495 7.84785C16.2449 7.97089 16.2161 8.09181 16.1647 8.2037C16.1133 8.3156 16.0404 8.41628 15.9501 8.5L10.6376 13.5C10.4643 13.6608 10.2366 13.7501 10.0001 13.7501C9.76368 13.7501 9.53598 13.6608 9.36262 13.5L4.05012 8.5C3.95982 8.41628 3.88691 8.31561 3.83553 8.20371C3.78414 8.09181 3.75531 7.97089 3.75067 7.84785C3.74602 7.72481 3.76566 7.60206 3.80846 7.48661C3.85127 7.37116 3.91639 7.26527 4.00012 7.175V7.175Z" fill="#185CFF"/>
</svg>
