<svg width="20" height="21" viewBox="0 0 20 21" fill="none" xmlns="http://www.w3.org/2000/svg">
<path d="M7.73294 4.70703C7.87698 4.56997 8.06955 4.49572 8.26832 4.50059C8.46709 4.50547 8.65579 4.58907 8.79294 4.73303L13.7939 9.98303C13.9269 10.1225 14.0011 10.3078 14.0011 10.5005C14.0011 10.6932 13.9269 10.8785 13.7939 11.018L8.79394 16.268C8.72605 16.3394 8.64476 16.3967 8.55472 16.4367C8.46468 16.4766 8.36765 16.4985 8.26918 16.5009C8.1707 16.5034 8.0727 16.4864 7.98078 16.451C7.88886 16.4156 7.80481 16.3624 7.73344 16.2945C7.66207 16.2266 7.60476 16.1453 7.56481 16.0553C7.52485 15.9653 7.50301 15.8682 7.50055 15.7698C7.49809 15.6713 7.51505 15.5733 7.55046 15.4814C7.58588 15.3894 7.63905 15.3054 7.70694 15.234L12.2159 10.5L7.70594 5.76603C7.56901 5.62185 7.49494 5.42921 7.5 5.23044C7.50506 5.03167 7.58885 4.84304 7.73294 4.70603V4.70703Z" fill="#292D33"/>
</svg>
