<?xml version="1.0" standalone="no"?>
<!DOCTYPE svg PUBLIC "-//W3C//DTD SVG 20010904//EN"
 "http://www.w3.org/TR/2001/REC-SVG-20010904/DTD/svg10.dtd">
<svg version="1.0" xmlns="http://www.w3.org/2000/svg"
 width="512.000000pt" height="512.000000pt" viewBox="0 0 512.000000 512.000000"
 preserveAspectRatio="xMidYMid meet">
<metadata>
Created by potrace 1.14, written by Peter Selinger 2001-2017
</metadata>
<g transform="translate(0.000000,512.000000) scale(0.100000,-0.100000)"
fill="#000000" stroke="none">
<path d="M2738 5115 c-2 -1 -32 -6 -68 -9 -58 -6 -141 -18 -225 -32 -129 -22
-374 -97 -524 -161 -374 -161 -718 -420 -977 -738 -38 -47 -154 -207 -181
-251 -64 -103 -154 -278 -199 -387 -14 -34 -29 -71 -33 -82 -40 -92 -109 -360
-130 -500 -23 -159 -26 -199 -26 -390 0 -256 6 -310 61 -585 39 -194 152 -479
272 -690 154 -269 384 -541 607 -715 21 -16 43 -35 49 -41 23 -22 175 -124
261 -176 279 -166 673 -303 960 -334 33 -3 79 -9 102 -14 49 -9 456 -5 528 4
106 15 283 48 351 66 336 88 665 249 931 457 91 71 124 99 205 175 l39 37
-410 410 c-226 226 -414 411 -418 411 -5 0 -26 -17 -48 -38 -156 -149 -432
-291 -645 -331 -30 -6 -68 -13 -85 -17 -62 -13 -330 -13 -410 1 -312 52 -554
174 -771 390 -201 200 -314 405 -385 700 -30 123 -33 417 -6 544 38 174 120
390 173 452 8 8 14 19 14 22 0 8 57 90 92 135 52 64 218 221 283 267 169 118
412 215 607 243 70 9 329 9 398 -1 78 -11 234 -52 295 -77 158 -64 305 -153
417 -251 36 -33 69 -59 73 -59 3 0 191 184 416 410 l410 410 -29 27 c-74 71
-123 114 -197 172 -44 34 -87 68 -95 75 -73 58 -356 216 -485 271 -115 48
-320 117 -394 131 -12 3 -51 11 -85 19 -148 34 -286 48 -498 50 -119 2 -218 2
-220 0z"/>
</g>
</svg>
