<?xml version="1.0" standalone="no"?>
<!DOCTYPE svg PUBLIC "-//W3C//DTD SVG 20010904//EN"
 "http://www.w3.org/TR/2001/REC-SVG-20010904/DTD/svg10.dtd">
<svg version="1.0" xmlns="http://www.w3.org/2000/svg"
 width="512.000000pt" height="512.000000pt" viewBox="0 0 512.000000 512.000000"
 preserveAspectRatio="xMidYMid meet">
<metadata>
Created by potrace 1.14, written by Peter Selinger 2001-2017
</metadata>
<g transform="translate(0.000000,512.000000) scale(0.100000,-0.100000)"
fill="#000000" stroke="none">
<path d="M2750 5113 c-62 -10 -61 -13 13 -91 26 -28 47 -52 47 -54 0 -2 -100
-3 -222 -3 -242 0 -305 -5 -473 -36 -336 -61 -644 -190 -960 -402 -49 -33 -92
-63 -95 -66 -3 -3 -32 -28 -65 -56 -82 -68 -267 -250 -309 -305 -19 -25 -49
-61 -66 -80 -93 -105 -270 -410 -347 -595 -71 -174 -145 -449 -159 -590 -2
-29 -7 -63 -10 -76 -13 -53 -11 -447 2 -556 38 -316 132 -620 276 -891 74
-140 220 -348 337 -482 23 -26 27 -37 19 -47 -14 -17 -2 -30 32 -36 l25 -4
-26 -2 c-33 -1 -52 -23 -47 -53 2 -18 9 -23 30 -23 22 1 25 -2 17 -17 -8 -15
-6 -18 13 -19 20 0 20 -1 5 -8 -18 -6 -18 -7 0 -23 23 -20 42 -25 127 -33 78
-7 114 -19 136 -43 9 -9 43 -35 75 -57 33 -22 68 -48 79 -57 11 -10 23 -18 26
-18 4 0 49 -25 99 -56 80 -47 152 -84 296 -149 86 -39 363 -123 465 -140 115
-21 153 -26 220 -33 149 -14 545 -6 620 13 8 2 35 7 60 10 78 11 241 52 354
90 926 307 1591 1148 1682 2125 21 223 6 509 -37 718 -102 498 -325 917 -674
1268 -71 71 -142 139 -156 151 -194 154 -351 253 -544 345 -195 92 -426 168
-590 194 -22 3 -52 13 -67 22 -21 12 -31 13 -39 5 -17 -17 -37 -5 -71 46 -17
25 -38 50 -46 54 -11 8 -11 11 1 20 8 7 17 20 20 30 7 18 -12 20 -73 10z m90
-193 c20 -31 23 -80 6 -93 -15 -11 -12 -18 21 -67 31 -46 63 -90 121 -165 63
-82 66 -88 47 -82 -96 30 -322 52 -510 50 -247 -3 -453 -41 -680 -126 -631
-235 -1118 -777 -1286 -1429 -28 -113 -28 -109 -45 -233 -71 -502 46 -1021
324 -1439 l70 -106 -57 0 -56 0 0 -55 c0 -63 -14 -57 135 -57 82 0 92 -2 75
-14 -43 -29 -96 -90 -102 -116 -3 -17 -10 -25 -19 -21 -8 3 -14 -1 -14 -10 0
-8 -7 -17 -15 -20 -18 -7 -64 -98 -58 -114 10 -29 -35 -10 -67 29 -19 22 -39
46 -45 52 -123 135 -295 423 -380 636 -21 52 -43 109 -50 125 -19 45 -62 199
-84 300 -18 86 -23 112 -39 235 -9 73 -9 488 1 568 32 269 112 542 228 777 38
77 80 160 95 184 123 210 310 438 485 590 106 93 116 100 194 156 295 211 624
355 960 419 115 23 134 26 195 32 30 4 57 8 59 10 2 2 111 2 243 1 200 -2 240
-4 248 -17z m70 -15 c0 -8 -4 -15 -10 -15 -5 0 -7 7 -4 15 4 8 8 15 10 15 2 0
4 -7 4 -15z m59 6 c8 -5 9 -11 3 -15 -5 -3 -15 1 -22 9 -14 16 -3 20 19 6z
m219 -42 c312 -83 619 -235 872 -432 101 -79 117 -94 246 -223 224 -225 376
-454 529 -799 62 -141 138 -430 160 -612 18 -147 24 -430 11 -527 -3 -23 -8
-68 -11 -101 -14 -144 -68 -364 -137 -555 -32 -90 -146 -322 -213 -432 -162
-265 -427 -543 -700 -733 -51 -36 -98 -65 -104 -65 -6 0 -11 -4 -11 -9 0 -5
-82 -50 -182 -99 -246 -122 -493 -202 -718 -232 -47 -6 -98 -14 -115 -17 -16
-3 -113 -6 -215 -7 -293 -3 -486 24 -755 106 -251 76 -526 216 -742 377 -84
63 -96 81 -53 81 29 0 44 -11 83 -60 16 -19 25 -22 72 -17 60 6 79 -4 89 -43
12 -52 18 -54 100 -44 66 9 77 8 90 -8 41 -48 316 25 316 83 0 37 23 37 130 2
209 -68 361 -93 595 -97 164 -3 287 5 415 28 174 32 350 91 525 176 241 117
433 259 617 457 l47 51 95 -2 c107 -1 105 -3 105 72 l0 42 -55 0 c-30 0 -54 5
-54 10 0 6 4 10 8 10 16 0 135 194 198 323 64 131 114 270 153 422 25 99 28
118 50 298 17 149 1 440 -34 612 -29 141 -95 344 -150 456 -44 90 -50 110 -33
104 31 -12 122 103 109 138 -11 31 12 146 42 204 l27 52 -56 27 c-106 50 -153
33 -272 -99 -19 -20 -37 -37 -42 -37 -4 0 -25 21 -46 48 -65 80 -226 241 -294
296 -93 73 -90 71 -143 110 -26 20 -51 36 -55 36 -5 0 -25 18 -46 40 -21 23
-46 40 -59 40 -12 0 -60 18 -107 40 -64 30 -92 49 -116 81 -17 23 -38 46 -47
51 -11 6 -17 22 -17 44 0 21 4 33 10 29 35 -22 13 93 -31 165 -21 34 -30 59
-26 75 5 30 1 31 -40 6 -26 -17 -33 -18 -43 -6 -8 10 -8 15 0 20 7 5 -5 18
-32 36 -51 34 -43 36 60 8z m-438 -333 c36 -4 79 -9 95 -11 17 -3 46 -7 65
-10 143 -20 162 -29 200 -92 19 -32 39 -61 45 -65 33 -24 43 13 14 53 l-22 32
26 -18 c15 -9 33 -15 42 -12 11 5 13 0 8 -24 -5 -25 -2 -31 16 -36 11 -3 21
-8 22 -12 0 -3 3 -18 5 -33 6 -35 -8 -36 -26 -4 -15 29 -39 41 -53 27 -6 -6 3
-29 26 -63 19 -30 43 -77 52 -106 10 -29 21 -55 26 -57 4 -3 22 3 39 14 31 18
31 18 54 -2 l24 -21 -26 -13 c-22 -12 -26 -11 -40 8 -26 37 -35 7 -17 -55 9
-32 15 -59 13 -62 -3 -2 -32 9 -65 25 -95 47 -295 113 -378 126 -11 2 -54 9
-95 16 -116 19 -450 15 -512 -6 -7 -2 -26 -6 -43 -8 -45 -7 -212 -54 -275 -78
-110 -42 -290 -142 -391 -219 -203 -152 -354 -320 -454 -505 l-45 -82 -132
-54 -133 -54 107 -3 107 -3 -19 -43 c-10 -24 -16 -47 -13 -50 9 -9 -39 -16
-107 -15 -105 1 -97 6 -96 -58 l1 -57 72 -1 c40 0 74 -3 77 -6 3 -3 1 -21 -4
-39 -5 -19 -11 -55 -11 -82 -2 -31 -6 -45 -13 -41 -6 3 -8 3 -5 -1 4 -4 3 -24
-2 -44 -9 -35 -12 -320 -5 -372 2 -14 7 -48 10 -75 13 -98 18 -121 32 -175 32
-117 66 -210 75 -205 5 4 7 0 5 -7 -3 -7 -7 -58 -10 -113 -10 -169 -19 -319
-21 -345 -2 -14 -3 -58 -4 -97 l-1 -73 -28 0 c-25 0 -37 13 -102 112 -172 262
-295 585 -326 858 -3 25 -9 73 -13 107 -20 170 1 451 49 656 65 280 207 573
388 802 76 96 260 278 357 351 321 244 693 390 1070 420 44 4 81 7 83 9 4 4
217 -3 282 -9z m737 -212 c85 -41 107 -68 101 -121 -3 -22 3 -59 13 -88 19
-53 12 -75 -21 -75 -13 0 -20 10 -25 33 -4 17 -9 39 -11 48 -5 17 -86 49 -123
49 -28 0 -37 20 -12 27 28 7 27 23 -1 20 -26 -2 -38 30 -16 44 10 7 9 9 -4 9
-19 0 -35 39 -21 49 5 3 12 14 16 24 9 24 21 22 104 -19z m275 -166 c7 -7 40
-33 73 -57 91 -69 345 -327 345 -352 0 -14 -46 -18 -65 -6 -11 7 -42 21 -70
31 -27 10 -85 37 -127 58 -43 22 -84 38 -91 35 -8 -3 -20 -1 -28 4 -11 7 -11
9 3 9 22 0 15 21 -12 38 -19 12 -20 10 -15 -15 5 -20 4 -24 -3 -13 -5 8 -19
73 -31 145 -14 82 -28 137 -39 149 -17 18 -16 18 15 3 17 -9 37 -22 45 -29z
m-947 -37 c172 -33 312 -75 430 -132 102 -49 110 -56 126 -109 15 -52 15 -56
4 -93 -4 -17 -3 -33 3 -39 12 -12 5 -38 -14 -54 -7 -5 -16 -37 -19 -70 -4 -32
-9 -62 -11 -66 -3 -4 6 -14 18 -22 28 -20 20 -20 -18 -2 -30 15 -362 151 -622
255 l-153 61 -117 -45 c-64 -25 -126 -50 -137 -54 -50 -21 -72 -30 -105 -44
-19 -8 -93 -38 -165 -67 -71 -28 -143 -58 -160 -65 -16 -7 -115 -48 -220 -90
-104 -43 -210 -86 -235 -97 -25 -11 -63 -28 -85 -38 -86 -38 -218 -91 -220
-88 -2 2 15 35 38 73 117 202 318 410 527 547 70 46 220 121 307 154 97 36
276 81 358 89 39 4 72 9 73 10 9 8 343 -4 397 -14z m1638 -841 c48 -115 82
-223 112 -355 36 -161 36 -170 41 -410 4 -236 -7 -332 -61 -566 -33 -146 -170
-450 -265 -589 -28 -41 -59 -87 -68 -102 -12 -20 -25 -28 -44 -28 -25 0 -28 4
-29 38 -1 20 -3 51 -4 67 -1 17 -5 80 -9 140 -3 61 -9 142 -12 180 -13 188
-13 184 11 250 25 65 70 233 79 295 33 213 24 483 -22 670 l-9 36 76 -1 76 0
3 58 c3 65 15 59 -116 59 l-72 -1 -12 45 c-7 24 -16 44 -20 44 -4 0 -8 4 -8 9
0 4 46 9 102 9 55 1 103 3 104 5 2 2 -33 18 -79 37 -45 18 -97 40 -116 47
l-33 14 23 26 c32 35 109 69 150 68 106 -5 99 -2 99 -40 0 -42 20 -46 37 -9 8
18 9 32 3 45 -6 10 -8 28 -6 41 3 13 5 27 5 33 2 18 27 -29 64 -115z m-2933
-203 l-29 -52 -240 -1 c-133 -1 -241 1 -241 4 0 2 8 26 17 52 l17 49 252 0
253 0 -29 -52z m1690 34 c14 -8 43 -31 66 -51 l41 -37 -903 0 -903 0 27 52 27
52 810 -1 c663 -1 815 -4 835 -15z m910 -83 c0 -5 -7 -8 -15 -8 -15 0 -20 21
-8 33 7 7 23 -11 23 -25z m-2688 -128 c1 -3 -7 -36 -18 -73 -16 -57 -20 -64
-24 -42 l-5 27 -221 -1 -220 0 14 47 15 47 228 0 c126 0 230 -2 231 -5z m2074
-15 c9 -37 10 -90 3 -120 -6 -28 -7 -28 -8 10 l-1 40 -222 -2 c-121 -1 -226
-4 -232 -6 -9 -4 -12 -44 -7 -89 1 -5 33 -8 71 -8 l70 0 0 -61 c0 -44 -3 -59
-12 -56 -17 6 -50 -12 -43 -23 3 -5 1 -11 -5 -15 -5 -3 -10 -2 -10 4 0 6 -8 8
-17 5 -15 -5 -15 -3 2 11 11 9 27 20 35 25 23 13 4 23 -19 10 l-22 -11 21 38
c34 64 24 81 -23 38 -16 -16 -27 -36 -27 -52 0 -30 -25 -63 -48 -63 -19 0 -81
-38 -109 -67 -12 -13 -26 -23 -31 -23 -5 0 -20 19 -32 43 -19 36 -21 49 -13
73 8 23 7 37 -3 57 -12 23 -18 25 -40 17 -21 -8 -29 -6 -52 18 l-27 27 41 3
c46 3 55 20 47 78 l-5 29 -221 -2 c-122 0 -225 -2 -229 -2 -5 -1 -8 -23 -8
-51 l0 -50 75 0 75 0 -4 -57 c-3 -32 -7 -107 -11 -168 -3 -60 -8 -117 -11
-126 -5 -17 -64 -53 -104 -63 -22 -5 -29 -19 -53 -98 -41 -135 -91 -229 -158
-296 -60 -60 -138 -110 -140 -89 0 7 -2 37 -4 67 -5 72 -14 221 -20 345 -9
160 -13 233 -20 345 -4 58 -7 107 -7 110 -1 29 5 31 67 29 36 -1 68 0 71 3 5
6 8 54 5 86 -1 9 -54 12 -229 12 l-228 0 -3 -50 -2 -50 63 -1 c35 -1 69 -1 76
0 10 2 12 -16 7 -81 -3 -46 -8 -120 -10 -165 -3 -45 -7 -117 -10 -160 -6 -89
-14 -214 -32 -498 -3 -60 -7 -136 -7 -167 -1 -31 -2 -55 -4 -53 -8 8 -84 -32
-163 -87 -71 -49 -92 -59 -117 -55 -17 3 -47 -3 -71 -14 l-41 -18 -1 52 c-1
29 -2 70 -4 92 -1 22 -6 94 -9 160 -4 66 -9 147 -11 180 -2 33 -7 107 -10 165
-4 58 -8 139 -11 180 -2 41 -6 102 -8 135 -3 33 -8 122 -12 198 l-6 137 72 0
c64 0 71 -2 66 -17 -4 -9 -10 -46 -13 -82 -24 -249 21 -482 133 -690 52 -97
179 -271 198 -271 10 0 -10 32 -45 70 -82 91 -174 255 -218 389 -29 86 -33
105 -51 221 -11 71 -5 298 10 375 7 33 13 65 14 70 5 28 40 121 47 125 4 3
465 5 1024 5 1008 0 1016 0 1021 -20z m655 -5 c18 -70 19 -70 -86 -70 -52 0
-95 4 -95 9 0 5 12 24 27 41 18 22 23 34 15 39 -7 4 21 7 60 7 69 -1 73 -2 79
-26z m-3086 -203 c-2 -18 -7 -84 -10 -147 -3 -63 -7 -142 -10 -175 -7 -87 -13
-181 -21 -335 -3 -74 -8 -136 -9 -138 -1 -1 -15 37 -30 85 -31 100 -60 235
-71 338 -8 69 -7 331 0 370 3 11 5 25 5 30 1 6 31 9 76 7 l75 -4 -5 -31z
m2383 -28 c-18 -33 -49 -79 -68 -101 l-35 -40 0 44 c0 23 -2 64 -5 89 -3 25
-4 51 -2 57 2 8 30 12 73 12 l70 0 -33 -61z m739 36 c8 -41 10 -303 2 -370
-15 -142 -45 -280 -83 -380 -15 -41 -16 -40 -21 40 -1 22 -5 83 -8 135 -4 52
-9 140 -12 195 -10 196 -16 291 -21 348 l-6 58 72 -3 c64 -3 74 -6 77 -23z
m-322 -132 c-4 -76 -9 -145 -10 -153 -2 -8 -6 -76 -10 -150 -4 -74 -9 -151
-10 -170 -1 -19 -5 -93 -9 -165 -4 -71 -9 -148 -11 -170 -2 -22 -7 -94 -10
-160 -10 -202 -6 -190 -95 -277 l-79 -78 -100 0 -101 0 -1 28 c0 15 -2 38 -4
52 -1 14 -6 77 -10 140 -4 63 -9 130 -10 149 -2 26 5 41 28 65 56 58 141 180
184 265 40 79 94 229 107 296 4 17 9 41 11 55 3 14 8 65 12 115 6 85 9 95 62
192 31 56 58 103 59 103 2 0 1 -62 -3 -137z m-788 -45 c-3 -8 -6 -5 -6 6 -1
11 2 17 5 13 3 -3 4 -12 1 -19z m332 -91 c4 -4 20 -3 36 3 33 13 44 5 60 -42
8 -25 16 -32 32 -31 24 3 108 51 165 95 l36 28 -4 -67 c-8 -142 -56 -318 -120
-447 -36 -71 -110 -190 -135 -216 -8 -8 -29 -32 -46 -53 l-33 -38 -1 38 c-2
54 -5 114 -13 218 -3 50 -8 131 -11 180 -8 146 -16 284 -20 321 -2 23 1 34 10
34 7 0 16 10 20 23 7 21 8 20 12 -8 3 -16 8 -34 12 -38z m-253 -2 c-3 -20 -16
-31 -16 -13 0 13 8 28 16 28 1 0 1 -7 0 -15z m-20 -297 c-3 -46 -8 -126 -11
-178 -3 -52 -7 -117 -10 -145 -2 -27 -7 -106 -11 -175 -4 -69 -8 -136 -9 -150
-2 -14 -3 -30 -4 -37 -2 -25 -256 -117 -338 -122 -7 -1 -13 -5 -13 -10 0 -18
210 41 303 85 l48 23 -4 -80 c-3 -44 -8 -83 -12 -87 -4 -4 -83 -8 -176 -8
l-169 -2 0 27 c-1 14 -3 50 -5 79 -3 28 -7 74 -9 102 l-4 49 32 -12 c42 -17
71 -11 91 19 23 36 14 50 -44 71 -60 21 -76 50 -68 119 5 49 15 60 89 99 66
35 109 83 137 155 14 34 36 70 50 81 34 27 98 106 117 147 9 17 18 32 21 32 3
0 2 -37 -1 -82z m-751 -770 c-2 -18 -4 -36 -4 -40 -1 -4 -13 -3 -28 3 -16 6
-29 10 -30 10 -34 -10 -21 14 21 40 42 25 45 24 41 -13z m1401 -50 c-2 -35 -5
-64 -5 -65 -1 -2 -29 -3 -62 -3 l-62 0 64 64 c35 35 65 65 67 65 1 1 1 -27 -2
-61z m-1427 -2 c16 -3 30 -55 14 -57 -4 -1 -36 -3 -69 -5 -60 -3 -62 -3 -57
19 10 40 34 58 66 51 16 -3 37 -7 46 -8z m-1312 -182 c-3 -3 -12 -4 -19 -1 -8
3 -5 6 6 6 11 1 17 -2 13 -5z m40 0 c-3 -3 -12 -4 -19 -1 -8 3 -5 6 6 6 11 1
17 -2 13 -5z m40 0 c-3 -3 -12 -4 -19 -1 -8 3 -5 6 6 6 11 1 17 -2 13 -5z
m316 -1 c-7 -2 -19 -2 -25 0 -7 3 -2 5 12 5 14 0 19 -2 13 -5z m44 1 c-3 -3
-12 -4 -19 -1 -8 3 -5 6 6 6 11 1 17 -2 13 -5z m40 0 c-3 -3 -12 -4 -19 -1 -8
3 -5 6 6 6 11 1 17 -2 13 -5z m40 0 c-3 -3 -12 -4 -19 -1 -8 3 -5 6 6 6 11 1
17 -2 13 -5z m210 0 c-3 -3 -12 -4 -19 -1 -8 3 -5 6 6 6 11 1 17 -2 13 -5z
m190 0 c-3 -3 -12 -4 -19 -1 -8 3 -5 6 6 6 11 1 17 -2 13 -5z m40 0 c-3 -3
-12 -4 -19 -1 -8 3 -5 6 6 6 11 1 17 -2 13 -5z m40 0 c-3 -3 -12 -4 -19 -1 -8
3 -5 6 6 6 11 1 17 -2 13 -5z m40 0 c-3 -3 -12 -4 -19 -1 -8 3 -5 6 6 6 11 1
17 -2 13 -5z m1384 -8 c-11 -6 -55 -32 -98 -57 -331 -196 -759 -269 -1131
-193 -98 20 -122 30 -122 51 0 21 31 74 65 111 13 14 27 42 30 62 l6 37 634 0
c461 0 629 -3 616 -11z m609 4 c0 -4 -48 -53 -106 -109 -199 -192 -412 -331
-659 -431 -80 -32 -218 -77 -265 -85 -14 -3 -40 -9 -58 -14 -18 -5 -35 -10
-37 -10 -8 0 -98 -13 -120 -18 -83 -16 -314 -21 -455 -9 -146 12 -171 16 -320
50 -42 10 -167 51 -188 62 l-24 12 25 17 c14 9 36 33 50 54 22 32 35 41 79 51
89 21 107 39 72 74 -19 19 -13 40 24 83 l27 32 84 -19 c221 -49 500 -46 726 7
121 29 285 87 361 129 101 55 204 118 204 124 0 4 131 7 290 7 160 0 290 -3
290 -7z"/>
<path d="M3551 4467 c-9 -22 3 -44 38 -74 25 -21 33 -15 26 19 -14 64 -49 94
-64 55z"/>
<path d="M3473 4212 c-32 -5 -28 -16 12 -35 34 -16 35 -16 32 3 -4 27 -18 37
-44 32z"/>
<path d="M1130 385 c-9 -11 -9 -22 -2 -44 8 -23 6 -35 -8 -59 -10 -16 -22 -31
-27 -33 -4 -2 -16 -19 -26 -38 -23 -44 -9 -62 31 -39 15 8 59 26 97 38 105 34
123 57 63 81 -30 11 -31 13 -10 16 12 3 22 7 22 9 0 3 -18 23 -40 44 -43 42
-78 51 -100 25z"/>
</g>
</svg>
