<svg width="404" height="50" viewBox="0 0 404 50" fill="none" xmlns="http://www.w3.org/2000/svg">
<path d="M35.9864 2.51839V11.5978H23.6596V49.0423H12.3268V11.5978H0V2.51839H35.9864Z" fill="#FD9503"/>
<path d="M64.4058 11.6641C68.6473 11.6641 72.0493 13.0779 74.6119 15.9056C77.1744 18.6891 78.4557 22.5329 78.4557 27.4372V49.0423H67.1893V28.9615C67.1893 26.4872 66.5486 24.5653 65.2673 23.1957C63.9861 21.826 62.2629 21.1412 60.098 21.1412C57.9331 21.1412 56.21 21.826 54.9287 23.1957C53.6474 24.5653 53.0068 26.4872 53.0068 28.9615V49.0423H41.674V0H53.0068V17.0323C54.1555 15.3975 55.724 14.0941 57.7122 13.1221C59.7004 12.1501 61.9316 11.6641 64.4058 11.6641Z" fill="#FD9503"/>
<path d="M121.191 29.9556C121.191 31.0159 121.124 32.1205 120.992 33.2692H95.344C95.5208 35.5667 96.2498 37.334 97.5311 38.5711C98.8565 39.764 100.469 40.3605 102.369 40.3605C105.197 40.3605 107.163 39.1675 108.267 36.7817H120.329C119.711 39.2117 118.584 41.3988 116.949 43.3428C115.359 45.2868 113.348 46.8111 110.918 47.9156C108.488 49.0202 105.771 49.5725 102.767 49.5725C99.1437 49.5725 95.9184 48.7993 93.0907 47.2529C90.2631 45.7065 88.054 43.4974 86.4634 40.6256C84.8728 37.7537 84.0776 34.3959 84.0776 30.552C84.0776 26.7082 84.8508 23.3503 86.3971 20.4785C87.9877 17.6066 90.1968 15.3975 93.0245 13.8511C95.8521 12.3048 99.0995 11.5316 102.767 11.5316C106.345 11.5316 109.527 12.2827 112.31 13.7849C115.093 15.2871 117.258 17.4299 118.805 20.2134C120.395 22.9969 121.191 26.2442 121.191 29.9556ZM109.593 26.9733C109.593 25.0292 108.93 23.4829 107.605 22.3341C106.279 21.1854 104.622 20.611 102.634 20.611C100.734 20.611 99.1216 21.1633 97.7962 22.2678C96.5149 23.3724 95.7196 24.9409 95.4103 26.9733H109.593Z" fill="#FD9503"/>
<path fill-rule="evenodd" clip-rule="evenodd" d="M209.525 20.4785C208.111 23.3503 207.404 26.6861 207.404 30.4857C207.404 34.2854 208.111 37.6433 209.525 40.5593C210.983 43.4311 212.949 45.6623 215.423 47.2529C217.897 48.7993 220.659 49.5725 223.707 49.5725C226.314 49.5725 228.589 49.0423 230.533 47.9819C232.522 46.9215 234.046 45.5077 235.106 43.7404V49.0423H246.439V0H235.106V17.1648C233.957 15.4417 232.367 14.072 230.335 13.0558C228.346 12.0397 226.137 11.5316 223.707 11.5316C220.659 11.5316 217.897 12.3048 215.423 13.8511C212.949 15.3975 210.983 17.6066 209.525 20.4785ZM232.72 23.8584C234.311 25.4931 235.106 27.7244 235.106 30.552C235.106 33.3797 234.311 35.6109 232.72 37.2456C231.174 38.8804 229.274 39.6977 227.021 39.6977C224.768 39.6977 222.846 38.8804 221.255 37.2456C219.709 35.5667 218.935 33.3134 218.935 30.4857C218.935 27.6581 219.709 25.449 221.255 23.8584C222.846 22.2237 224.768 21.4063 227.021 21.4063C229.274 21.4063 231.174 22.2237 232.72 23.8584ZM125.08 30.552C125.08 26.7082 125.853 23.3503 127.4 20.4785C128.99 17.6066 131.177 15.3975 133.961 13.8511C136.788 12.3048 140.014 11.5316 143.637 11.5316C148.276 11.5316 152.142 12.7466 155.234 15.1766C158.371 17.6066 160.426 21.0307 161.398 25.449H149.336C148.32 22.6213 146.354 21.2075 143.438 21.2075C141.361 21.2075 139.704 22.0248 138.467 23.6596C137.23 25.2501 136.612 27.5476 136.612 30.552C136.612 33.5564 137.23 35.876 138.467 37.5107C139.704 39.1013 141.361 39.8966 143.438 39.8966C146.354 39.8966 148.32 38.4827 149.336 35.6551H161.398C160.426 39.9849 158.371 43.387 155.234 45.8612C152.097 48.3354 148.231 49.5725 143.637 49.5725C140.014 49.5725 136.788 48.7993 133.961 47.2529C131.177 45.7065 128.99 43.4974 127.4 40.6256C125.853 37.7537 125.08 34.3959 125.08 30.552ZM184.293 49.5725C180.67 49.5725 177.401 48.7993 174.485 47.2529C171.613 45.7065 169.337 43.4974 167.659 40.6256C166.024 37.7537 165.206 34.3959 165.206 30.552C165.206 26.7523 166.046 23.4166 167.725 20.5447C169.404 17.6287 171.701 15.3975 174.617 13.8511C177.533 12.3048 180.803 11.5316 184.426 11.5316C188.049 11.5316 191.318 12.3048 194.234 13.8511C197.15 15.3975 199.448 17.6287 201.127 20.5447C202.806 23.4166 203.645 26.7523 203.645 30.552C203.645 34.3517 202.783 37.7095 201.06 40.6256C199.381 43.4974 197.062 45.7065 194.102 47.2529C191.186 48.7993 187.916 49.5725 184.293 49.5725ZM184.293 39.764C186.458 39.764 188.292 38.9687 189.794 37.3782C191.34 35.7876 192.113 33.5122 192.113 30.552C192.113 27.5918 191.362 25.3164 189.86 23.7259C188.402 22.1353 186.591 21.34 184.426 21.34C182.217 21.34 180.383 22.1353 178.925 23.7259C177.467 25.2722 176.738 27.5476 176.738 30.552C176.738 33.5122 177.445 35.7876 178.859 37.3782C180.317 38.9687 182.128 39.764 184.293 39.764ZM289.497 29.9556C289.497 31.0159 289.431 32.1205 289.299 33.2692H263.651C263.828 35.5667 264.557 37.334 265.838 38.5711C267.074 39.6839 268.561 40.2777 270.297 40.3524V49.5604C266.988 49.4571 264.022 48.6879 261.398 47.2529C258.57 45.7065 256.361 43.4974 254.77 40.6256C253.18 37.7537 252.384 34.3959 252.384 30.552C252.384 26.7082 253.158 23.3503 254.704 20.4785C256.295 17.6066 258.504 15.3975 261.331 13.8511C264.159 12.3048 267.406 11.5316 271.073 11.5316C274.652 11.5316 277.833 12.2827 280.617 13.7849C283.4 15.2871 285.565 17.4299 287.112 20.2134C288.702 22.9969 289.497 26.2442 289.497 29.9556ZM277.9 26.9733C277.9 25.0292 277.237 23.4829 275.911 22.3341C274.586 21.1854 272.929 20.611 270.941 20.611C269.041 20.611 267.428 21.1633 266.103 22.2678C264.822 23.3724 264.026 24.9409 263.717 26.9733H277.9ZM306.809 49.0423L315.36 0H304.027L295.476 49.0423H306.809ZM317.044 30.4857C317.044 26.6861 317.751 23.3503 319.165 20.4785C320.623 17.6066 322.589 15.3975 325.063 13.8511C327.537 12.3048 330.299 11.5316 333.347 11.5316C335.954 11.5316 338.229 12.0617 340.173 13.1221C342.161 14.1825 343.686 15.5742 344.746 17.2973V12.0617H356.079V49.0423H344.746V43.8067C343.642 45.5298 342.095 46.9215 340.107 47.9819C338.163 49.0423 335.888 49.5725 333.281 49.5725C330.276 49.5725 327.537 48.7993 325.063 47.2529C322.589 45.6623 320.623 43.4311 319.165 40.5593C317.751 37.6433 317.044 34.2854 317.044 30.4857ZM344.746 30.552C344.746 27.7244 343.951 25.4931 342.36 23.8584C340.814 22.2237 338.914 21.4063 336.661 21.4063C334.408 21.4063 332.486 22.2237 330.895 23.8584C329.349 25.449 328.575 27.6581 328.575 30.4857C328.575 33.3134 329.349 35.5667 330.895 37.2456C332.486 38.8804 334.408 39.6977 336.661 39.6977C338.914 39.6977 340.814 38.8804 342.36 37.2456C343.951 35.6109 344.746 33.3797 344.746 30.552ZM380.183 13.1221C378.195 14.1825 376.671 15.5742 375.61 17.2973V0H364.278V49.0423H375.61V43.873C376.715 45.5961 378.239 46.9878 380.183 48.0482C382.127 49.0644 384.403 49.5725 387.009 49.5725C390.058 49.5725 392.819 48.7993 395.294 47.2529C397.768 45.6623 399.712 43.4311 401.126 40.5593C402.584 37.6433 403.313 34.2854 403.313 30.4857C403.313 26.6861 402.584 23.3503 401.126 20.4785C399.712 17.6066 397.768 15.3975 395.294 13.8511C392.819 12.3048 390.058 11.5316 387.009 11.5316C384.447 11.5316 382.171 12.0617 380.183 13.1221ZM389.395 23.8584C390.986 25.449 391.781 27.6581 391.781 30.4857C391.781 33.3134 390.986 35.5667 389.395 37.2456C387.805 38.8804 385.883 39.6977 383.629 39.6977C381.376 39.6977 379.454 38.8804 377.864 37.2456C376.317 35.6109 375.544 33.3797 375.544 30.552C375.544 27.7244 376.317 25.4931 377.864 23.8584C379.454 22.2237 381.376 21.4063 383.629 21.4063C385.927 21.4063 387.849 22.2237 389.395 23.8584Z" fill="white"/>
<circle cx="277.952" cy="44.8608" r="5.13914" fill="#FD9503"/>
</svg>
