<svg width="200" height="200" viewBox="0 0 200 200" fill="none" xmlns="http://www.w3.org/2000/svg">
<style>
.zoom{animation:zoom 2s infinite;-webkit-animation:zoom 2s infinite;-moz-animation:zoom 2s infinite;-o-animation:zoom 2s infinite;-webkit-transform-origin:center;-ms-transform-origin:center;transform-origin:center;transform-box:fill-box}-webkit-keyframes zoom{0%{-webkit-transform:scale(1)}50%{-webkit-transform:scale(1.2)}100%{-webkit-transform:scale(1)}}@-webkit-keyframes zoom{0%{-webkit-transform:scale(1);transform:scale(1)}50%{-webkit-transform:scale(1.2);transform:scale(1.2)}100%{-webkit-transform:scale(1);transform:scale(1)}}@keyframes zoom{0%{-webkit-transform:scale(1);transform:scale(1)}50%{-webkit-transform:scale(1.2);transform:scale(1.2)}100%{-webkit-transform:scale(1);transform:scale(1)}}
</style>
<g class="zoom">
    <rect x="82" y="34" width="96" height="96" rx="16" transform="rotate(30 82 34)" fill="white" fill-opacity="0.2" stroke="url(#paint0_linear_119_299)"/>
    <rect x="86.3923" y="50.3923" width="72" height="72" rx="16" transform="rotate(30 86.3923 50.3923)" fill="white"/>
    <g clip-path="url(#clip0_119_299)">
    <path d="M113.652 104.379C112.319 105.562 111.202 107.01 110.388 108.621C108.088 113.163 106.059 116.459 100.354 116.843C99.7955 116.88 99.2441 116.752 98.7593 116.472L95.2411 114.441C93.8981 113.665 93.4362 111.942 94.2116 110.599L96.995 105.778C97.26 105.319 97.1416 104.704 96.6608 104.434C96.2286 104.195 95.6507 104.356 95.4022 104.787L92.5878 109.661C91.8124 111.004 90.0889 111.466 88.7459 110.691L85.4983 108.816C85.0342 108.548 84.658 108.155 84.4103 107.68C81.697 102.472 83.3505 98.9564 86.292 94.5427C87.2261 93.1416 87.9027 91.5191 88.2812 89.7911C87.2306 89.9795 86.2662 90.6109 85.6919 91.6055L78.1912 104.597C77.9323 105.046 78.0859 105.619 78.5344 105.878L104.623 120.94C105.072 121.199 105.645 121.046 105.904 120.597L113.404 107.607C113.993 106.586 114.046 105.401 113.652 104.379V104.379Z" fill="#583FBC"/>
    <path d="M87.8523 95.5823C85.0797 99.7426 83.8191 102.487 86.0732 106.813C86.2282 107.111 86.4044 107.174 87.011 107.524C87.6817 105.285 89.2037 100.523 90.7802 97.7923C91.5396 96.477 92.6646 95.386 94.0057 94.6476C94.3407 94.1235 95.4722 92.192 95.344 90.2026C95.3108 89.6859 95.7024 89.24 96.2192 89.2068C96.7358 89.1732 97.1819 89.5652 97.215 90.082C97.2748 91.0059 97.1364 91.9003 96.9144 92.6984C98.0191 91.85 99.1196 90.8481 99.6528 89.9245C99.9116 89.4763 100.485 89.3225 100.933 89.5814C101.382 89.8403 101.535 90.4138 101.277 90.862C100.718 91.8293 99.7639 92.7863 98.7719 93.615C99.3023 93.6548 99.8287 93.743 100.342 93.8833C100.841 94.0203 101.135 94.5359 100.998 95.0351C100.862 95.5346 100.346 95.8287 99.8467 95.6918C97.0001 94.9127 93.8702 96.1903 92.404 98.7298C90.8338 101.449 89.2491 106.565 88.6817 108.489L89.6835 109.067C90.1319 109.326 90.7052 109.172 90.9641 108.724L93.7785 103.849C94.538 102.534 96.2383 102.06 97.5689 102.793C98.9558 103.561 99.4149 105.337 98.6188 106.715L95.8355 111.536C95.5766 111.985 95.7302 112.558 96.1787 112.817L97.1804 113.395C98.563 111.942 102.202 108.01 103.771 105.292C105.187 102.838 104.873 99.7689 102.999 97.6558C102.655 97.2684 102.691 96.6759 103.078 96.3322C103.465 95.9888 104.058 96.024 104.402 96.4115C104.571 96.6025 104.729 96.7999 104.879 97.002C105.356 95.5843 106.195 94.9003 106.913 94.5716C107.383 94.356 107.94 94.5631 108.156 95.0338C108.371 95.5043 108.164 96.0607 107.694 96.2764C106.901 96.6392 106.552 97.6239 106.427 98.6644C106.918 98.3362 107.511 98.0187 108.197 97.7869C108.688 97.6214 109.22 97.8845 109.385 98.3752C109.551 98.8657 109.288 99.3976 108.797 99.5634C107.657 99.9486 106.851 100.661 106.473 101.051C106.683 102.898 106.278 104.7 105.394 106.23C103.818 108.96 100.455 112.659 98.8512 114.36C99.7178 114.86 99.8628 114.996 100.229 114.972C102.458 114.822 104.045 114.187 105.376 112.915C108.467 109.958 108.454 105.841 113.455 102.124C119.955 97.2891 116.67 87.7449 108.831 87.8282C107.268 87.8442 105.82 87.0085 105.052 85.6469C101.228 78.8569 91.3824 80.7044 90.3713 88.7003C90.053 91.2082 89.182 93.5879 87.8523 95.5823V95.5823Z" fill="#583FBC"/>
    </g>
</g>
<defs>
<linearGradient id="paint0_linear_119_299" x1="82" y1="34" x2="178" y2="130" gradientUnits="userSpaceOnUse">
<stop stop-color="white"/>
<stop offset="1" stop-color="white" stop-opacity="0"/>
</linearGradient>
<clipPath id="clip0_119_299">
<rect width="32" height="32" fill="white" transform="translate(93.7128 77.7129) rotate(30)"/>
</clipPath>
</defs>
</svg>
