<svg width="613" height="536" viewBox="0 0 613 536" fill="none" xmlns="http://www.w3.org/2000/svg">
<style>
.zoom{animation:zoom 2s infinite;-webkit-animation:zoom 2s infinite;-moz-animation:zoom 2s infinite;-o-animation:zoom 2s infinite;-webkit-transform-origin:center;-ms-transform-origin:center;transform-origin:center;transform-box:fill-box}-webkit-keyframes zoom{0%{-webkit-transform:scale(1)}50%{-webkit-transform:scale(1.2)}100%{-webkit-transform:scale(1)}}@-webkit-keyframes zoom{0%{-webkit-transform:scale(1);transform:scale(1)}50%{-webkit-transform:scale(1.2);transform:scale(1.2)}100%{-webkit-transform:scale(1);transform:scale(1)}}@keyframes zoom{0%{-webkit-transform:scale(1);transform:scale(1)}50%{-webkit-transform:scale(1.2);transform:scale(1.2)}100%{-webkit-transform:scale(1);transform:scale(1)}}
.vector-1{-webkit-animation:vector_1 5s infinite linear;animation:vector_1 5s infinite linear;-webkit-transform-origin:center;-ms-transform-origin:center;transform-origin:center;transform-box:fill-box}@-webkit-keyframes vector_1{25%{-webkit-transform:translate(-5px,10px);transform:translate(-5px,10px)}50%{-webkit-transform:translate(-10px,20px);transform:translate(-10px,20px)}75%{-webkit-transform:translate(-5px,10px);transform:translate(-5px,10px)}100%{-webkit-transform:translate(0,0);transform:translate(0,0)}}@keyframes vector_1{25%{-webkit-transform:translate(-5px,10px);transform:translate(-5px,10px)}50%{-webkit-transform:translate(-10px,20px);transform:translate(-10px,20px)}75%{-webkit-transform:translate(-5px,10px);transform:translate(-5px,10px)}100%{-webkit-transform:translate(0,0);transform:translate(0,0)}}.vector-2{-webkit-animation:vector_2 5s infinite linear;animation:vector_2 5s infinite linear;-webkit-transform-origin:center;-ms-transform-origin:center;transform-origin:center;transform-box:fill-box}@-webkit-keyframes vector_2{25%{-webkit-transform:translate(-5px,-10px);transform:translate(-5px,-10px)}50%{-webkit-transform:translate(-10px,-20px);transform:translate(-10px,-20px)}75%{-webkit-transform:translate(-5px,-10px);transform:translate(-5px,-10px)}100%{-webkit-transform:translate(0,0);transform:translate(0,0)}}@keyframes vector_2{25%{-webkit-transform:translate(-5px,-10px);transform:translate(-5px,-10px)}50%{-webkit-transform:translate(-10px,-20px);transform:translate(-10px,-20px)}75%{-webkit-transform:translate(-5px,-10px);transform:translate(-5px,-10px)}100%{-webkit-transform:translate(0,0);transform:translate(0,0)}}.vector-3{-webkit-animation:vector_3 5s infinite linear;animation:vector_3 5s infinite linear;-webkit-transform-origin:center;-ms-transform-origin:center;transform-origin:center;transform-box:fill-box}@-webkit-keyframes vector_3{25%{-webkit-transform:translate(-5px,10px);transform:translate(-5px,10px)}50%{-webkit-transform:translate(-10px,20px);transform:translate(-10px,20px)}75%{-webkit-transform:translate(-5px,10px);transform:translate(-5px,10px)}100%{-webkit-transform:translate(0,0);transform:translate(0,0)}}@keyframes vector_3{25%{-webkit-transform:translate(-5px,10px);transform:translate(-5px,10px)}50%{-webkit-transform:translate(-10px,20px);transform:translate(-10px,20px)}75%{-webkit-transform:translate(-5px,10px);transform:translate(-5px,10px)}100%{-webkit-transform:translate(0,0);transform:translate(0,0)}}.vector-4{-webkit-animation:vector_4 5s infinite linear;animation:vector_4 5s infinite linear;-webkit-transform-origin:center;-ms-transform-origin:center;transform-origin:center;transform-box:fill-box}@-webkit-keyframes vector_4{25%{-webkit-transform:translate(5px,-10px);transform:translate(5px,-10px)}50%{-webkit-transform:translate(10px,-20px);transform:translate(10px,-20px)}75%{-webkit-transform:translate(5px,-10px);transform:translate(5px,-10px)}100%{-webkit-transform:translate(0,0);transform:translate(0,0)}}@keyframes vector_4{25%{-webkit-transform:translate(5px,-10px);transform:translate(5px,-10px)}50%{-webkit-transform:translate(10px,-20px);transform:translate(10px,-20px)}75%{-webkit-transform:translate(5px,-10px);transform:translate(5px,-10px)}100%{-webkit-transform:translate(0,0);transform:translate(0,0)}}
</style>
<g>
    <circle cx="36" cy="181" r="2" fill="#7ABADD"/>
    <circle cx="56" cy="181" r="2" fill="#7ABADD"/>
    <circle cx="76" cy="181" r="2" fill="#7ABADD"/>
    <circle cx="96" cy="181" r="2" fill="#7ABADD"/>
    <circle cx="116" cy="181" r="2" fill="#7ABADD"/>
    <circle cx="136" cy="181" r="2" fill="#7ABADD"/>
    <circle cx="156" cy="181" r="2" fill="#7ABADD"/>
    <circle cx="176" cy="181" r="2" fill="#7ABADD"/>
    <circle cx="36" cy="201" r="2" fill="#7ABADD"/>
    <circle cx="56" cy="201" r="2" fill="#7ABADD"/>
    <circle cx="76" cy="201" r="2" fill="#7ABADD"/>
    <circle cx="96" cy="201" r="2" fill="#7ABADD"/>
    <circle cx="116" cy="201" r="2" fill="#7ABADD"/>
    <circle cx="136" cy="201" r="2" fill="#7ABADD"/>
    <circle cx="156" cy="201" r="2" fill="#7ABADD"/>
    <circle cx="176" cy="201" r="2" fill="#7ABADD"/>
    <circle cx="36" cy="221" r="2" fill="#7ABADD"/>
    <circle cx="56" cy="221" r="2" fill="#7ABADD"/>
    <circle cx="76" cy="221" r="2" fill="#7ABADD"/>
    <circle cx="96" cy="221" r="2" fill="#7ABADD"/>
    <circle cx="116" cy="221" r="2" fill="#7ABADD"/>
    <circle cx="136" cy="221" r="2" fill="#7ABADD"/>
    <circle cx="156" cy="221" r="2" fill="#7ABADD"/>
    <circle cx="176" cy="221" r="2" fill="#7ABADD"/>
    <circle cx="36" cy="241" r="2" fill="#7ABADD"/>
    <circle cx="56" cy="241" r="2" fill="#7ABADD"/>
    <circle cx="76" cy="241" r="2" fill="#7ABADD"/>
    <circle cx="96" cy="241" r="2" fill="#7ABADD"/>
    <circle cx="116" cy="241" r="2" fill="#7ABADD"/>
    <circle cx="136" cy="241" r="2" fill="#7ABADD"/>
    <circle cx="156" cy="241" r="2" fill="#7ABADD"/>
    <circle cx="176" cy="241" r="2" fill="#7ABADD"/>
    <circle cx="36" cy="261" r="2" fill="#7ABADD"/>
    <circle cx="56" cy="261" r="2" fill="#7ABADD"/>
    <circle cx="76" cy="261" r="2" fill="#7ABADD"/>
    <circle cx="96" cy="261" r="2" fill="#7ABADD"/>
    <circle cx="116" cy="261" r="2" fill="#7ABADD"/>
    <circle cx="136" cy="261" r="2" fill="#7ABADD"/>
    <circle cx="156" cy="261" r="2" fill="#7ABADD"/>
    <circle cx="176" cy="261" r="2" fill="#7ABADD"/>
    <circle cx="36" cy="281" r="2" fill="#7ABADD"/>
    <circle cx="56" cy="281" r="2" fill="#7ABADD"/>
    <circle cx="76" cy="281" r="2" fill="#7ABADD"/>
    <circle cx="96" cy="281" r="2" fill="#7ABADD"/>
    <circle cx="116" cy="281" r="2" fill="#7ABADD"/>
    <circle cx="136" cy="281" r="2" fill="#7ABADD"/>
    <circle cx="156" cy="281" r="2" fill="#7ABADD"/>
    <circle cx="176" cy="281" r="2" fill="#7ABADD"/>
    <circle cx="36" cy="301" r="2" fill="#7ABADD"/>
    <circle cx="56" cy="301" r="2" fill="#7ABADD"/>
    <circle cx="76" cy="301" r="2" fill="#7ABADD"/>
    <circle cx="96" cy="301" r="2" fill="#7ABADD"/>
    <circle cx="116" cy="301" r="2" fill="#7ABADD"/>
    <circle cx="136" cy="301" r="2" fill="#7ABADD"/>
    <circle cx="156" cy="301" r="2" fill="#7ABADD"/>
    <circle cx="176" cy="301" r="2" fill="#7ABADD"/>
    <circle cx="36" cy="321" r="2" fill="#7ABADD"/>
    <circle cx="56" cy="321" r="2" fill="#7ABADD"/>
    <circle cx="76" cy="321" r="2" fill="#7ABADD"/>
    <circle cx="96" cy="321" r="2" fill="#7ABADD"/>
    <circle cx="116" cy="321" r="2" fill="#7ABADD"/>
    <circle cx="136" cy="321" r="2" fill="#7ABADD"/>
    <circle cx="156" cy="321" r="2" fill="#7ABADD"/>
    <circle cx="176" cy="321" r="2" fill="#7ABADD"/>
</g>
<g>
    <g class="zoom">
        <rect x="529.431" y="404.431" width="96" height="96" rx="16" transform="rotate(30 529.431 404.431)" fill="white" fill-opacity="0.2" stroke="url(#paint0_linear_47_202)"/>
        <rect x="533.823" y="420.823" width="72" height="72" rx="16" transform="rotate(30 533.823 420.823)" fill="white"/>
        <path fill-rule="evenodd" clip-rule="evenodd" d="M538.346 484.083C538.458 484.258 538.612 484.404 538.791 484.506C538.971 484.608 539.174 484.666 539.384 484.674L546.123 484.895C548.033 484.959 549.679 484.749 551.156 484.251C554.371 483.163 557.057 480.956 558.716 478.04L564.189 468.419C564.82 467.312 564.664 465.908 563.798 464.931L556.074 456.186C555.61 455.657 554.975 455.296 554.293 455.17L542.827 452.989C541.545 452.745 540.26 453.327 539.628 454.435L534.159 464.048C532.498 466.969 531.974 470.407 532.684 473.731C533.008 475.25 533.667 476.774 534.701 478.392L538.346 484.083ZM543.487 472.03C543.582 472.361 543.803 472.624 544.083 472.782C544.363 472.942 544.701 472.998 545.034 472.911L553.865 470.611C554.529 470.438 554.912 469.765 554.723 469.106C554.532 468.447 553.84 468.051 553.176 468.224L545.547 470.21L544.661 467.147C544.47 466.488 543.779 466.094 543.114 466.267C542.45 466.44 542.067 467.113 542.258 467.773L543.487 472.03Z" fill="#004265"/>
    </g>
</g>
<g class="vector-2">
    <circle cx="492" cy="51" r="8" fill="#004265"/>
</g>
<g class="vector-1">
    <circle cx="569" cy="279" r="13" fill="#7ABADD"/>
</g>
<g class="vector-4">
    <circle cx="31" cy="392" r="6" fill="#004265"/>
</g>
<g>
    <g class="zoom">
        <rect x="0.823242" y="36.823" width="72" height="72" rx="16" transform="rotate(-30 0.823242 36.823)" fill="#004265"/>
        <path d="M43.607 36.9407L31.4777 52.7402L63.437 35.0738L43.607 36.9407Z" fill="white"/>
        <rect x="31.3916" y="54.0454" width="37.2249" height="1.20698" transform="rotate(-28.9328 31.3916 54.0454)" fill="white"/>
        <path d="M34.3999 56.4124L35.7553 55.6631L42.5701 69.6427L40.603 70.73L41.0621 71.5605L73.8435 53.4396L73.3845 52.6092L71.3301 53.7448L63.3354 40.4175L64.1222 39.9826L63.373 38.6272L60.0511 40.4635L60.8003 41.8188L61.6745 41.3356L68.6639 55.2186L65.0798 57.1998L56.7791 44.0417L57.9593 43.3893L57.21 42.0339L53.4074 44.1359L54.1566 45.4913L55.293 44.8631L62.0202 58.8911L58.6109 60.7756L50.1354 47.7141L51.5341 46.941L50.7849 45.5856L46.7637 47.8084L47.5129 49.1638L48.7367 48.4873L55.4639 62.5153L51.9672 64.4481L43.7977 51.2175L44.9341 50.5893L44.1849 49.2339L40.2948 51.3843L41.044 52.7397L42.1805 52.1115L49.0388 66.0669L45.5421 67.9998L37.3288 54.7934L38.8586 53.9477L38.1094 52.5923L33.6506 55.057L34.3999 56.4124Z" fill="white"/>

    </g>
</g>
<defs>
<linearGradient id="paint0_linear_47_202" x1="529.431" y1="404.431" x2="625.431" y2="500.431" gradientUnits="userSpaceOnUse">
<stop stop-color="white"/>
<stop offset="1" stop-color="white" stop-opacity="0"/>
</linearGradient>
</defs>
</svg>
