<svg width="1920" height="966" viewBox="0 0 1920 966" fill="none" xmlns="http://www.w3.org/2000/svg">
<style>
.zoom{animation:zoom 2s infinite;-webkit-animation:zoom 2s infinite;-moz-animation:zoom 2s infinite;-o-animation:zoom 2s infinite;-webkit-transform-origin:center;-ms-transform-origin:center;transform-origin:center;transform-box:fill-box}-webkit-keyframes zoom{0%{-webkit-transform:scale(1)}50%{-webkit-transform:scale(1.2)}100%{-webkit-transform:scale(1)}}@-webkit-keyframes zoom{0%{-webkit-transform:scale(1);transform:scale(1)}50%{-webkit-transform:scale(1.2);transform:scale(1.2)}100%{-webkit-transform:scale(1);transform:scale(1)}}@keyframes zoom{0%{-webkit-transform:scale(1);transform:scale(1)}50%{-webkit-transform:scale(1.2);transform:scale(1.2)}100%{-webkit-transform:scale(1);transform:scale(1)}}
.vector-1{-webkit-animation:vector_1 5s infinite linear;animation:vector_1 5s infinite linear;-webkit-transform-origin:center;-ms-transform-origin:center;transform-origin:center;transform-box:fill-box}@-webkit-keyframes vector_1{25%{-webkit-transform:translate(-5px,10px);transform:translate(-5px,10px)}50%{-webkit-transform:translate(-10px,20px);transform:translate(-10px,20px)}75%{-webkit-transform:translate(-5px,10px);transform:translate(-5px,10px)}100%{-webkit-transform:translate(0,0);transform:translate(0,0)}}@keyframes vector_1{25%{-webkit-transform:translate(-5px,10px);transform:translate(-5px,10px)}50%{-webkit-transform:translate(-10px,20px);transform:translate(-10px,20px)}75%{-webkit-transform:translate(-5px,10px);transform:translate(-5px,10px)}100%{-webkit-transform:translate(0,0);transform:translate(0,0)}}.vector-2{-webkit-animation:vector_2 5s infinite linear;animation:vector_2 5s infinite linear;-webkit-transform-origin:center;-ms-transform-origin:center;transform-origin:center;transform-box:fill-box}@-webkit-keyframes vector_2{25%{-webkit-transform:translate(-5px,-10px);transform:translate(-5px,-10px)}50%{-webkit-transform:translate(-10px,-20px);transform:translate(-10px,-20px)}75%{-webkit-transform:translate(-5px,-10px);transform:translate(-5px,-10px)}100%{-webkit-transform:translate(0,0);transform:translate(0,0)}}@keyframes vector_2{25%{-webkit-transform:translate(-5px,-10px);transform:translate(-5px,-10px)}50%{-webkit-transform:translate(-10px,-20px);transform:translate(-10px,-20px)}75%{-webkit-transform:translate(-5px,-10px);transform:translate(-5px,-10px)}100%{-webkit-transform:translate(0,0);transform:translate(0,0)}}.vector-3{-webkit-animation:vector_3 5s infinite linear;animation:vector_3 5s infinite linear;-webkit-transform-origin:center;-ms-transform-origin:center;transform-origin:center;transform-box:fill-box}@-webkit-keyframes vector_3{25%{-webkit-transform:translate(-5px,10px);transform:translate(-5px,10px)}50%{-webkit-transform:translate(-10px,20px);transform:translate(-10px,20px)}75%{-webkit-transform:translate(-5px,10px);transform:translate(-5px,10px)}100%{-webkit-transform:translate(0,0);transform:translate(0,0)}}@keyframes vector_3{25%{-webkit-transform:translate(-5px,10px);transform:translate(-5px,10px)}50%{-webkit-transform:translate(-10px,20px);transform:translate(-10px,20px)}75%{-webkit-transform:translate(-5px,10px);transform:translate(-5px,10px)}100%{-webkit-transform:translate(0,0);transform:translate(0,0)}}.vector-4{-webkit-animation:vector_4 5s infinite linear;animation:vector_4 5s infinite linear;-webkit-transform-origin:center;-ms-transform-origin:center;transform-origin:center;transform-box:fill-box}@-webkit-keyframes vector_4{25%{-webkit-transform:translate(5px,-10px);transform:translate(5px,-10px)}50%{-webkit-transform:translate(10px,-20px);transform:translate(10px,-20px)}75%{-webkit-transform:translate(5px,-10px);transform:translate(5px,-10px)}100%{-webkit-transform:translate(0,0);transform:translate(0,0)}}@keyframes vector_4{25%{-webkit-transform:translate(5px,-10px);transform:translate(5px,-10px)}50%{-webkit-transform:translate(10px,-20px);transform:translate(10px,-20px)}75%{-webkit-transform:translate(5px,-10px);transform:translate(5px,-10px)}100%{-webkit-transform:translate(0,0);transform:translate(0,0)}}
</style>
<g>
    <circle cx="1086.18" cy="319.177" r="2" fill="#7ABADD"/>
    <circle cx="1106.18" cy="319.177" r="2" fill="#7ABADD"/>
    <circle cx="1126.18" cy="319.177" r="2" fill="#7ABADD"/>
    <circle cx="1146.18" cy="319.177" r="2" fill="#7ABADD"/>
    <circle cx="1166.18" cy="319.177" r="2" fill="#7ABADD"/>
    <circle cx="1186.18" cy="319.177" r="2" fill="#7ABADD"/>
    <circle cx="1206.18" cy="319.177" r="2" fill="#7ABADD"/>
    <circle cx="1226.18" cy="319.177" r="2" fill="#7ABADD"/>
    <circle cx="1086.18" cy="339.177" r="2" fill="#7ABADD"/>
    <circle cx="1106.18" cy="339.177" r="2" fill="#7ABADD"/>
    <circle cx="1126.18" cy="339.177" r="2" fill="#7ABADD"/>
    <circle cx="1146.18" cy="339.177" r="2" fill="#7ABADD"/>
    <circle cx="1166.18" cy="339.177" r="2" fill="#7ABADD"/>
    <circle cx="1186.18" cy="339.177" r="2" fill="#7ABADD"/>
    <circle cx="1206.18" cy="339.177" r="2" fill="#7ABADD"/>
    <circle cx="1226.18" cy="339.177" r="2" fill="#7ABADD"/>
    <circle cx="1086.18" cy="359.177" r="2" fill="#7ABADD"/>
    <circle cx="1106.18" cy="359.177" r="2" fill="#7ABADD"/>
    <circle cx="1126.18" cy="359.177" r="2" fill="#7ABADD"/>
    <circle cx="1146.18" cy="359.177" r="2" fill="#7ABADD"/>
    <circle cx="1166.18" cy="359.177" r="2" fill="#7ABADD"/>
    <circle cx="1186.18" cy="359.177" r="2" fill="#7ABADD"/>
    <circle cx="1206.18" cy="359.177" r="2" fill="#7ABADD"/>
    <circle cx="1226.18" cy="359.177" r="2" fill="#7ABADD"/>
    <circle cx="1086.18" cy="379.177" r="2" fill="#7ABADD"/>
    <circle cx="1106.18" cy="379.177" r="2" fill="#7ABADD"/>
    <circle cx="1126.18" cy="379.177" r="2" fill="#7ABADD"/>
    <circle cx="1146.18" cy="379.177" r="2" fill="#7ABADD"/>
    <circle cx="1166.18" cy="379.177" r="2" fill="#7ABADD"/>
    <circle cx="1186.18" cy="379.177" r="2" fill="#7ABADD"/>
    <circle cx="1206.18" cy="379.177" r="2" fill="#7ABADD"/>
    <circle cx="1226.18" cy="379.177" r="2" fill="#7ABADD"/>
    <circle cx="1086.18" cy="399.177" r="2" fill="#7ABADD"/>
    <circle cx="1106.18" cy="399.177" r="2" fill="#7ABADD"/>
    <circle cx="1126.18" cy="399.177" r="2" fill="#7ABADD"/>
    <circle cx="1146.18" cy="399.177" r="2" fill="#7ABADD"/>
    <circle cx="1166.18" cy="399.177" r="2" fill="#7ABADD"/>
    <circle cx="1186.18" cy="399.177" r="2" fill="#7ABADD"/>
    <circle cx="1206.18" cy="399.177" r="2" fill="#7ABADD"/>
    <circle cx="1226.18" cy="399.177" r="2" fill="#7ABADD"/>
    <circle cx="1086.18" cy="419.177" r="2" fill="#7ABADD"/>
    <circle cx="1106.18" cy="419.177" r="2" fill="#7ABADD"/>
    <circle cx="1126.18" cy="419.177" r="2" fill="#7ABADD"/>
    <circle cx="1146.18" cy="419.177" r="2" fill="#7ABADD"/>
    <circle cx="1166.18" cy="419.177" r="2" fill="#7ABADD"/>
    <circle cx="1186.18" cy="419.177" r="2" fill="#7ABADD"/>
    <circle cx="1206.18" cy="419.177" r="2" fill="#7ABADD"/>
    <circle cx="1226.18" cy="419.177" r="2" fill="#7ABADD"/>
    <circle cx="1086.18" cy="439.177" r="2" fill="#7ABADD"/>
    <circle cx="1106.18" cy="439.177" r="2" fill="#7ABADD"/>
    <circle cx="1126.18" cy="439.177" r="2" fill="#7ABADD"/>
    <circle cx="1146.18" cy="439.177" r="2" fill="#7ABADD"/>
    <circle cx="1166.18" cy="439.177" r="2" fill="#7ABADD"/>
    <circle cx="1186.18" cy="439.177" r="2" fill="#7ABADD"/>
    <circle cx="1206.18" cy="439.177" r="2" fill="#7ABADD"/>
    <circle cx="1226.18" cy="439.177" r="2" fill="#7ABADD"/>
    <circle cx="1086.18" cy="459.177" r="2" fill="#7ABADD"/>
    <circle cx="1106.18" cy="459.177" r="2" fill="#7ABADD"/>
    <circle cx="1126.18" cy="459.177" r="2" fill="#7ABADD"/>
    <circle cx="1146.18" cy="459.177" r="2" fill="#7ABADD"/>
    <circle cx="1166.18" cy="459.177" r="2" fill="#7ABADD"/>
    <circle cx="1186.18" cy="459.177" r="2" fill="#7ABADD"/>
    <circle cx="1206.18" cy="459.177" r="2" fill="#7ABADD"/>
    <circle cx="1226.18" cy="459.177" r="2" fill="#7ABADD"/>
</g>
<g>
    <g class="zoom">
        <rect x="1579.61" y="542.608" width="96" height="96" rx="16" transform="rotate(30 1579.61 542.608)" fill="white" fill-opacity="0.2" stroke="url(#paint0_linear_48_293)"/>
        <rect x="1584" y="559" width="72" height="72" rx="16" transform="rotate(30 1584 559)" fill="white"/>
        <path fill-rule="evenodd" clip-rule="evenodd" d="M1588.52 622.26C1588.63 622.435 1588.79 622.581 1588.97 622.683C1589.15 622.785 1589.35 622.843 1589.56 622.851L1596.3 623.072C1598.21 623.136 1599.86 622.926 1601.33 622.428C1604.55 621.34 1607.23 619.133 1608.89 616.217L1614.37 606.596C1615 605.489 1614.84 604.085 1613.98 603.108L1606.25 594.363C1605.79 593.834 1605.15 593.473 1604.47 593.347L1593 591.166C1591.72 590.923 1590.44 591.504 1589.8 592.612L1584.34 602.225C1582.67 605.146 1582.15 608.584 1582.86 611.908C1583.18 613.427 1583.84 614.951 1584.88 616.569L1588.52 622.26ZM1593.66 610.207C1593.76 610.538 1593.98 610.801 1594.26 610.959C1594.54 611.119 1594.88 611.175 1595.21 611.088L1604.04 608.788C1604.71 608.615 1605.09 607.942 1604.9 607.283C1604.71 606.624 1604.02 606.228 1603.35 606.402L1595.72 608.387L1594.84 605.324C1594.65 604.665 1593.96 604.271 1593.29 604.444C1592.63 604.617 1592.24 605.291 1592.43 605.95L1593.66 610.207Z" fill="#004265"/>
    </g>
</g>
<g class="vector-2">
    <circle cx="1542.18" cy="189.177" r="8" fill="#004265"/>
</g>
<g class="vector-1">
    <circle cx="1619.18" cy="417.177" r="13" fill="#7ABADD"/>
</g>
<g class="vector-4">
    <circle cx="1081.18" cy="530.177" r="6" fill="#004265"/>
</g>
<g>
    
    <g class="zoom">
        <rect x="1051" y="175" width="72" height="72" rx="16" transform="rotate(-30 1051 175)" fill="#004265"/>
        <path d="M1093.61 174.941L1081.48 190.74L1113.44 173.074L1093.61 174.941Z" fill="white"/>
        <rect x="1081.39" y="192.045" width="37.2249" height="1.20698" transform="rotate(-28.9328 1081.39 192.045)" fill="white"/>
        <path d="M1084.4 194.412L1085.76 193.663L1092.57 207.643L1090.6 208.73L1091.06 209.561L1123.84 191.44L1123.38 190.609L1121.33 191.745L1113.34 178.418L1114.12 177.983L1113.37 176.627L1110.05 178.464L1110.8 179.819L1111.67 179.336L1118.66 193.219L1115.08 195.2L1106.78 182.042L1107.96 181.389L1107.21 180.034L1103.41 182.136L1104.16 183.491L1105.29 182.863L1112.02 196.891L1108.61 198.776L1100.14 185.714L1101.53 184.941L1100.78 183.586L1096.76 185.809L1097.51 187.164L1098.74 186.487L1105.46 200.515L1101.97 202.448L1093.8 189.218L1094.93 188.589L1094.18 187.234L1090.29 189.384L1091.04 190.74L1092.18 190.112L1099.04 204.067L1095.54 206L1087.33 192.793L1088.86 191.948L1088.11 190.592L1083.65 193.057L1084.4 194.412Z" fill="white"/>
    </g>
</g>
<defs>
<linearGradient id="paint0_linear_48_293" x1="1579.61" y1="542.608" x2="1675.61" y2="638.608" gradientUnits="userSpaceOnUse">
<stop stop-color="white"/>
<stop offset="1" stop-color="white" stop-opacity="0"/>
</linearGradient>
</defs>
</svg>
