<svg width="24" height="22" viewBox="0 0 24 22" fill="none" xmlns="http://www.w3.org/2000/svg">
<path fill-rule="evenodd" clip-rule="evenodd" d="M21.1385 5.04992C21.4677 5.36792 21.7015 5.76169 21.8163 6.19146C22.1228 7.78407 22.2716 9.39983 22.2608 11.0181C22.2669 12.6122 22.1181 14.2035 21.8163 15.7723C21.7015 16.2021 21.4677 16.5959 21.1385 16.9139C20.8093 17.2319 20.3964 17.4628 19.9415 17.5834C18.2793 18 11.6307 18 11.6307 18C11.6307 18 4.98201 18 3.31985 17.5834C2.87418 17.4692 2.46749 17.2491 2.13908 16.9445C1.81067 16.64 1.57164 16.2612 1.44508 15.8448C1.13852 14.2521 0.989709 12.6364 1.00055 11.0181C0.992083 9.41192 1.14088 7.80839 1.44508 6.22768C1.55988 5.79791 1.79367 5.40414 2.12285 5.08614C2.45202 4.76814 2.86493 4.53717 3.31985 4.41656C4.98201 4 11.6307 4 11.6307 4C11.6307 4 18.2793 4 19.9415 4.38034C20.3964 4.50094 20.8093 4.73191 21.1385 5.04992ZM15.0123 11.0182L9.45569 13.9794V8.05699L15.0123 11.0182Z" fill="white"/>
</svg>
