<svg width="42" height="42" viewBox="0 0 42 42" fill="none" xmlns="http://www.w3.org/2000/svg"><path d="M21.0001 5.72754C16.8524 5.72754 16.3319 5.74568 14.7028 5.81981C13.077 5.89427 11.9672 6.15168 10.9961 6.52936C9.99166 6.91945 9.1396 7.44127 8.29071 8.29049C7.44119 9.1394 6.91939 9.99149 6.52804 10.9957C6.14941 11.9671 5.89169 13.0772 5.81851 14.7025C5.74565 16.3316 5.72656 16.8524 5.72656 21.0003C5.72656 25.1481 5.74502 25.667 5.81883 27.2961C5.8936 28.922 6.151 30.0319 6.52836 31.0029C6.91875 32.0074 7.44056 32.8595 8.28976 33.7084C9.13832 34.558 9.99039 35.0811 10.9942 35.4712C11.9659 35.8489 13.076 36.1063 14.7016 36.1807C16.3306 36.2549 16.8508 36.273 20.9982 36.273C25.1462 36.273 25.6651 36.2549 27.2942 36.1807C28.92 36.1063 30.0311 35.8489 31.0028 35.4712C32.0069 35.0811 32.8577 34.558 33.7063 33.7084C34.5558 32.8595 35.0776 32.0074 35.469 31.0033C35.8444 30.0319 36.1021 28.9217 36.1785 27.2964C36.2517 25.6674 36.2708 25.1481 36.2708 21.0003C36.2708 16.8524 36.2517 16.3319 36.1785 14.7028C36.1021 13.0769 35.8444 11.9671 35.469 10.996C35.0776 9.99149 34.5558 9.1394 33.7063 8.29049C32.8568 7.44095 32.0073 6.91913 31.0018 6.52936C30.0282 6.15168 28.9178 5.89427 27.292 5.81981C25.6629 5.74568 25.1443 5.72754 20.9953 5.72754H21.0001ZM19.63 8.47981C20.0367 8.47918 20.4904 8.47981 21.0001 8.47981C25.0778 8.47981 25.5611 8.49445 27.1714 8.56763C28.6604 8.63572 29.4686 8.88454 30.0069 9.09358C30.7196 9.3704 31.2277 9.70131 31.762 10.2359C32.2965 10.7704 32.6274 11.2795 32.9048 11.9922C33.1139 12.5299 33.363 13.3381 33.4308 14.8272C33.5039 16.4372 33.5199 16.9209 33.5199 20.9968C33.5199 25.0727 33.5039 25.5563 33.4308 27.1663C33.3627 28.6554 33.1139 29.4636 32.9048 30.0013C32.628 30.714 32.2965 31.2215 31.762 31.7558C31.2274 32.2903 30.7199 32.6212 30.0069 32.898C29.4692 33.108 28.6604 33.3562 27.1714 33.4243C25.5614 33.4975 25.0778 33.5134 21.0001 33.5134C16.9221 33.5134 16.4388 33.4975 14.8288 33.4243C13.3398 33.3556 12.5316 33.1068 11.993 32.8977C11.2803 32.6209 10.7712 32.29 10.2367 31.7554C9.70212 31.2209 9.37122 30.7131 9.09378 30C8.88474 29.4623 8.63561 28.6541 8.56784 27.165C8.49466 25.555 8.48002 25.0714 8.48002 20.9929C8.48002 16.9145 8.49466 16.4334 8.56784 14.8234C8.63593 13.3343 8.88474 12.5261 9.09378 11.9878C9.37059 11.275 9.70212 10.7659 10.2367 10.2314C10.7712 9.69686 11.2803 9.36595 11.993 9.08849C12.5313 8.87849 13.3398 8.63031 14.8288 8.5619C16.2377 8.49827 16.7837 8.47918 19.63 8.47599V8.47981ZM29.1523 11.0157C28.1405 11.0157 27.3196 11.8357 27.3196 12.8478C27.3196 13.8596 28.1405 14.6805 29.1523 14.6805C30.1641 14.6805 30.985 13.8596 30.985 12.8478C30.985 11.836 30.1641 11.0151 29.1523 11.0151V11.0157ZM21.0001 13.1571C16.6688 13.1571 13.1572 16.6689 13.1572 21.0003C13.1572 25.3317 16.6688 28.8419 21.0001 28.8419C25.3314 28.8419 28.8418 25.3317 28.8418 21.0003C28.8418 16.6689 25.3311 13.1571 20.9998 13.1571H21.0001ZM21.0001 15.9094C23.8115 15.9094 26.0909 18.1885 26.0909 21.0003C26.0909 23.8117 23.8115 26.0912 21.0001 26.0912C18.1884 26.0912 15.9093 23.8117 15.9093 21.0003C15.9093 18.1885 18.1884 15.9094 21.0001 15.9094Z" fill="url(#paint0_radial_2863_996)"/><path d="M21.0001 5.72754C16.8524 5.72754 16.3319 5.74568 14.7028 5.81981C13.077 5.89427 11.9672 6.15168 10.9961 6.52936C9.99166 6.91945 9.1396 7.44127 8.29071 8.29049C7.44119 9.1394 6.91939 9.99149 6.52804 10.9957C6.14941 11.9671 5.89169 13.0772 5.81851 14.7025C5.74565 16.3316 5.72656 16.8524 5.72656 21.0003C5.72656 25.1481 5.74502 25.667 5.81883 27.2961C5.8936 28.922 6.151 30.0319 6.52836 31.0029C6.91875 32.0074 7.44056 32.8595 8.28976 33.7084C9.13832 34.558 9.99039 35.0811 10.9942 35.4712C11.9659 35.8489 13.076 36.1063 14.7016 36.1807C16.3306 36.2549 16.8508 36.273 20.9982 36.273C25.1462 36.273 25.6651 36.2549 27.2942 36.1807C28.92 36.1063 30.0311 35.8489 31.0028 35.4712C32.0069 35.0811 32.8577 34.558 33.7063 33.7084C34.5558 32.8595 35.0776 32.0074 35.469 31.0033C35.8444 30.0319 36.1021 28.9217 36.1785 27.2964C36.2517 25.6674 36.2708 25.1481 36.2708 21.0003C36.2708 16.8524 36.2517 16.3319 36.1785 14.7028C36.1021 13.0769 35.8444 11.9671 35.469 10.996C35.0776 9.99149 34.5558 9.1394 33.7063 8.29049C32.8568 7.44095 32.0073 6.91913 31.0018 6.52936C30.0282 6.15168 28.9178 5.89427 27.292 5.81981C25.6629 5.74568 25.1443 5.72754 20.9953 5.72754H21.0001ZM19.63 8.47981C20.0367 8.47918 20.4904 8.47981 21.0001 8.47981C25.0778 8.47981 25.5611 8.49445 27.1714 8.56763C28.6604 8.63572 29.4686 8.88454 30.0069 9.09358C30.7196 9.3704 31.2277 9.70131 31.762 10.2359C32.2965 10.7704 32.6274 11.2795 32.9048 11.9922C33.1139 12.5299 33.363 13.3381 33.4308 14.8272C33.5039 16.4372 33.5199 16.9209 33.5199 20.9968C33.5199 25.0727 33.5039 25.5563 33.4308 27.1663C33.3627 28.6554 33.1139 29.4636 32.9048 30.0013C32.628 30.714 32.2965 31.2215 31.762 31.7558C31.2274 32.2903 30.7199 32.6212 30.0069 32.898C29.4692 33.108 28.6604 33.3562 27.1714 33.4243C25.5614 33.4975 25.0778 33.5134 21.0001 33.5134C16.9221 33.5134 16.4388 33.4975 14.8288 33.4243C13.3398 33.3556 12.5316 33.1068 11.993 32.8977C11.2803 32.6209 10.7712 32.29 10.2367 31.7554C9.70212 31.2209 9.37122 30.7131 9.09378 30C8.88474 29.4623 8.63561 28.6541 8.56784 27.165C8.49466 25.555 8.48002 25.0714 8.48002 20.9929C8.48002 16.9145 8.49466 16.4334 8.56784 14.8234C8.63593 13.3343 8.88474 12.5261 9.09378 11.9878C9.37059 11.275 9.70212 10.7659 10.2367 10.2314C10.7712 9.69686 11.2803 9.36595 11.993 9.08849C12.5313 8.87849 13.3398 8.63031 14.8288 8.5619C16.2377 8.49827 16.7837 8.47918 19.63 8.47599V8.47981ZM29.1523 11.0157C28.1405 11.0157 27.3196 11.8357 27.3196 12.8478C27.3196 13.8596 28.1405 14.6805 29.1523 14.6805C30.1641 14.6805 30.985 13.8596 30.985 12.8478C30.985 11.836 30.1641 11.0151 29.1523 11.0151V11.0157ZM21.0001 13.1571C16.6688 13.1571 13.1572 16.6689 13.1572 21.0003C13.1572 25.3317 16.6688 28.8419 21.0001 28.8419C25.3314 28.8419 28.8418 25.3317 28.8418 21.0003C28.8418 16.6689 25.3311 13.1571 20.9998 13.1571H21.0001ZM21.0001 15.9094C23.8115 15.9094 26.0909 18.1885 26.0909 21.0003C26.0909 23.8117 23.8115 26.0912 21.0001 26.0912C18.1884 26.0912 15.9093 23.8117 15.9093 21.0003C15.9093 18.1885 18.1884 15.9094 21.0001 15.9094Z" fill="white"/><defs><radialGradient id="paint0_radial_2863_996" cx="0" cy="0" r="1" gradientUnits="userSpaceOnUse" gradientTransform="translate(13.8399 38.6256) rotate(-90) scale(30.2728 28.1549)"><stop stop-color="#FFDD55"/><stop offset="0.1" stop-color="#FFDD55"/><stop offset="0.5" stop-color="#FF543E"/><stop offset="1" stop-color="#C837AB"/></radialGradient></defs></svg>