<svg width="42" height="42" viewBox="0 0 42 42" fill="none" xmlns="http://www.w3.org/2000/svg"><path fill-rule="evenodd" clip-rule="evenodd" d="M34.599 14.1554C34.6109 14.4614 34.6148 14.7673 34.6148 15.0734C34.6148 24.3522 28.0876 35.0641 16.1516 35.0641C12.485 35.0641 9.07569 33.8955 6.20312 31.9062C6.7109 31.9619 7.2266 32.0037 7.7502 32.0037C10.7903 32.0037 13.5903 30.8766 15.8113 28.9847C12.9717 28.943 10.574 26.898 9.74702 24.1157C10.144 24.1992 10.5528 24.2411 10.9709 24.2411C11.5605 24.2411 12.1329 24.1577 12.6815 23.9908C9.71006 23.3508 7.47191 20.513 7.47191 17.1047C7.47191 17.063 7.47191 17.049 7.47191 17.0212C8.34766 17.5359 9.35001 17.8557 10.4144 17.8974C8.67077 16.6315 7.52464 14.4753 7.52464 12.0408C7.52464 10.761 7.84381 9.55062 8.40566 8.50727C11.6053 12.7641 16.389 15.5604 21.782 15.8525C21.6712 15.3378 21.6144 14.7954 21.6144 14.2528C21.6144 10.3716 24.52 7.22754 28.1047 7.22754C29.971 7.22754 31.6565 8.07625 32.8396 9.43956C34.3207 9.13351 35.7082 8.54928 36.9638 7.74242C36.4771 9.38396 35.4497 10.7609 34.107 11.6234C35.4207 11.4565 36.6736 11.0811 37.8356 10.5247C36.9638 11.9297 35.8665 13.1676 34.599 14.1554Z" fill="white"/></svg>