<svg width="124" height="26" viewBox="0 0 124 26" fill="none" xmlns="http://www.w3.org/2000/svg">
<path fill-rule="evenodd" clip-rule="evenodd" d="M5.50729 3.73232C2.9885 5.68949 1.20084 8.42808 0.428957 11.512H1.68444C3.80236 11.481 5.87685 12.1102 7.61661 13.3112C7.71701 13.3835 7.82184 13.4495 7.93048 13.5088H8.07695C8.18559 13.4495 8.29041 13.3835 8.39082 13.3112C10.146 12.138 12.2131 11.5114 14.3282 11.5114C16.4433 11.5114 18.5104 12.138 20.2656 13.3112C20.366 13.3835 20.4708 13.4495 20.5795 13.5088H20.726C20.8346 13.4495 20.9394 13.3835 21.0398 13.3112C22.7796 12.1102 24.8541 11.481 26.972 11.512H28.2275C27.4556 8.42808 25.6679 5.68949 23.1491 3.73232C20.6303 1.77515 17.5252 0.711914 14.3282 0.711914C11.1312 0.711914 8.02608 1.77515 5.50729 3.73232ZM26.972 17.2944C26.1554 17.2729 25.3566 17.5339 24.7121 18.0328C23.5193 18.8582 22.1008 19.3007 20.6475 19.3007C19.1941 19.3007 17.7757 18.8582 16.5829 18.0328C15.9392 17.5323 15.1398 17.2712 14.323 17.2944C13.5066 17.2746 12.7084 17.5354 12.0631 18.0328C10.8725 18.8587 9.45558 19.3016 8.00371 19.3016C6.55184 19.3016 5.13494 18.8587 3.94431 18.0328C3.29982 17.5339 2.50104 17.2729 1.68444 17.2944H0V13.956H1.73675C3.1929 13.9274 4.61851 14.373 5.79615 15.2248C6.45078 15.7046 7.24272 15.9634 8.05602 15.9634C8.86933 15.9634 9.66127 15.7046 10.3159 15.2248C11.5087 14.3994 12.9272 13.957 14.3805 13.957C15.8339 13.957 17.2524 14.3994 18.4452 15.2248C19.0998 15.7046 19.8917 15.9634 20.705 15.9634C21.5183 15.9634 22.3103 15.7046 22.9649 15.2248C24.1282 14.3838 25.5336 13.9387 26.972 13.956H28.6564V17.2944H26.972ZM26.972 23.264C26.1554 23.2425 25.3566 23.5035 24.7121 24.0024C23.5193 24.8278 22.1008 25.2703 20.6475 25.2703C19.1941 25.2703 17.7757 24.8278 16.5829 24.0024C15.9392 23.5019 15.1398 23.2408 14.323 23.264C13.5066 23.2442 12.7084 23.505 12.0631 24.0024C10.8725 24.8283 9.45558 25.2712 8.00371 25.2712C6.55184 25.2712 5.13494 24.8283 3.94431 24.0024C3.29982 23.5035 2.50104 23.2425 1.68444 23.264H0V19.9256H1.73675C3.1929 19.897 4.61851 20.3426 5.79615 21.1944C6.45078 21.6742 7.24272 21.933 8.05602 21.933C8.86933 21.933 9.66127 21.6742 10.3159 21.1944C11.5087 20.3691 12.9272 19.9266 14.3805 19.9266C15.8339 19.9266 17.2524 20.3691 18.4452 21.1944C19.0998 21.6742 19.8917 21.933 20.705 21.933C21.5183 21.933 22.3103 21.6742 22.9649 21.1944C24.1282 20.3534 25.5336 19.9083 26.972 19.9256H28.6564V23.264H26.972ZM37.8321 20.1855C38.3415 20.5424 38.957 20.7182 39.5793 20.6847C39.9847 20.6802 40.387 20.6135 40.772 20.4871C40.8108 20.4849 40.8487 20.4744 40.8831 20.4564C40.9175 20.4384 40.9476 20.4132 40.9714 20.3827C40.9951 20.3521 41.0121 20.3169 41.021 20.2793C41.0299 20.2417 41.0307 20.2026 41.0231 20.1647L40.8662 18.8647C40.8557 18.6775 40.7406 18.6151 40.5314 18.6151C40.3815 18.6559 40.2263 18.6735 40.071 18.6671C39.7049 18.6671 39.527 18.4695 39.527 18.0743V9.18232C39.527 8.98472 39.4328 8.88072 39.2341 8.88072H37.4764C37.4353 8.87566 37.3936 8.87997 37.3545 8.89334C37.3154 8.90671 37.2798 8.92878 37.2506 8.95786C37.2213 8.98694 37.1991 9.02228 37.1857 9.06117C37.1722 9.10007 37.1679 9.1415 37.173 9.18232V18.8231C37.1633 19.0863 37.2183 19.3479 37.3331 19.5853C37.448 19.8227 37.6192 20.0287 37.8321 20.1855ZM46.3275 20.6942C47.4732 20.6942 48.583 20.2974 49.4662 19.5721V19.5617C50.2246 18.7755 50.648 17.7284 50.648 16.6393C50.648 15.5501 50.2246 14.503 49.4662 13.7169C48.5813 12.9952 47.4721 12.6008 46.3275 12.6008C45.1829 12.6008 44.0737 12.9952 43.1888 13.7169C42.4125 14.4958 41.9771 15.548 41.9771 16.6445C41.9771 17.7409 42.4125 18.7931 43.1888 19.5721C44.072 20.2974 45.1819 20.6942 46.3275 20.6942ZM46.338 18.7727C45.785 18.7727 45.2517 18.5683 44.8419 18.1993C44.4709 17.7753 44.2666 17.2323 44.2666 16.6705C44.2666 16.1086 44.4709 15.5656 44.8419 15.1417C45.2517 14.7726 45.785 14.5682 46.338 14.5682C46.891 14.5682 47.4242 14.7726 47.8341 15.1417C48.205 15.5656 48.4094 16.1086 48.4094 16.6705C48.4094 17.2323 48.205 17.7753 47.8341 18.1993C47.4242 18.5683 46.891 18.7727 46.338 18.7727ZM60.3258 12.8641C60.5246 12.8641 60.6188 12.9681 60.6188 13.1657V20.6225C60.6371 21.1258 60.5423 21.6268 60.3414 22.0891C60.1406 22.5515 59.8386 22.9635 59.4575 23.2953C58.6115 24.0123 57.5236 24.384 56.4129 24.3353C55.4097 24.3703 54.4199 24.0981 53.5776 23.5553C53.2179 23.3205 52.9106 23.0147 52.6749 22.6569C52.4391 22.2991 52.2798 21.8969 52.207 21.4753C52.207 21.2673 52.207 21.1737 52.4895 21.1737H54.2472C54.3218 21.1762 54.3941 21.2001 54.4554 21.2426C54.5166 21.285 54.5643 21.3442 54.5925 21.4129C54.7065 21.7288 54.9337 21.9917 55.2307 22.1513C55.5926 22.3369 55.9953 22.4298 56.4024 22.4217C56.6481 22.4351 56.894 22.3997 57.1257 22.3175C57.3574 22.2354 57.5704 22.1082 57.7521 21.9433C57.9181 21.7708 58.0472 21.5667 58.1318 21.3433C58.2163 21.1199 58.2544 20.8818 58.2438 20.6433V19.9881C57.6145 20.4482 56.8486 20.6861 56.0676 20.6641C55.5211 20.6839 54.9762 20.5936 54.4656 20.3988C53.955 20.204 53.4893 19.9087 53.0963 19.5305C52.342 18.7548 51.9204 17.7181 51.9204 16.6393C51.9204 15.5605 52.342 14.5238 53.0963 13.7481C53.4911 13.3733 53.9574 13.0808 54.4677 12.8879C54.9781 12.695 55.522 12.6056 56.0676 12.6249C56.8712 12.6038 57.6577 12.8571 58.2961 13.3425V13.1761C58.2913 13.1362 58.2955 13.0958 58.3084 13.0578C58.3213 13.0197 58.3425 12.985 58.3705 12.9561C58.3986 12.9272 58.4328 12.9049 58.4706 12.8908C58.5084 12.8767 58.5488 12.8711 58.5891 12.8745L60.3258 12.8641ZM56.2664 18.8129C56.536 18.8212 56.8041 18.7705 57.0517 18.6645C57.2994 18.5585 57.5206 18.3997 57.6998 18.1993C58.0476 17.7528 58.2364 17.204 58.2364 16.6393C58.2364 16.0746 58.0476 15.5258 57.6998 15.0793C57.5213 14.8816 57.3014 14.7252 57.0556 14.621C56.8098 14.5168 56.544 14.4673 56.2769 14.4761C56.0042 14.4676 55.733 14.518 55.4819 14.624C55.2308 14.7299 55.0059 14.8888 54.8226 15.0897C54.4373 15.5168 54.2346 16.0764 54.2577 16.6497C54.2388 17.2173 54.4369 17.771 54.8122 18.1993C54.9958 18.3996 55.2209 18.5582 55.4719 18.6641C55.7228 18.77 55.9939 18.8207 56.2664 18.8129ZM66.509 20.688C67.6536 20.688 68.7628 20.2936 69.6477 19.5719V19.5615C70.4061 18.7754 70.8295 17.7283 70.8295 16.6391C70.8295 15.55 70.4061 14.5029 69.6477 13.7167C68.7619 12.997 67.6531 12.6038 66.509 12.6038C65.3649 12.6038 64.256 12.997 63.3703 13.7167C62.6112 14.5046 62.1875 15.5534 62.1875 16.6443C62.1875 17.7353 62.6112 18.784 63.3703 19.5719C64.2552 20.2936 65.3644 20.688 66.509 20.688ZM65.7085 18.6352C65.4499 18.537 65.2134 18.3888 65.0129 18.1991C64.648 17.7723 64.4476 17.2305 64.4476 16.6703C64.4476 16.1102 64.648 15.5684 65.0129 15.1415C65.2134 14.9519 65.4499 14.8037 65.7085 14.7055C65.9671 14.6073 66.2427 14.5611 66.5194 14.5695C66.7944 14.5625 67.0681 14.6093 67.3248 14.7075C67.5815 14.8056 67.8162 14.9531 68.0156 15.1415C68.3805 15.5684 68.5808 16.1102 68.5808 16.6703C68.5808 17.2305 68.3805 17.7723 68.0156 18.1991C67.8162 18.3876 67.5815 18.5351 67.3248 18.6332C67.0681 18.7313 66.7944 18.7782 66.5194 18.7711C66.2427 18.7796 65.9671 18.7334 65.7085 18.6352ZM74.6073 11.0961C74.3307 11.3367 73.9757 11.4693 73.6081 11.4693C73.2406 11.4693 72.8855 11.3367 72.609 11.0961C72.4836 10.9784 72.3837 10.8366 72.3154 10.6792C72.2471 10.5218 72.2119 10.3523 72.2119 10.1809C72.2119 10.0095 72.2471 9.8399 72.3154 9.68252C72.3837 9.52515 72.4836 9.3833 72.609 9.26566C72.8884 9.03105 73.2424 8.90234 73.6081 8.90234C73.9739 8.90234 74.3279 9.03105 74.6073 9.26566C74.7327 9.3833 74.8326 9.52515 74.9009 9.68252C74.9691 9.8399 75.0044 10.0095 75.0044 10.1809C75.0044 10.3523 74.9691 10.5218 74.9009 10.6792C74.8326 10.8366 74.7327 10.9784 74.6073 11.0961ZM74.827 20.6849C74.2051 20.7152 73.5906 20.5396 73.0798 20.1857C72.8702 20.0265 72.7019 19.8198 72.589 19.5828C72.4762 19.3457 72.422 19.0853 72.4311 18.8233V13.1657C72.426 13.1248 72.4304 13.0834 72.4438 13.0445C72.4573 13.0056 72.4795 12.9703 72.5087 12.9412C72.538 12.9121 72.5735 12.8901 72.6127 12.8767C72.6518 12.8633 72.6935 12.859 72.7345 12.8641H74.4922C74.691 12.8641 74.7851 12.9681 74.7851 13.1657V18.0745C74.7851 18.4697 74.963 18.6673 75.3187 18.6673C75.4774 18.6729 75.636 18.6554 75.7895 18.6153C75.9988 18.6153 76.1139 18.6777 76.1243 18.8649L76.2813 20.1649C76.2888 20.2028 76.2881 20.2418 76.2792 20.2794C76.2702 20.317 76.2533 20.3523 76.2295 20.3828C76.2057 20.4134 76.1756 20.4385 76.1412 20.4565C76.1068 20.4745 76.069 20.485 76.0302 20.4873C75.6418 20.6144 75.2359 20.6811 74.827 20.6849ZM84.3576 12.8741C83.8436 12.6812 83.2958 12.5929 82.7468 12.6144C82.2675 12.6041 81.7912 12.6909 81.3469 12.8697C80.9025 13.0486 80.4996 13.3156 80.1626 13.6544C79.987 13.3133 79.7129 13.0322 79.3755 12.8469C79.0382 12.6616 78.6528 12.5806 78.2689 12.6144C77.8839 12.6074 77.5008 12.6709 77.1389 12.8016C77.0654 12.8228 77.0014 12.8685 76.9576 12.9309C76.9138 12.9934 76.8929 13.0689 76.8983 13.1448V14.372C76.8983 14.5384 77.0134 14.6216 77.2436 14.6216H77.5888C77.6727 14.6094 77.7584 14.6168 77.8389 14.6433C77.9194 14.6698 77.9925 14.7147 78.0525 14.7743C78.1125 14.8339 78.1576 14.9066 78.1843 14.9867C78.2109 15.0667 78.2184 15.1518 78.2061 15.2352V23.7632C78.1986 23.8031 78.201 23.8442 78.2131 23.8829C78.2251 23.9217 78.2465 23.9569 78.2754 23.9856C78.3042 24.0142 78.3397 24.0355 78.3786 24.0475C78.4176 24.0595 78.4589 24.0619 78.499 24.0544H80.2567C80.4555 24.0544 80.5601 23.9608 80.5601 23.7632V20.0088C81.1955 20.4648 81.9633 20.7021 82.7468 20.6848C83.2967 20.7068 83.8454 20.6177 84.3598 20.4229C84.8741 20.228 85.3433 19.9315 85.739 19.5512C86.4788 18.7619 86.8902 17.7232 86.8902 16.6444C86.8902 15.5656 86.4788 14.5269 85.739 13.7376C85.3414 13.3607 84.8716 13.0671 84.3576 12.8741ZM81.7734 18.6526C81.5253 18.5473 81.3012 18.393 81.1146 18.1992C80.7367 17.7561 80.5389 17.1886 80.5601 16.608C80.5358 16.027 80.7339 15.4584 81.1146 15.0168C81.3012 14.823 81.5253 14.6688 81.7734 14.5634C82.0216 14.4581 82.2886 14.4037 82.5584 14.4037C82.8283 14.4037 83.0953 14.4581 83.3435 14.5634C83.5916 14.6688 83.8157 14.823 84.0022 15.0168C84.3982 15.4507 84.6051 16.0229 84.5777 16.608C84.6017 17.1927 84.3952 17.7636 84.0022 18.1992C83.8157 18.393 83.5916 18.5473 83.3435 18.6526C83.0953 18.758 82.8283 18.8123 82.5584 18.8123C82.2886 18.8123 82.0216 18.758 81.7734 18.6526ZM91.8283 20.6848C90.889 20.7231 89.9577 20.4998 89.1394 20.04C88.8111 19.8434 88.5315 19.5758 88.3214 19.2572C88.1113 18.9385 87.9761 18.5769 87.9258 18.1992C87.9258 17.9912 87.999 17.8872 88.2292 17.8872H89.7672C89.8403 17.89 89.9113 17.9129 89.9722 17.9532C90.0331 17.9936 90.0816 18.0499 90.1124 18.116C90.3321 18.6776 90.9076 18.9584 91.8283 18.9584C92.1494 18.973 92.4692 18.9087 92.7594 18.7712C92.8596 18.7262 92.9456 18.655 93.0082 18.5653C93.0709 18.4755 93.1078 18.3706 93.1151 18.2616C93.1151 17.9912 92.9477 17.804 92.6129 17.6792C92.2158 17.5478 91.8053 17.4606 91.3888 17.4192C90.8955 17.3637 90.4063 17.2768 89.9241 17.1592C89.4552 17.0537 89.0289 16.811 88.7 16.4624C88.5063 16.2254 88.3638 15.9514 88.2812 15.6574C88.1986 15.3633 88.1778 15.0556 88.22 14.7532C88.2622 14.4508 88.3665 14.1602 88.5265 13.8997C88.6865 13.6391 88.8987 13.414 89.1499 13.2384C89.904 12.7608 90.7888 12.5282 91.6818 12.5728C92.5464 12.5437 93.4018 12.7563 94.1509 13.1864C94.4528 13.3563 94.7128 13.5911 94.9118 13.8736C95.1109 14.156 95.2441 14.4791 95.3018 14.8192C95.3018 15.0272 95.2076 15.1312 95.0193 15.1312H93.4708C93.4056 15.135 93.3408 15.1192 93.2848 15.0858C93.2288 15.0524 93.1842 15.003 93.157 14.944C93.0535 14.6976 92.8587 14.5003 92.6129 14.3928C92.3357 14.2486 92.026 14.177 91.7132 14.1848C91.4065 14.1682 91.1005 14.229 90.8239 14.3616C90.7264 14.3989 90.6424 14.4645 90.5827 14.5498C90.523 14.635 90.4904 14.7361 90.4891 14.84C90.4958 14.9822 90.5481 15.1185 90.6385 15.229C90.7289 15.3394 90.8525 15.4181 90.9913 15.4536C91.393 15.6041 91.8107 15.7088 92.2363 15.7656C92.7256 15.8296 93.2111 15.9198 93.6906 16.036C94.1594 16.1415 94.5858 16.3842 94.9146 16.7328C95.0906 16.9248 95.2264 17.1496 95.3144 17.3942C95.4024 17.6387 95.4408 17.8982 95.4273 18.1576C95.4363 18.5171 95.3514 18.8728 95.1809 19.1899C95.0104 19.5071 94.76 19.7749 94.4543 19.9672C93.6726 20.466 92.7566 20.7163 91.8283 20.6848ZM106.482 20.2758C106.49 20.2395 106.492 20.2017 106.486 20.1648L106.361 18.8648C106.359 18.824 106.348 18.7841 106.329 18.7481C106.309 18.7121 106.282 18.6809 106.249 18.6569C106.216 18.6329 106.177 18.6166 106.137 18.6094C106.096 18.6022 106.055 18.6042 106.015 18.6152C105.858 18.6559 105.696 18.6735 105.534 18.6672C105.189 18.6672 105.011 18.4696 105.011 18.064V13.1656C105.011 12.968 104.917 12.864 104.718 12.864H102.939C102.741 12.864 102.646 12.968 102.646 13.1656V16.9928C102.657 17.2201 102.621 17.4473 102.54 17.6601C102.459 17.873 102.335 18.0671 102.176 18.2304C102.007 18.3854 101.809 18.5056 101.594 18.5841C101.378 18.6627 101.149 18.698 100.92 18.688C100.696 18.6967 100.473 18.6576 100.265 18.5733C100.058 18.4889 99.8707 18.3614 99.7169 18.1992C99.4088 17.8452 99.2479 17.3878 99.2671 16.92V13.1656C99.2671 12.968 99.1729 12.864 98.9741 12.864H97.2164C97.0177 12.864 96.9235 12.968 96.9235 13.1656V17.232C96.901 17.6906 96.9719 18.1489 97.1319 18.5796C97.2919 19.0103 97.5377 19.4044 97.8546 19.7384C98.1738 20.0572 98.5564 20.306 98.978 20.469C99.3997 20.632 99.8509 20.7055 100.303 20.6848C101.276 20.7357 102.232 20.4116 102.971 19.78C103.212 20.0971 103.531 20.347 103.897 20.5055C104.264 20.664 104.666 20.7257 105.063 20.6848C105.465 20.6778 105.863 20.6112 106.245 20.4872C106.283 20.4821 106.319 20.4697 106.351 20.4507C106.383 20.4316 106.412 20.4064 106.434 20.3763C106.456 20.3463 106.473 20.3121 106.482 20.2758ZM123.111 20.1649C123.12 20.2022 123.121 20.241 123.113 20.2786C123.106 20.3163 123.09 20.3518 123.067 20.3826C123.044 20.4134 123.014 20.4388 122.98 20.4569C122.946 20.475 122.909 20.4854 122.87 20.4873C122.481 20.613 122.076 20.6797 121.667 20.6849C121.045 20.7168 120.43 20.5411 119.92 20.1857C119.699 20.0335 119.52 19.8295 119.397 19.5918C119.275 19.3542 119.214 19.0902 119.219 18.8233V16.3793C119.241 15.913 119.084 15.4557 118.779 15.1001C118.633 14.9376 118.451 14.8094 118.249 14.7249C118.046 14.6404 117.827 14.6016 117.608 14.6113C117.41 14.6039 117.213 14.6412 117.031 14.7205C116.85 14.7998 116.689 14.9189 116.561 15.0689C116.285 15.4174 116.144 15.8529 116.164 16.2961V20.1337C116.164 20.3313 116.07 20.4353 115.871 20.4353H114.103C114.062 20.4404 114.02 20.4361 113.981 20.4227C113.942 20.4093 113.906 20.3873 113.877 20.3582C113.848 20.3291 113.825 20.2938 113.812 20.2549C113.798 20.216 113.794 20.1745 113.799 20.1337V16.3793C113.822 15.9181 113.677 15.464 113.391 15.1001C113.264 14.9473 113.104 14.8242 112.923 14.7397C112.742 14.6553 112.545 14.6114 112.345 14.6113C112.132 14.6028 111.919 14.6391 111.72 14.718C111.522 14.7968 111.343 14.9164 111.194 15.0689C110.895 15.4063 110.741 15.847 110.765 16.2961V20.1337C110.77 20.1745 110.766 20.216 110.752 20.2549C110.739 20.2938 110.717 20.3291 110.688 20.3582C110.658 20.3873 110.623 20.4093 110.584 20.4227C110.544 20.4361 110.503 20.4404 110.462 20.4353H108.756C108.558 20.4353 108.463 20.3313 108.463 20.1337V15.2353C108.476 15.1519 108.468 15.0668 108.442 14.9868C108.415 14.9067 108.37 14.834 108.31 14.7744C108.25 14.7148 108.177 14.6699 108.096 14.6434C108.016 14.6169 107.93 14.6095 107.846 14.6217H107.501C107.271 14.6217 107.156 14.5385 107.156 14.3721V13.1449C107.15 13.069 107.171 12.9935 107.215 12.931C107.259 12.8686 107.323 12.8229 107.396 12.8017C107.758 12.671 108.141 12.6075 108.526 12.6145C108.896 12.5832 109.267 12.6565 109.596 12.8258C109.926 12.9951 110.2 13.2535 110.388 13.5713C110.741 13.2388 111.16 12.9822 111.617 12.8175C112.074 12.6529 112.561 12.5838 113.046 12.6145C113.517 12.5917 113.987 12.6796 114.418 12.8711C114.849 13.0626 115.228 13.3524 115.526 13.7169C115.872 13.3429 116.297 13.0499 116.771 12.8593C117.245 12.6686 117.756 12.585 118.267 12.6145C118.723 12.5933 119.179 12.6664 119.606 12.8293C120.033 12.9922 120.421 13.2413 120.746 13.5609C121.064 13.8942 121.311 14.2883 121.471 14.7191C121.631 15.15 121.701 15.6086 121.677 16.0673V18.0745C121.677 18.4697 121.855 18.6673 122.19 18.6673C122.352 18.6748 122.515 18.6573 122.671 18.6153C122.888 18.6153 123.003 18.6985 123.017 18.8649L123.111 20.1649Z" fill="white"/>
</svg>
