<svg width="142" height="29" viewBox="0 0 142 29" fill="none" xmlns="http://www.w3.org/2000/svg">
<path fill-rule="evenodd" clip-rule="evenodd" d="M7.44902 14.7949C7.26003 15.3265 6.95642 15.8097 6.55987 16.21H6.56196C6.10574 16.6697 5.54128 17.0063 4.92089 17.1888C4.3005 17.3712 3.64427 17.3936 3.01298 17.2537C2.3817 17.1139 1.7958 16.8164 1.30958 16.3888C0.823356 15.9613 0.45254 15.4174 0.231494 14.8078C0.0104481 14.1981 -0.0536755 13.5422 0.0450646 12.9011C0.143805 12.2599 0.402215 11.6541 0.796347 11.1398C1.19048 10.6255 1.70758 10.2194 2.29974 9.95911C2.8919 9.6988 3.53995 9.5927 4.18384 9.65065L4.16501 9.63174C4.82399 9.68757 5.48717 9.5984 6.10827 9.37045C6.72936 9.1425 7.29341 8.78127 7.76103 8.31197C8.22866 7.84266 8.5886 7.2766 8.81574 6.65327C9.04287 6.02995 9.13173 5.36439 9.0761 4.70304L9.09493 4.72195C9.0211 3.93106 9.19215 3.13658 9.58474 2.44683C9.97733 1.75708 10.5724 1.20566 11.2887 0.86774C12.005 0.529826 12.8077 0.421874 13.5874 0.558609C14.3671 0.695344 15.0858 1.07011 15.6455 1.6318C16.2052 2.19348 16.5786 2.91475 16.7148 3.69724C16.8511 4.47973 16.7435 5.28535 16.4068 6.00423C16.0701 6.72312 15.5207 7.32028 14.8334 7.71428C14.1461 8.10828 13.3544 8.27994 12.5664 8.20585L12.5863 8.22474C11.9271 8.16859 11.2637 8.25753 10.6423 8.48533C10.021 8.71313 9.45668 9.07432 8.98881 9.54366C8.52095 10.013 8.16082 10.5792 7.93356 11.2027C7.70631 11.8262 7.61741 12.4919 7.67308 13.1534L7.6532 13.1345C7.70774 13.6963 7.63802 14.2633 7.44902 14.7949ZM13.5717 18.3172L13.5519 18.2983C14.112 18.3549 14.6776 18.2859 15.2079 18.0963C15.7381 17.9067 16.2198 17.6012 16.618 17.2018C17.0162 16.8025 17.3209 16.3194 17.5103 15.7873C17.6996 15.2553 17.7688 14.6877 17.7128 14.1256L17.7327 14.1445C17.6771 13.4831 17.7659 12.8176 17.993 12.1943C18.2202 11.5709 18.5801 11.0049 19.0477 10.5356C19.5154 10.0663 20.0794 9.70502 20.7005 9.47707C21.3216 9.24913 21.9848 9.15995 22.6438 9.21578L22.6239 9.19688C23.4122 9.27118 24.2042 9.09961 24.8918 8.70558C25.5794 8.31156 26.1291 7.71425 26.4661 6.99514C26.803 6.27603 26.9106 5.47012 26.7744 4.68734C26.6381 3.90455 26.2646 3.18301 25.7047 2.62112C25.1448 2.05923 24.4259 1.68434 23.6459 1.5476C22.8659 1.41086 22.0629 1.51892 21.3463 1.85704C20.6298 2.19516 20.0346 2.74688 19.642 3.43694C19.2494 4.12701 19.0784 4.92182 19.1524 5.71298L19.1336 5.69302C19.1894 6.35441 19.1007 7.02005 18.8736 7.64346C18.6466 8.26687 18.2866 8.83301 17.8189 9.30236C17.3513 9.7717 16.7872 10.1329 16.166 10.3608C15.5448 10.5887 14.8815 10.6777 14.2225 10.6217L14.2413 10.6417C13.6813 10.585 13.1156 10.654 12.5854 10.8437C12.0551 11.0333 11.5735 11.3388 11.1753 11.7381C10.7771 12.1374 10.4723 12.6206 10.2829 13.1526C10.0936 13.6846 10.0244 14.2522 10.0804 14.8144L10.0616 14.7955C10.117 15.4568 10.028 16.1223 9.80085 16.7455C9.57365 17.3687 9.2137 17.9347 8.74611 18.404C8.27853 18.8733 7.71456 19.2345 7.09355 19.4625C6.47254 19.6905 5.80943 19.7798 5.15049 19.7242L5.16932 19.7431C4.381 19.6688 3.58902 19.8403 2.90142 20.2344C2.21382 20.6284 1.66407 21.2257 1.32716 21.9448C0.990252 22.6639 0.882579 23.4698 1.01883 24.2526C1.15508 25.0354 1.52863 25.7569 2.08851 26.3188C2.6484 26.8807 3.36737 27.2556 4.14735 27.3924C4.92734 27.5291 5.73037 27.421 6.44691 27.0829C7.16345 26.7448 7.75862 26.1931 8.15124 25.503C8.54386 24.813 8.71481 24.0181 8.64078 23.227L8.66066 23.2459C8.60503 22.5845 8.69389 21.919 8.92102 21.2957C9.14816 20.6723 9.5081 20.1063 9.97572 19.637C10.4433 19.1677 11.0074 18.8064 11.6285 18.5785C12.2496 18.3505 12.9128 18.2614 13.5717 18.3172ZM21.2903 12.789C20.8938 13.1894 20.5901 13.6726 20.401 14.2042C20.2118 14.7357 20.1418 15.3026 20.1959 15.8645L20.1771 15.8456C20.2327 16.5069 20.1438 17.1725 19.9167 17.7958C19.6896 18.4191 19.3296 18.9852 18.862 19.4545C18.3944 19.9238 17.8303 20.285 17.2092 20.513C16.5881 20.7409 15.925 20.8301 15.266 20.7743L15.2848 20.7932C14.4965 20.7196 13.7048 20.8917 13.0176 21.2862C12.3304 21.6807 11.7812 22.2782 11.4448 22.9975C11.1084 23.7167 11.0012 24.5225 11.1378 25.3051C11.2745 26.0877 11.6483 26.8089 12.2084 27.3705C12.7684 27.932 13.4874 28.3066 14.2674 28.443C15.0473 28.5794 15.8501 28.4712 16.5665 28.1329C17.2828 27.7946 17.8778 27.2429 18.2702 26.5529C18.6627 25.8628 18.8335 25.0681 18.7594 24.2771L18.7793 24.296C18.7237 23.6347 18.8125 22.9691 19.0396 22.3458C19.2668 21.7224 19.6267 21.1564 20.0943 20.6871C20.562 20.2178 21.126 19.8565 21.7471 19.6286C22.3682 19.4006 23.0314 19.3115 23.6904 19.3673L23.6705 19.3484C24.3144 19.4065 24.9625 19.3006 25.5548 19.0404C26.147 18.7802 26.6642 18.3741 27.0585 17.8599C27.4527 17.3457 27.7113 16.7399 27.8101 16.0987C27.909 15.4575 27.845 14.8016 27.624 14.1919C27.403 13.5821 27.0322 13.0382 26.546 12.6106C26.0598 12.1829 25.4739 11.8853 24.8426 11.7454C24.2113 11.6056 23.555 11.6279 22.9346 11.8103C22.3142 11.9927 21.7497 12.3294 21.2934 12.789H21.2903ZM38.9697 5.7373H42.0771V20.913H38.9697V5.7373ZM44.751 12.6496C44.1505 13.5585 43.8322 14.6259 43.8366 15.7165C43.8312 16.4404 43.9698 17.1582 44.244 17.8278C44.5183 18.4974 44.9228 19.1054 45.4339 19.6163C45.9451 20.1272 46.5525 20.5308 47.2208 20.8033C47.8892 21.0759 48.6049 21.212 49.3262 21.2038C50.4129 21.2037 51.4752 20.8801 52.3784 20.2737C53.2817 19.6674 53.9853 18.8056 54.4001 17.7976C54.8149 16.7896 54.9224 15.6808 54.7088 14.6115C54.4952 13.5421 53.9701 12.5605 53.2002 11.7909C52.4302 11.0213 51.45 10.4983 50.3837 10.2882C49.3174 10.0782 48.2129 10.1904 47.2102 10.6108C46.2075 11.0312 45.3516 11.7407 44.751 12.6496ZM51.2752 14.406C51.5448 14.7906 51.6956 15.2464 51.7085 15.7165C51.726 16.0382 51.6769 16.36 51.5642 16.6617C51.4515 16.9634 51.2778 17.2383 51.054 17.4693C50.8302 17.7002 50.5611 17.8821 50.2637 18.0035C49.9664 18.1249 49.6472 18.1831 49.3262 18.1745C48.8577 18.1745 48.3995 18.0359 48.0089 17.776C47.6184 17.5162 47.3129 17.1465 47.1306 16.7133C46.9482 16.2801 46.8972 15.8026 46.9838 15.3404C47.0705 14.8783 47.2909 14.452 47.6176 14.1149C47.9443 13.7778 48.3628 13.5448 48.8208 13.4451C49.2787 13.3454 49.7557 13.3834 50.1923 13.5543C50.6288 13.7252 51.0055 14.0214 51.2752 14.406ZM67.2004 10.5189V20.3889C67.2004 23.8812 64.4864 25.3575 61.7317 25.3575C60.7617 25.4303 59.7905 25.2337 58.9246 24.7892C58.0587 24.3447 57.3314 23.6694 56.8226 22.8375L59.4738 21.2992C59.6877 21.7329 60.0284 22.0907 60.4504 22.3246C60.8724 22.5586 61.3556 22.6577 61.8352 22.6086C62.1418 22.6512 62.454 22.6241 62.7487 22.5293C63.0434 22.4345 63.3131 22.2744 63.5378 22.0609C63.7625 21.8473 63.9365 21.5858 64.0469 21.2957C64.1574 21.0055 64.2014 20.6942 64.1757 20.3847V19.4344C63.8118 19.8812 63.3487 20.2362 62.8234 20.4709C62.2981 20.7056 61.7253 20.8134 61.151 20.7858C59.7844 20.7425 58.4882 20.1673 57.5367 19.1818C56.5853 18.1964 56.0532 16.878 56.0532 15.5058C56.0532 14.1337 56.5853 12.8153 57.5367 11.8299C58.4882 10.8444 59.7844 10.2692 61.151 10.2259C61.7253 10.1983 62.2981 10.3061 62.8234 10.5408C63.3487 10.7755 63.8118 11.1305 64.1757 11.5773V10.5168L67.2004 10.5189ZM64.1767 15.5074C64.1976 15.0048 64.0682 14.5075 63.805 14.0794C63.5419 13.6513 63.1571 13.312 62.7002 13.1052C62.2433 12.8984 61.7352 12.8336 61.2412 12.9191C60.7473 13.0046 60.2902 13.2364 59.9287 13.5848C59.5672 13.9332 59.3178 14.3823 59.2127 14.8741C59.1076 15.3659 59.1516 15.8781 59.339 16.3446C59.5264 16.8111 59.8487 17.2107 60.2642 17.4919C60.6798 17.7731 61.1698 17.923 61.671 17.9224C61.9975 17.9453 62.3251 17.8993 62.6328 17.7874C62.9405 17.6754 63.2214 17.5001 63.4575 17.2726C63.6935 17.045 63.8795 16.7704 64.0033 16.4664C64.1272 16.1624 64.1863 15.8357 64.1767 15.5074ZM69.8746 12.6496C69.274 13.5585 68.9558 14.6259 68.9601 15.7165C68.9548 16.4404 69.0933 17.1582 69.3676 17.8278C69.6418 18.4974 70.0463 19.1054 70.5575 19.6163C71.0686 20.1272 71.6761 20.5308 72.3444 20.8033C73.0127 21.0759 73.7284 21.212 74.4498 21.2038C75.5365 21.2037 76.5987 20.8801 77.5019 20.2737C78.4052 19.6674 79.1088 18.8056 79.5236 17.7976C79.9385 16.7896 80.0459 15.6808 79.8323 14.6115C79.6187 13.5421 79.0937 12.5605 78.3237 11.7909C77.5538 11.0213 76.5736 10.4983 75.5072 10.2882C74.4409 10.0782 73.3364 10.1904 72.3337 10.6108C71.331 11.0312 70.4751 11.7407 69.8746 12.6496ZM76.3987 14.406C76.6684 14.7906 76.8191 15.2464 76.8321 15.7165C76.8495 16.0382 76.8004 16.36 76.6877 16.6617C76.5751 16.9634 76.4014 17.2383 76.1775 17.4693C75.9537 17.7002 75.6846 17.8821 75.3873 18.0035C75.0899 18.1249 74.7707 18.1831 74.4498 18.1745C73.9812 18.1745 73.523 18.0359 73.1325 17.776C72.742 17.5162 72.4364 17.1465 72.2541 16.7133C72.0718 16.2801 72.0207 15.8026 72.1074 15.3404C72.194 14.8783 72.4145 14.452 72.7412 14.1149C73.0679 13.7778 73.4864 13.5448 73.9443 13.4451C74.4022 13.3454 74.8793 13.3834 75.3158 13.5543C75.7523 13.7252 76.129 14.0214 76.3987 14.406ZM81.3887 7.73341C81.3887 7.36334 81.498 7.00158 81.7029 6.69388C81.9077 6.38618 82.1989 6.14635 82.5396 6.00473C82.8803 5.86312 83.2552 5.82606 83.6168 5.89826C83.9785 5.97046 84.3107 6.14866 84.5714 6.41034C84.8322 6.67202 85.0097 7.00541 85.0817 7.36837C85.1536 7.73133 85.1167 8.10755 84.9756 8.44945C84.8345 8.79134 84.5955 9.08357 84.2889 9.28917C83.9823 9.49477 83.6218 9.60451 83.2531 9.60451C82.7601 9.59959 82.2887 9.40087 81.9402 9.05103C81.5916 8.7012 81.3936 8.22813 81.3887 7.73341ZM81.7026 10.5191H84.811V20.9141H81.6984L81.7026 10.5191ZM97.9345 17.7388C98.1642 17.0906 98.264 16.4033 98.2281 15.7163C98.2643 15.0292 98.1647 14.3417 97.9351 13.6933C97.7055 13.045 97.3504 12.4486 96.8903 11.9385C96.4302 11.4284 95.8741 11.0147 95.254 10.7211C94.6339 10.4276 93.9621 10.26 93.2772 10.228C92.7015 10.1964 92.126 10.2938 91.5923 10.513C91.0587 10.7322 90.5803 11.0677 90.1918 11.4953V10.5188H87.0845V25.0708H90.1918V19.9352C90.5801 20.3631 91.0585 20.6989 91.5921 20.9183C92.1258 21.1377 92.7014 21.2351 93.2772 21.2036C93.9619 21.1715 94.6336 21.0038 95.2535 20.7103C95.8735 20.4167 96.4295 20.0031 96.8896 19.4931C97.3497 18.9832 97.7048 18.387 97.9345 17.7388ZM94.6755 14.3591C94.9537 14.7577 95.1086 15.2298 95.1207 15.7163C95.1439 16.0499 95.0965 16.3847 94.9818 16.6987C94.867 17.0126 94.6874 17.2987 94.4548 17.5381C94.2221 17.7776 93.9417 17.9649 93.6318 18.088C93.322 18.211 92.9897 18.2669 92.6568 18.2521C92.1719 18.2521 91.6977 18.1086 91.2937 17.8396C90.8896 17.5705 90.5736 17.1878 90.3852 16.7394C90.1968 16.291 90.1444 15.7968 90.2345 15.3186C90.3246 14.8405 90.5532 14.3996 90.8917 14.0512C91.2303 13.7028 91.6637 13.4623 92.1377 13.3599C92.6118 13.2574 93.1054 13.2976 93.5568 13.4754C94.0082 13.6531 94.3974 13.9605 94.6755 14.3591ZM107.817 17.7944C107.817 20.1853 105.746 21.2038 103.51 21.2038C102.606 21.2859 101.698 21.0941 100.904 20.6531C100.11 20.2121 99.4662 19.5422 99.0557 18.73L101.748 17.1917C101.857 17.5671 102.09 17.8937 102.41 18.1169C102.73 18.3401 103.117 18.4464 103.505 18.4181C104.25 18.4181 104.624 18.1892 104.624 17.7745C104.624 17.3617 103.961 17.1763 103.113 16.9393C101.611 16.5191 99.5275 15.9366 99.5275 13.6375C99.5275 11.3705 101.434 10.2281 103.588 10.2281C104.398 10.2024 105.2 10.3952 105.91 10.7863C106.62 11.1775 107.213 11.7527 107.627 12.452L104.975 13.8863C104.859 13.614 104.666 13.3821 104.419 13.2195C104.172 13.0568 103.883 12.9707 103.588 12.9718C103.049 12.9718 102.718 13.1818 102.718 13.5535C102.719 13.9765 103.369 14.1479 104.204 14.3682C105.71 14.7651 107.817 15.3209 107.817 17.7944ZM119.168 20.914V10.519L116.064 10.5222V16.1922C116.064 17.6685 115.277 18.3331 114.138 18.3331C113.89 18.3482 113.642 18.309 113.411 18.2182C113.18 18.1274 112.972 17.9872 112.8 17.8073C112.629 17.6274 112.498 17.4122 112.418 17.1766C112.338 16.941 112.31 16.6907 112.336 16.4431V10.519H109.229V16.8999C109.229 19.7086 111.007 21.2049 113.1 21.2049C113.658 21.2435 114.217 21.1487 114.732 20.9282C115.247 20.7077 115.702 20.3678 116.061 19.9365V20.914H119.168ZM136.985 14.5311V20.913H133.878V14.8009C133.878 13.7614 133.381 13.0968 132.387 13.0968C131.351 13.0968 130.771 13.8244 130.771 15.0508V20.913H127.664V14.8009C127.664 13.7614 127.167 13.0968 126.172 13.0968C125.137 13.0968 124.557 13.8244 124.557 15.0508V20.913H121.45V10.518H124.557V11.4735C124.879 11.0496 125.302 10.7134 125.787 10.4957C126.272 10.278 126.803 10.1856 127.333 10.2271C127.864 10.201 128.394 10.3136 128.869 10.554C129.345 10.7943 129.75 11.1541 130.046 11.5984C130.39 11.1336 130.846 10.764 131.371 10.5242C131.897 10.2844 132.474 10.1822 133.049 10.2271C135.428 10.2282 136.985 11.9323 136.985 14.5311ZM141.919 8.14061C141.919 9.41871 140.887 10.4548 139.614 10.4548C138.34 10.4548 137.308 9.41871 137.308 8.14061C137.308 6.86252 138.34 5.82642 139.614 5.82642C140.887 5.82642 141.919 6.86252 141.919 8.14061Z" fill="white"/>
</svg>
