<svg width="126" height="29" viewBox="0 0 126 29" fill="none" xmlns="http://www.w3.org/2000/svg">
<path fill-rule="evenodd" clip-rule="evenodd" d="M26.2072 5.46974C27.0671 6.49027 27.7756 7.62891 28.3109 8.85074C29.0906 10.6322 29.4918 12.5557 29.489 14.4997C29.4862 18.2686 27.9866 21.8826 25.3188 24.5496C22.6511 27.2166 19.0329 28.7189 15.2573 28.7272C13.4282 28.7262 11.6168 28.3696 9.92436 27.6772C8.71719 27.1984 7.58397 26.5515 6.5584 25.7557C4.96007 24.5398 3.63784 22.9998 2.67871 21.237C1.71958 19.4742 1.14531 17.5286 0.99369 15.5283C0.842073 13.528 1.11655 11.5184 1.79905 9.6316C2.48155 7.74483 3.55661 6.02372 4.95346 4.58157C6.35031 3.13942 8.03728 2.00892 9.90335 1.26448C11.7694 0.520036 13.7723 0.178529 15.7801 0.262433C17.7879 0.346336 19.7551 0.853749 21.5523 1.75128C23.3495 2.6488 24.936 3.91609 26.2072 5.46974ZM20.0012 4.19924C18.512 3.50743 16.8893 3.14906 15.2468 3.14924L15.2573 3.12824C13.341 3.12681 11.4554 3.60932 9.77612 4.53088C8.09682 5.45243 6.67835 6.78307 5.65271 8.39897C4.62708 10.0149 4.02761 11.8635 3.9101 13.7728C3.79258 15.6822 4.16084 17.5902 4.98061 19.3192C5.45573 18.821 5.74851 18.1772 5.81158 17.4922C5.99786 16.2077 6.5953 15.0177 7.51472 14.0999C8.43415 13.1821 9.62626 12.5857 10.9131 12.3997C11.6365 12.3343 12.315 12.0217 12.8343 11.5148C13.3537 11.0079 13.6819 10.3377 13.7637 9.61724C13.9499 8.33266 14.5474 7.14267 15.4668 6.22487C16.3862 5.30707 17.5783 4.71069 18.8652 4.52474C19.2563 4.46526 19.6381 4.35586 20.0012 4.19924ZM6.67409 21.7366C6.63202 21.7739 6.58995 21.8112 6.54788 21.8497C7.36317 22.8023 8.32973 23.6146 9.40895 24.2542C9.69121 23.8216 9.86775 23.3289 9.92436 22.8157C10.1172 21.5286 10.7208 20.3378 11.6455 19.4204C12.5703 18.503 13.7668 17.9078 15.0574 17.7232C15.7818 17.6519 16.4593 17.3328 16.975 16.82C17.4906 16.3071 17.8128 15.6321 17.887 14.9092C18.07 13.6233 18.6664 12.4316 19.5864 11.5132C20.5064 10.5948 21.7003 9.99944 22.9885 9.81674C23.714 9.74824 24.3903 9.42004 24.8924 8.89274C24.9433 8.84896 24.9891 8.79965 25.0291 8.74574C24.3783 7.63578 23.5382 6.64791 22.5467 5.82674C21.6759 6.64124 20.5733 7.16587 19.3911 7.32824C18.6652 7.3777 17.9817 7.68718 17.4662 8.19974C16.9227 8.73192 16.5966 9.44663 16.5511 10.2052C16.3648 11.4898 15.7674 12.6798 14.8479 13.5976C13.9285 14.5154 12.7364 15.1118 11.4496 15.2977C10.7258 15.3569 10.0487 15.678 9.54569 16.2007C9.02291 16.709 8.6985 17.3864 8.63057 18.1117C8.46302 19.402 7.86235 20.5976 6.92655 21.5032C6.8424 21.5872 6.75825 21.6619 6.67409 21.7366ZM12.0912 25.4617C13.1172 25.7554 14.1794 25.9039 15.2468 25.9027V25.8502C16.9851 25.8435 18.6987 25.4394 20.2562 24.6689C21.8137 23.8984 23.1737 22.782 24.2319 21.4053C25.2901 20.0287 26.0183 18.4284 26.3607 16.7272C26.7031 15.0259 26.6506 13.269 26.2072 11.5912C25.4086 12.1549 24.4843 12.5153 23.5144 12.6412C22.7919 12.7148 22.1169 13.0349 21.6034 13.5476C21.0898 14.0602 20.7691 14.734 20.6954 15.4552C20.5086 16.7413 19.9096 17.9325 18.9881 18.8504C18.0666 19.7684 16.8721 20.3639 15.5834 20.5477C14.8609 20.6213 14.1859 20.9414 13.6723 21.4541C13.1588 21.9667 12.8381 22.6405 12.7644 23.3617C12.6703 24.0969 12.4422 24.8086 12.0912 25.4617ZM40.2918 8.27328H37.1362V21.0098H40.2918V8.27328ZM46.4662 11.1713C43.479 11.1713 41.5435 13.0508 41.5435 16.2008C41.5435 19.4033 43.4369 21.2408 46.4662 21.2408C49.4956 21.2408 51.389 19.3508 51.389 16.2008C51.389 13.0508 49.4535 11.1713 46.4662 11.1713ZM46.4662 13.4498C47.5391 13.4498 48.2229 14.4683 48.2229 16.2008V16.2113C48.2229 17.9648 47.5497 18.9308 46.4662 18.9308C45.3828 18.9308 44.7202 17.9018 44.7202 16.2008C44.7202 14.4998 45.3933 13.4498 46.4662 13.4498ZM55.6069 21.6293H52.5776V21.6398C52.7564 23.3828 54.4919 24.6323 57.2794 24.6323C60.2772 24.6323 62.3073 23.2043 62.3073 20.9048V11.3498H59.1517V13.1033C58.9142 12.5366 58.5088 12.0559 57.9899 11.7256C57.4711 11.3953 56.8635 11.2312 56.2486 11.2553C53.8293 11.2553 52.3777 13.1558 52.3777 16.1693C52.3777 19.1828 53.9029 20.9363 56.2065 20.9363C56.8027 20.9686 57.395 20.8218 57.9068 20.5149C58.4187 20.2079 58.8266 19.7549 59.0781 19.2143H59.1412V20.9783C59.1412 21.9233 58.5101 22.5743 57.3109 22.5743C56.9628 22.621 56.6089 22.5543 56.3019 22.384C55.9948 22.2137 55.7511 21.949 55.6069 21.6293ZM57.332 13.6913C58.4469 13.6913 59.1517 14.6573 59.1517 16.1903V16.2008C59.1517 17.7548 58.4575 18.6053 57.332 18.6053C56.2065 18.6053 55.5333 17.7338 55.5333 16.1903C55.5333 14.6468 56.217 13.6913 57.332 13.6913ZM68.4186 11.1608C65.4313 11.1608 63.4959 13.0403 63.4959 16.1903V16.2008C63.4959 19.4033 65.3787 21.2303 68.4186 21.2303C71.4585 21.2303 73.3518 19.3403 73.3518 16.1903C73.3518 13.0403 71.4059 11.1608 68.4186 11.1608ZM68.4186 13.4393C69.4915 13.4393 70.1752 14.4578 70.1752 16.1903V16.2113C70.1752 17.9648 69.5336 18.9413 68.4607 18.9413C67.3878 18.9413 66.7251 17.9228 66.7251 16.2113C66.7251 14.4998 67.3457 13.4393 68.4186 13.4393ZM74.7995 8.16051C74.6292 8.42941 74.5427 8.74274 74.551 9.06078V9.08178C74.549 9.29312 74.5909 9.50259 74.6739 9.69702C74.7569 9.89144 74.8793 10.0666 75.0334 10.2116C75.1875 10.3565 75.37 10.4681 75.5693 10.5393C75.7687 10.6105 75.9806 10.6398 76.1919 10.6253C76.5105 10.6189 76.8201 10.5183 77.0814 10.3361C77.3426 10.1539 77.5438 9.89838 77.6595 9.60191C77.7751 9.30544 77.7999 8.98137 77.7308 8.67079C77.6617 8.36021 77.5018 8.07711 77.2713 7.85737C77.0409 7.63762 76.7502 7.49114 76.4362 7.43648C76.1223 7.38183 75.7991 7.42146 75.5077 7.55036C75.2163 7.67926 74.9699 7.89161 74.7995 8.16051ZM77.7065 11.3708H74.551V21.0098H77.7065V11.3708ZM85.3641 21.1358C87.7623 21.1358 89.1613 19.3403 89.1613 16.1903L89.2034 16.2113C89.2034 13.0613 87.7623 11.2553 85.3431 11.2133C84.7234 11.1857 84.1103 11.3493 83.5871 11.6818C83.0639 12.0143 82.656 12.4996 82.4189 13.0718H82.3558V11.3498H79.2002V24.0968H82.3558V19.3508H82.4189C82.6675 19.9136 83.0834 20.3866 83.6101 20.7059C84.1369 21.0251 84.7491 21.1752 85.3641 21.1358ZM84.1965 13.6808C85.301 13.6808 86.0057 14.6573 86.0057 16.1903V16.2113C86.0057 17.7338 85.301 18.6893 84.1965 18.6893C83.0921 18.6893 82.3663 17.7128 82.3768 16.1903C82.3873 14.6678 83.0921 13.6808 84.1965 13.6808ZM98.8595 14.3738C98.7859 12.3893 97.1975 11.1503 94.5784 11.1503V11.1713C91.9698 11.1713 90.2763 12.3998 90.2553 14.2898C90.2553 15.7598 91.244 16.7573 93.1268 17.1458L94.9466 17.5343C95.7039 17.6918 95.9984 17.7968 95.9984 18.3008C95.9984 18.8048 95.5777 19.1093 94.652 19.1093C93.7264 19.1093 93.1584 18.6893 93.0637 17.9753H90.0238C90.1606 19.9388 91.9172 21.2198 94.5994 21.2198C97.2817 21.2198 99.1014 19.9388 99.1014 17.9438C99.1014 16.4843 98.281 15.7073 96.356 15.2978L94.3365 14.8883C93.6317 14.7413 93.2846 14.5838 93.2846 14.0903C93.2846 13.5968 93.6738 13.2608 94.5468 13.2608C95.4199 13.2608 95.9879 13.6913 95.9879 14.3738H98.8595ZM106.591 20.9888H109.631L109.673 11.3498H106.517V16.7888C106.547 17.0158 106.528 17.2466 106.461 17.4657C106.395 17.6848 106.282 17.8871 106.13 18.0591C105.979 18.2312 105.793 18.3689 105.584 18.4631C105.374 18.5573 105.148 18.6057 104.918 18.6053C103.94 18.6053 103.351 17.9963 103.351 16.8518V11.3498H100.195V17.5763C100.155 18.054 100.219 18.5346 100.381 18.9858C100.543 19.437 100.8 19.8482 101.135 20.1916C101.47 20.535 101.875 20.8026 102.323 20.9764C102.77 21.1501 103.25 21.226 103.73 21.1988C104.355 21.2334 104.974 21.0534 105.483 20.6886C105.992 20.3237 106.36 19.7961 106.528 19.1933H106.591V20.9888ZM114.206 11.3498H111.156L111.103 21.0098H114.259V15.3293C114.235 15.1318 114.253 14.9315 114.313 14.7416C114.372 14.5518 114.471 14.3767 114.604 14.2278C114.736 14.079 114.898 13.9598 115.08 13.8782C115.261 13.7966 115.458 13.7543 115.658 13.7543C116.52 13.7543 116.994 14.2793 116.994 15.2453V21.0098H119.991V15.3083C119.966 15.1132 119.982 14.915 120.04 14.7269C120.098 14.5389 120.195 14.3653 120.326 14.2181C120.456 14.0708 120.617 13.9532 120.797 13.8732C120.977 13.7931 121.172 13.7526 121.369 13.7543C122.253 13.7543 122.726 14.2373 122.726 15.2873V21.0098H125.882V14.4473C125.913 14.0198 125.854 13.5905 125.708 13.1874C125.562 12.7842 125.333 12.4162 125.035 12.1073C124.738 11.7983 124.378 11.5553 123.981 11.394C123.583 11.2328 123.155 11.1569 122.726 11.1713C122.068 11.1431 121.42 11.3341 120.883 11.7143C120.346 12.0945 119.951 12.6423 119.76 13.2713H119.697C119.596 12.6489 119.264 12.0873 118.767 11.6982C118.27 11.309 117.644 11.1209 117.015 11.1713C116.396 11.1599 115.791 11.3536 115.294 11.7222C114.797 12.0908 114.437 12.6134 114.269 13.2083H114.206V11.3498Z" fill="white"/>
</svg>
