<svg width="137" height="32" viewBox="0 0 137 32" fill="none" xmlns="http://www.w3.org/2000/svg">
<path fill-rule="evenodd" clip-rule="evenodd" d="M14.3489 0.523438V5.02844C11.4615 5.02844 8.69241 6.18431 6.65075 8.24177C4.60908 10.2992 3.46209 13.0897 3.46209 15.9994C3.46209 18.9091 4.60908 21.6996 6.65075 23.7571C8.69236 25.8145 11.4614 26.9704 14.3486 26.9704V5.02856C17.236 5.02856 20.0051 6.18443 22.0467 8.2419C24.0884 10.2994 25.2354 13.0899 25.2354 15.9996C25.2354 18.9093 24.0884 21.6998 22.0467 23.7572C20.0051 25.8146 17.2361 26.9705 14.3489 26.9706V31.4754H0.253906V0.523438H14.3489ZM36.3011 7.78442H33.1455V23.1014H36.3011V7.78442ZM39.0013 14.7594C38.3931 15.6753 38.0684 16.7525 38.0684 17.8545C38.0585 18.5853 38.1936 19.3108 38.4657 19.9884C38.7377 20.6659 39.1413 21.282 39.6527 21.8003C40.1641 22.3186 40.7731 22.7288 41.4439 23.0069C42.1147 23.2849 42.8338 23.4252 43.5591 23.4195C44.6526 23.4258 45.7234 23.1047 46.6357 22.4971C47.5479 21.8894 48.2606 21.0225 48.6835 20.0062C49.1063 18.9899 49.2201 17.87 49.0106 16.7884C48.8011 15.7068 48.2777 14.7123 47.5067 13.9308C46.7356 13.1493 45.7517 12.6162 44.6796 12.3988C43.6076 12.1815 42.4956 12.2898 41.4847 12.7101C40.4738 13.1304 39.6095 13.8436 39.0013 14.7594ZM45.5439 16.5295C45.8148 16.9185 45.966 17.3794 45.9784 17.8545H45.9573C45.9748 18.1776 45.9258 18.5009 45.8136 18.8042C45.7015 19.1074 45.5284 19.3841 45.3053 19.6169C45.0822 19.8497 44.8138 20.0336 44.517 20.1571C44.2201 20.2807 43.9012 20.3412 43.5801 20.3349C43.1085 20.3347 42.6474 20.1944 42.2545 19.9316C41.8616 19.6687 41.5543 19.2949 41.3711 18.857C41.1879 18.4191 41.1368 17.9365 41.2244 17.4695C41.3119 17.0025 41.5341 16.5719 41.8633 16.2315C42.1924 15.8911 42.6138 15.656 43.0748 15.5557C43.5357 15.4554 44.0158 15.4943 44.455 15.6675C44.8942 15.8407 45.2729 16.1405 45.5439 16.5295ZM61.5354 12.6075V22.5821C61.5354 26.1013 58.8005 27.5959 56.0341 27.5959C55.0584 27.6766 54.0796 27.4812 53.208 27.0318C52.3365 26.5823 51.6067 25.8966 51.1009 25.0519L53.7621 23.5043C53.9778 23.9424 54.3208 24.304 54.7455 24.5407C55.1702 24.7774 55.6564 24.8781 56.1393 24.8293C56.4469 24.8675 56.7592 24.8367 57.0536 24.7391C57.3481 24.6416 57.6175 24.4797 57.8426 24.2649C58.0677 24.0502 58.243 23.788 58.3559 23.4971C58.4687 23.2062 58.5164 22.8937 58.4955 22.5821V21.6175C58.1283 22.0662 57.6623 22.4224 57.1346 22.6579C56.607 22.8934 56.0321 23.0018 55.4556 22.9743C54.0607 22.9743 52.723 22.4159 51.7367 21.422C50.7504 20.428 50.1963 19.0799 50.1963 17.6743C50.1963 16.2686 50.7504 14.9206 51.7367 13.9266C52.723 12.9327 54.0607 12.3743 55.4556 12.3743C56.0321 12.3468 56.607 12.4551 57.1346 12.6907C57.6623 12.9262 58.1283 13.2824 58.4955 13.7311V12.6711L61.5354 12.6075ZM58.4955 17.6425C58.5165 17.1354 58.3864 16.6335 58.1221 16.2014C57.8578 15.7694 57.4712 15.4268 57.0122 15.2179C56.5532 15.009 56.0426 14.9433 55.5462 15.0292C55.0497 15.115 54.5902 15.3486 54.2265 15.6998C53.8629 16.0509 53.6118 16.5037 53.5055 16.9999C53.3993 17.4961 53.4428 18.0129 53.6303 18.484C53.8179 18.955 54.1411 19.3588 54.5582 19.6433C54.9753 19.9278 55.4673 20.08 55.971 20.0805C56.2997 20.1044 56.6296 20.0585 56.9396 19.9458C57.2496 19.8332 57.5327 19.6563 57.7706 19.4265C58.0085 19.1968 58.1959 18.9193 58.3208 18.612C58.4456 18.3047 58.5052 17.9744 58.4955 17.6425ZM64.2443 14.7617C63.637 15.6771 63.3129 16.7534 63.3129 17.8545C63.3044 18.5868 63.4412 19.3134 63.715 19.9917C63.9889 20.6701 64.3944 21.2864 64.9078 21.8048C65.4211 22.3231 66.032 22.7329 66.7046 23.0102C67.3772 23.2875 68.098 23.4266 68.8246 23.4195C69.9173 23.4216 70.986 23.097 71.8955 22.4868C72.805 21.8766 73.5145 21.0082 73.934 19.9915C74.3536 18.9748 74.4645 17.8556 74.2526 16.7754C74.0407 15.6952 73.5156 14.7026 72.7437 13.9233C71.9718 13.1439 70.9879 12.6128 69.9164 12.3973C68.8449 12.1817 67.734 12.2913 66.7243 12.7121C65.7146 13.133 64.8515 13.8463 64.2443 14.7617ZM70.7876 16.5285C71.059 16.9177 71.2104 17.379 71.2229 17.8545H71.2123C71.2298 18.1777 71.1809 18.501 71.0687 18.8043C70.9565 19.1075 70.7834 19.3842 70.5603 19.617C70.3372 19.8498 70.0688 20.0337 69.772 20.1572C69.4752 20.2807 69.1562 20.3413 68.8351 20.3349C68.3631 20.3369 67.901 20.1984 67.5067 19.9368C67.1124 19.6752 66.8035 19.3022 66.6187 18.8645C66.4339 18.4267 66.3813 17.9438 66.4677 17.4761C66.554 17.0084 66.7754 16.5768 67.1041 16.2354C67.4328 15.8939 67.8541 15.6578 68.3154 15.5567C68.7766 15.4555 69.2573 15.4937 69.697 15.6666C70.1368 15.8395 70.5162 16.1393 70.7876 16.5285ZM75.7988 9.79842C75.7988 9.42525 75.9086 9.06045 76.1144 8.75017C76.3201 8.43989 76.6125 8.19805 76.9546 8.05525C77.2968 7.91244 77.6732 7.87507 78.0364 7.94788C78.3996 8.02068 78.7332 8.20038 78.9951 8.46425C79.2569 8.72813 79.4352 9.06432 79.5075 9.43033C79.5797 9.79633 79.5426 10.1757 79.4009 10.5205C79.2592 10.8652 79.0192 11.1599 78.7113 11.3672C78.4034 11.5746 78.0415 11.6852 77.6711 11.6852C77.1763 11.6797 76.7032 11.4792 76.3533 11.1265C76.0033 10.7738 75.8043 10.2971 75.7988 9.79842ZM76.1039 12.6074H79.2595V23.1014H76.1039V12.6074ZM92.4651 19.9086C92.6985 19.2506 92.8004 18.5525 92.7651 17.8546C92.7962 17.1593 92.6911 16.4646 92.4557 15.8103C92.2204 15.1559 91.8595 14.5546 91.3936 14.0408C90.9277 13.527 90.3659 13.1107 89.7403 12.8157C89.1148 12.5207 88.4377 12.3527 87.7477 12.3214C87.1606 12.2799 86.5717 12.3728 86.0253 12.593C85.4788 12.8133 84.9889 13.1553 84.5921 13.5934V12.6076H81.4365V27.3204H84.5921V22.137C84.9883 22.5764 85.4779 22.92 86.0243 23.1421C86.5707 23.3641 87.1598 23.459 87.7477 23.4196C88.4405 23.3884 89.1202 23.2194 89.7479 22.9224C90.3757 22.6254 90.9389 22.2062 91.4052 21.689C91.8715 21.1717 92.2317 20.5667 92.4651 19.9086ZM89.16 16.4815C89.4407 16.8846 89.5971 17.3623 89.6095 17.8546C89.6335 18.1914 89.5866 18.5294 89.4719 18.8466C89.3572 19.1639 89.1772 19.4531 88.9438 19.6953C88.7104 19.9375 88.4289 20.1272 88.1176 20.2521C87.8063 20.377 87.4724 20.4341 87.1376 20.4198C86.6489 20.4217 86.1705 20.2783 85.7624 20.0074C85.3543 19.7365 85.0346 19.3502 84.8434 18.897C84.6522 18.4438 84.598 17.9438 84.6876 17.4596C84.7772 16.9755 85.0066 16.5288 85.347 16.1755C85.6875 15.8222 86.1238 15.578 86.6014 15.4735C87.079 15.3691 87.5765 15.409 88.0317 15.5883C88.4868 15.7676 88.8794 16.0783 89.16 16.4815ZM102.369 19.9533C102.369 22.3701 100.265 23.3983 98.0351 23.3983C97.1256 23.4808 96.2125 23.2865 95.4137 22.8405C94.6149 22.3946 93.9671 21.7174 93.5542 20.8967L96.268 19.3491C96.3755 19.7273 96.6086 20.0568 96.9284 20.2826C97.2482 20.5084 97.6351 20.6166 98.0246 20.5893C98.7714 20.5893 99.1501 20.3561 99.1501 19.9321C99.1501 19.5155 98.4844 19.3291 97.6329 19.0906C96.1225 18.6675 94.0275 18.0807 94.0275 15.7557C94.0275 13.4661 95.9419 12.3213 98.1088 12.3213C98.9324 12.2841 99.7507 12.4724 100.477 12.8662C101.203 13.26 101.809 13.8446 102.232 14.5579L99.5183 15.9995C99.3984 15.726 99.2025 15.4934 98.9542 15.3297C98.7059 15.1661 98.4159 15.0784 98.1193 15.0773C97.5723 15.0773 97.2462 15.2893 97.2462 15.6603C97.2462 16.0931 97.9035 16.2689 98.7471 16.4946C100.259 16.8989 102.369 17.4633 102.369 19.9533ZM113.802 23.1017V12.6077H110.689V18.3847C110.689 19.8263 109.889 20.5047 108.753 20.5047C108.504 20.5197 108.254 20.4801 108.022 20.3884C107.789 20.2968 107.579 20.1554 107.406 19.974C107.233 19.7926 107.101 19.5755 107.02 19.3377C106.938 19.0999 106.909 18.847 106.933 18.5967V12.6077H103.778V19.0737C103.778 21.9039 105.577 23.4197 107.68 23.4197C108.241 23.4518 108.802 23.3505 109.318 23.124C109.833 22.8976 110.288 22.5522 110.646 22.1159V23.1017H113.802ZM131.684 16.6567V23.1015H128.528V16.9323C128.528 15.8723 128.034 15.2151 127.035 15.2151C126.036 15.2151 125.404 15.9465 125.404 17.1867V23.1015H122.249V16.9323C122.249 15.8723 121.754 15.2151 120.755 15.2151C119.756 15.2151 119.125 15.9465 119.125 17.1867V23.1015H115.969V12.6075H119.125V13.5721C119.452 13.146 119.878 12.8085 120.367 12.5901C120.855 12.3718 121.39 12.2794 121.923 12.3213C122.456 12.2933 122.988 12.4056 123.466 12.6472C123.943 12.8887 124.351 13.2513 124.647 13.6993C124.994 13.2313 125.452 12.8594 125.98 12.6184C126.508 12.3774 127.088 12.2752 127.666 12.3213C130.127 12.3213 131.684 14.0385 131.684 16.6567ZM136.649 10.2119C136.649 11.4998 135.613 12.5439 134.335 12.5439C133.057 12.5439 132.021 11.4998 132.021 10.2119C132.021 8.92396 133.057 7.87988 134.335 7.87988C135.613 7.87988 136.649 8.92396 136.649 10.2119Z" fill="white"/>
</svg>
