<svg width="108" height="22" viewBox="0 0 108 22" fill="none" xmlns="http://www.w3.org/2000/svg">
<g clip-path="url(#clip0_2863_1269)">
<path d="M107.81 16.7764V19.4604H105.568C103.176 19.3848 101.897 18.0875 101.897 15.6506V9.5207H100.332V7.16621H101.897V4.53027H105.206V7.13875H107.735V9.48637H105.206V15.3211C105.206 16.1105 105.363 16.7421 106.573 16.7421L107.81 16.7764Z" fill="white"/>
<path d="M87.1468 13.3373V13.1588C87.111 12.3693 87.2307 11.5805 87.4991 10.8375C87.7675 10.0946 88.1792 9.41213 88.7107 8.82927C89.2422 8.24642 89.883 7.77463 90.5964 7.44096C91.3098 7.10728 92.0818 6.91827 92.8681 6.88477C93.0253 6.88477 93.1893 6.88477 93.3466 6.88477C96.4704 6.88477 99.2114 8.7107 99.2114 13.0627V13.9894H90.5304C90.6192 15.9938 91.6992 17.1265 93.5174 17.1265C95.0828 17.1265 95.8141 16.44 96.026 15.4378H99.1498C98.7671 18.0532 96.6891 19.5084 93.4012 19.5084C89.7921 19.481 87.1468 17.1882 87.1468 13.3373ZM95.9577 11.8889C95.8415 10.063 94.9255 9.18434 93.3329 9.18434C91.7402 9.18434 90.8243 10.1728 90.5987 11.8889H95.9577Z" fill="white"/>
<path d="M73.639 13.3373V13.1588C73.6032 12.3704 73.7225 11.5827 73.99 10.8406C74.2575 10.0985 74.668 9.41663 75.1981 8.83396C75.7282 8.25128 76.3674 7.77923 77.0792 7.44477C77.791 7.11032 78.5615 6.92002 79.3466 6.88477C79.5038 6.88477 79.6679 6.88477 79.8251 6.88477C82.9489 6.88477 85.6967 8.7107 85.6967 13.0627V13.9894H77.0226C77.1114 15.9938 78.1914 17.1265 80.0097 17.1265C81.575 17.1265 82.3064 16.44 82.5183 15.4378H85.6421C85.2524 18.0532 83.1745 19.5084 79.8866 19.5084C76.2843 19.481 73.639 17.1882 73.639 13.3373ZM82.4499 11.8889C82.3337 10.063 81.4178 9.18434 79.8251 9.18434C78.2324 9.18434 77.3438 10.2003 77.0909 11.8821L82.4499 11.8889Z" fill="white"/>
<path d="M54.6836 7.13867H58.1833L60.3228 15.2799L62.6674 7.13867H65.4016L67.5206 15.2799L69.7762 7.13867H72.9821L69.1816 19.2338H65.9006L63.8499 11.6417L61.6557 19.2338H58.3337L54.6836 7.13867Z" fill="white"/>
<path d="M43.5625 15.4311H46.6863C46.8298 16.5225 47.3698 17.1472 48.8053 17.1472C50.0904 17.1472 50.685 16.6598 50.685 15.8292C50.685 14.9986 50.0015 14.6485 48.2516 14.4014C45.0458 13.914 43.8086 12.9873 43.8086 10.626C43.8086 8.10674 46.1053 6.85742 48.5934 6.85742C51.266 6.85742 53.2825 7.83217 53.5696 10.6123H50.4868C50.4671 10.3973 50.4052 10.1885 50.3047 9.99769C50.2042 9.80692 50.067 9.63805 49.9012 9.50082C49.7353 9.3636 49.544 9.26074 49.3383 9.19819C49.1326 9.13564 48.9166 9.11464 48.7028 9.1364H48.6002C47.5202 9.1364 46.8914 9.64437 46.8914 10.3857C46.8914 11.1271 47.4724 11.4497 49.2359 11.7037C52.2298 12.1567 53.9045 12.9187 53.9045 15.5066C53.9045 18.0945 52.0111 19.4811 48.8395 19.4811C45.6678 19.4811 43.6514 18.0464 43.5625 15.4311Z" fill="white"/>
<path d="M30.2891 7.13944H33.5974V9.05461C33.9703 8.35165 34.5363 7.77098 35.2282 7.38159C35.9201 6.99221 36.7087 6.81048 37.5005 6.858C39.845 6.858 41.547 8.29266 41.547 11.567V19.262H38.2797V12.0475C38.2797 10.4069 37.644 9.62435 36.1675 9.62435C35.8555 9.59707 35.5411 9.63195 35.2425 9.72699C34.9439 9.82204 34.6669 9.97537 34.4275 10.1782C34.1881 10.381 33.9909 10.6293 33.8473 10.9089C33.7036 11.1884 33.6164 11.4937 33.5906 11.8072C33.5735 11.9532 33.5735 12.1006 33.5906 12.2466V19.2345H30.2891V7.13944Z" fill="white"/>
<path d="M23.9034 4.09806C23.8915 3.76681 23.9776 3.43943 24.151 3.15738C24.3244 2.87532 24.5772 2.65128 24.8775 2.5136C25.1777 2.37593 25.5119 2.33082 25.8377 2.38399C26.1635 2.43716 26.4663 2.58621 26.7077 2.81228C26.9491 3.03835 27.1182 3.33126 27.1938 3.65394C27.2693 3.97661 27.2478 4.31454 27.132 4.62494C27.0162 4.93533 26.8112 5.20424 26.5432 5.39761C26.2751 5.59098 25.9559 5.70011 25.626 5.7112H25.5645C25.3597 5.72421 25.1544 5.6965 24.9604 5.62966C24.7663 5.56281 24.5873 5.45815 24.4336 5.32167C24.2799 5.18519 24.1546 5.01958 24.0648 4.83434C23.975 4.6491 23.9225 4.44788 23.9103 4.24222C23.9046 4.19439 23.9023 4.14622 23.9034 4.09806ZM23.9034 7.139H27.246V19.2341H23.9171L23.9034 7.139Z" fill="white"/>
<path d="M11.3047 2.7041H21.8723V5.6352H15.0368V10.0078H20.4505V12.8291H15.03V19.2336H11.3047V2.7041Z" fill="white"/>
<path d="M4.92835 8.11373C4.92835 9.15025 4.92835 10.4133 3.50658 10.9281C4.96253 11.4292 4.92835 12.4932 4.92835 13.6053V17.7239C4.92835 18.5064 5.24278 18.9801 5.80329 19.0968C5.92645 19.1385 6.05621 19.1571 6.18608 19.1517H7.55316V21.8975H5.29747C2.89139 21.8975 1.56532 20.5246 1.56532 17.9779V13.1042C1.54825 12.8539 1.43839 12.6192 1.25743 12.4464C1.07646 12.2736 0.837545 12.1752 0.587848 12.1706H0V9.76118H0.587848C0.842527 9.75781 1.08614 9.6561 1.26814 9.47717C1.45014 9.29823 1.55656 9.0558 1.56532 8.80017V3.8578C1.56532 1.35229 2.86405 0 5.29747 0H7.57367V2.70458H6.20658C6.07656 2.70495 5.94739 2.7258 5.8238 2.76636C5.26329 2.91051 4.94886 3.37729 4.94886 4.13924L4.92835 8.11373Z" fill="white"/>
</g>
<defs>
<clipPath id="clip0_2863_1269">
<rect width="108" height="21.9661" fill="white"/>
</clipPath>
</defs>
</svg>
