<svg width="53" height="48" viewBox="0 0 53 48" fill="none" xmlns="http://www.w3.org/2000/svg">
<g id="Icon">
<path id="Vector" fill-rule="evenodd" clip-rule="evenodd" d="M29.9853 3.48679C29.9853 4.91671 29.1246 6.14558 27.8929 6.68357V9.76318H43.2298C44.003 9.76318 44.6298 10.39 44.6298 11.1632V33.4681C44.6298 34.2413 44.003 34.8681 43.2298 34.8681H33.4726V39.052H36.2562C37.0294 39.052 37.6562 39.6788 37.6562 40.452V46.0203C37.6562 46.7935 37.0294 47.4203 36.2562 47.4203H16.7408C15.9676 47.4203 15.3408 46.7935 15.3408 46.0203V40.452C15.3408 39.6788 15.9676 39.052 16.7408 39.052H19.5254V34.8681H9.76719C8.99399 34.8681 8.36719 34.2413 8.36719 33.4681V11.1632C8.36719 10.39 8.99399 9.76318 9.76719 9.76318H25.1035V6.68333C23.8722 6.14521 23.0117 4.91649 23.0117 3.48679C23.0117 1.56109 24.5728 0 26.4985 0C28.4242 0 29.9853 1.56109 29.9853 3.48679ZM22.3152 22.3156C22.3152 23.8561 21.0663 25.105 19.5258 25.105C17.9852 25.105 16.7363 23.8561 16.7363 22.3156C16.7363 20.775 17.9852 19.5261 19.5258 19.5261C21.0663 19.5261 22.3152 20.775 22.3152 22.3156ZM33.4729 25.105C35.0135 25.105 36.2624 23.8561 36.2624 22.3156C36.2624 20.775 35.0135 19.5261 33.4729 19.5261C31.9324 19.5261 30.6835 20.775 30.6835 22.3156C30.6835 23.8561 31.9324 25.105 33.4729 25.105Z" fill="#6B7CFF"/>
<path id="Vector_2" fill-rule="evenodd" clip-rule="evenodd" d="M47.418 27.8945C50.4991 27.8945 52.9968 25.3968 52.9968 22.3157C52.9968 19.2346 50.4991 16.7368 47.418 16.7368V27.8945Z" fill="#6B7CFF"/>
<path id="Vector_3" fill-rule="evenodd" clip-rule="evenodd" d="M5.57812 27.8943C2.497 27.8943 -0.000740528 25.3966 -0.000740528 22.3154C-0.000740528 19.2343 2.497 16.7366 5.57812 16.7366V27.8943Z" fill="#6B7CFF"/>
</g>
</svg>
