<svg width="48" height="48" viewBox="0 0 48 48" fill="none" xmlns="http://www.w3.org/2000/svg">
<path d="M18.6602 18.1601C18.6602 17.884 18.4363 17.6601 18.1602 17.6601C17.8884 17.6704 17.6704 17.8883 17.6602 18.1601C17.6602 18.7201 18.6602 18.7201 18.6602 18.1601Z" fill="#6B7CFF"/>
<path d="M29.8398 29.34C29.5637 29.34 29.3398 29.5638 29.3398 29.84C29.3398 30.38 30.3398 30.38 30.3398 29.84C30.3398 29.5638 30.116 29.34 29.8398 29.34Z" fill="#6B7CFF"/>
<path fill-rule="evenodd" clip-rule="evenodd" d="M41.1586 16.8001C41.5507 17.5412 42.0569 18.2161 42.6586 18.8001C44.2135 20.1162 45.2078 21.976 45.4386 24.0001C45.2096 25.9739 44.2543 27.7919 42.7586 29.1001C42.1569 29.684 41.6507 30.3589 41.2586 31.1001C41.0098 31.9296 40.9017 32.7948 40.9386 33.6601C41.1057 35.6411 40.5042 37.6105 39.2586 39.1601C37.7091 40.4056 35.7397 41.0072 33.7586 40.8401C32.8934 40.8031 32.0281 40.9113 31.1986 41.1601C30.4608 41.5575 29.7867 42.0631 29.1986 42.6601C27.8917 44.2264 26.027 45.2233 23.9986 45.4401C22.0207 45.2244 20.1981 44.2667 18.8986 42.7601C18.3105 42.1631 17.6363 41.6575 16.8986 41.2601C16.0691 41.0113 15.2038 40.9031 14.3386 40.9401C12.3575 41.1072 10.3881 40.5056 8.83859 39.2601C7.59301 37.7105 6.99145 35.7411 7.15859 33.7601C7.19552 32.8948 7.08736 32.0296 6.83859 31.2001C6.44649 30.4589 5.94031 29.784 5.33859 29.2001C3.78364 27.8839 2.78937 26.0241 2.55859 24.0001C2.78755 22.0262 3.74288 20.2082 5.23859 18.9001C5.84031 18.3161 6.34649 17.6412 6.73859 16.9001C6.98736 16.0706 7.09552 15.2053 7.05859 14.3401C6.89145 12.359 7.49301 10.3896 8.73859 8.84006C10.2881 7.59448 12.2575 6.99291 14.2386 7.16006C15.1038 7.19698 15.9691 7.08882 16.7986 6.84006C17.5363 6.44262 18.2105 5.93702 18.7986 5.34006C20.1055 3.77371 21.9702 2.77682 23.9986 2.56006C25.9765 2.7757 27.7991 3.73343 29.0986 5.24006C29.6867 5.83702 30.3608 6.34262 31.0986 6.74006C31.9281 6.98882 32.7934 7.09698 33.6586 7.06006C35.6397 6.89291 37.6091 7.49448 39.1586 8.74006C40.4042 10.2896 41.0057 12.259 40.8386 14.2401C40.8017 15.1053 40.9098 15.9706 41.1586 16.8001ZM18.1586 13.6601C15.6733 13.6601 13.6586 15.6748 13.6586 18.1601C13.6586 20.6453 15.6733 22.6601 18.1586 22.6601C20.6439 22.6601 22.6586 20.6453 22.6586 18.1601C22.6586 15.6748 20.6439 13.6601 18.1586 13.6601ZM18.7386 32.1601C18.3661 32.5295 17.8633 32.7379 17.3386 32.7401C16.8115 32.6809 16.3295 32.4147 15.9986 32.0001C15.2231 31.22 15.2231 29.9601 15.9986 29.1801L29.2586 16.0001C29.6843 15.2813 30.5119 14.9028 31.334 15.0509C32.1562 15.199 32.7997 15.8425 32.9478 16.6646C33.0959 17.4868 32.7174 18.3144 31.9986 18.7401L18.7386 32.1601ZM25.3386 29.9201C25.3386 32.4053 27.3533 34.4201 29.8386 34.4201V34.3401C32.293 34.3404 34.295 32.374 34.3386 29.9201C34.3386 27.4348 32.3239 25.4201 29.8386 25.4201C27.3533 25.4201 25.3386 27.4348 25.3386 29.9201Z" fill="#6B7CFF"/>
</svg>
