<svg width="56" height="56" viewBox="0 0 56 56" fill="none" xmlns="http://www.w3.org/2000/svg">
<g id="Icon">
<path id="Vector" fill-rule="evenodd" clip-rule="evenodd" d="M11.2008 16.8001C11.2008 17.212 11.1415 17.6101 11.031 17.9862L18.3949 22.2378C17.9141 23.0376 17.5304 23.9023 17.26 24.8157L9.37641 20.2642C8.70076 20.7284 7.8825 21.0001 7.00078 21.0001C4.68119 21.0001 2.80078 19.1197 2.80078 16.8001C2.80078 14.4805 4.68119 12.6001 7.00078 12.6001C9.32038 12.6001 11.2008 14.4805 11.2008 16.8001ZM26.6006 39.1134C27.0593 39.1707 27.5266 39.2001 28.0008 39.2001C28.4748 39.2001 28.942 39.1707 29.4006 39.1135V46.439C31.032 47.0155 32.2008 48.5713 32.2008 50.4001C32.2008 52.7197 30.3204 54.6001 28.0008 54.6001C25.6812 54.6001 23.8008 52.7197 23.8008 50.4001C23.8008 48.5715 24.9694 47.0158 26.6006 46.4392V39.1134ZM38.7416 24.8157C38.4712 23.9023 38.0875 23.0376 37.6067 22.2378L44.9706 17.9862C44.8601 17.6101 44.8008 17.212 44.8008 16.8001C44.8008 14.4805 46.6812 12.6001 49.0008 12.6001C51.3204 12.6001 53.2008 14.4805 53.2008 16.8001C53.2008 19.1197 51.3204 21.0001 49.0008 21.0001C48.1191 21.0001 47.3008 20.7284 46.6251 20.2642L38.7416 24.8157Z" fill="#6B7CFF"/>
<path id="Vector_2" fill-rule="evenodd" clip-rule="evenodd" d="M29.4016 13.8437C32.207 13.2069 34.3012 10.698 34.3012 7.6999C34.3012 4.22051 31.4806 1.3999 28.0012 1.3999C24.5218 1.3999 21.7012 4.22051 21.7012 7.6999C21.7012 10.6983 23.7958 13.2074 26.6016 13.8439V19.716C22.6288 20.3825 19.6016 23.8377 19.6016 27.9999C19.6016 29.814 20.1766 31.4937 21.1544 32.8668L15.2554 38.7658C14.2842 38.1539 13.1342 37.7999 11.9016 37.7999C8.42217 37.7999 5.60156 40.6205 5.60156 44.0999C5.60156 47.5793 8.42217 50.3999 11.9016 50.3999C15.381 50.3999 18.2016 47.5793 18.2016 44.0999C18.2016 42.867 17.8474 41.7169 17.2354 40.7457L23.1342 34.8468C24.5074 35.8247 26.1873 36.3999 28.0016 36.3999C29.8157 36.3999 31.4956 35.8248 32.8687 34.8469L38.7678 40.7459C38.1558 41.7171 37.8018 42.8671 37.8018 44.0999C37.8018 47.5793 40.6224 50.3999 44.1018 50.3999C47.5812 50.3999 50.4018 47.5793 50.4018 44.0999C50.4018 40.6205 47.5812 37.7999 44.1018 37.7999C42.869 37.7999 41.7189 38.154 40.7476 38.766L34.8486 32.867C35.8265 31.4939 36.4016 29.814 36.4016 27.9999C36.4016 23.8377 33.3744 20.3825 29.4016 19.716V13.8437Z" fill="#6B7CFF"/>
</g>
</svg>
