<svg width="56" height="56" viewBox="0 0 56 56" fill="none" xmlns="http://www.w3.org/2000/svg">
<g id="Icon">
<path id="Vector" fill-rule="evenodd" clip-rule="evenodd" d="M16.8016 5.6001H9.80156H7.00156C6.22836 5.6001 5.60156 6.2269 5.60156 7.0001V7.0001V9.8001V16.8001C5.60156 17.5733 6.22836 18.2001 7.00156 18.2001H8.40156C9.17476 18.2001 9.80156 17.5733 9.80156 16.8001V9.8001H16.8016C17.5748 9.8001 18.2016 9.1733 18.2016 8.4001V7.0001C18.2016 6.2269 17.5748 5.6001 16.8016 5.6001Z" fill="#6B7CFF"/>
<path id="Vector_2" fill-rule="evenodd" clip-rule="evenodd" d="M39.1984 5.6001H46.1984H48.9984C49.7716 5.6001 50.3984 6.2269 50.3984 7.0001V7.0001V9.8001V16.8001C50.3984 17.5733 49.7716 18.2001 48.9984 18.2001H47.5984C46.8252 18.2001 46.1984 17.5733 46.1984 16.8001V9.8001H39.1984C38.4252 9.8001 37.7984 9.1733 37.7984 8.4001V7.0001C37.7984 6.2269 38.4252 5.6001 39.1984 5.6001Z" fill="#6B7CFF"/>
<path id="Vector_3" fill-rule="evenodd" clip-rule="evenodd" d="M16.8016 51.8H9.80156H7.00156C6.22836 51.8 5.60156 51.1732 5.60156 50.4V50.4V47.6V40.6C5.60156 39.8268 6.22836 39.2 7.00156 39.2H8.40156C9.17476 39.2 9.80156 39.8268 9.80156 40.6V47.6H16.8016C17.5748 47.6 18.2016 48.2269 18.2016 49V50.4C18.2016 51.1732 17.5748 51.8 16.8016 51.8Z" fill="#6B7CFF"/>
<path id="Vector_4" fill-rule="evenodd" clip-rule="evenodd" d="M39.1984 51.8H46.1984H48.9984C49.7716 51.8 50.3984 51.1732 50.3984 50.4V50.4V47.6V40.6C50.3984 39.8268 49.7716 39.2 48.9984 39.2H47.5984C46.8252 39.2 46.1984 39.8268 46.1984 40.6V47.6H39.1984C38.4252 47.6 37.7984 48.2269 37.7984 49V50.4C37.7984 51.1732 38.4252 51.8 39.1984 51.8Z" fill="#6B7CFF"/>
<path id="Vector_5" d="M39.2496 29.7903C38.7376 31.5962 38.2023 33.4691 37.8997 35.1859C37.4575 37.7722 37.6204 39.9795 37.8066 41.2281L24.7735 46.2001V39.9349C24.7735 39.6005 24.6339 39.2884 24.4012 39.0654C24.1684 38.8424 23.8426 38.7087 23.4935 38.7087H18.7923C18.257 38.7087 17.8148 38.3073 17.8148 37.8168V32.8225C17.8148 32.1759 17.3028 31.6408 16.6279 31.5962L15.1151 31.4848C13.8351 31.3956 13.3929 31.3064 13.2998 31.2841C12.6016 30.972 12.6016 30.5483 12.6016 30.4146C12.6016 30.37 12.7412 29.3667 15.9529 25.7547L16.0693 25.6209C16.4184 25.2196 16.4184 24.8183 16.4184 24.0602V23.7035C16.4417 23.6143 16.4417 23.5474 16.4417 23.4582C16.4649 17.8619 22.3764 12.667 28.8231 12.6001H28.9627C35.2465 12.6001 40.5994 17.4829 40.5994 23.2353C40.646 24.9521 39.9245 27.4046 39.2496 29.7903Z" fill="#6B7CFF"/>
<path id="NLP" fill-rule="evenodd" clip-rule="evenodd" d="M20.7958 22.3173V26.5999H19.4336V19.6223H20.6488L23.4124 23.8951V19.6223H24.7746V26.5999H23.5594L20.7958 22.3173ZM30.929 25.3847V26.5999H26.4014V19.6223H27.7636V25.3847H30.929ZM33.3983 26.5999V23.9735H34.7409C35.1003 23.9735 35.422 23.9163 35.7062 23.802C35.9904 23.6877 36.2322 23.5309 36.4314 23.3316C36.6307 23.1323 36.7826 22.9004 36.8871 22.6358C36.9917 22.3712 37.0439 22.0919 37.0439 21.7979C37.0439 21.5039 36.9917 21.2246 36.8871 20.96C36.7826 20.6954 36.6307 20.4635 36.4314 20.2642C36.2322 20.0649 35.9904 19.9081 35.7062 19.7938C35.422 19.6795 35.1003 19.6223 34.7409 19.6223H32.0361V26.5999H33.3983ZM33.3984 22.7485H34.6724C34.986 22.7485 35.2327 22.662 35.4123 22.4888C35.592 22.3157 35.6818 22.0854 35.6818 21.7979C35.6818 21.5105 35.592 21.2785 35.4123 21.1021C35.2327 20.9257 34.986 20.8375 34.6724 20.8375H33.3984V22.7485Z" fill="white"/>
</g>
</svg>
