<svg width="56" height="56" viewBox="0 0 56 56" fill="none" xmlns="http://www.w3.org/2000/svg">
<g id="Icon">
<rect id="Vector" x="51.8008" y="4.19995" width="8.4" height="47.6" rx="1.4" transform="rotate(90 51.8008 4.19995)" fill="#6B7CFF"/>
<path id="Vector_2" fill-rule="evenodd" clip-rule="evenodd" d="M32.1992 16.7999C32.1992 16.0267 31.5724 15.3999 30.7992 15.3999H5.59922C4.82602 15.3999 4.19922 16.0267 4.19922 16.7999V50.3999C4.19922 51.1731 4.82602 51.7999 5.59922 51.7999H30.7992C31.5724 51.7999 32.1992 51.1731 32.1992 50.3999V16.7999ZM26.5988 22.3999H9.79884V25.1999H26.5988V22.3999ZM9.79884 32.1999H26.5988V34.9999H9.79884V32.1999ZM26.5988 41.9999H9.79884V44.7999H26.5988V41.9999Z" fill="#6B7CFF"/>
<rect id="Vector_3" x="35" y="15.3999" width="16.8" height="36.4" rx="1.4" fill="#6B7CFF"/>
</g>
</svg>
