<svg width="56" height="56" viewBox="0 0 56 56" fill="none" xmlns="http://www.w3.org/2000/svg">
<g id="Icon">
<path id="Vector" fill-rule="evenodd" clip-rule="evenodd" d="M17.8986 27.1195C13.5577 25.3452 10.501 21.0812 10.501 16.1C10.501 9.5252 15.8262 4.19995 22.401 4.19995C28.9757 4.19995 34.301 9.5252 34.301 16.1C34.301 21.0812 31.2442 25.3453 26.9032 27.1196C31.0811 28.1016 34.7436 30.4204 37.4147 33.5999H30.6783L30.4469 33.6063C28.3025 33.7247 26.6006 35.4793 26.6006 37.6264V46.1999H2.80078C2.80078 36.9244 9.24386 29.1538 17.8986 27.1195ZM28.6877 18.9737C27.9626 21.8111 25.3717 23.8 22.4005 23.8C19.4293 23.8 16.8384 21.8111 16.1133 18.9737L19.2561 18.2C19.615 19.6225 20.912 20.6213 22.4005 20.6213C23.889 20.6213 25.186 19.6225 25.5449 18.2L28.6877 18.9737Z" fill="#6B7CFF"/>
<path id="Vector_2" fill-rule="evenodd" clip-rule="evenodd" d="M29.3984 37.9144C29.3984 37.0779 30.0765 36.3999 30.9129 36.3999H50.284C51.1204 36.3999 51.7984 37.0779 51.7984 37.9144V49.2371C51.7984 50.0735 51.1204 50.7515 50.284 50.7515H45.1162C44.4343 50.7581 42.6199 52.0591 41.5089 52.9071C40.9824 53.309 40.2381 53.2803 39.7318 52.8532C38.7263 52.0052 37.0792 50.7579 36.0829 50.7515H30.9129C30.0765 50.7515 29.3984 50.0735 29.3984 49.2371V37.9144ZM35.3212 45.0108C36.1538 45.0108 36.8289 44.3683 36.8289 43.5757C36.8289 42.783 36.1538 42.1405 35.3212 42.1405C34.4885 42.1405 33.8135 42.783 33.8135 43.5757C33.8135 44.3683 34.4885 45.0108 35.3212 45.0108ZM40.5985 45.0108C41.4312 45.0108 42.1062 44.3683 42.1062 43.5757C42.1062 42.783 41.4312 42.1405 40.5985 42.1405C39.7658 42.1405 39.0908 42.783 39.0908 43.5757C39.0908 44.3683 39.7658 45.0108 40.5985 45.0108ZM47.3826 43.5757C47.3826 44.3683 46.7076 45.0108 45.8749 45.0108C45.0422 45.0108 44.3672 44.3683 44.3672 43.5757C44.3672 42.783 45.0422 42.1405 45.8749 42.1405C46.7076 42.1405 47.3826 42.783 47.3826 43.5757Z" fill="#6B7CFF"/>
</g>
</svg>
