<svg xmlns="http://www.w3.org/2000/svg" width="7" height="5" viewBox="0 0 7 5" fill="none">
<path d="M6.97213 0.509868C6.94887 0.443886 6.91194 0.394398 6.78473 0.253435C6.58913 0.0374907 6.54262 0.00899805 6.39353 0.00749843C6.31419 0.00749843 6.26905 0.0149965 6.22938 0.035991C6.19245 0.055486 5.74379 0.535362 4.83691 1.5281L3.50051 2.99173L2.16275 1.52661C1.12318 0.3869 0.812679 0.0539861 0.764804 0.0314919C0.723768 0.0104973 0.673158 3.92821e-08 0.61434 3.58498e-08C0.473451 2.76282e-08 0.405058 0.0434888 0.216294 0.251935C0.0836124 0.398897 0.0535196 0.442386 0.0288982 0.514367C-0.00940169 0.623839 -0.00940169 0.710816 0.0275304 0.820288C0.0548875 0.904266 0.124648 0.982246 1.65938 2.66481C3.43212 4.60981 3.31996 4.49884 3.50051 4.49884C3.68107 4.49884 3.56891 4.60981 5.34165 2.66481C6.87775 0.980747 6.94614 0.904266 6.9735 0.820288C7.00906 0.712316 7.00906 0.616341 6.97213 0.509868Z" fill="white"/>
</svg>