<svg width="20" height="13" viewBox="0 0 20 13" fill="none" xmlns="http://www.w3.org/2000/svg">
<path d="M8.07007 5.9214C8.07007 5.9214 9.96239 5.78274 9.96239 3.59244C9.96239 1.40199 8.41423 0.333008 6.45315 0.333008H0V12.5736H6.45315C6.45315 12.5736 10.3926 12.6964 10.3926 8.96072C10.3926 8.96075 10.5643 5.9214 8.07007 5.9214ZM5.98866 2.50863H6.45315C6.45315 2.50863 7.33033 2.50863 7.33033 3.78221C7.33033 5.05563 6.81445 5.24025 6.22932 5.24025H2.84334V2.50863H5.98866ZM6.2708 10.398H2.84334V7.12688H6.45315C6.45315 7.12688 7.76054 7.10997 7.76054 8.80791C7.76054 10.2397 6.78405 10.3872 6.2708 10.398ZM15.6465 3.44737C10.8774 3.44737 10.8816 8.15056 10.8816 8.15056C10.8816 8.15056 10.5544 12.8296 15.6465 12.8296C15.6465 12.8296 19.8898 13.0689 19.8898 9.57466H17.7075C17.7075 9.57466 17.7803 10.8905 15.7192 10.8905C15.7192 10.8905 13.5366 11.0349 13.5366 8.76095H19.9626C19.9626 8.76091 20.6657 3.44737 15.6465 3.44737ZM13.5126 7.12688C13.5126 7.12688 13.7791 5.24022 15.6949 5.24022C17.6104 5.24022 17.5864 7.12688 17.5864 7.12688H13.5126ZM18.0948 2.56147H12.9783V1.05413H18.0948V2.56147Z" fill="#4DC39E"/>
</svg>
