<svg width="38" height="38" viewBox="0 0 38 38" fill="none" xmlns="http://www.w3.org/2000/svg">
<path d="M17.2188 23.75C18.8583 23.75 20.1875 22.4208 20.1875 20.7812C20.1875 19.1417 18.8583 17.8125 17.2188 17.8125C15.5792 17.8125 14.25 19.1417 14.25 20.7812C14.25 22.4208 15.5792 23.75 17.2188 23.75Z" stroke="#6D737A" stroke-width="1.5" stroke-linecap="round" stroke-linejoin="round"/>
<path d="M4.75 33.2508L15.1258 22.875" stroke="#6D737A" stroke-width="1.5" stroke-linecap="round" stroke-linejoin="round"/>
<path d="M4.75 33.25L25.457 29.8063C25.6614 29.7714 25.8529 29.6829 26.0119 29.55C26.171 29.417 26.292 29.2442 26.3625 29.0492L29.6875 20.1875L17.8125 8.3125L8.95078 11.6375C8.7555 11.7119 8.58298 11.8359 8.45023 11.9973C8.31748 12.1587 8.22908 12.3519 8.19375 12.5578L4.75 33.25Z" stroke="#6D737A" stroke-width="1.5" stroke-linecap="round" stroke-linejoin="round"/>
<path d="M29.6875 20.1879L33.5914 16.284C33.7036 16.1735 33.7927 16.0417 33.8535 15.8965C33.9143 15.7512 33.9457 15.5953 33.9457 15.4379C33.9457 15.2804 33.9143 15.1245 33.8535 14.9792C33.7927 14.834 33.7036 14.7023 33.5914 14.5918L23.4086 4.40895C23.2981 4.29675 23.1664 4.20765 23.0211 4.14683C22.8759 4.08601 22.72 4.05469 22.5625 4.05469C22.405 4.05469 22.2491 4.08601 22.1039 4.14683C21.9586 4.20765 21.8269 4.29675 21.7164 4.40895L17.8125 8.31286" stroke="#6D737A" stroke-width="1.5" stroke-linecap="round" stroke-linejoin="round"/>
</svg>          
