<svg width="152" height="32" viewBox="0 0 152 32" fill="none" xmlns="http://www.w3.org/2000/svg">
<path d="M41.5859 8.11996H47.4179C49.3219 8.11996 50.9939 8.50396 52.4339 9.27196C53.8739 10.024 54.9859 11.08 55.7699 12.44C56.5539 13.784 56.9459 15.32 56.9459 17.048C56.9459 18.776 56.5539 20.32 55.7699 21.68C54.9859 23.024 53.8659 24.08 52.4099 24.848C50.9699 25.616 49.3059 26 47.4179 26H41.5859V8.11996ZM47.5139 22.76C48.6659 22.76 49.6739 22.528 50.5379 22.064C51.4019 21.6 52.0659 20.936 52.5299 20.072C52.9939 19.208 53.2259 18.2 53.2259 17.048C53.2259 15.896 52.9939 14.896 52.5299 14.048C52.0659 13.184 51.4019 12.52 50.5379 12.056C49.6739 11.592 48.6659 11.36 47.5139 11.36H45.3059V22.76H47.5139ZM64.8961 26.288C63.5521 26.288 62.3601 25.984 61.3201 25.376C60.2801 24.768 59.4721 23.944 58.8961 22.904C58.3361 21.848 58.0561 20.688 58.0561 19.424C58.0561 18.144 58.3441 16.984 58.9201 15.944C59.4961 14.904 60.2881 14.088 61.2961 13.496C62.3041 12.904 63.4241 12.608 64.6561 12.608C66.0001 12.608 67.1601 12.888 68.1361 13.448C69.1121 14.008 69.8561 14.784 70.3681 15.776C70.8801 16.752 71.1361 17.848 71.1361 19.064C71.1361 19.656 71.0801 20.12 70.9681 20.456H61.8001C61.9121 21.288 62.2401 21.952 62.7841 22.448C63.3441 22.928 64.0641 23.168 64.9441 23.168C65.5681 23.168 66.1121 23.04 66.5761 22.784C67.0401 22.528 67.4001 22.176 67.6561 21.728L70.5361 23.096C70.1361 24.056 69.4241 24.832 68.4001 25.424C67.3921 26 66.2241 26.288 64.8961 26.288ZM67.3201 17.816C67.2401 17.112 66.9601 16.552 66.4801 16.136C66.0001 15.704 65.3921 15.488 64.6561 15.488C63.9361 15.488 63.3281 15.688 62.8321 16.088C62.3521 16.488 62.0321 17.064 61.8721 17.816H67.3201ZM72.776 12.896H76.136V14.48C76.472 13.856 76.952 13.392 77.576 13.088C78.216 12.768 78.96 12.608 79.808 12.608C80.784 12.608 81.648 12.816 82.4 13.232C83.152 13.648 83.736 14.232 84.152 14.984C84.568 15.736 84.776 16.6 84.776 17.576V26H81.176V18.344C81.176 17.592 80.952 16.992 80.504 16.544C80.072 16.08 79.496 15.848 78.776 15.848C78.056 15.848 77.472 16.08 77.024 16.544C76.592 16.992 76.376 17.592 76.376 18.344V26H72.776V12.896ZM92.9752 26.144C91.3912 26.144 90.1592 25.72 89.2792 24.872C88.4152 24.008 87.9832 22.808 87.9832 21.272V16.016H85.7752V12.896H85.8952C86.5672 12.896 87.0792 12.728 87.4312 12.392C87.7992 12.056 87.9832 11.552 87.9832 10.88V9.91996H91.5832V12.896H94.6552V16.016H91.5832V21.032C91.5832 21.704 91.7672 22.208 92.1352 22.544C92.5032 22.864 93.0632 23.024 93.8152 23.024C94.0392 23.024 94.3192 23 94.6552 22.952V26.024C94.1272 26.104 93.5672 26.144 92.9752 26.144ZM100.341 26.288C98.9167 26.288 97.7967 25.952 96.9807 25.28C96.1647 24.608 95.7567 23.68 95.7567 22.496C95.7567 21.376 96.1407 20.464 96.9087 19.76C97.6927 19.04 98.8607 18.552 100.413 18.296L104.037 17.72V17.36C104.037 16.864 103.837 16.448 103.437 16.112C103.037 15.776 102.509 15.608 101.853 15.608C101.213 15.608 100.645 15.784 100.149 16.136C99.6687 16.472 99.3167 16.936 99.0927 17.528L96.2127 16.16C96.5967 15.072 97.3087 14.208 98.3487 13.568C99.4047 12.928 100.629 12.608 102.021 12.608C103.109 12.608 104.077 12.808 104.925 13.208C105.789 13.608 106.453 14.168 106.917 14.888C107.397 15.608 107.637 16.432 107.637 17.36V26H104.277V24.776C103.765 25.288 103.189 25.672 102.549 25.928C101.909 26.168 101.173 26.288 100.341 26.288ZM99.4767 22.376C99.4767 22.776 99.6207 23.088 99.9087 23.312C100.213 23.536 100.597 23.648 101.061 23.648C101.941 23.648 102.653 23.376 103.197 22.832C103.757 22.272 104.037 21.584 104.037 20.768V20.36L101.061 20.888C100.533 20.984 100.133 21.152 99.8607 21.392C99.6047 21.632 99.4767 21.96 99.4767 22.376ZM109.797 7.83196H113.397V26H109.797V7.83196ZM115.551 12.896H119.151V26H115.551V12.896ZM115.335 9.19996C115.335 8.54396 115.511 8.04796 115.863 7.71196C116.215 7.35996 116.711 7.18396 117.351 7.18396C118.007 7.18396 118.503 7.35996 118.839 7.71196C119.191 8.04796 119.367 8.54396 119.367 9.19996C119.367 9.85596 119.191 10.36 118.839 10.712C118.503 11.048 118.007 11.216 117.351 11.216C116.711 11.216 116.215 11.04 115.863 10.688C115.511 10.336 115.335 9.83996 115.335 9.19996ZM126.394 26.264C125.018 26.264 123.81 25.952 122.77 25.328C121.746 24.688 121.034 23.816 120.634 22.712L123.226 21.368C123.578 22.04 124.034 22.568 124.594 22.952C125.154 23.32 125.778 23.504 126.466 23.504C126.994 23.504 127.402 23.4 127.69 23.192C127.978 22.984 128.122 22.696 128.122 22.328C128.122 22.04 128.01 21.792 127.786 21.584C127.562 21.376 127.226 21.232 126.778 21.152L124.546 20.72C123.458 20.464 122.602 19.984 121.978 19.28C121.37 18.56 121.066 17.712 121.066 16.736C121.066 15.92 121.274 15.2 121.69 14.576C122.122 13.952 122.722 13.472 123.49 13.136C124.274 12.784 125.17 12.608 126.178 12.608C127.394 12.608 128.466 12.896 129.394 13.472C130.322 14.032 131.002 14.824 131.434 15.848L128.818 17.192C128.61 16.68 128.258 16.272 127.762 15.968C127.266 15.648 126.714 15.488 126.106 15.488C125.61 15.488 125.226 15.584 124.954 15.776C124.682 15.968 124.546 16.232 124.546 16.568C124.546 16.84 124.658 17.08 124.882 17.288C125.122 17.48 125.498 17.64 126.01 17.768L128.098 18.2C129.218 18.504 130.082 19 130.69 19.688C131.298 20.36 131.602 21.176 131.602 22.136C131.602 22.952 131.386 23.672 130.954 24.296C130.522 24.92 129.914 25.408 129.13 25.76C128.346 26.096 127.434 26.264 126.394 26.264ZM139.489 26.144C137.905 26.144 136.673 25.72 135.793 24.872C134.929 24.008 134.497 22.808 134.497 21.272V16.016H132.289V12.896H132.409C133.081 12.896 133.593 12.728 133.945 12.392C134.313 12.056 134.497 11.552 134.497 10.88V9.91996H138.097V12.896H141.169V16.016H138.097V21.032C138.097 21.704 138.281 22.208 138.649 22.544C139.017 22.864 139.577 23.024 140.329 23.024C140.553 23.024 140.833 23 141.169 22.952V26.024C140.641 26.104 140.081 26.144 139.489 26.144Z" fill="white"/>
<path d="M146.398 26C145.838 26 145.366 25.808 144.982 25.424C144.598 25.04 144.406 24.568 144.406 24.008C144.406 23.448 144.598 22.984 144.982 22.616C145.366 22.232 145.838 22.04 146.398 22.04C146.958 22.04 147.422 22.232 147.79 22.616C148.174 22.984 148.366 23.448 148.366 24.008C148.366 24.584 148.182 25.064 147.814 25.448C147.446 25.816 146.974 26 146.398 26Z" fill="#583FBC"/>
<path d="M23.9905 15.3243L22.8479 10.7119C22.7637 10.3749 22.5019 10.1113 22.1649 10.028L19.8046 9.4375L22.1649 8.847C22.4981 8.76369 22.7599 8.50456 22.846 8.17131L23.1646 6.9335C23.1847 6.8575 23.1939 6.75956 23.1939 6.68081C23.1939 6.5105 23.1482 6.343 23.0584 6.1965C21.7859 4.08531 19.8743 2.875 17.8125 2.875C16.0565 2.875 15.1739 3.4875 14.4653 3.98006C13.8464 4.41031 13.3557 4.75 12.1875 4.75C11.0193 4.75 10.5286 4.41031 9.90969 3.98006C9.20106 3.4875 8.3185 2.875 6.5625 2.875C2.94431 2.875 0 6.65981 0 11.3125C0 20.8376 5.52431 30.1531 5.75869 30.545C5.92712 30.8269 6.23294 31 6.5625 31C9.20656 31 9.80894 27.9833 10.2942 25.559C10.7556 23.2556 11.1602 21.625 12.1875 21.625C13.2148 21.625 13.6194 23.2556 14.0808 25.559C14.5661 27.9833 15.1684 31 17.8125 31C18.1421 31 18.4461 30.8269 18.6163 30.545C18.7847 30.263 22.7746 23.5476 24.0069 15.6951C24.0252 15.5716 24.0197 15.4452 23.9905 15.3243Z" fill="url(#paint0_linear_1870_208)"/>
<path d="M31.2896 8.52837L25.7099 7.16512L24.3476 1.71044C24.2432 1.293 23.8678 1 23.4375 1C23.0072 1 22.6318 1.293 22.5274 1.71137L21.1688 7.16331L15.7104 8.52837C15.293 8.63181 15 9.00719 15 9.4375C15 9.86781 15.293 10.2432 15.7104 10.3466L21.1633 11.7099L22.5292 17.171C22.6355 17.5857 23.0091 17.875 23.4375 17.875H23.4412C23.8696 17.8732 24.2432 17.5811 24.3476 17.1646L25.7099 11.7099L31.2896 10.3466C31.7071 10.2432 32 9.86781 32 9.4375C32 9.00719 31.7071 8.63181 31.2896 8.52837Z" fill="#7B55EC"/>
<defs>
<linearGradient id="paint0_linear_1870_208" x1="12.0087" y1="31" x2="12.0087" y2="2.875" gradientUnits="userSpaceOnUse">
<stop stop-color="#ADDCFF"/>
<stop offset="0.5028" stop-color="#EAF6FF"/>
<stop offset="1" stop-color="#EAF6FF"/>
</linearGradient>
</defs>
</svg>
