<svg width="1920" height="828" viewBox="0 0 1920 828" fill="none" xmlns="http://www.w3.org/2000/svg">
<style>
.vector-1{-webkit-animation:vector_1 5s infinite linear;animation:vector_1 5s infinite linear;-webkit-transform-origin:center;-ms-transform-origin:center;transform-origin:center;transform-box:fill-box}@-webkit-keyframes vector_1{25%{-webkit-transform:translate(-5px,10px);transform:translate(-5px,10px)}50%{-webkit-transform:translate(-10px,20px);transform:translate(-10px,20px)}75%{-webkit-transform:translate(-5px,10px);transform:translate(-5px,10px)}100%{-webkit-transform:translate(0,0);transform:translate(0,0)}}@keyframes vector_1{25%{-webkit-transform:translate(-5px,10px);transform:translate(-5px,10px)}50%{-webkit-transform:translate(-10px,20px);transform:translate(-10px,20px)}75%{-webkit-transform:translate(-5px,10px);transform:translate(-5px,10px)}100%{-webkit-transform:translate(0,0);transform:translate(0,0)}}.vector-2{-webkit-animation:vector_2 5s infinite linear;animation:vector_2 5s infinite linear;-webkit-transform-origin:center;-ms-transform-origin:center;transform-origin:center;transform-box:fill-box}@-webkit-keyframes vector_2{25%{-webkit-transform:translate(-5px,-10px);transform:translate(-5px,-10px)}50%{-webkit-transform:translate(-10px,-20px);transform:translate(-10px,-20px)}75%{-webkit-transform:translate(-5px,-10px);transform:translate(-5px,-10px)}100%{-webkit-transform:translate(0,0);transform:translate(0,0)}}@keyframes vector_2{25%{-webkit-transform:translate(-5px,-10px);transform:translate(-5px,-10px)}50%{-webkit-transform:translate(-10px,-20px);transform:translate(-10px,-20px)}75%{-webkit-transform:translate(-5px,-10px);transform:translate(-5px,-10px)}100%{-webkit-transform:translate(0,0);transform:translate(0,0)}}.vector-3{-webkit-animation:vector_3 5s infinite linear;animation:vector_3 5s infinite linear;-webkit-transform-origin:center;-ms-transform-origin:center;transform-origin:center;transform-box:fill-box}@-webkit-keyframes vector_3{25%{-webkit-transform:translate(-5px,10px);transform:translate(-5px,10px)}50%{-webkit-transform:translate(-10px,20px);transform:translate(-10px,20px)}75%{-webkit-transform:translate(-5px,10px);transform:translate(-5px,10px)}100%{-webkit-transform:translate(0,0);transform:translate(0,0)}}@keyframes vector_3{25%{-webkit-transform:translate(-5px,10px);transform:translate(-5px,10px)}50%{-webkit-transform:translate(-10px,20px);transform:translate(-10px,20px)}75%{-webkit-transform:translate(-5px,10px);transform:translate(-5px,10px)}100%{-webkit-transform:translate(0,0);transform:translate(0,0)}}.vector-4{-webkit-animation:vector_4 5s infinite linear;animation:vector_4 5s infinite linear;-webkit-transform-origin:center;-ms-transform-origin:center;transform-origin:center;transform-box:fill-box}@-webkit-keyframes vector_4{25%{-webkit-transform:translate(5px,-10px);transform:translate(5px,-10px)}50%{-webkit-transform:translate(10px,-20px);transform:translate(10px,-20px)}75%{-webkit-transform:translate(5px,-10px);transform:translate(5px,-10px)}100%{-webkit-transform:translate(0,0);transform:translate(0,0)}}@keyframes vector_4{25%{-webkit-transform:translate(5px,-10px);transform:translate(5px,-10px)}50%{-webkit-transform:translate(10px,-20px);transform:translate(10px,-20px)}75%{-webkit-transform:translate(5px,-10px);transform:translate(5px,-10px)}100%{-webkit-transform:translate(0,0);transform:translate(0,0)}}
</style>
<g class="vector-2">
    <circle cx="1003" cy="309" r="8" fill="#7B55EC"/>
</g>
<g class="vector-3">
    <circle cx="972" cy="488" r="13" fill="#7ABADD"/>
</g>
<g class="vector-4">
    <circle cx="1664" cy="364" r="13" fill="#7ABADD"/>
</g>
<path fill-rule="evenodd" clip-rule="evenodd" d="M958 597C959.105 597 960 596.105 960 595C960 593.895 959.105 593 958 593C956.895 593 956 593.895 956 595C956 596.105 956.895 597 958 597ZM978 597C979.105 597 980 596.105 980 595C980 593.895 979.105 593 978 593C976.895 593 976 593.895 976 595C976 596.105 976.895 597 978 597ZM1000 595C1000 596.105 999.105 597 998 597C996.895 597 996 596.105 996 595C996 593.895 996.895 593 998 593C999.105 593 1000 593.895 1000 595ZM1018 597C1019.1 597 1020 596.105 1020 595C1020 593.895 1019.1 593 1018 593C1016.9 593 1016 593.895 1016 595C1016 596.105 1016.9 597 1018 597ZM1040 595C1040 596.105 1039.1 597 1038 597C1036.9 597 1036 596.105 1036 595C1036 593.895 1036.9 593 1038 593C1039.1 593 1040 593.895 1040 595ZM1058 597C1059.1 597 1060 596.105 1060 595C1060 593.895 1059.1 593 1058 593C1056.9 593 1056 593.895 1056 595C1056 596.105 1056.9 597 1058 597ZM1080 595C1080 596.105 1079.1 597 1078 597C1076.9 597 1076 596.105 1076 595C1076 593.895 1076.9 593 1078 593C1079.1 593 1080 593.895 1080 595ZM1098 597C1099.1 597 1100 596.105 1100 595C1100 593.895 1099.1 593 1098 593C1096.9 593 1096 593.895 1096 595C1096 596.105 1096.9 597 1098 597ZM960 615C960 616.105 959.105 617 958 617C956.895 617 956 616.105 956 615C956 613.895 956.895 613 958 613C959.105 613 960 613.895 960 615ZM978 617C979.105 617 980 616.105 980 615C980 613.895 979.105 613 978 613C976.895 613 976 613.895 976 615C976 616.105 976.895 617 978 617ZM1000 615C1000 616.105 999.105 617 998 617C996.895 617 996 616.105 996 615C996 613.895 996.895 613 998 613C999.105 613 1000 613.895 1000 615ZM1018 617C1019.1 617 1020 616.105 1020 615C1020 613.895 1019.1 613 1018 613C1016.9 613 1016 613.895 1016 615C1016 616.105 1016.9 617 1018 617ZM1040 615C1040 616.105 1039.1 617 1038 617C1036.9 617 1036 616.105 1036 615C1036 613.895 1036.9 613 1038 613C1039.1 613 1040 613.895 1040 615ZM1058 617C1059.1 617 1060 616.105 1060 615C1060 613.895 1059.1 613 1058 613C1056.9 613 1056 613.895 1056 615C1056 616.105 1056.9 617 1058 617ZM1080 615C1080 616.105 1079.1 617 1078 617C1076.9 617 1076 616.105 1076 615C1076 613.895 1076.9 613 1078 613C1079.1 613 1080 613.895 1080 615ZM1098 617C1099.1 617 1100 616.105 1100 615C1100 613.895 1099.1 613 1098 613C1096.9 613 1096 613.895 1096 615C1096 616.105 1096.9 617 1098 617ZM960 635C960 636.105 959.105 637 958 637C956.895 637 956 636.105 956 635C956 633.895 956.895 633 958 633C959.105 633 960 633.895 960 635ZM978 637C979.105 637 980 636.105 980 635C980 633.895 979.105 633 978 633C976.895 633 976 633.895 976 635C976 636.105 976.895 637 978 637ZM1000 635C1000 636.105 999.105 637 998 637C996.895 637 996 636.105 996 635C996 633.895 996.895 633 998 633C999.105 633 1000 633.895 1000 635ZM1018 637C1019.1 637 1020 636.105 1020 635C1020 633.895 1019.1 633 1018 633C1016.9 633 1016 633.895 1016 635C1016 636.105 1016.9 637 1018 637ZM1040 635C1040 636.105 1039.1 637 1038 637C1036.9 637 1036 636.105 1036 635C1036 633.895 1036.9 633 1038 633C1039.1 633 1040 633.895 1040 635ZM1058 637C1059.1 637 1060 636.105 1060 635C1060 633.895 1059.1 633 1058 633C1056.9 633 1056 633.895 1056 635C1056 636.105 1056.9 637 1058 637ZM1080 635C1080 636.105 1079.1 637 1078 637C1076.9 637 1076 636.105 1076 635C1076 633.895 1076.9 633 1078 633C1079.1 633 1080 633.895 1080 635ZM1098 637C1099.1 637 1100 636.105 1100 635C1100 633.895 1099.1 633 1098 633C1096.9 633 1096 633.895 1096 635C1096 636.105 1096.9 637 1098 637ZM960 655C960 656.105 959.105 657 958 657C956.895 657 956 656.105 956 655C956 653.895 956.895 653 958 653C959.105 653 960 653.895 960 655ZM978 657C979.105 657 980 656.105 980 655C980 653.895 979.105 653 978 653C976.895 653 976 653.895 976 655C976 656.105 976.895 657 978 657ZM1000 655C1000 656.105 999.105 657 998 657C996.895 657 996 656.105 996 655C996 653.895 996.895 653 998 653C999.105 653 1000 653.895 1000 655ZM1018 657C1019.1 657 1020 656.105 1020 655C1020 653.895 1019.1 653 1018 653C1016.9 653 1016 653.895 1016 655C1016 656.105 1016.9 657 1018 657ZM1040 655C1040 656.105 1039.1 657 1038 657C1036.9 657 1036 656.105 1036 655C1036 653.895 1036.9 653 1038 653C1039.1 653 1040 653.895 1040 655ZM1058 657C1059.1 657 1060 656.105 1060 655C1060 653.895 1059.1 653 1058 653C1056.9 653 1056 653.895 1056 655C1056 656.105 1056.9 657 1058 657ZM1080 655C1080 656.105 1079.1 657 1078 657C1076.9 657 1076 656.105 1076 655C1076 653.895 1076.9 653 1078 653C1079.1 653 1080 653.895 1080 655ZM1098 657C1099.1 657 1100 656.105 1100 655C1100 653.895 1099.1 653 1098 653C1096.9 653 1096 653.895 1096 655C1096 656.105 1096.9 657 1098 657ZM960 675C960 676.105 959.105 677 958 677C956.895 677 956 676.105 956 675C956 673.895 956.895 673 958 673C959.105 673 960 673.895 960 675ZM978 677C979.105 677 980 676.105 980 675C980 673.895 979.105 673 978 673C976.895 673 976 673.895 976 675C976 676.105 976.895 677 978 677ZM1000 675C1000 676.105 999.105 677 998 677C996.895 677 996 676.105 996 675C996 673.895 996.895 673 998 673C999.105 673 1000 673.895 1000 675ZM1018 677C1019.1 677 1020 676.105 1020 675C1020 673.895 1019.1 673 1018 673C1016.9 673 1016 673.895 1016 675C1016 676.105 1016.9 677 1018 677ZM1040 675C1040 676.105 1039.1 677 1038 677C1036.9 677 1036 676.105 1036 675C1036 673.895 1036.9 673 1038 673C1039.1 673 1040 673.895 1040 675ZM1058 677C1059.1 677 1060 676.105 1060 675C1060 673.895 1059.1 673 1058 673C1056.9 673 1056 673.895 1056 675C1056 676.105 1056.9 677 1058 677ZM1080 675C1080 676.105 1079.1 677 1078 677C1076.9 677 1076 676.105 1076 675C1076 673.895 1076.9 673 1078 673C1079.1 673 1080 673.895 1080 675ZM1098 677C1099.1 677 1100 676.105 1100 675C1100 673.895 1099.1 673 1098 673C1096.9 673 1096 673.895 1096 675C1096 676.105 1096.9 677 1098 677ZM960 695C960 696.105 959.105 697 958 697C956.895 697 956 696.105 956 695C956 693.895 956.895 693 958 693C959.105 693 960 693.895 960 695ZM978 697C979.105 697 980 696.105 980 695C980 693.895 979.105 693 978 693C976.895 693 976 693.895 976 695C976 696.105 976.895 697 978 697ZM1000 695C1000 696.105 999.105 697 998 697C996.895 697 996 696.105 996 695C996 693.895 996.895 693 998 693C999.105 693 1000 693.895 1000 695ZM1018 697C1019.1 697 1020 696.105 1020 695C1020 693.895 1019.1 693 1018 693C1016.9 693 1016 693.895 1016 695C1016 696.105 1016.9 697 1018 697ZM1040 695C1040 696.105 1039.1 697 1038 697C1036.9 697 1036 696.105 1036 695C1036 693.895 1036.9 693 1038 693C1039.1 693 1040 693.895 1040 695ZM1058 697C1059.1 697 1060 696.105 1060 695C1060 693.895 1059.1 693 1058 693C1056.9 693 1056 693.895 1056 695C1056 696.105 1056.9 697 1058 697ZM1080 695C1080 696.105 1079.1 697 1078 697C1076.9 697 1076 696.105 1076 695C1076 693.895 1076.9 693 1078 693C1079.1 693 1080 693.895 1080 695ZM1098 697C1099.1 697 1100 696.105 1100 695C1100 693.895 1099.1 693 1098 693C1096.9 693 1096 693.895 1096 695C1096 696.105 1096.9 697 1098 697ZM960 715C960 716.105 959.105 717 958 717C956.895 717 956 716.105 956 715C956 713.895 956.895 713 958 713C959.105 713 960 713.895 960 715ZM978 717C979.105 717 980 716.105 980 715C980 713.895 979.105 713 978 713C976.895 713 976 713.895 976 715C976 716.105 976.895 717 978 717ZM1000 715C1000 716.105 999.105 717 998 717C996.895 717 996 716.105 996 715C996 713.895 996.895 713 998 713C999.105 713 1000 713.895 1000 715ZM1018 717C1019.1 717 1020 716.105 1020 715C1020 713.895 1019.1 713 1018 713C1016.9 713 1016 713.895 1016 715C1016 716.105 1016.9 717 1018 717ZM1040 715C1040 716.105 1039.1 717 1038 717C1036.9 717 1036 716.105 1036 715C1036 713.895 1036.9 713 1038 713C1039.1 713 1040 713.895 1040 715ZM1058 717C1059.1 717 1060 716.105 1060 715C1060 713.895 1059.1 713 1058 713C1056.9 713 1056 713.895 1056 715C1056 716.105 1056.9 717 1058 717ZM1080 715C1080 716.105 1079.1 717 1078 717C1076.9 717 1076 716.105 1076 715C1076 713.895 1076.9 713 1078 713C1079.1 713 1080 713.895 1080 715ZM1098 717C1099.1 717 1100 716.105 1100 715C1100 713.895 1099.1 713 1098 713C1096.9 713 1096 713.895 1096 715C1096 716.105 1096.9 717 1098 717ZM960 735C960 736.105 959.105 737 958 737C956.895 737 956 736.105 956 735C956 733.895 956.895 733 958 733C959.105 733 960 733.895 960 735ZM978 737C979.105 737 980 736.105 980 735C980 733.895 979.105 733 978 733C976.895 733 976 733.895 976 735C976 736.105 976.895 737 978 737ZM1000 735C1000 736.105 999.105 737 998 737C996.895 737 996 736.105 996 735C996 733.895 996.895 733 998 733C999.105 733 1000 733.895 1000 735ZM1018 737C1019.1 737 1020 736.105 1020 735C1020 733.895 1019.1 733 1018 733C1016.9 733 1016 733.895 1016 735C1016 736.105 1016.9 737 1018 737ZM1040 735C1040 736.105 1039.1 737 1038 737C1036.9 737 1036 736.105 1036 735C1036 733.895 1036.9 733 1038 733C1039.1 733 1040 733.895 1040 735ZM1058 737C1059.1 737 1060 736.105 1060 735C1060 733.895 1059.1 733 1058 733C1056.9 733 1056 733.895 1056 735C1056 736.105 1056.9 737 1058 737ZM1080 735C1080 736.105 1079.1 737 1078 737C1076.9 737 1076 736.105 1076 735C1076 733.895 1076.9 733 1078 733C1079.1 733 1080 733.895 1080 735ZM1098 737C1099.1 737 1100 736.105 1100 735C1100 733.895 1099.1 733 1098 733C1096.9 733 1096 733.895 1096 735C1096 736.105 1096.9 737 1098 737Z" fill="#7ABADD"/>
</svg>
