<svg width="195" height="85" viewBox="0 0 195 85" fill="none" xmlns="http://www.w3.org/2000/svg">
<path fill-rule="evenodd" clip-rule="evenodd" d="M31.5722 32.7604H23V53.2786H32.0646C37.2341 53.2786 39.9853 51.2414 39.9853 47.4014C39.9853 45.3203 38.5951 43.5764 36.3219 42.7994C38.2187 42.0962 39.3772 40.4401 39.3772 38.4468C39.3772 34.7389 36.6549 32.7604 31.5722 32.7604V32.7604ZM27.3153 36.5122H31.4564C33.3532 36.5122 34.8739 36.9374 34.8739 38.7399C34.8739 40.6305 33.3823 41.0262 31.4564 41.0262H27.3153V36.512V36.5122ZM27.3153 44.8953H31.862C34.1063 44.8953 35.4963 45.3789 35.4963 47.1964C35.4963 49.0285 34.1065 49.5265 31.862 49.5265H27.3151V44.8953H27.3153ZM53.0247 32.3794C46.6822 32.3794 42.2222 36.8786 42.2222 43.0194C42.2222 49.1603 46.6823 53.6597 53.0247 53.6597C59.3524 53.6597 63.827 49.1603 63.827 43.0194C63.827 36.8786 59.3524 32.3794 53.0247 32.3794ZM53.0247 36.3072C56.6879 36.3072 59.3089 39.0331 59.3089 43.0194C59.3089 47.006 56.6879 49.7319 53.0247 49.7319C49.3753 49.7319 46.7256 47.006 46.7256 43.0194C46.7256 39.0331 49.3755 36.307 53.0247 36.307V36.3072ZM85.3662 53.2786V32.7604H81.0219V45.8187L71.0887 32.7604H66.8456V53.2786H71.1899V40.1173L81.167 53.2784H85.3662V53.2786ZM99.2308 32.3794C92.8886 32.3794 88.4285 36.8786 88.4285 43.0194C88.4285 49.1603 92.8884 53.6597 99.2308 53.6597C105.559 53.6597 110.033 49.1603 110.033 43.0194C110.033 36.8786 105.559 32.3794 99.2308 32.3794ZM99.2308 36.3072C102.894 36.3072 105.515 39.0331 105.515 43.0194C105.515 47.006 102.894 49.7319 99.2308 49.7319C95.5818 49.7319 92.9317 47.006 92.9317 43.0194C92.9317 39.0331 95.5818 36.307 99.2308 36.307V36.3072ZM121.552 32.7602H112.98V53.2784H122.044C127.214 53.2784 129.965 51.2412 129.965 47.4012C129.965 45.3201 128.575 43.5763 126.301 42.7992C128.198 42.096 129.357 40.4399 129.357 38.4467C129.357 34.7387 126.635 32.7602 121.552 32.7602V32.7602ZM117.295 36.512H121.436C123.333 36.512 124.853 36.9372 124.853 38.7397C124.853 40.6303 123.362 41.026 121.436 41.026H117.295V36.512V36.512ZM117.295 44.8951H121.842C124.086 44.8951 125.476 45.3787 125.476 47.1962C125.476 49.0283 124.086 49.5263 121.842 49.5263H117.295V44.8953L117.295 44.8951ZM143.004 32.3794C136.662 32.3794 132.202 36.8786 132.202 43.0194C132.202 49.1603 136.662 53.6597 143.004 53.6597C149.332 53.6597 153.807 49.1603 153.807 43.0194C153.807 36.8786 149.332 32.3794 143.004 32.3794ZM143.004 36.3072C146.668 36.3072 149.289 39.0331 149.289 43.0194C149.289 47.006 146.668 49.7319 143.004 49.7319C139.355 49.7319 136.705 47.006 136.705 43.0194C136.705 39.0331 139.355 36.307 143.004 36.307V36.3072ZM164.558 53.6447C168.873 53.6447 173 51.7394 173 47.3576C173 44.0747 170.9 42.2572 167.367 41.378L164.934 40.7771C161.604 39.9565 160.981 39.5461 160.981 38.3588C160.981 37.1716 162.14 36.307 164.558 36.307C166.469 36.307 167.831 37.0546 168.743 38.5054L172.435 36.6002C171.509 33.9769 168.438 32.394 164.616 32.394C159.881 32.394 156.449 35.0027 156.449 38.7253C156.449 42.7556 159.577 44.1773 162.299 44.7927L165.253 45.4669C167.599 45.9944 168.438 46.3904 168.438 47.6214C168.438 49.1163 166.889 49.7319 164.703 49.7319C162.154 49.7319 160.199 48.4276 159.302 46.6248L155.638 48.8229C157.231 52.1498 160.547 53.6447 164.558 53.6447V53.6447Z" fill="#575757"/>
</svg>
