<?xml version="1.0" encoding="utf-8"?>
<svg width="342px" height="100px" viewBox="0 0 342 100" version="1.1" xmlns:xlink="http://www.w3.org/1999/xlink" xmlns="http://www.w3.org/2000/svg">
  <desc>Created with Lunacy</desc>
  <g id="Group">
    <path d="M177.453 23.0855C175.399 27.9362 171.638 30.7743 166.59 31.9449C164.987 32.3165 162.804 32.4891 161.665 32.4891C158.144 32.4842 154.796 31.8126 151.759 29.9368C148.211 27.7446 146.022 24.58 145.104 20.5399C144.38 17.3527 144.431 14.1567 145.367 11.0235C146.679 6.63031 149.46 3.42191 153.69 1.66508C159.049 -0.560718 164.521 -0.577973 169.841 1.75179C174.973 3.99926 177.778 8.13143 178.541 13.6391C178.988 16.8691 178.735 20.0554 177.453 23.0855ZM203.23 11.9349L211.628 10.3661C211.593 10.1878 211.576 10.0511 211.54 9.91967C210.299 5.43313 207.331 2.56451 203.049 0.981544C200.27 -0.0457461 197.383 -0.124496 194.49 0.354198C189.482 1.18284 185.55 3.68249 183.33 8.31415C180.603 14.0018 180.734 20.1806 184.099 25.352C185.874 28.08 188.603 30.116 191.652 31.2831C194.04 32.1971 195.515 32.4891 198.054 32.4891C202.036 32.4891 205.65 31.7715 209.463 28.7352C213.276 25.6993 215.308 20.3452 214.636 14.0156L194.836 14.0156L194.836 19.2896L205.753 19.2896C205.827 20.189 205.381 21.4791 204.713 22.3268C203.466 23.9111 201.803 24.7543 199.82 24.9472C196.581 25.2627 193.897 24.2619 192.066 21.461C191.212 20.1545 190.799 18.6746 190.708 17.1191C190.567 14.6801 190.976 12.3711 192.477 10.3639C195.196 6.72853 201.244 7.01521 203.095 11.5752C203.205 11.8468 203.23 11.9349 203.23 11.9349ZM125.413 31.4353C121.055 31.4565 111.991 31.4207 111.991 31.4207L111.991 1.18284C111.991 1.18284 121.948 1.13639 126.692 1.20452C129.175 1.23991 131.6 1.71507 133.888 2.73351C138.133 4.62395 140.602 7.9173 141.457 12.4397C142.05 15.5676 141.965 18.6795 141.06 21.7508C139.903 25.6794 137.378 28.3751 133.636 29.9647C131.009 31.0804 128.235 31.4215 125.413 31.4353ZM22.2332 15.9507C22.4973 15.8565 22.7623 15.7649 23.0269 15.6724C24.7399 15.0738 26.0694 14.0169 26.775 12.3229C27.9204 9.57415 27.5537 4.9978 23.6578 2.78439C21.6872 1.66552 19.5366 1.22001 17.3117 1.2001C11.6838 1.15099 0 1.2001 0 1.2001L0 31.4233C0 31.4233 11.252 31.4733 16.6508 31.4242C18.1059 31.4114 19.5831 31.2817 21.0081 30.9968C25.5871 30.0815 28.0142 27.0345 27.866 22.5489C27.7594 19.3285 25.8597 16.9744 22.7358 16.1892C22.557 16.1445 22.3814 16.0878 22.2071 16.0378C22.2239 15.979 22.2248 15.9538 22.2332 15.9507ZM31.4049 21.7848C31.2925 20.9672 31.2638 19.3069 31.2638 19.3069L31.2576 1.17886L40.4235 1.17886C40.4235 1.17886 40.3997 13.3922 40.4474 19.1573C40.4554 20.086 40.6235 21.0814 40.9947 21.9246C41.8694 23.9133 43.5519 24.7428 45.6852 24.7065C48.8326 24.6521 50.7292 22.6091 50.7354 19.2383C50.7451 13.4727 50.738 1.20718 50.738 1.20718L59.9036 1.20718C59.9036 1.20718 59.9089 13.7249 59.9014 19.7019C59.8974 22.6728 59.1869 25.4299 57.3008 27.7933C55.4104 30.162 52.8727 31.4768 49.9545 32.056C46.2413 32.793 42.5264 32.7461 38.9538 31.4007C34.5354 29.7364 32.0451 26.4528 31.4049 21.7848ZM64.6007 1.20364L64.6007 31.4176L84.7523 31.4176L84.7523 23.6434L73.7463 23.6434L73.7463 1.20364L64.6007 1.20364ZM88.3138 1.20541L97.432 1.20541L97.432 23.6545L108.467 23.6545L108.467 31.3985L88.3138 31.3985L88.3138 1.20541ZM9.1735 7.79873C9.1735 7.79873 13.7277 7.69344 15.9354 7.86333C17.4387 7.97924 18.1722 9.00653 18.1731 10.4572C18.1736 11.9482 17.3812 12.9573 15.9469 13.2435C15.5182 13.3289 15.0731 13.3621 14.6351 13.3657C12.9774 13.3798 9.1735 13.34 9.1735 13.34L9.1735 7.79873ZM153.872 17.4943C153.764 16.1821 153.813 14.8884 154.136 13.613C155.115 9.75465 158.348 7.57266 162.435 7.89075C166.439 8.20177 169.031 11.0815 169.463 14.8884C169.621 16.2878 169.559 17.6677 169.211 19.0299C168.297 22.6055 165.499 24.7061 161.663 24.711C157.326 24.7163 154.228 21.8348 153.872 17.4943ZM120.841 8.28627C120.841 8.28627 122.516 8.26637 123.339 8.29114C123.658 8.30075 123.977 8.30471 124.297 8.30867C125.214 8.32003 126.133 8.33141 127.029 8.47607C130.117 8.97379 131.84 10.9284 132.448 13.9227C132.815 15.7273 132.77 17.5314 132.291 19.3175C131.525 22.1688 129.353 24.0075 126.396 24.1553C124.568 24.2469 120.841 24.1721 120.841 24.1721L120.841 8.28627ZM14.1073 18.8489C13.9929 18.8479 13.8786 18.8469 13.7644 18.8454C12.2496 18.8264 9.18721 18.8401 9.18721 18.8401L9.18721 24.8618C9.18721 24.8618 13.5339 24.8853 15.685 24.8494C16.4464 24.8371 17.1936 24.63 17.7931 24.1102C18.7735 23.2594 18.8275 22.1547 18.554 21.0031C18.274 19.8236 17.4343 19.1706 16.2924 18.9808C15.5765 18.8618 14.8395 18.8553 14.1073 18.8489Z" transform="translate(126.7606 61.97168)" id="Fill-4" fill="#0a0a0a" fill-rule="evenodd" stroke="none" />
    <path d="M63.3115 23.0856C61.2582 27.9359 57.4968 30.7744 52.4489 31.9446C50.8455 32.3162 48.6627 32.4892 47.5239 32.4892C44.0027 32.4839 40.6545 31.8127 37.6182 29.9365C34.07 27.7443 31.8805 24.5801 30.9625 20.5395C30.2387 17.3528 30.2891 14.1564 31.2257 11.0236C32.5384 6.63042 35.3185 3.42202 39.5493 1.66474C44.9083 -0.560608 50.3797 -0.577862 55.6997 1.75146C60.8322 3.99893 63.6371 8.1311 64.3998 13.6392C64.8471 16.8693 64.5941 20.0555 63.3115 23.0856ZM89.4857 13.5795L97.6943 11.5107C97.6943 11.5107 97.6974 11.4041 97.697 11.3722C97.6961 11.2846 97.693 11.1957 97.6775 11.1099C96.7555 5.98936 93.7727 2.63054 88.8893 0.948473C85.9583 -0.06112 82.9278 -0.169954 79.9003 0.346345C74.6197 1.24666 70.7401 4.03565 68.6771 9.07787C67.2707 12.515 67.0415 16.1043 67.6635 19.7286C68.6059 25.2163 71.5741 29.1963 76.8335 31.219C81.3205 32.9444 85.919 32.9382 90.4652 31.4252C94.3921 30.1178 97.2461 27.5355 98.9189 23.7214C99.579 22.2163 99.9617 20.6338 100.083 18.9451L91.6142 17.8926C91.554 18.1819 91.5111 18.4058 91.4611 18.6279C90.6356 22.3039 87.7125 24.65 84.2524 24.6996C80.6095 24.7513 77.8568 22.7578 76.9238 19.2313C76.346 17.048 76.4229 14.8664 77.0344 12.7048C78.0187 9.22563 80.89 7.37811 84.455 7.95369C86.3963 8.26692 87.7528 9.41189 88.5858 11.1559C88.9464 11.9111 89.1747 12.7291 89.4857 13.5795ZM0.0898104 23.3524C0.69946 26.6573 2.49877 29.0777 5.4864 30.6271C8.08604 31.9751 10.8803 32.4454 13.7667 32.4711C16.9007 32.4989 19.9667 32.1136 22.8039 30.6678C25.9176 29.0808 27.9032 26.6444 28.2487 23.0817C28.4894 20.5966 28.0753 18.2726 26.3145 16.337C24.993 14.8841 23.2959 14.0431 21.4589 13.5861C19.2252 13.0309 16.9299 12.726 14.6701 12.2699C13.4494 12.0235 12.2138 11.781 11.0462 11.3652C9.93312 10.9688 9.4885 9.96004 9.72032 8.89957C9.90746 8.04129 10.4406 7.46703 11.2095 7.09098C12.1275 6.64148 13.1088 6.60565 14.1047 6.65918C16.0885 6.76492 17.7272 8.15631 18.1492 10.0976C18.1851 10.2635 18.2811 10.633 18.2811 10.633L26.3379 8.87657C26.3379 8.87657 26.3176 8.64917 26.3069 8.56466C26.2901 8.4253 26.2662 8.28594 26.2353 8.14879C25.5398 5.06338 23.5905 3.00128 20.8413 1.61873C18.6576 0.520215 16.3136 0.101689 13.8835 0.0844349C11.0569 0.0645261 8.32981 0.5065 5.81866 1.87489C2.8496 3.49281 1.00605 5.91238 0.737507 9.35526C0.52559 12.0721 1.18125 14.5085 3.34113 16.3516C4.58166 17.4099 6.04296 18.1204 7.6038 18.5013C9.99639 19.0853 12.4359 19.476 14.8404 20.0153C16.0013 20.2754 17.1883 20.5581 18.2559 21.0598C19.734 21.7544 19.8932 23.5772 18.6554 24.6549C18.2528 25.0053 17.7603 25.2902 17.2626 25.4862C15.9495 26.0034 14.5652 26.0454 13.1964 25.8092C10.914 25.4158 9.22172 24.2399 8.45855 21.9575C8.35326 21.6434 8.19841 20.9443 8.19841 20.9443L0 22.4981C0 22.4981 0.0402599 23.0825 0.0898104 23.3524ZM126.014 1.12367L137.256 1.12367L147.816 31.4177L138.232 31.4177L136.701 26.1343L126.565 26.1242L125.005 31.4177L115.502 31.4177L126.014 1.12367ZM103.564 31.3836L112.668 31.3836L112.668 1.17543L103.564 1.17543L103.564 31.3836ZM150.699 1.18118L159.839 1.18118L159.839 23.6378L170.907 23.628L170.907 31.3823L150.699 31.3823L150.699 1.18118ZM39.7307 17.4939C39.6232 16.1822 39.6714 14.8886 39.9949 13.6126C40.9735 9.75476 44.2066 7.57277 48.2932 7.89042C52.298 8.20188 54.8901 11.0816 55.3219 14.8881C55.4803 16.2875 55.4179 17.6678 55.0697 19.03C54.1557 22.6056 51.3583 24.7062 47.5221 24.7111C43.1847 24.7164 40.0864 21.8349 39.7307 17.4939ZM135.214 19.8848L128.071 19.8848L131.6 8.12136L131.726 8.12136L135.214 19.8848Z" transform="translate(126.249 19.15234)" id="Fill-7" fill="#0a0a0a" fill-rule="evenodd" stroke="none" />
    <path d="M20.9257 41.2475L22.4038 43.2558C21.2105 44.031 20.7151 44.4845 19.4506 45.9874C18.1861 47.4904 17.4214 48.463 17.0391 50.8499C16.6568 53.2369 15.4217 55.683 15.1276 56.8913C14.8335 58.0995 12.9219 60.7223 11.8045 62.4316C10.6869 64.1408 10.6282 65.7322 10.3929 68.5023C10.1576 71.2725 9.01069 72.1565 8.56951 73.63C8.1285 75.1035 8.01088 75.634 7.01092 76.0761C6.01111 76.518 5.45232 77.7851 5.42287 79.2293C5.39359 80.6733 4.3349 83.4435 3.98189 85.3294C3.62905 87.2155 2.45273 89.0721 1.77633 90.3687C1.62683 90.6553 1.44429 90.9606 1.25379 91.2792C0.582377 92.4022 -0.187884 93.6905 0.0412273 94.9071C0.335345 96.469 4.77591 96.7932 6.86386 96.2921C8.95196 95.7912 9.39298 93.2863 9.36354 92.0486C9.35288 91.5984 9.22549 91.3041 9.09317 90.9985C8.86171 90.4638 8.61516 89.8943 8.95196 88.3943C9.48131 86.0367 10.0988 84.0623 10.5693 83.3256C11.0399 82.5888 12.5985 81.5574 14.7746 79.2587C16.9509 76.9601 20.921 71.7144 21.3033 71.1546C21.6856 70.5946 22.6854 70.7715 23.9206 69.3568C25.1558 67.9423 26.5673 67.1762 26.5673 67.1762C26.5673 67.1762 26.8614 67.5593 26.9791 68.9149C27.0678 69.9373 26.0522 70.7754 24.8159 71.7959C24.4131 72.1283 23.9869 72.48 23.5677 72.8638C21.8621 74.4257 22.2738 76.4001 23.0384 78.1684C23.803 79.9365 23.5972 81.9404 23.8617 84.5044C24.1264 87.0681 23.9206 89.1016 24.7146 91.6949C25.4099 93.966 27.2779 93.751 29.7657 93.4646C30.1188 93.424 30.4843 93.3819 30.8608 93.3453C33.809 93.0584 33.7206 91.8224 33.6324 90.5881C33.63 90.5543 33.6275 90.5204 33.6252 90.4866C33.537 89.2195 31.0373 88.2176 29.9786 87.5986C28.9199 86.9798 29.1552 82.8245 29.4199 82.2352C29.6845 81.6457 30.6551 79.7598 31.2431 78.9051C31.8314 78.0504 31.4196 77.9032 34.9486 75.2509C38.4776 72.5986 38.5658 71.9503 39.4775 69.7399C40.3891 67.5297 41.4183 66.6752 42.7123 66.4983C44.0064 66.3215 46.5353 66.4983 46.5353 66.4983C52.7571 68.665 53.0035 69.0238 53.3841 69.5779C53.5108 69.7625 53.6524 69.9686 54.0344 70.2704C55.5637 71.4787 62.4746 75.3246 62.4746 75.3246C62.093 79.872 62.4692 81.6351 62.9946 84.0976C63.0361 84.2921 63.0785 84.491 63.1216 84.6959C63.7097 87.4954 64.2685 90.2951 64.2096 92.1517C64.1928 92.6827 64.0966 93.397 63.9918 94.1746C63.7304 96.1154 63.416 98.4502 64.1508 99.3128C64.9485 100.249 66.5588 100.017 67.859 99.8301C68.2365 99.7758 68.5878 99.7252 68.8855 99.708C69.2573 99.6866 69.6036 99.7251 69.9367 99.7621C70.7893 99.8569 71.5557 99.9422 72.4439 98.9887C73.6789 97.6626 73.0027 94.6271 71.6204 94.1261C70.9577 93.8859 70.66 93.7812 70.5233 93.5715C70.3748 93.344 70.4159 92.9929 70.3852 92.2107C70.3265 90.7077 70.4736 88.0259 70.944 86.8766C71.4146 85.7273 71.738 84.136 71.7675 81.9846C71.7969 79.8333 72.2379 79.5387 72.5026 77.6526C72.7673 75.7665 72.8851 75.8844 74.7376 74.8234C76.5903 73.7625 80.3841 72.4954 80.3841 72.4954C80.5974 73.4452 80.3141 74.797 79.9499 76.535C79.8621 76.9539 79.7696 77.3952 79.6783 77.8588C79.33 79.6257 79.4973 81.8448 79.6554 83.9422C79.711 84.6784 79.7653 85.3995 79.7959 86.0809C79.8968 88.3315 79.7596 88.6292 79.4585 89.2828C79.4087 89.3909 79.3544 89.5087 79.296 89.6467C78.8842 90.6193 80.0605 91.4738 80.0605 91.4738C80.0605 91.4738 79.9429 94.7156 79.8253 96.9553C79.7077 99.195 82.1485 99.9612 83.0014 99.6371C83.4955 99.4492 84.1771 99.4394 84.829 99.43C85.3023 99.4232 85.7599 99.4167 86.1186 99.3423C86.9715 99.1655 87.0008 98.2519 87.7655 98.075C88.5301 97.8983 88.9124 97.5446 88.9711 96.1596C89.0171 95.0785 88.1136 94.4643 87.505 94.0505C87.3338 93.9341 87.1859 93.8336 87.0891 93.743C86.6479 93.3304 86.2657 91.6212 86.2657 89.2048C86.2657 86.7882 86.8832 85.9926 87.7655 84.077C88.6477 82.1615 87.8243 82.0436 89.4417 79.8039C91.0592 77.5643 92.059 73.792 92.3237 71.1988C92.5884 68.6055 94.5587 64.7154 95.5585 62.2989C96.5585 59.8825 96.7643 58.4973 96.5585 56.5228C96.3525 54.5484 96.6467 53.9589 97.2055 52.8392C97.7642 51.7192 97.5583 42.8195 97.5583 42.8195C97.5583 42.8195 102.646 41.8174 103.469 41.2281C103.766 41.0159 104.093 41.0481 104.472 41.0856C105.147 41.1521 105.987 41.235 107.116 39.9903C108.814 38.1184 109.314 38.1573 110.398 38.2416C110.44 38.2449 110.483 38.2483 110.527 38.2516C111.704 38.3401 113.409 38.0159 113.615 36.7781C113.821 35.5405 113.968 35.6583 114.997 34.8331C116.027 34.0079 116.879 33.2713 117.291 30.8254C117.689 28.4634 116.523 27.1732 115.463 25.9994C115.425 25.9576 115.388 25.9159 115.35 25.8744C114.262 24.6661 114.115 22.4854 113.527 19.6267C112.939 16.7682 109.41 14.2338 108.498 12.9962C107.887 12.1661 108.082 10.9914 108.366 9.28556C108.505 8.44772 108.666 7.48173 108.763 6.36548C109.057 2.97636 107.234 0 107.234 0C104.999 1.65038 102.558 7.16117 101.411 9.31234C100.264 11.4637 97.4996 10.9922 97.4996 10.9922C95.8821 9.78395 94.7352 8.8409 93.3824 5.5993C92.0296 2.35755 89.7946 0.353584 89.7946 0.353584C87.8537 1.32614 86.9126 2.79965 86.4127 3.35961C85.9128 3.91942 85.5892 5.54029 85.1481 7.48525C84.7071 9.43036 84.6776 16.3556 84.7071 16.6799C84.7365 17.004 85.4716 17.8587 85.4716 17.8587C85.4716 17.8587 82.7367 19.892 81.4721 21.0707C80.2076 22.2495 74.0319 29.234 73.0614 29.8528C72.091 30.4716 68.0915 31.7094 65.9447 31.8863C63.7978 32.063 63.0038 33.3008 63.0038 33.3008C61.9451 33.4776 60.2102 35.01 60.2102 35.01C56.74 34.5384 49.5643 34.3617 44.6533 34.4205C39.7421 34.4795 36.5966 36.351 34.3463 36.6223C32.096 36.8938 31.873 37.256 30.1445 37.6828C29.1915 37.9181 29.0152 37.8863 28.5241 37.7978C28.1244 37.7258 27.5162 37.6162 26.1113 37.5823C22.98 37.507 20.9257 41.2475 20.9257 41.2475ZM100.581 22.9682C100.878 20.8475 102.197 19.2488 103.78 19.2488C105.582 19.2488 107.042 21.3207 107.042 23.8764C107.042 26.4321 105.582 28.5039 103.78 28.5039C102.357 28.5039 101.147 27.2106 100.701 25.4076C100.851 31.0692 100.597 34.3256 99.8609 36.4449C99.5174 37.4336 99.0185 38.6931 98.2031 39.6628C97.2934 40.7448 96.1241 41.3006 94.7279 41.3146L94.6937 41.3146C92.1757 41.3146 91.2302 38.5443 91.0822 37.0728C91.0632 36.8859 91.1539 36.6228 91.4634 36.5976C91.7665 36.5729 91.8729 36.7492 91.9204 37.0035C91.9496 37.159 92.2412 40.4491 94.6935 40.4632L94.7213 40.4632C97.3479 40.4372 98.3038 38.3873 99.0572 36.2191C99.7861 34.1211 100.022 30.8088 99.8456 24.9288L99.546 24.9288L99.546 22.9682L100.581 22.9682Z" id="Combined-Shape" fill="#0a0a0a" fill-rule="evenodd" stroke="none" />
  </g>
</svg>