<svg width="195" height="85" viewBox="0 0 195 85" fill="none" xmlns="http://www.w3.org/2000/svg">
<path d="M85.8066 16H109.193V39.3868H85.8066V16Z" fill="white"/>
<path d="M93.0024 21.4618C93.0952 21.442 93.2065 21.4024 93.2992 21.4024C93.7814 21.3825 94.2636 21.4222 94.7458 21.442C94.82 21.4222 94.8571 21.5015 94.8756 21.5609C95.5989 23.1666 96.3222 24.7921 97.0641 26.3977C97.231 26.7347 97.3608 27.0716 97.5462 27.3889C97.6946 27.1311 97.8244 26.8537 97.9543 26.5761C98.7889 24.8515 99.5678 23.1269 100.384 21.4024C100.922 21.4222 101.459 21.3627 101.997 21.4618C101.905 21.7988 101.719 22.0763 101.589 22.3935C100.514 24.5938 99.4194 26.7942 98.3438 28.9945C98.3067 29.0737 98.2882 29.1729 98.2882 29.272C98.2882 30.838 98.2882 32.4238 98.2882 33.9898C97.7688 33.9898 97.2495 33.9898 96.7302 33.9898C96.7302 32.4635 96.7302 30.9173 96.7302 29.391C96.7302 29.2324 96.7488 29.054 96.656 28.8953C95.6546 26.8932 94.6716 24.8912 93.6701 22.8693C93.4476 22.3935 93.2065 21.9376 93.0024 21.4618Z" fill="#080808"/>
<path d="M45.96 67.3867C44.9379 67.3867 44.0031 67.2116 43.1558 66.8615C42.3085 66.5113 41.5755 66.013 40.9569 65.3665C40.3382 64.7066 39.854 63.9322 39.5043 63.0433C39.1681 62.1409 39 61.1578 39 60.0938C39 59.0702 39.1816 58.1207 39.5447 57.2453C39.9078 56.3699 40.4122 55.6022 41.0577 54.9423C41.7033 54.2823 42.4565 53.7706 43.3172 53.4069C44.178 53.0433 45.1127 52.8615 46.1214 52.8615C46.8073 52.8615 47.473 52.9625 48.1186 53.1645C48.7642 53.3665 49.3559 53.6493 49.8939 54.013C50.4319 54.3632 50.8824 54.7739 51.2456 55.2453L49.5711 57.0837C49.2214 56.7201 48.8583 56.417 48.4817 56.1746C48.1186 55.9187 47.7353 55.7302 47.3318 55.6089C46.9418 55.4743 46.5383 55.4069 46.1214 55.4069C45.5027 55.4069 44.9177 55.5214 44.3663 55.7504C43.8283 55.9793 43.3576 56.3025 42.9541 56.7201C42.5641 57.1376 42.2547 57.6359 42.0261 58.215C41.7974 58.7807 41.6831 59.4137 41.6831 60.114C41.6831 60.8278 41.7907 61.4743 42.0059 62.0534C42.2346 62.6325 42.5506 63.1308 42.9541 63.5483C43.371 63.9658 43.8619 64.2891 44.4268 64.518C45.0051 64.7335 45.6372 64.8413 46.3231 64.8413C46.767 64.8413 47.1973 64.7807 47.6143 64.6594C48.0312 64.5382 48.4145 64.3699 48.7642 64.1544C49.1273 63.9254 49.4568 63.6628 49.7527 63.3665L51.0438 65.4473C50.721 65.811 50.2907 66.1409 49.7527 66.4372C49.2147 66.7335 48.6095 66.9692 47.937 67.1443C47.278 67.3059 46.619 67.3867 45.96 67.3867Z" fill="white"/>
<path d="M58.1772 67.3867C57.1147 67.3867 56.1665 67.151 55.3327 66.6796C54.4988 66.1948 53.8398 65.5349 53.3556 64.6998C52.8715 63.8648 52.6294 62.9153 52.6294 61.8514C52.6294 60.7874 52.8715 59.8379 53.3556 59.0029C53.8398 58.1679 54.4988 57.5147 55.3327 57.0433C56.1665 56.5584 57.1147 56.316 58.1772 56.316C59.2262 56.316 60.1677 56.5584 61.0015 57.0433C61.8354 57.5147 62.4877 58.1679 62.9584 59.0029C63.4426 59.8379 63.6847 60.7874 63.6847 61.8514C63.6847 62.9153 63.4426 63.8648 62.9584 64.6998C62.4877 65.5349 61.8354 66.1948 61.0015 66.6796C60.1677 67.151 59.2262 67.3867 58.1772 67.3867ZM58.1772 65.1847C58.7555 65.1847 59.2666 65.0366 59.7104 64.7403C60.1677 64.444 60.5241 64.0467 60.7796 63.5483C61.0486 63.05 61.1764 62.4844 61.1629 61.8514C61.1764 61.2049 61.0486 60.6325 60.7796 60.1342C60.5241 59.6359 60.1677 59.2453 59.7104 58.9625C59.2666 58.6662 58.7555 58.518 58.1772 58.518C57.5989 58.518 57.0744 58.6662 56.6036 58.9625C56.1464 59.2453 55.7899 59.6426 55.5344 60.1544C55.2789 60.6527 55.1511 61.2184 55.1511 61.8514C55.1511 62.4844 55.2789 63.05 55.5344 63.5483C55.7899 64.0467 56.1464 64.444 56.6036 64.7403C57.0744 65.0366 57.5989 65.1847 58.1772 65.1847Z" fill="white"/>
<path d="M65.8639 67.1847V56.5382H68.305L68.3453 58.6796L67.9418 58.8413C68.0629 58.4911 68.2444 58.1679 68.4865 57.8716C68.7286 57.5618 69.0178 57.2992 69.354 57.0837C69.6902 56.8547 70.0466 56.6796 70.4232 56.5584C70.7998 56.4238 71.1831 56.3564 71.5731 56.3564C72.1515 56.3564 72.6625 56.4507 73.1064 56.6392C73.5636 56.8143 73.9402 57.0972 74.2361 57.4877C74.5454 57.8783 74.7741 58.3766 74.922 58.9827L74.5387 58.9019L74.7001 58.5786C74.848 58.2554 75.0565 57.9658 75.3255 57.71C75.5945 57.4406 75.8971 57.2049 76.2333 57.0029C76.5695 56.7874 76.9192 56.6258 77.2824 56.518C77.6589 56.4103 78.0288 56.3564 78.3919 56.3564C79.1989 56.3564 79.8713 56.518 80.4093 56.8413C80.9473 57.1645 81.3508 57.6561 81.6197 58.316C81.8887 58.9759 82.0232 59.7908 82.0232 60.7605V67.1847H79.5217V60.9221C79.5217 60.3834 79.4477 59.9389 79.2997 59.5887C79.1653 59.2386 78.9501 58.9827 78.6542 58.8211C78.3717 58.646 78.0153 58.5584 77.585 58.5584C77.2487 58.5584 76.9259 58.619 76.6166 58.7403C76.3207 58.848 76.0652 59.0096 75.85 59.2251C75.6348 59.4271 75.4667 59.6628 75.3457 59.9322C75.2246 60.2015 75.1641 60.4978 75.1641 60.8211V67.1847H72.6625V60.9019C72.6625 60.3901 72.5886 59.9658 72.4406 59.6291C72.2927 59.279 72.0775 59.0163 71.7951 58.8413C71.5126 58.6527 71.1697 58.5584 70.7662 58.5584C70.4299 58.5584 70.1139 58.619 69.818 58.7403C69.5221 58.848 69.2666 59.0029 69.0514 59.2049C68.8362 59.4069 68.6681 59.6426 68.5471 59.912C68.426 60.1813 68.3655 60.4776 68.3655 60.8009V67.1847H65.8639Z" fill="white"/>
<path d="M90.6485 67.3867C90.1778 67.3867 89.7138 67.3194 89.2565 67.1847C88.8127 67.0366 88.4092 66.8413 88.0461 66.5988C87.683 66.3564 87.3803 66.0871 87.1383 65.7908C86.8962 65.481 86.7348 65.1712 86.6541 64.8615L87.2391 64.5988L87.1786 67.1443H84.7779V52.2352H87.2593V59.0029L86.8155 58.8009C86.8827 58.4776 87.0307 58.1746 87.2593 57.8918C87.5014 57.5955 87.7973 57.3328 88.147 57.1039C88.4966 56.8615 88.8799 56.6729 89.2969 56.5382C89.7138 56.3901 90.1374 56.316 90.5678 56.316C91.5227 56.316 92.3633 56.5517 93.0896 57.0231C93.8293 57.4945 94.4076 58.1477 94.8245 58.9827C95.2549 59.8177 95.4701 60.7672 95.4701 61.8312C95.4701 62.9086 95.2616 63.8648 94.8447 64.6998C94.4278 65.5349 93.8494 66.1948 93.1097 66.6796C92.3835 67.151 91.5631 67.3867 90.6485 67.3867ZM90.124 65.2049C90.6889 65.2049 91.1932 65.0635 91.637 64.7807C92.0809 64.4844 92.4305 64.0871 92.6861 63.5887C92.9416 63.077 93.0694 62.4911 93.0694 61.8312C93.0694 61.1847 92.9416 60.6123 92.6861 60.114C92.444 59.6157 92.101 59.2251 91.6572 58.9423C91.2134 58.6594 90.7023 58.518 90.124 58.518C89.5457 58.518 89.0346 58.6594 88.5908 58.9423C88.147 59.2251 87.7973 59.6157 87.5417 60.114C87.2862 60.6123 87.1584 61.1847 87.1584 61.8312C87.1584 62.4911 87.2862 63.077 87.5417 63.5887C87.7973 64.0871 88.147 64.4844 88.5908 64.7807C89.0346 65.0635 89.5457 65.2049 90.124 65.2049Z" fill="white"/>
<path d="M97.9646 67.1847V56.5382H100.446V67.1847H97.9646ZM99.175 54.2756C98.6774 54.2756 98.2873 54.1544 98.0049 53.912C97.7359 53.6561 97.6014 53.2992 97.6014 52.8413C97.6014 52.4103 97.7426 52.0601 98.0251 51.7908C98.3075 51.5214 98.6908 51.3867 99.175 51.3867C99.6861 51.3867 100.076 51.5147 100.345 51.7706C100.628 52.013 100.769 52.3699 100.769 52.8413C100.769 53.2588 100.628 53.6022 100.345 53.8716C100.063 54.1409 99.6726 54.2756 99.175 54.2756Z" fill="white"/>
<path d="M103.592 67.1847V56.5382H106.013L106.054 58.7201L105.59 58.9625C105.724 58.4776 105.986 58.0399 106.376 57.6493C106.766 57.2453 107.23 56.9221 107.768 56.6796C108.306 56.4372 108.858 56.316 109.423 56.316C110.23 56.316 110.902 56.4776 111.44 56.8009C111.992 57.1241 112.402 57.6089 112.671 58.2554C112.953 58.9019 113.094 59.71 113.094 60.6796V67.1847H110.613V60.8615C110.613 60.3227 110.539 59.8783 110.391 59.5281C110.243 59.1645 110.014 58.9019 109.705 58.7403C109.396 58.5652 109.019 58.4844 108.575 58.4978C108.212 58.4978 107.876 58.5584 107.567 58.6796C107.271 58.7874 107.009 58.949 106.78 59.1645C106.565 59.3665 106.39 59.6022 106.255 59.8716C106.134 60.1409 106.074 60.4372 106.074 60.7605V67.1847H104.843C104.601 67.1847 104.373 67.1847 104.157 67.1847C103.956 67.1847 103.767 67.1847 103.592 67.1847Z" fill="white"/>
<path d="M119.901 67.3867C119.026 67.3867 118.233 67.1443 117.52 66.6594C116.807 66.1746 116.236 65.5147 115.805 64.6796C115.375 63.8446 115.16 62.8951 115.16 61.8312C115.16 60.7672 115.375 59.8177 115.805 58.9827C116.236 58.1477 116.821 57.4945 117.56 57.0231C118.3 56.5517 119.134 56.316 120.062 56.316C120.6 56.316 121.091 56.3968 121.535 56.5584C121.978 56.7066 122.368 56.9221 122.705 57.2049C123.041 57.4877 123.317 57.811 123.532 58.1746C123.76 58.5382 123.915 58.9288 123.996 59.3463L123.451 59.2049V56.5382H125.953V67.1847H123.431V64.6392L124.016 64.5382C123.922 64.9019 123.747 65.2588 123.491 65.6089C123.249 65.9456 122.94 66.2487 122.563 66.518C122.2 66.7739 121.79 66.9827 121.333 67.1443C120.889 67.3059 120.412 67.3867 119.901 67.3867ZM120.586 65.1847C121.165 65.1847 121.676 65.0433 122.12 64.7605C122.563 64.4776 122.906 64.0871 123.149 63.5887C123.404 63.077 123.532 62.4911 123.532 61.8312C123.532 61.1847 123.404 60.6123 123.149 60.114C122.906 59.6157 122.563 59.2251 122.12 58.9423C121.676 58.6594 121.165 58.518 120.586 58.518C120.008 58.518 119.497 58.6594 119.053 58.9423C118.623 59.2251 118.287 59.6157 118.045 60.114C117.802 60.6123 117.681 61.1847 117.681 61.8312C117.681 62.4911 117.802 63.077 118.045 63.5887C118.287 64.0871 118.623 64.4776 119.053 64.7605C119.497 65.0433 120.008 65.1847 120.586 65.1847Z" fill="white"/>
<path d="M129.979 67.1847V53.8312H132.461V67.1847H129.979ZM127.881 58.8413V56.5382H134.781V58.8413H127.881Z" fill="white"/>
<path d="M141.434 67.3867C140.371 67.3867 139.423 67.151 138.589 66.6796C137.756 66.1948 137.097 65.5349 136.612 64.6998C136.128 63.8648 135.886 62.9153 135.886 61.8514C135.886 60.7874 136.128 59.8379 136.612 59.0029C137.097 58.1679 137.756 57.5147 138.589 57.0433C139.423 56.5584 140.371 56.316 141.434 56.316C142.483 56.316 143.424 56.5584 144.258 57.0433C145.092 57.5147 145.744 58.1679 146.215 59.0029C146.699 59.8379 146.941 60.7874 146.941 61.8514C146.941 62.9153 146.699 63.8648 146.215 64.6998C145.744 65.5349 145.092 66.1948 144.258 66.6796C143.424 67.151 142.483 67.3867 141.434 67.3867ZM141.434 65.1847C142.012 65.1847 142.523 65.0366 142.967 64.7403C143.424 64.444 143.781 64.0467 144.036 63.5483C144.305 63.05 144.433 62.4844 144.42 61.8514C144.433 61.2049 144.305 60.6325 144.036 60.1342C143.781 59.6359 143.424 59.2453 142.967 58.9625C142.523 58.6662 142.012 58.518 141.434 58.518C140.856 58.518 140.331 58.6662 139.86 58.9625C139.403 59.2453 139.047 59.6426 138.791 60.1544C138.536 60.6527 138.408 61.2184 138.408 61.8514C138.408 62.4844 138.536 63.05 138.791 63.5483C139.047 64.0467 139.403 64.444 139.86 64.7403C140.331 65.0366 140.856 65.1847 141.434 65.1847Z" fill="white"/>
<path d="M149.161 67.1847V56.5382H151.602L151.642 59.9322L151.299 59.1645C151.447 58.6258 151.703 58.1409 152.066 57.71C152.429 57.279 152.846 56.9423 153.317 56.6999C153.801 56.444 154.305 56.316 154.83 56.316C155.059 56.316 155.274 56.3362 155.475 56.3766C155.691 56.417 155.866 56.4642 156 56.518L155.334 59.2453C155.186 59.1645 155.005 59.0972 154.79 59.0433C154.574 58.9894 154.359 58.9625 154.144 58.9625C153.808 58.9625 153.485 59.0298 153.176 59.1645C152.88 59.2857 152.618 59.4608 152.389 59.6897C152.16 59.9187 151.979 60.1881 151.844 60.4978C151.723 60.7941 151.663 61.1308 151.663 61.5079V67.1847H149.161Z" fill="white"/>
</svg>
