<svg width="195" height="85" viewBox="0 0 195 85" fill="none" xmlns="http://www.w3.org/2000/svg">
<path d="M88 52.0921C88 54.5468 86.2989 56 84.4804 56C82.662 56 81 54.5861 81 52.0921V33.9079C81 31.4532 82.7011 30 84.5196 30C86.338 30 88 31.4139 88 33.9079V40.7417H86.1816V33.8489C86.1816 32.5529 85.3603 31.9245 84.4804 31.9245C83.6592 31.9245 82.8184 32.5529 82.8184 33.8489V52.1707C82.8184 53.4668 83.6592 54.1148 84.4804 54.1148C85.3603 54.1148 86.1816 53.4471 86.1816 52.1707V45.2583H88V52.0921Z" fill="#575757"/>
<path d="M96.1816 33.7832C96.1816 32.4961 95.3603 31.7746 94.4218 31.7746H92.8184V41.6225H94.4218C95.3408 41.6225 96.1816 40.8424 96.1816 39.5359V33.7832ZM98 55H96.1816V45.5616C96.1816 44.1771 95.3408 43.475 94.4218 43.475H92.8184V55H91V30H94.676C96.4358 30 98 31.2285 98 33.6856V39.6529C98 41.0569 97.2765 42.0905 96.2989 42.5195C97.2961 42.9485 98 44.0796 98 45.5421V55Z" fill="#575757"/>
<path d="M105.182 33.8489C105.182 32.5529 104.36 31.9245 103.48 31.9245C102.659 31.9245 101.818 32.5529 101.818 33.8489V52.1707C101.818 53.4668 102.659 54.1148 103.48 54.1148C104.36 54.1148 105.182 53.4471 105.182 52.1707V33.8489ZM107 52.0921C107 54.5468 105.299 56 103.48 56C101.662 56 100 54.5861 100 52.0921V33.9079C100 31.4532 101.701 30 103.52 30C105.338 30 107 31.4139 107 33.9079V52.0921Z" fill="#575757"/>
<path d="M117 38.0784H115.182V33.902C115.182 32.8627 114.556 31.9608 113.461 31.9608C112.229 31.9608 111.838 32.9608 111.838 33.9804C111.838 35.0196 112.19 36.4314 112.522 37.4118L116.159 47.7843C116.589 49.0392 116.98 50.7059 116.98 52C116.98 54.7647 115.26 56 113.539 56C111.779 56 110.02 54.7059 110.02 52.1569V47.8824H111.838V52.098C111.838 53.1373 112.503 54.0392 113.559 54.0392C114.751 54.0392 115.182 53.0392 115.182 52.0196C115.182 50.9804 114.81 49.3725 114.458 48.4314L110.782 38.0588C110.352 36.8039 110 35.2941 110 34C110 31.1961 111.721 30 113.441 30C115.201 30 116.98 31.2941 116.98 33.8431L117 38.0784Z" fill="#575757"/>
<path d="M126 38.0784H124.182V33.902C124.182 32.8627 123.556 31.9608 122.461 31.9608C121.229 31.9608 120.838 32.9608 120.838 33.9804C120.838 35.0196 121.19 36.4314 121.522 37.4118L125.159 47.7843C125.589 49.0392 125.98 50.7059 125.98 52C125.98 54.7647 124.26 56 122.539 56C120.779 56 119.02 54.7059 119.02 52.1569V47.8824H120.838V52.098C120.838 53.1373 121.503 54.0392 122.559 54.0392C123.751 54.0392 124.182 53.0392 124.182 52.0196C124.182 50.9804 123.81 49.3725 123.458 48.4314L119.782 38.0588C119.352 36.8039 119 35.2941 119 34C119 31.1961 120.721 30 122.441 30C124.201 30 125.98 31.2941 125.98 33.8431L126 38.0784Z" fill="#575757"/>
<path d="M134.182 45.5226C134.182 44.1381 133.36 43.397 132.461 43.397H130.838V53.2059H132.441C133.38 53.2059 134.201 52.5234 134.201 51.1973V45.5226H134.182ZM134.182 33.7832C134.182 32.4766 133.36 31.7746 132.461 31.7746H130.838V41.681H132.441C133.36 41.681 134.201 40.9399 134.201 39.6139V33.7832H134.182ZM136 51.5874C136 53.7715 134.455 55 132.832 55H129V30H132.793C134.416 30 135.98 31.2285 135.98 33.4321V39.5944C135.98 41.0569 135.296 42.071 134.318 42.461C135.296 42.89 135.98 43.8651 135.98 45.3081V51.5874H136Z" fill="#575757"/>
<path d="M138 30V55H144V53.2254H139.76V43.28H142.826V41.5055H139.76V31.7746H144V30H138Z" fill="#575757"/>
<path d="M149.74 36.9618L149.99 33.7832L150.202 36.9618L151.436 47.9602H148.525L149.74 36.9618ZM148.93 30L146 55H147.754L148.371 49.7153H151.59L152.169 55H154L151.07 30H148.93Z" fill="#575757"/>
<path d="M165.566 30L162.428 47.5702L162.01 50.4758L161.572 47.5702L158.434 30H156V55H157.769V37.7418L157.731 34.6802L158.187 37.8198L161.268 55H162.732L165.813 37.8198L166.269 34.6802L166.231 37.7418V55H168V30H165.566Z" fill="#575757"/>
<path d="M43.3024 50.961H27V63.9999H69V50.961H52.6976L47.9836 43L43.3024 50.961Z" fill="#575757"/>
<path d="M27 22V35.0389H43.3024L47.9836 42.9999L52.6976 35.0389H69V22H27Z" fill="#575757"/>
</svg>
