<svg width="315" height="50" viewBox="0 0 315 50" fill="none" xmlns="http://www.w3.org/2000/svg">
<path d="M0 49.3333V2.66666H18.2667C21.6 2.66666 24.6 3.22222 27.2667 4.33333C29.9778 5.44444 32.2889 7.04444 34.2 9.13333C36.1111 11.2222 37.5778 13.6889 38.6 16.5333C39.6222 19.3778 40.1333 22.5333 40.1333 26C40.1333 29.4667 39.6222 32.6444 38.6 35.5333C37.5778 38.3778 36.1111 40.8444 34.2 42.9333C32.3333 44.9778 30.0444 46.5556 27.3333 47.6667C24.6222 48.7778 21.6 49.3333 18.2667 49.3333H0ZM7.2 43.1333L7 42.4H17.9333C20.2889 42.4 22.3778 42.0222 24.2 41.2667C26.0667 40.5111 27.6222 39.4444 28.8667 38.0667C30.1556 36.6444 31.1333 34.9111 31.8 32.8667C32.4667 30.8222 32.8 28.5333 32.8 26C32.8 23.4667 32.4667 21.2 31.8 19.2C31.1333 17.1556 30.1556 15.4222 28.8667 14C27.5778 12.5778 26.0222 11.4889 24.2 10.7333C22.3778 9.97778 20.2889 9.6 17.9333 9.6H6.8L7.2 9V43.1333Z" fill="#080808"/>
<path d="M61.6031 50C58.7142 50 56.0698 49.2 53.6698 47.6C51.3142 46 49.4253 43.8222 48.0031 41.0667C46.5809 38.3111 45.8698 35.2 45.8698 31.7333C45.8698 28.2222 46.5809 25.1111 48.0031 22.4C49.4698 19.6444 51.4253 17.4889 53.8698 15.9333C56.3587 14.3778 59.1365 13.6 62.2031 13.6C64.0253 13.6 65.692 13.8667 67.2031 14.4C68.7142 14.9333 70.0254 15.6889 71.1365 16.6667C72.292 17.6 73.2254 18.6889 73.9365 19.9333C74.692 21.1778 75.1587 22.5111 75.3365 23.9333L73.8031 23.4V14.3333H80.7365V49.3333H73.8031V41L75.4031 40.5333C75.1365 41.7333 74.5809 42.9111 73.7365 44.0667C72.9365 45.1778 71.892 46.1778 70.6031 47.0667C69.3587 47.9556 67.9587 48.6667 66.4031 49.2C64.892 49.7333 63.292 50 61.6031 50ZM63.4031 43.6667C65.492 43.6667 67.3365 43.1556 68.9365 42.1333C70.5365 41.1111 71.7809 39.7111 72.6698 37.9333C73.6031 36.1111 74.0698 34.0444 74.0698 31.7333C74.0698 29.4667 73.6031 27.4444 72.6698 25.6667C71.7809 23.8889 70.5365 22.4889 68.9365 21.4667C67.3365 20.4444 65.492 19.9333 63.4031 19.9333C61.3587 19.9333 59.5365 20.4444 57.9365 21.4667C56.3809 22.4889 55.1365 23.8889 54.2031 25.6667C53.3142 27.4444 52.8698 29.4667 52.8698 31.7333C52.8698 34.0444 53.3142 36.1111 54.2031 37.9333C55.1365 39.7111 56.3809 41.1111 57.9365 42.1333C59.5365 43.1556 61.3587 43.6667 63.4031 43.6667Z" fill="#080808"/>
<path d="M90.324 49.3333V14.3333H97.2573V25.3333L96.5906 22.6667C97.0795 20.9778 97.9017 19.4444 99.0573 18.0667C100.257 16.6889 101.613 15.6 103.124 14.8C104.68 14 106.28 13.6 107.924 13.6C108.68 13.6 109.391 13.6667 110.057 13.8C110.768 13.9333 111.324 14.0889 111.724 14.2667L109.924 21.7333C109.391 21.5111 108.791 21.3333 108.124 21.2C107.502 21.0222 106.88 20.9333 106.257 20.9333C105.057 20.9333 103.902 21.1778 102.791 21.6667C101.724 22.1111 100.768 22.7556 99.924 23.6C99.124 24.4 98.4795 25.3556 97.9906 26.4667C97.5017 27.5333 97.2573 28.7111 97.2573 30V49.3333H90.324Z" fill="#080808"/>
<path d="M123.479 38.4L123.145 30.9333L139.879 14.3333H149.145L123.479 38.4ZM117.212 49.3333V0H124.079V49.3333H117.212ZM140.812 49.3333L127.612 33.9333L132.479 29.4667L149.612 49.3333H140.812Z" fill="#080808"/>
<path d="M155.103 49.3333V14.3333H162.036V25.3333L161.369 22.6667C161.858 20.9778 162.68 19.4444 163.836 18.0667C165.036 16.6889 166.391 15.6 167.903 14.8C169.458 14 171.058 13.6 172.703 13.6C173.458 13.6 174.169 13.6667 174.836 13.8C175.547 13.9333 176.103 14.0889 176.503 14.2667L174.703 21.7333C174.169 21.5111 173.569 21.3333 172.903 21.2C172.28 21.0222 171.658 20.9333 171.036 20.9333C169.836 20.9333 168.68 21.1778 167.569 21.6667C166.503 22.1111 165.547 22.7556 164.703 23.6C163.903 24.4 163.258 25.3556 162.769 26.4667C162.28 27.5333 162.036 28.7111 162.036 30V49.3333H155.103Z" fill="#080808"/>
<path d="M196.227 50C192.804 50 189.738 49.2222 187.027 47.6667C184.36 46.0667 182.249 43.9111 180.693 41.2C179.138 38.4444 178.36 35.3111 178.36 31.8C178.36 28.2889 179.138 25.1778 180.693 22.4667C182.249 19.7111 184.36 17.5556 187.027 16C189.738 14.4 192.804 13.6 196.227 13.6C199.604 13.6 202.627 14.4 205.293 16C208.004 17.5556 210.138 19.7111 211.693 22.4667C213.249 25.1778 214.027 28.2889 214.027 31.8C214.027 35.3111 213.249 38.4444 211.693 41.2C210.138 43.9111 208.004 46.0667 205.293 47.6667C202.627 49.2222 199.604 50 196.227 50ZM196.227 43.7333C198.315 43.7333 200.182 43.2222 201.827 42.2C203.471 41.1333 204.76 39.7111 205.693 37.9333C206.627 36.1111 207.071 34.0667 207.027 31.8C207.071 29.4889 206.627 27.4444 205.693 25.6667C204.76 23.8444 203.471 22.4222 201.827 21.4C200.182 20.3778 198.315 19.8667 196.227 19.8667C194.138 19.8667 192.249 20.4 190.56 21.4667C188.915 22.4889 187.627 23.9111 186.693 25.7333C185.76 27.5111 185.315 29.5333 185.36 31.8C185.315 34.0667 185.76 36.1111 186.693 37.9333C187.627 39.7111 188.915 41.1333 190.56 42.2C192.249 43.2222 194.138 43.7333 196.227 43.7333Z" fill="#080808"/>
<path d="M237.242 50C233.82 50 230.753 49.2222 228.042 47.6667C225.376 46.0667 223.264 43.9111 221.709 41.2C220.153 38.4444 219.376 35.3111 219.376 31.8C219.376 28.2889 220.153 25.1778 221.709 22.4667C223.264 19.7111 225.376 17.5556 228.042 16C230.753 14.4 233.82 13.6 237.242 13.6C240.62 13.6 243.642 14.4 246.309 16C249.02 17.5556 251.153 19.7111 252.709 22.4667C254.264 25.1778 255.042 28.2889 255.042 31.8C255.042 35.3111 254.264 38.4444 252.709 41.2C251.153 43.9111 249.02 46.0667 246.309 47.6667C243.642 49.2222 240.62 50 237.242 50ZM237.242 43.7333C239.331 43.7333 241.198 43.2222 242.842 42.2C244.487 41.1333 245.776 39.7111 246.709 37.9333C247.642 36.1111 248.087 34.0667 248.042 31.8C248.087 29.4889 247.642 27.4444 246.709 25.6667C245.776 23.8444 244.487 22.4222 242.842 21.4C241.198 20.3778 239.331 19.8667 237.242 19.8667C235.153 19.8667 233.264 20.4 231.576 21.4667C229.931 22.4889 228.642 23.9111 227.709 25.7333C226.776 27.5111 226.331 29.5333 226.376 31.8C226.331 34.0667 226.776 36.1111 227.709 37.9333C228.642 39.7111 229.931 41.1333 231.576 42.2C233.264 43.2222 235.153 43.7333 237.242 43.7333Z" fill="#080808"/>
<path d="M262.391 49.3333V14.3333H269.324V21.8L268.058 22.6C268.413 21.4444 268.969 20.3333 269.724 19.2667C270.524 18.2 271.48 17.2667 272.591 16.4667C273.747 15.6222 274.969 14.9556 276.258 14.4667C277.591 13.9778 278.947 13.7333 280.324 13.7333C282.324 13.7333 284.08 14.0667 285.591 14.7333C287.102 15.4 288.347 16.4 289.324 17.7333C290.302 19.0667 291.013 20.7333 291.458 22.7333L290.391 22.4667L290.858 21.3333C291.347 20.3111 292.013 19.3556 292.858 18.4667C293.747 17.5333 294.747 16.7111 295.858 16C296.969 15.2889 298.147 14.7333 299.391 14.3333C300.636 13.9333 301.858 13.7333 303.058 13.7333C305.68 13.7333 307.836 14.2667 309.524 15.3333C311.258 16.4 312.547 18.0222 313.391 20.2C314.28 22.3778 314.724 25.0889 314.724 28.3333V49.3333H307.791V28.7333C307.791 26.7333 307.524 25.1111 306.991 23.8667C306.502 22.5778 305.747 21.6222 304.724 21C303.702 20.3778 302.391 20.0667 300.791 20.0667C299.547 20.0667 298.369 20.2889 297.258 20.7333C296.191 21.1333 295.258 21.7111 294.458 22.4667C293.658 23.2222 293.036 24.1111 292.591 25.1333C292.147 26.1111 291.924 27.2 291.924 28.4V49.3333H284.991V28.6C284.991 26.7778 284.724 25.2444 284.191 24C283.658 22.7111 282.88 21.7333 281.858 21.0667C280.836 20.4 279.591 20.0667 278.124 20.0667C276.88 20.0667 275.724 20.2889 274.658 20.7333C273.591 21.1333 272.658 21.7111 271.858 22.4667C271.058 23.1778 270.436 24.0444 269.991 25.0667C269.547 26.0444 269.324 27.1111 269.324 28.2667V49.3333H262.391Z" fill="#080808"/>
</svg>
