<svg width="195" height="85" viewBox="0 0 195 85" fill="none" xmlns="http://www.w3.org/2000/svg">
<g clip-path="url(#clip0_1154_1714)">
<path d="M79.1416 43.1893V27.2823H86.7605V29.6628H81.8732V33.7603H85.5263V36.1408H81.8732V43.1893H79.1416ZM91.8891 43.1893H89.2453L92.1744 27.2823H95.5642L98.4933 43.1893H95.8494L95.3667 39.6623H92.3718L91.8891 43.1893ZM92.7723 37.2872H94.9718L93.8912 30.4582H93.8474L92.7723 37.2872ZM105.021 43.1893H102.289V27.2823H106.123C109.184 27.2823 110.747 28.5823 110.747 31.9721C110.747 34.5282 109.754 35.5649 108.833 35.9818L111.148 43.1838H108.372L106.436 36.5961C106.085 36.64 105.509 36.6619 105.026 36.6619L105.021 43.1893ZM105.021 34.424H105.992C107.467 34.424 108.021 33.8755 108.021 31.9776C108.021 30.0852 107.473 29.5312 105.992 29.5312H105.021V34.424ZM126.451 27.2823V43.1893H124.071V30.7654H124.027L121.558 43.1893H120.237L117.768 30.7654H117.724V43.1893H115.349V27.2823H118.937L120.873 36.5797H120.917L122.853 27.2823H126.451ZM131.157 43.1893V27.2823H138.469V29.6628H133.889V33.7603H137.411V36.1408H133.889V40.8087H138.776V43.1893H131.157ZM145.874 43.1893H143.143V27.2823H146.977C150.037 27.2823 151.601 28.5823 151.601 31.9721C151.601 34.5282 150.608 35.5649 149.686 35.9818L152.001 43.1838H149.226L147.289 36.5961C146.938 36.64 146.362 36.6619 145.88 36.6619L145.874 43.1893ZM145.874 34.424H146.845C148.321 34.424 148.875 33.8755 148.875 31.9776C148.875 30.0852 148.326 29.5312 146.845 29.5312H145.874V34.424ZM161.331 31.2042C161.222 29.8384 160.492 29.4434 159.878 29.4434C158.995 29.4434 158.512 30.0139 158.512 31.0067C158.512 33.7164 164.063 35.0164 164.063 39.3332C164.063 41.9551 162.302 43.4087 159.746 43.4087C157.212 43.4087 155.759 41.3847 155.649 39.0041L158.249 38.6311C158.358 40.2383 159 41.0336 159.878 41.0336C160.827 41.0336 161.463 40.529 161.463 39.5801C161.463 36.4316 155.912 35.5923 155.912 31.0341C155.912 28.5 157.453 27.0684 160.141 27.0684C162.368 27.0684 163.69 28.6755 163.931 30.9244L161.331 31.2042Z" fill="#575757"/>
<path d="M85.625 53.655H87.1115C88.1866 53.655 88.6638 54.2035 88.6638 55.2018C88.6638 55.7009 88.4554 56.2275 87.9672 56.425C88.4773 56.6499 88.779 57.0558 88.779 57.8072C88.779 58.7726 88.3512 59.4967 87.2102 59.4967H85.625V53.655ZM86.6288 56.052H86.9908C87.3693 56.052 87.6655 55.7942 87.6655 55.306C87.6655 54.763 87.4571 54.4832 87.0073 54.4832H86.6288V56.052V56.052ZM86.6288 58.6739H87.0512C87.5832 58.6739 87.7807 58.3667 87.7807 57.7743C87.7807 57.1765 87.5558 56.8748 86.9524 56.8748H86.6288V58.6739ZM90.4794 53.655H91.4832V58.0651C91.4832 58.4929 91.6532 58.7068 92.0152 58.7068C92.3773 58.7068 92.5473 58.4984 92.5473 58.0651V53.655H93.5511V58.0267C93.5511 59.0304 92.9697 59.579 92.0152 59.579C91.0608 59.579 90.4794 59.0304 90.4794 58.0267V53.655ZM97.1658 55.0976C97.1274 54.5984 96.8587 54.4503 96.6338 54.4503C96.3101 54.4503 96.1346 54.6588 96.1346 55.0263C96.1346 56.0246 98.1751 56.5018 98.1751 58.087C98.1751 59.0524 97.5279 59.5844 96.5899 59.5844C95.6574 59.5844 95.1253 58.8439 95.0869 57.9663L96.0414 57.8292C96.0798 58.4216 96.3156 58.7123 96.6393 58.7123C96.9848 58.7123 97.2207 58.5258 97.2207 58.1802C97.2207 57.0229 95.1802 56.7157 95.1802 55.0427C95.1802 54.1102 95.7452 53.5837 96.7325 53.5837C97.5498 53.5837 98.038 54.1761 98.1257 54.9988L97.1658 55.0976ZM99.87 53.655H100.874V59.4967H99.87V53.655ZM102.794 59.5022V53.6605H103.726L104.949 57.0009H104.966V53.6605H105.871V59.5022H104.999L103.721 55.8545H103.704V59.5022H102.794ZM107.648 59.5022V53.6605H110.336V54.5326H108.652V56.0355H109.946V56.9077H108.652V58.6245H110.451V59.4967L107.648 59.5022ZM113.879 55.0976C113.841 54.5984 113.572 54.4503 113.347 54.4503C113.023 54.4503 112.848 54.6588 112.848 55.0263C112.848 56.0246 114.888 56.5018 114.888 58.087C114.888 59.0524 114.241 59.5844 113.303 59.5844C112.376 59.5844 111.839 58.8439 111.8 57.9663L112.755 57.8292C112.793 58.4216 113.029 58.7123 113.353 58.7123C113.698 58.7123 113.934 58.5258 113.934 58.1802C113.934 57.0229 111.894 56.7157 111.894 55.0427C111.894 54.1102 112.459 53.5837 113.446 53.5837C114.263 53.5837 114.746 54.1761 114.839 54.9988L113.879 55.0976ZM118.278 55.0976C118.24 54.5984 117.971 54.4503 117.746 54.4503C117.423 54.4503 117.247 54.6588 117.247 55.0263C117.247 56.0246 119.288 56.5018 119.288 58.087C119.288 59.0524 118.64 59.5844 117.702 59.5844C116.775 59.5844 116.238 58.8439 116.199 57.9663L117.154 57.8292C117.192 58.4216 117.428 58.7123 117.752 58.7123C118.097 58.7123 118.333 58.5258 118.333 58.1802C118.333 57.0229 116.293 56.7157 116.293 55.0427C116.293 54.1102 116.858 53.5837 117.845 53.5837C118.662 53.5837 119.145 54.1761 119.238 54.9988L118.278 55.0976ZM123.456 59.5022V53.6605H124.389L125.612 57.0009H125.628V53.6605H126.533V59.5022H125.661L124.383 55.8545H124.367V59.5022H123.456ZM128.311 59.5022V53.6605H130.998V54.5326H129.314V56.0355H130.609V56.9077H129.314V58.6245H131.114V59.4967L128.311 59.5022ZM133.291 54.5326H132.32V53.6605H135.266V54.5326H134.295V59.5022H133.291V54.5326ZM138.403 53.655H139.232L139.912 57.3794H139.928L140.488 53.655H141.426L140.4 59.4967H139.561L138.831 55.6351H138.815L138.135 59.4967H137.29L136.182 53.655H137.12L137.734 57.3794H137.751L138.403 53.655ZM142.868 55.0756C142.868 54.2474 143.357 53.5782 144.41 53.5782C145.463 53.5782 145.946 54.2529 145.946 55.0756V58.087C145.946 58.9153 145.463 59.5844 144.41 59.5844C143.357 59.5844 142.868 58.9153 142.868 58.087V55.0756ZM143.872 58.0596C143.872 58.4984 144.004 58.7068 144.41 58.7068C144.816 58.7068 144.942 58.4984 144.942 58.0596V55.0976C144.942 54.6588 144.81 54.4503 144.41 54.4503C144.004 54.4503 143.872 54.6588 143.872 55.0976V58.0596ZM148.726 59.5022H147.723V53.655H149.132C150.257 53.655 150.833 54.1322 150.833 55.3773C150.833 56.3153 150.471 56.6992 150.125 56.8528L150.975 59.5022H149.961L149.248 57.0832C149.116 57.0997 148.908 57.1106 148.732 57.1106L148.726 59.5022ZM148.726 56.2824H149.083C149.626 56.2824 149.829 56.0794 149.829 55.3828C149.829 54.6862 149.626 54.4832 149.083 54.4832H148.726V56.2824ZM152.533 59.5022V53.6605H153.537V55.8216H153.553L154.607 53.6605H155.61L154.524 55.8381L155.748 59.5022H154.727L153.91 56.7815H153.894L153.537 57.4288V59.5022H152.533ZM79.0977 48.7677H118.75V48.2192H79.0977V48.7677ZM124.614 48.7677H164.266V48.2192H124.614V48.7677ZM121.657 49.4862C122.206 49.4862 122.65 49.0419 122.65 48.4934C122.65 47.9449 122.206 47.4951 121.657 47.4951C121.109 47.4951 120.664 47.9394 120.664 48.4879C120.659 49.0419 121.103 49.4862 121.657 49.4862C121.657 49.4862 121.652 49.4862 121.657 49.4862Z" fill="#575757"/>
<path d="M72 43.0027C72 54.6039 62.5984 64.0055 50.9973 64.0055C39.4016 64 30 54.5984 30 43.0027C30 31.4016 39.4016 22 51.0027 22C62.5984 22 72 31.4016 72 43.0027Z" fill="#575757"/>
<path d="M68.9172 39.5636C67.299 30.7324 59.5649 24.035 50.2676 24.035C39.7909 24.035 31.2998 32.5261 31.2998 43.0028C31.2943 46.4913 32.2597 49.9141 34.0808 52.8925C37.6517 52.2288 41.579 50.7368 45.6929 47.9339C56.4658 40.5783 64.348 39.3387 68.9172 39.5636Z" fill="#CDCDCD"/>
<path d="M47.5583 50.4516C58.2214 43.1783 65.6703 42.7504 69.2302 43.2989C69.2302 43.2002 69.2357 43.1015 69.2357 43.0027C69.2357 41.8289 69.126 40.6825 68.9175 39.5635C64.3484 39.3386 56.4662 40.5783 45.6878 47.9284C41.5739 50.7314 37.652 52.2233 34.0757 52.887C34.5145 53.6001 34.9972 54.2858 35.5238 54.933C38.3267 54.6807 41.552 53.5453 44.8431 51.801" fill="#575757"/>
<path d="M47.624 50.3694C47.5472 50.4242 47.6404 50.4023 47.5582 50.4517C47.805 51.269 48.0299 52.4483 48.6168 53.6002C48.8198 53.4685 49.0282 53.3424 49.2311 53.1997C60.4264 45.5644 67.1951 47.2648 68.5993 47.8681C68.9942 46.3762 69.2027 44.8403 69.2246 43.299C65.6702 42.7505 58.2872 43.096 47.624 50.3694ZM37.4819 57.012C39.5169 57.0394 41.7219 56.7816 44.1738 55.8765C44.4481 54.9111 44.7333 53.09 44.7662 51.5761C41.4751 53.3204 38.3376 54.6862 35.5347 54.9386C36.1271 55.6736 36.7798 56.3702 37.4819 57.012Z" fill="#575757"/>
<path d="M49.2308 53.1996C49.0224 53.3422 48.8194 53.4684 48.6165 53.6C50.7008 57.6755 57.124 62.8536 64.7319 55.2675C66.5585 53.1228 67.8804 50.5942 68.6045 47.868C67.2003 47.2646 60.4261 45.5642 49.2308 53.1996ZM44.179 55.8215C41.7326 56.7321 39.5111 57.0392 37.4761 57.0118C38.3811 57.8401 38.3976 57.7194 39.4507 58.3612C41.2992 59.3759 43.422 58.4764 44.179 55.8215Z" fill="#575757"/>
<path d="M44.7056 32.6138C44.7056 32.6138 45.5887 34.1112 46.6254 34.5555C48.0735 35.1754 49.8178 34.9559 49.8178 36.4479C49.8232 39.0095 45.3473 37.0897 44.7056 32.6138Z" fill="#575757"/>
<path d="M59.5816 27.1506C59.5816 27.1506 58.3694 30.4527 56.477 31.7088C53.8222 33.475 50.2788 33.667 50.8218 36.6345C51.7543 41.7138 59.9436 36.2725 59.5816 27.1506Z" fill="#575757"/>
<path d="M44.6235 53.5562C44.6235 53.5562 44.9472 49.5191 44.9636 48.1369C44.9636 48.1369 45.5286 42.5201 47.8433 39.7555C47.8433 39.7555 48.4083 39.0644 49.0007 38.4501C49.0007 38.4501 50.7779 36.9965 50.0813 34.0455C50.0813 34.0455 49.9112 33.0088 48.902 30.3101C48.902 30.3101 51.6391 34.7585 50.9479 37.161C50.9479 37.161 45.7809 44.4728 47.7885 51.417" fill="#575757"/>
</g>
<defs>
<clipPath id="clip0_1154_1714">
<rect width="134.266" height="42" fill="white" transform="translate(30 22)"/>
</clipPath>
</defs>
</svg>
