<svg width="195" height="85" viewBox="0 0 195 85" fill="none" xmlns="http://www.w3.org/2000/svg">
<path fill-rule="evenodd" clip-rule="evenodd" d="M54.1243 60H41.7503C40.2303 60 39 58.7626 39 57.2337V51.2663C39 49.7374 40.2303 48.5 41.7503 48.5H49.5654V39.7663C49.5654 38.2374 50.7957 37 52.3157 37H61V59.9271H54.1243V60Z" fill="#575757"/>
<path fill-rule="evenodd" clip-rule="evenodd" d="M70.1219 60H61V28.7971C61 27.2512 62.2911 26 63.8863 26H70.1137C71.7089 26 73 27.2512 73 28.7971V57.2041C72.9205 58.7488 71.6422 60 70.1219 60Z" fill="#575757"/>
<path fill-rule="evenodd" clip-rule="evenodd" d="M73 48.5V57.2342C73 58.7626 71.7088 60 70.1139 60H61V37L73 48.5Z" fill="#575757"/>
<path d="M84.9498 50.3937L87.6616 57.5405H82.4072L84.9509 50.3937H84.9498ZM83.9323 48L78 63.6501H80.203L81.7281 59.3984H88.3373L89.8624 63.6501H92.0654L86.1331 48H83.93H83.9323ZM115.956 63.6637H118V48.0114H115.956V63.6615V63.6637ZM95.1179 54.4652C95.7958 53.4439 97.1619 52.5936 98.5076 52.5936C101.219 52.5936 102.575 54.4652 102.575 57.1871V63.821H100.531V57.5268C100.531 55.3155 99.3445 54.4641 97.8194 54.4641C96.124 54.4641 94.9385 56.1658 94.9385 57.6967V63.6512H92.8944V52.7782H94.9385L95.1088 54.48L95.1179 54.4652ZM104.271 60.4311C104.271 58.0375 106.474 56.6879 109.017 56.6879C110.543 56.6879 111.561 57.0298 111.898 57.3684V57.0264C111.898 55.3246 110.543 54.4732 109.187 54.4732C108 54.4732 106.984 54.9838 106.643 56.004L104.778 55.1537C105.119 54.1324 106.474 52.6004 109.184 52.6004C111.728 52.6004 113.931 54.1312 113.931 57.194V63.6592H112.067V62.1284H111.896C111.387 62.9787 110.201 64 108.337 64C106.134 64 104.27 62.639 104.27 60.4277L104.271 60.4311ZM111.896 59.0668C111.896 59.0668 111.049 58.3863 109.352 58.3863C107.308 58.3863 106.471 59.5774 106.471 60.438C106.471 61.6291 107.658 62.1398 108.675 62.1398C110.2 62.1398 111.895 60.7788 111.895 59.077" fill="#575757"/>
<path fill-rule="evenodd" clip-rule="evenodd" d="M120.83 68L123.188 62.4464L119 52.6845H121.021L124.205 60.0896L127.389 52.6845H129.41L122.876 68H120.855H120.83ZM150.324 56.2162C149.821 54.8698 148.648 54.0286 147.475 54.0286C145.799 54.0286 144.291 55.543 144.291 57.7318C144.291 59.9205 145.799 61.4349 147.475 61.4349C148.649 61.4349 149.833 60.5937 150.324 59.4052L152 60.4155C151.162 62.2671 149.485 63.4455 147.475 63.4455C144.627 63.4455 142.281 60.9196 142.281 57.7227C142.281 54.3568 144.638 52 147.475 52C149.496 52 151.162 53.1784 152 55.03L150.324 56.2083V56.2162Z" fill="#575757"/>
<path d="M158 63.9858C160.667 63.9858 162 62.4012 162 60.4637C162 56.2372 156.167 57.8206 156.167 55.3569C156.167 54.4767 156.833 53.9481 158 53.9481C159.167 53.9481 160.345 54.4767 160.833 55.3569L162 54.1239C161.333 53.2437 159.499 52 157.835 52C155.334 52 154.001 53.5847 154.001 55.5221C154.001 59.5729 160.001 58.1652 160.001 60.2773C160.001 61.3345 159.335 62.0389 157.991 62.0389C156.648 62.0389 155.981 61.1587 155.325 60.2773L153.844 61.5221C154.844 62.5794 156.345 64 158.009 64L158 63.9858ZM139 63.6342H141.01V52.3634H139V63.6342V63.6342Z" fill="#575757"/>
<path fill-rule="evenodd" clip-rule="evenodd" d="M139.606 47C140.477 47 141 47.6808 141 48.3617C141 49.2124 140.303 49.7233 139.606 49.7233C138.908 49.7233 138.211 49.0425 138.211 48.3617C138.211 47.6808 138.908 47 139.606 47ZM136.643 61.4684L136.993 63H134.891C132.973 63 132.102 61.6383 132.102 59.5959V54.2986H130V52.2459H132.102V49.0322H134.204V52.2664H136.657V54.3192H134.204V59.9357C134.204 61.4673 135.425 61.4673 136.657 61.4673L136.643 61.4684Z" fill="#575757"/>
<path d="M88.171 30.4165V32.9952H94.1151C93.9444 34.3697 93.4358 35.4127 92.7565 36.0885C91.9076 36.9473 90.5491 37.9788 88.171 37.9788C84.605 37.9788 81.7172 35.0582 81.7172 31.2787C81.7172 27.6709 84.6039 24.5787 88.171 24.5787C90.2191 24.5787 91.5674 25.4375 92.5858 26.2975L94.2846 24.5787C92.7565 23.2042 90.8881 22 88.171 22C83.2464 22 79 26.1236 79 31.0945C79 36.0655 83.2441 40.1891 88.171 40.1891C90.8881 40.1891 92.9271 39.3303 94.4541 37.6104C96.1529 35.8916 96.6615 33.6583 96.6615 31.768C96.6615 31.2523 96.6615 30.565 96.4909 30.2219H88.1698L88.171 30.4165ZM103.284 28.3443C100.057 28.3443 97.5092 30.7619 97.5092 34.1867C97.5092 37.6115 100.058 40.0291 103.284 40.0291C104.044 40.036 104.798 39.8896 105.502 39.5984C106.205 39.3073 106.845 38.8772 107.382 38.3333C107.92 37.7894 108.345 37.1426 108.633 36.4306C108.92 35.7187 109.065 34.9559 109.058 34.1867C109.058 30.7503 106.51 28.3443 103.284 28.3443ZM103.284 37.7842C101.585 37.7842 100.057 36.2382 100.057 34.1763C100.057 32.1145 101.585 30.58 103.284 30.58C104.983 30.58 106.512 31.9614 106.512 34.1832C106.512 36.4051 104.984 37.7911 103.285 37.7911L103.284 37.7842ZM131.127 29.5462C130.447 28.8589 129.428 28.1716 127.9 28.1716C125.013 28.1716 122.465 30.7503 122.465 34.014C122.465 37.2777 125.014 39.8564 127.9 39.8564C129.258 39.8564 130.449 39.1691 130.957 38.4819H131.128V39.3407C131.128 41.574 129.939 42.777 128.07 42.777C126.542 42.777 125.522 41.574 125.184 40.7048L122.976 41.5636C123.656 43.1097 125.366 45 128.072 45C131.129 45 133.675 43.2812 133.675 38.8146V28.1624H131.286V29.537L131.127 29.5462ZM128.24 37.7934C126.541 37.7934 125.183 36.2474 125.183 34.1855C125.183 32.1237 126.541 30.5777 128.24 30.5777C129.939 30.5777 131.297 32.1237 131.297 34.1855C131.297 36.2474 129.939 37.7934 128.24 37.7934V37.7934ZM115.841 28.3535C112.614 28.3535 110.066 30.7711 110.066 34.1959C110.066 37.6208 112.615 40.0383 115.841 40.0383C116.601 40.0452 117.355 39.8988 118.059 39.6076C118.763 39.3165 119.402 38.8864 119.939 38.3425C120.477 37.7986 120.902 37.1518 121.19 36.4398C121.478 35.7279 121.622 34.9651 121.615 34.1959C121.786 30.7595 119.067 28.3535 115.841 28.3535ZM115.841 37.7934C114.142 37.7934 112.614 36.2474 112.614 34.1855C112.614 32.1237 114.142 30.5777 115.841 30.5777C117.54 30.5777 119.068 31.9522 119.068 34.1855C119.068 36.4189 117.54 37.7934 115.841 37.7934V37.7934ZM135.564 22.1692H138.113V40.0383H135.564V22.1692ZM145.074 37.8049C143.716 37.8049 142.867 37.1177 142.188 36.0862L150 32.8214L149.659 32.1341C149.149 30.7595 147.611 28.3535 144.734 28.3535C141.677 28.3535 139.3 30.7711 139.3 34.1959C139.293 34.9651 139.438 35.7279 139.725 36.4398C140.013 37.1518 140.438 37.7986 140.976 38.3425C141.513 38.8864 142.153 39.3165 142.856 39.6076C143.56 39.8988 144.314 40.0452 145.074 40.0383C147.791 40.0383 149.318 38.3195 149.999 37.4596L147.951 36.085C147.271 37.1165 146.423 37.8038 145.064 37.8038L145.074 37.8049ZM144.904 30.5869C145.923 30.5869 146.772 31.1026 147.111 31.9614L141.846 34.1948C141.846 31.616 143.545 30.5869 144.904 30.5869V30.5869Z" fill="#575757"/>
</svg>
