<svg width="195" height="85" viewBox="0 0 195 85" fill="none" xmlns="http://www.w3.org/2000/svg">
<path fill-rule="evenodd" clip-rule="evenodd" d="M149 38.7222L148.766 42.4575H147.245C144.906 42.4575 143.736 44.3855 143.736 46.1933V54.3862H139.642V38.7222H143.502L143.619 40.7704C144.438 39.3242 145.841 38.7222 147.596 38.7222H149ZM120.575 54.3856H116.481V46.1933C116.481 44.3855 116.364 42.2165 114.025 42.2165C111.685 42.2165 110.866 43.9036 110.866 45.9518V54.3862H106.655V38.7222H110.515L110.632 40.7704C111.451 39.445 112.971 38.3605 115.194 38.3605C119.288 38.3605 120.574 41.373 120.574 44.6264V54.3856H120.575ZM104.901 50.7716L104.667 54.2665C103.614 54.6277 102.795 54.6277 101.743 54.6277C97.8825 54.6277 96.7131 52.8198 96.7131 49.2058V34.3848H100.807V38.7227H104.901L104.667 42.458H100.807V48.8442C100.807 50.2909 101.274 51.1333 102.679 51.1333C103.381 51.1322 104.083 51.0131 104.901 50.7716V50.7716ZM95.4264 38.7222L95.0753 42.4575H93.9053C91.683 42.4575 90.513 44.3855 90.513 46.1933V54.3862H86.4191V38.7222H90.2791L90.3958 40.7704C91.2147 39.3242 92.6181 38.7222 94.3731 38.7222H95.4264ZM67.9379 52.6996C65.1307 54.266 62.3234 55.1084 58.6973 54.9888C51.9128 54.7473 47 50.4094 47 43.0595C47 35.7097 51.9128 31.1308 58.6973 31.0101C62.0895 30.8893 65.1307 31.8536 67.5873 34.0226L64.6629 37.0351C63.1423 35.7097 61.0367 34.9869 58.4634 35.107C54.1356 35.2272 51.5622 38.4807 51.5622 42.8186C51.445 47.5176 54.2528 50.7711 58.6973 50.8918C60.8029 51.0125 62.3234 50.7711 63.6101 50.169V45.2285H58.9312L59.2823 41.2517H67.9379V52.6996ZM137.77 48.1202H126.541C126.892 50.0488 128.412 51.2529 130.284 51.3737C132.155 51.3737 133.208 50.7716 134.495 49.4462L137.186 51.4939C135.313 53.9037 133.091 54.7473 130.402 54.7473C125.84 54.7473 122.447 51.4939 122.447 46.5533C122.447 41.7335 125.84 38.3599 130.284 38.3599C135.198 38.3599 137.77 41.3724 137.77 46.7948V48.1202V48.1202ZM133.677 44.7472C133.559 42.8186 132.155 41.6139 130.167 41.6139C128.179 41.7341 126.891 43.0595 126.541 44.7472H133.677ZM83.8458 44.1446V54.3862H80.2196L80.103 52.8198C79.0502 54.2665 77.1785 54.7484 75.3068 54.7484C72.6163 54.7484 69.9262 53.4236 69.9262 50.0494C69.8096 44.8674 75.5407 44.5068 79.1669 44.5068H79.8685V44.2653C79.8685 42.5788 78.8157 41.6145 76.7107 41.6145C75.1902 41.6145 73.7863 42.3373 72.6168 43.301L70.2774 40.8911C72.3829 39.0838 74.7224 38.361 77.0618 38.361C81.7407 38.3605 83.8458 40.6502 83.8458 44.1446ZM79.8691 47.6389H79.2841C77.4124 47.6389 73.9035 47.6389 74.0202 49.8073C74.0202 52.6996 79.8685 51.7359 79.8685 48.241V47.6389H79.8691V47.6389Z" fill="#575757"/>
</svg>
