<svg width="195" height="50" viewBox="0 0 195 50" fill="none" xmlns="http://www.w3.org/2000/svg">
<path d="M71.2699 14.2845C65.2633 14.2845 60.2666 19.135 60.2666 25.1048C60.2666 31.0746 65.2633 35.8718 71.2699 35.8718C74.5123 35.8718 76.9043 34.8058 78.8179 32.8336C80.7848 30.8614 81.3695 28.143 81.3695 25.9577C81.3695 25.2647 81.3162 24.6251 81.2099 24.0921H71.2699V27.0237H78.3394C78.1268 28.6761 77.5954 29.902 76.7447 30.7548C75.7348 31.7676 74.0871 32.9402 71.2699 32.9402C66.9109 32.9402 63.509 29.4223 63.509 25.1048C63.509 20.7874 66.9109 17.2695 71.2699 17.2695C73.6087 17.2695 75.3629 18.1756 76.5855 19.4015L78.6587 17.3228C76.9043 15.6171 74.5656 14.2845 71.2699 14.2845ZM89.2894 22.0133C85.5159 22.0133 82.3795 24.9449 82.3795 29.0492C82.3795 33.1001 85.4621 36.085 89.2894 36.085C93.1168 36.085 96.1998 33.1001 96.1998 29.0492C96.1998 24.9982 93.064 22.0133 89.2894 22.0133ZM89.2894 33.3133C87.2168 33.3133 85.4092 31.5544 85.4092 29.0492C85.4092 26.544 87.2168 24.785 89.2894 24.785C91.363 24.785 93.1696 26.4907 93.1696 29.0492C93.1696 31.5544 91.363 33.3133 89.2894 33.3133ZM104.279 22.0133C100.453 22.0133 97.3696 24.9449 97.3696 29.0492C97.3696 33.1001 100.453 36.085 104.279 36.085C108.054 36.085 111.189 33.1001 111.189 29.0492C111.189 24.9982 108.106 22.0133 104.279 22.0133ZM104.279 33.3133C102.206 33.3133 100.399 31.5544 100.399 29.0492C100.399 26.544 102.206 24.785 104.279 24.785C106.353 24.785 108.16 26.4907 108.16 29.0492C108.16 31.5544 106.405 33.3133 104.279 33.3133ZM119.216 22.0133C115.761 22.0133 112.624 25.0515 112.624 28.9959C112.624 32.8869 115.761 35.9251 119.216 35.9251C120.864 35.9251 122.139 35.1789 122.831 34.326H122.937V35.3388C122.937 38.0039 121.555 39.4429 119.27 39.4429C117.409 39.4429 116.292 38.1105 115.814 36.9911L113.156 38.1105C113.901 39.9762 115.921 42.2147 119.27 42.2147C122.831 42.2147 125.807 40.0827 125.807 34.9657V22.493H122.937V23.6124H122.831C122.139 22.7595 120.864 22.0133 119.216 22.0133ZM119.482 33.2067C117.409 33.2067 115.655 31.4478 115.655 28.9959C115.655 26.544 117.409 24.7317 119.482 24.7317C121.555 24.7317 123.15 26.544 123.15 28.9959C123.15 31.4478 121.555 33.2067 119.482 33.2067ZM128.04 15.1374H131.07V35.7119H128.04V15.1374ZM139.203 22.0133C135.588 22.0133 132.558 24.8383 132.558 29.0492C132.558 32.9935 135.535 36.085 139.522 36.085C142.764 36.085 144.624 34.1128 145.369 32.9935L142.976 31.3944C142.179 32.5671 141.063 33.3133 139.522 33.3133C137.927 33.3133 136.811 32.6204 136.12 31.1812L145.528 27.2902L145.209 26.4907C144.624 24.9449 142.818 22.0133 139.203 22.0133ZM135.588 28.836C135.482 26.1176 137.715 24.7317 139.255 24.7317C140.478 24.7317 141.541 25.318 141.86 26.2242L135.588 28.836Z" fill="#757575"/>
<path d="M150.845 35.3916L157.862 16.6826H160.572L167.589 35.3916H164.931L163.124 30.3279H155.31L153.502 35.3916H150.845ZM156.107 28.0892H162.326L159.297 19.6675H159.19L156.107 28.0892Z" fill="#757575"/>
<path d="M170.033 33.8458C168.863 32.5133 168.279 30.9142 168.279 28.9954C168.279 27.1298 168.863 25.5307 170.033 24.1449C171.256 22.8123 172.638 22.1727 174.339 22.1727C175.296 22.1727 176.146 22.3859 176.891 22.759C177.688 23.1854 178.273 23.6652 178.697 24.3581H178.804L178.697 22.5991V16.6826H181.09V35.3916H178.804V33.6326H178.697C178.273 34.2722 177.688 34.8053 176.891 35.2317C176.092 35.6581 175.242 35.818 174.339 35.818C172.638 35.818 171.203 35.1784 170.033 33.8458ZM177.581 32.3534C178.378 31.5005 178.751 30.3812 178.751 28.9954C178.751 27.6628 178.378 26.5435 177.581 25.6906C176.837 24.8378 175.88 24.4114 174.711 24.4114C173.542 24.4114 172.585 24.8378 171.841 25.6906C171.043 26.5435 170.671 27.6628 170.671 28.9954C170.671 30.3279 171.043 31.4472 171.841 32.3001C172.638 33.1529 173.594 33.5793 174.711 33.5793C175.88 33.6326 176.837 33.2062 177.581 32.3534Z" fill="#757575"/>
<path d="M192.146 34.6452C191.19 35.3915 189.967 35.8179 188.478 35.8179C187.203 35.8179 186.087 35.4981 185.077 34.8052C184.12 34.1122 183.429 33.2594 183.004 32.1401L185.13 31.2339C185.449 31.9802 185.874 32.6198 186.512 33.0462C187.096 33.4726 187.788 33.6858 188.478 33.6858C189.223 33.6858 189.861 33.5259 190.393 33.2061C190.924 32.8863 191.137 32.4599 191.137 32.0335C191.137 31.2339 190.498 30.5943 189.276 30.2212L187.096 29.6882C184.598 29.0485 183.376 27.8759 183.376 26.0636C183.376 24.891 183.854 23.9849 184.811 23.2386C185.768 22.5457 186.99 22.1726 188.426 22.1726C189.542 22.1726 190.552 22.4391 191.509 22.9721C192.412 23.5052 193.05 24.2514 193.422 25.1575L191.295 26.0636C191.03 25.5306 190.658 25.1042 190.127 24.7844C189.594 24.4646 188.957 24.3047 188.266 24.3047C187.628 24.3047 187.096 24.4646 186.565 24.7844C186.087 25.1042 185.821 25.4773 185.821 25.957C185.821 26.7033 186.512 27.2363 187.894 27.5028L189.808 27.9825C192.359 28.6221 193.581 29.9014 193.581 31.8202C193.635 32.9396 193.103 33.899 192.146 34.6452Z" fill="#757575"/>
<path d="M18.8309 6.27265C19.3523 4.88935 20.0694 3.61576 21.134 2.58378C25.3927 -1.61018 32.4326 -0.556125 35.3224 4.71369C37.4951 8.71001 39.7984 12.6185 42.0363 16.5709C45.7736 23.1362 49.5541 29.7016 53.2478 36.2889C56.3551 41.8001 52.9871 48.7613 46.8164 49.7047C43.0357 50.2764 39.4942 48.5189 37.5386 45.0943C34.2577 39.3191 30.955 33.5442 27.6741 27.7912C27.609 27.6595 27.522 27.5497 27.4351 27.4399C27.0875 27.1544 26.9354 26.7373 26.7181 26.364C25.2624 23.7729 23.763 21.204 22.3073 18.6349C21.373 16.9661 20.3953 15.3192 19.461 13.6505C18.6136 12.1574 18.2225 10.5325 18.266 8.81982C18.3311 7.94142 18.4397 7.06321 18.8309 6.27265Z" fill="#3C8BD9"/>
<path d="M18.6183 6.59277C18.4199 7.37108 18.2435 8.14938 18.1994 8.97098C18.1332 10.7871 18.5963 12.4734 19.5223 14.0517C21.9477 18.138 24.3732 22.2458 26.7766 26.3536C26.9972 26.7212 27.1735 27.0887 27.394 27.4347C26.071 29.6832 24.7481 31.91 23.403 34.1585C21.5508 37.2933 19.6988 40.4501 17.8245 43.5849C17.7363 43.5849 17.7143 43.5415 17.6923 43.4774C17.6702 43.3041 17.7363 43.1524 17.7805 42.9796C18.6845 39.7367 17.9348 36.8612 15.6637 34.3964C14.2746 32.9046 12.5106 32.0614 10.4821 31.7803C7.83612 31.4128 5.49886 32.083 3.40414 33.7046C3.02933 33.9856 2.78678 34.3964 2.34575 34.6126C2.25763 34.6126 2.21348 34.5694 2.19141 34.5045C3.2498 32.71 4.28612 30.9155 5.34452 29.1211C9.71027 21.6837 14.0761 14.2464 18.464 6.8306C18.5081 6.74409 18.5742 6.67919 18.6183 6.59277Z" fill="#FABC04"/>
<path d="M2.29201 34.5746C2.71087 34.1986 3.10767 33.8006 3.54852 33.4468C8.90493 29.2013 16.9507 32.2749 18.119 38.9968C18.4056 40.6114 18.2513 42.1592 17.7663 43.7067C17.7443 43.8397 17.7223 43.95 17.6781 44.0831C17.4797 44.4368 17.3034 44.8123 17.0829 45.1661C15.1212 48.417 12.2335 50.0312 8.4421 49.7878C4.09955 49.4784 0.682856 46.2057 0.087667 41.8717C-0.198852 39.7712 0.219931 37.8029 1.30012 35.9898C1.5205 35.5918 1.78503 35.238 2.02748 34.84C2.13776 34.7515 2.09361 34.5746 2.29201 34.5746Z" fill="#34A852"/>
</svg>
