<svg width="505" height="40" viewBox="0 0 505 40" fill="none" xmlns="http://www.w3.org/2000/svg">
<path d="M0 39.4444V0.555556H6V33.6667H24.2222V39.4444H0Z" fill="#080808"/>
<path d="M31.8129 39.4444V33.8889H38.0907V6.11111H31.8129V0.555556H50.3685V6.11111H44.0907V33.8889H50.3685V39.4444H31.8129Z" fill="#080808"/>
<path d="M67.1762 39.4444V6.33333H56.2873V0.555556H84.3984V6.33333H73.1762V39.4444H67.1762Z" fill="#080808"/>
<path d="M100.868 39.4444V6.33333H89.9787V0.555556H118.09V6.33333H106.868V39.4444H100.868Z" fill="#080808"/>
<path d="M125.488 39.4444V0.555556H131.488V33.6667H149.71V39.4444H125.488Z" fill="#080808"/>
<path d="M158.746 39.4444V0.555556H183.246V6.33333H164.746V33.6667H183.246V39.4444H158.746ZM161.468 22.3889V16.6111H180.19V22.3889H161.468Z" fill="#080808"/>
<path d="M208.442 39.4444V0.555556H224.664C227.146 0.555556 229.238 0.925927 230.942 1.66667C232.646 2.40741 233.923 3.51852 234.775 5C235.664 6.44445 236.108 8.22222 236.108 10.3333C236.108 12.4444 235.516 14.2407 234.331 15.7222C233.183 17.2037 231.571 18.2222 229.497 18.7778V17.6667C231.238 18.037 232.757 18.7037 234.053 19.6667C235.349 20.5926 236.349 21.7593 237.053 23.1667C237.794 24.5741 238.164 26.1852 238.164 28C238.164 29.8519 237.868 31.5 237.275 32.9444C236.72 34.3519 235.868 35.537 234.72 36.5C233.608 37.463 232.257 38.2037 230.664 38.7222C229.071 39.2037 227.257 39.4444 225.22 39.4444H208.442ZM214.442 33.6667H224.886C226.405 33.6667 227.683 33.4444 228.72 33C229.794 32.5556 230.608 31.9074 231.164 31.0556C231.757 30.1667 232.053 29.1111 232.053 27.8889C232.053 26.7407 231.738 25.7593 231.108 24.9444C230.516 24.1296 229.664 23.5185 228.553 23.1111C227.442 22.6667 226.127 22.4444 224.608 22.4444H214.442V33.6667ZM214.442 16.6667H224.331C225.442 16.6667 226.423 16.4444 227.275 16C228.164 15.5556 228.849 14.9444 229.331 14.1667C229.849 13.3889 230.108 12.5 230.108 11.5C230.108 9.83333 229.553 8.55556 228.442 7.66667C227.331 6.77778 225.738 6.33333 223.664 6.33333H214.442V16.6667Z" fill="#080808"/>
<path d="M261.368 39.7778C258.368 39.7778 255.682 39.1296 253.312 37.8333C250.942 36.5 249.071 34.6852 247.701 32.3889C246.368 30.0556 245.701 27.4259 245.701 24.5V0.5H251.701V24C251.701 25.8889 252.145 27.5926 253.034 29.1111C253.923 30.5926 255.09 31.7778 256.534 32.6667C258.016 33.5556 259.627 34 261.368 34C263.219 34 264.886 33.5556 266.368 32.6667C267.886 31.7778 269.09 30.5926 269.979 29.1111C270.868 27.5926 271.312 25.8889 271.312 24V0.5H277.034V24.5C277.034 27.4259 276.349 30.0556 274.979 32.3889C273.645 34.6852 271.793 36.5 269.423 37.8333C267.053 39.1296 264.368 39.7778 261.368 39.7778Z" fill="#080808"/>
<path d="M287.381 39.4444V0.555556H293.269L307.436 23.6111L304.603 23.5556L318.936 0.555556H324.492V39.4444H318.492V23.5C318.492 20.1667 318.566 17.1667 318.714 14.5C318.899 11.8333 319.195 9.18519 319.603 6.55556L320.381 8.61111L307.658 28.2778H303.992L291.658 8.83334L292.269 6.55556C292.677 9.03704 292.955 11.5926 293.103 14.2222C293.288 16.8148 293.381 19.9074 293.381 23.5V39.4444H287.381Z" fill="#080808"/>
<path d="M350.966 39.4444V0.555556H367.188C369.669 0.555556 371.762 0.925927 373.466 1.66667C375.169 2.40741 376.447 3.51852 377.299 5C378.188 6.44445 378.632 8.22222 378.632 10.3333C378.632 12.4444 378.04 14.2407 376.855 15.7222C375.706 17.2037 374.095 18.2222 372.021 18.7778V17.6667C373.762 18.037 375.28 18.7037 376.577 19.6667C377.873 20.5926 378.873 21.7593 379.577 23.1667C380.318 24.5741 380.688 26.1852 380.688 28C380.688 29.8519 380.392 31.5 379.799 32.9444C379.243 34.3519 378.392 35.537 377.243 36.5C376.132 37.463 374.78 38.2037 373.188 38.7222C371.595 39.2037 369.78 39.4444 367.743 39.4444H350.966ZM356.966 33.6667H367.41C368.929 33.6667 370.206 33.4444 371.243 33C372.318 32.5556 373.132 31.9074 373.688 31.0556C374.28 30.1667 374.577 29.1111 374.577 27.8889C374.577 26.7407 374.262 25.7593 373.632 24.9444C373.04 24.1296 372.188 23.5185 371.077 23.1111C369.966 22.6667 368.651 22.4444 367.132 22.4444H356.966V33.6667ZM356.966 16.6667H366.855C367.966 16.6667 368.947 16.4444 369.799 16C370.688 15.5556 371.373 14.9444 371.855 14.1667C372.373 13.3889 372.632 12.5 372.632 11.5C372.632 9.83333 372.077 8.55556 370.966 7.66667C369.855 6.77778 368.262 6.33333 366.188 6.33333H356.966V16.6667Z" fill="#080808"/>
<path d="M403.891 39.7778C400.891 39.7778 398.206 39.1296 395.836 37.8333C393.465 36.5 391.595 34.6852 390.225 32.3889C388.891 30.0556 388.225 27.4259 388.225 24.5V0.5H394.225V24C394.225 25.8889 394.669 27.5926 395.558 29.1111C396.447 30.5926 397.614 31.7778 399.058 32.6667C400.54 33.5556 402.151 34 403.891 34C405.743 34 407.41 33.5556 408.891 32.6667C410.41 31.7778 411.614 30.5926 412.503 29.1111C413.391 27.5926 413.836 25.8889 413.836 24V0.5H419.558V24.5C419.558 27.4259 418.873 30.0556 417.503 32.3889C416.169 34.6852 414.317 36.5 411.947 37.8333C409.577 39.1296 406.891 39.7778 403.891 39.7778Z" fill="#080808"/>
<path d="M429.904 39.4444V0.555556H435.793L449.96 23.6111L447.127 23.5556L461.46 0.555556H467.016V39.4444H461.016V23.5C461.016 20.1667 461.09 17.1667 461.238 14.5C461.423 11.8333 461.719 9.18519 462.127 6.55556L462.904 8.61111L450.182 28.2778H446.516L434.182 8.83334L434.793 6.55556C435.201 9.03704 435.479 11.5926 435.627 14.2222C435.812 16.8148 435.904 19.9074 435.904 23.5V39.4444H429.904Z" fill="#080808"/>
<path d="M489.919 40C487.808 40 485.845 39.7222 484.03 39.1667C482.252 38.6111 480.622 37.7778 479.141 36.6667C477.697 35.5185 476.4 34.1111 475.252 32.4444L479.363 27.7222C481.178 30.3148 482.919 32.1111 484.585 33.1111C486.252 34.1111 488.234 34.6111 490.53 34.6111C491.937 34.6111 493.215 34.3889 494.363 33.9444C495.511 33.5 496.419 32.8889 497.085 32.1111C497.752 31.3333 498.085 30.4444 498.085 29.4444C498.085 28.7778 497.974 28.1482 497.752 27.5556C497.53 26.963 497.178 26.4259 496.697 25.9444C496.252 25.463 495.66 25.0185 494.919 24.6111C494.215 24.2037 493.382 23.8519 492.419 23.5556C491.456 23.2222 490.345 22.9444 489.085 22.7222C487.085 22.3148 485.345 21.7778 483.863 21.1111C482.382 20.4444 481.141 19.6111 480.141 18.6111C479.141 17.6111 478.4 16.4815 477.919 15.2222C477.437 13.9259 477.197 12.4815 477.197 10.8889C477.197 9.33333 477.53 7.88889 478.197 6.55556C478.9 5.22222 479.845 4.07408 481.03 3.11111C482.252 2.11111 483.678 1.35185 485.308 0.833333C486.937 0.277778 488.697 0 490.585 0C492.585 0 494.419 0.259259 496.085 0.777778C497.752 1.2963 499.234 2.07407 500.53 3.11111C501.826 4.11111 502.9 5.35185 503.752 6.83334L499.53 11C498.789 9.77778 497.956 8.75926 497.03 7.94445C496.104 7.09259 495.085 6.46296 493.974 6.05556C492.863 5.61111 491.678 5.38889 490.419 5.38889C488.974 5.38889 487.715 5.61111 486.641 6.05556C485.567 6.5 484.715 7.12963 484.085 7.94445C483.493 8.72222 483.197 9.64815 483.197 10.7222C483.197 11.5 483.345 12.2222 483.641 12.8889C483.937 13.5185 484.382 14.0926 484.974 14.6111C485.604 15.0926 486.437 15.537 487.474 15.9444C488.511 16.3148 489.752 16.6481 491.197 16.9444C493.234 17.3889 495.048 17.963 496.641 18.6667C498.234 19.3333 499.585 20.1296 500.697 21.0556C501.808 21.9815 502.641 23.0185 503.197 24.1667C503.789 25.3148 504.085 26.5556 504.085 27.8889C504.085 30.3704 503.511 32.5185 502.363 34.3333C501.215 36.1481 499.585 37.5556 497.474 38.5556C495.363 39.5185 492.845 40 489.919 40Z" fill="#080808"/>
</svg>
