<svg width="195" height="85" viewBox="0 0 195 85" fill="none" xmlns="http://www.w3.org/2000/svg">
<g clip-path="url(#clip0_1154_1726)">
<path d="M126.03 29.2923C126.03 28.027 127.083 27 128.38 27H155.479C156.777 27 157.829 28.027 157.829 29.2923V56.7081C157.829 57.9739 156.777 59 155.479 59H128.38C127.083 59 126.03 57.9739 126.03 56.7085V29.2919V29.2923Z" fill="#575757"/>
<path d="M37.0166 53.8047H50.287V49.4475H41.8199V32.826H37.0166V53.8047ZM57.0057 53.8047V39.355H52.2028V53.8047H57.0057ZM54.6047 37.3825C56.2792 37.3825 57.3217 36.2729 57.3217 34.8854C57.2907 33.4677 56.2792 32.3895 54.6366 32.3895C52.9935 32.3895 51.9191 33.4681 51.9191 34.8854C51.9191 36.2729 52.9616 37.3825 54.5732 37.3825H54.6047V37.3825ZM59.2355 53.8047H64.0383V45.735C64.0383 45.3032 64.0694 44.8713 64.1965 44.5637C64.5432 43.7008 65.3335 42.8069 66.6605 42.8069C68.3988 42.8069 69.0942 44.1323 69.0942 46.0737V53.8043H73.8963V45.5193C73.8963 41.0807 71.5267 39.0155 68.3665 39.0155C65.7758 39.0155 64.6381 40.4638 64.006 41.4505H64.0383V39.355H59.2355C59.2988 40.711 59.2355 53.8047 59.2355 53.8047V53.8047ZM80.672 32.826H75.8692V53.8047H80.672V49.1198L81.8723 47.6085L85.6327 53.8047H91.541L85.2223 44.8348L90.7512 38.7326H84.9696C84.9696 38.7326 81.02 44.1919 80.672 44.8398V32.826Z" fill="#575757"/>
<path d="M104.384 47.7772C104.448 47.4062 104.543 46.6944 104.543 45.8895C104.543 42.1543 102.647 38.362 97.6545 38.362C92.3144 38.362 89.8496 42.5853 89.8496 46.4158C89.8496 51.1531 92.8516 54.1115 98.0964 54.1115C100.182 54.1115 102.109 53.8043 103.689 53.1567L103.057 49.9847C101.761 50.4145 100.434 50.6298 98.7918 50.6298C96.5486 50.6298 94.5899 49.7086 94.4317 47.7462L104.384 47.7764V47.7772V47.7772ZM94.4002 44.528C94.5266 43.295 95.3487 41.4757 97.4022 41.4757C99.5821 41.4757 100.088 43.418 100.088 44.528H94.4007H94.4002ZM116.397 32.826V40.0882H116.334C115.639 39.0717 114.185 38.3935 112.259 38.3935C108.562 38.3935 105.307 41.3523 105.338 46.4069C105.338 51.0923 108.277 54.1438 111.942 54.1438C113.933 54.1438 115.828 53.2801 116.777 51.6156H116.871L117.061 53.8047H121.327C121.264 52.7874 121.2 51.0306 121.2 49.3044V32.8256H116.397L116.397 32.826ZM116.397 47.1162C116.397 47.4855 116.366 47.8561 116.302 48.1633C116.019 49.4895 114.881 50.4132 113.491 50.4132C111.501 50.4132 110.205 48.8109 110.205 46.2836C110.205 43.9107 111.311 41.9994 113.523 41.9994C115.008 41.9994 116.05 43.0163 116.335 44.2796C116.398 44.5578 116.397 44.8663 116.397 45.1433V47.1158V47.1162Z" fill="#575757"/>
<path d="M135.669 53.7871V39.3374H130.866V53.7871H135.67H135.669ZM133.269 37.3649C134.943 37.3649 135.986 36.2553 135.986 34.8686C135.954 33.4505 134.943 32.3719 133.3 32.3719C131.657 32.3719 130.583 33.4505 130.583 34.8686C130.583 36.2553 131.625 37.3649 133.237 37.3649H133.268H133.269ZM138.327 53.7871H143.13V45.7187C143.13 45.2873 143.161 44.855 143.288 44.547C143.635 43.6837 144.425 42.7902 145.752 42.7902C147.49 42.7902 148.185 44.1151 148.185 46.0578V53.7871H152.988V45.5022C152.988 41.064 150.619 38.9987 147.459 38.9987C144.868 38.9987 143.73 40.4467 143.098 41.4329H143.13V39.3379H138.328C138.39 40.6934 138.327 53.7876 138.327 53.7876V53.7871Z" fill="#CDCDCD"/>
</g>
<defs>
<clipPath id="clip0_1154_1726">
<rect width="120.846" height="32" fill="white" transform="translate(37 27)"/>
</clipPath>
</defs>
</svg>
