<svg width="195" height="85" viewBox="0 0 195 85" fill="none" xmlns="http://www.w3.org/2000/svg">
<path d="M49.4747 43.377V20H46V43.5031C46 49.0412 49.4316 52.0453 54.438 51.4488V48.0724C51.792 48.1984 49.4747 47.2221 49.4747 43.377ZM64.8696 48.5344C60.9396 48.5344 57.7073 44.9853 57.7073 40.6321C57.7073 36.1902 60.9396 32.5524 64.8696 32.5524C68.8359 32.5524 72.062 36.1902 72.062 40.6321C72.062 44.9853 68.8359 48.5344 64.8696 48.5344ZM64.8696 29.1307C58.8291 29.1307 54.151 34.2885 54.151 40.6321C54.151 46.8879 58.8291 52 64.8696 52C70.9477 52 75.5804 46.8875 75.5804 40.6321C75.5804 34.2885 70.9477 29.1307 64.8696 29.1307ZM118.066 29.6819H112.896L103.175 39.4481V20H99.6571V51.4501H103.175V44.4355L107.268 40.3721L114.547 51.4501H118.807L109.833 37.8375L118.066 29.6819ZM120.134 38.3057C121.043 34.5867 124.145 32.3882 127.084 32.3882C130.185 32.3882 133.081 34.7527 133.952 38.3057H120.134ZM127.084 29.1307C121.168 29.1307 116.372 34.2885 116.372 40.5882C116.372 46.9696 121.168 51.957 127.288 51.957C132.215 51.957 135.852 49.3386 137.34 44.688H133.615C132.458 47.2216 130.31 48.7061 127.288 48.7061C123.777 48.7061 120.382 46.0371 119.927 41.5193H137.838C137.882 33.7826 132.583 29.1307 127.084 29.1307ZM143.051 32.1347V29.6828H139.657V51.4492H143.175V38.8521C143.175 34.4989 146.32 32.5151 150 32.7246V29.1755C147.559 28.8764 144.664 29.8088 143.051 32.1347Z" fill="#575757"/>
<path d="M87.383 29.2358C85.821 29.2358 84.3572 29.5883 83.0429 30.2196L85.2715 33.0141C85.9382 32.7751 86.6485 32.6417 87.383 32.6417C91.3145 32.6417 94.5185 36.2628 94.5185 40.6844C94.5185 45.0176 91.3145 48.5503 87.383 48.5503C83.4873 48.5503 80.2894 45.0176 80.2894 40.6844C80.2894 38.0281 81.4442 35.6762 83.2098 34.2069L81.0309 31.4817C78.4252 33.5699 76.7647 36.9118 76.7647 40.6844C76.7647 46.9114 81.3949 52 87.383 52C93.4079 52 98 46.9109 98 40.6844C98 34.3699 93.4074 29.2358 87.383 29.2358ZM81.5064 25.2493C81.5064 26.1386 81.142 26.9461 80.5553 27.5138L82.0676 29.412C83.1851 28.3902 83.8946 26.902 83.8946 25.2489C83.8946 24.0257 83.5068 22.8957 82.8579 21.975L81.0365 23.5839C81.3339 24.0699 81.5064 24.6375 81.5064 25.2493ZM78.4507 28.3845C76.7651 28.3845 75.3951 26.9775 75.3951 25.2493C75.3951 23.5216 76.7651 22.1142 78.4507 22.1142C79.043 22.1142 79.5986 22.2918 80.0681 22.5935L81.9253 20.9541C80.982 20.1466 79.7711 19.6615 78.4507 19.6615C75.4435 19.6615 73 22.1654 73 25.2493C73 28.3346 75.4439 30.8385 78.4507 30.8385C79.2039 30.8385 79.9258 30.6808 80.5864 30.3896L78.9505 28.3399C78.7836 28.3655 78.6172 28.3845 78.4507 28.3845ZM87.9878 14.9617C89.2528 14.9617 90.2778 16.0148 90.2778 17.3136C90.2778 18.6141 89.2528 19.6669 87.9878 19.6669C87.3272 19.6669 86.7341 19.3775 86.3138 18.9106L84.9577 20.1152C85.7043 20.9656 86.7847 21.5094 87.9878 21.5094C90.2415 21.5094 92.0746 19.6293 92.0746 17.3136C92.0746 15.0059 90.2419 13.1196 87.9878 13.1196C86.6606 13.1196 85.4864 13.776 84.7402 14.7854L86.5127 15.5298C86.9135 15.1817 87.4258 14.9617 87.9878 14.9617ZM85.6974 17.314C85.6974 16.8979 85.8085 16.5127 85.9939 16.173L84.3208 15.4715C84.0558 16.0272 83.9019 16.6514 83.9019 17.314C83.9019 18.0328 84.0805 18.7074 84.3891 19.2949L85.8158 18.0328C85.7458 17.8062 85.6974 17.5658 85.6974 17.314ZM79.4261 16.5891C80.5994 16.5891 81.5933 15.8196 81.975 14.7408L80.87 14.2805C80.6673 14.9047 80.0983 15.3646 79.4261 15.3646C78.5796 15.3646 77.8952 14.6582 77.8952 13.795C77.8952 12.9309 78.5791 12.2307 79.4261 12.2307C80.2592 12.2307 80.9383 12.9177 80.9509 13.7756L82.0987 14.2544C82.1242 14.1038 82.1471 13.9518 82.1471 13.795C82.1475 12.2559 80.9254 11 79.4261 11C77.9198 11 76.6968 12.2559 76.6968 13.795C76.6968 15.3389 77.9194 16.5891 79.4261 16.5891Z" fill="#575757"/>
</svg>
