<svg width="195" height="85" viewBox="0 0 195 85" fill="none" xmlns="http://www.w3.org/2000/svg">
<path d="M2 49.3093V31.9897H5.35924L11.6118 42.2577L9.40505 42.233L15.7312 31.9897H18.9433V49.3093H15.3389V43.3711C15.3389 41.8866 15.3716 40.5505 15.437 39.3629C15.5187 38.1753 15.6495 36.9959 15.8293 35.8247L16.2707 36.9876L11.244 44.8557H9.62573L4.6972 37.0371L5.11404 35.8247C5.29386 36.9299 5.41646 38.068 5.48184 39.2392C5.56358 40.3938 5.60444 41.7711 5.60444 43.3711V49.3093H2Z" fill="#575757"/>
<path d="M28.9487 49.5567C27.6246 49.5567 26.4394 49.268 25.3932 48.6907C24.3634 48.0969 23.5461 47.2887 22.9412 46.266C22.3528 45.2433 22.0585 44.0722 22.0585 42.7526C22.0585 41.433 22.3528 40.2619 22.9412 39.2392C23.5461 38.2165 24.3634 37.4165 25.3932 36.8392C26.4394 36.2454 27.6246 35.9485 28.9487 35.9485C30.2564 35.9485 31.4252 36.2454 32.455 36.8392C33.5012 37.4165 34.3185 38.2165 34.907 39.2392C35.4955 40.2619 35.7897 41.433 35.7897 42.7526C35.7897 44.0722 35.4955 45.2433 34.907 46.266C34.3185 47.2887 33.5012 48.0969 32.455 48.6907C31.4252 49.268 30.2564 49.5567 28.9487 49.5567ZM28.9487 46.4887C29.5862 46.4887 30.1583 46.332 30.6651 46.0186C31.1718 45.6887 31.5641 45.2433 31.842 44.6825C32.1363 44.1052 32.2752 43.4619 32.2589 42.7526C32.2752 42.0268 32.1363 41.3835 31.842 40.8227C31.5641 40.2454 31.1718 39.8 30.6651 39.4866C30.1583 39.1567 29.5862 38.9918 28.9487 38.9918C28.2948 38.9918 27.7145 39.1567 27.2077 39.4866C26.701 39.8165 26.3005 40.2619 26.0062 40.8227C25.712 41.3835 25.5731 42.0268 25.5894 42.7526C25.5731 43.4619 25.712 44.1052 26.0062 44.6825C26.3005 45.2433 26.701 45.6887 27.2077 46.0186C27.7145 46.332 28.2948 46.4887 28.9487 46.4887Z" fill="#575757"/>
<path d="M38.4333 49.3093V36.2206H41.7925L41.9151 40.4268L41.3267 39.5608C41.5228 38.8845 41.8416 38.2742 42.2829 37.7299C42.7243 37.1691 43.2392 36.732 43.8277 36.4186C44.4325 36.1052 45.0619 35.9485 45.7157 35.9485C45.9936 35.9485 46.2634 35.9732 46.5249 36.0227C46.7865 36.0722 47.0071 36.1299 47.1869 36.1959L46.2552 40.0557C46.0754 39.9567 45.8383 39.8742 45.5441 39.8082C45.2662 39.7258 44.9801 39.6845 44.6859 39.6845C44.2936 39.6845 43.9258 39.7588 43.5825 39.9072C43.2556 40.0392 42.9695 40.2371 42.7243 40.501C42.4791 40.7485 42.2829 41.0454 42.1358 41.3918C42.005 41.7381 41.9397 42.1175 41.9397 42.5299V49.3093H38.4333Z" fill="#575757"/>
<path d="M54.7349 55C53.7051 55 52.6916 54.8433 51.6944 54.5299C50.6973 54.233 49.8799 53.8371 49.2424 53.3423L50.4929 50.8433C50.8199 51.0742 51.1958 51.2804 51.6209 51.4619C52.0459 51.6433 52.4872 51.7835 52.9449 51.8825C53.419 51.9814 53.9012 52.0309 54.3916 52.0309C55.2416 52.0309 55.9364 51.899 56.4758 51.6351C57.0316 51.3711 57.4484 50.9753 57.7263 50.4474C58.0042 49.9196 58.1432 49.2598 58.1432 48.468V46.1918L58.7317 46.3155C58.6336 46.8598 58.3557 47.3629 57.898 47.8247C57.4566 48.2701 56.9008 48.633 56.2306 48.9134C55.5768 49.1773 54.8902 49.3093 54.1709 49.3093C52.9776 49.3093 51.9151 49.0289 50.9833 48.468C50.0516 47.9072 49.316 47.132 48.7765 46.1423C48.2371 45.1526 47.9674 44.0062 47.9674 42.7031C47.9674 41.4 48.2289 40.2454 48.752 39.2392C49.2915 38.2165 50.0189 37.4165 50.9343 36.8392C51.8661 36.2454 52.9204 35.9485 54.0974 35.9485C54.5878 35.9485 55.0537 36.0062 55.495 36.1216C55.9527 36.2371 56.3696 36.4021 56.7455 36.6165C57.1379 36.8144 57.4811 37.0454 57.7754 37.3093C58.086 37.5567 58.3393 37.8289 58.5355 38.1258C58.7317 38.4227 58.8543 38.7196 58.9033 39.0165L58.1922 39.2144L58.2903 36.2206H61.625V48.3196C61.625 49.3918 61.4697 50.3402 61.1591 51.1649C60.8486 51.9897 60.3908 52.6825 59.786 53.2433C59.1975 53.8206 58.4701 54.2577 57.6037 54.5546C56.7537 54.8515 55.7974 55 54.7349 55ZM54.833 46.4887C55.5195 46.4887 56.1162 46.332 56.6229 46.0186C57.146 45.7052 57.5465 45.268 57.8244 44.7072C58.1023 44.1464 58.2413 43.4866 58.2413 42.7278C58.2413 41.9856 58.1023 41.334 57.8244 40.7732C57.5465 40.1959 57.146 39.7505 56.6229 39.4371C56.1162 39.1237 55.5195 38.967 54.833 38.967C54.1628 38.967 53.5743 39.132 53.0675 39.4619C52.5608 39.7753 52.1603 40.2206 51.8661 40.7979C51.5882 41.3588 51.4492 42.0021 51.4492 42.7278C51.4492 43.4701 51.5882 44.1299 51.8661 44.7072C52.1603 45.268 52.5608 45.7052 53.0675 46.0186C53.5743 46.332 54.1628 46.4887 54.833 46.4887Z" fill="#575757"/>
<path d="M69.9394 49.5567C68.8605 49.5567 67.8879 49.2598 67.0215 48.666C66.1552 48.0722 65.4686 47.2639 64.9619 46.2412C64.4551 45.2186 64.2017 44.0474 64.2017 42.7278C64.2017 41.4082 64.4551 40.2371 64.9619 39.2144C65.485 38.1918 66.1879 37.3918 67.0706 36.8144C67.9533 36.2371 68.9586 35.9485 70.0865 35.9485C70.7241 35.9485 71.3044 36.0474 71.8275 36.2454C72.3669 36.4268 72.8328 36.6825 73.2251 37.0124C73.6338 37.3423 73.9771 37.7216 74.2549 38.1505C74.5328 38.5794 74.729 39.0412 74.8434 39.5361L74.1078 39.4124V36.2206H77.5651V49.3093H74.0588V46.167L74.8434 46.0928C74.7127 46.5546 74.5001 46.9918 74.2059 47.4041C73.9117 47.8165 73.5439 48.1876 73.1025 48.5175C72.6775 48.8309 72.1953 49.0866 71.6558 49.2845C71.1164 49.466 70.5443 49.5567 69.9394 49.5567ZM70.8957 46.5134C71.5496 46.5134 72.1217 46.3567 72.6121 46.0433C73.1025 45.7299 73.4785 45.2928 73.74 44.732C74.0179 44.1546 74.1569 43.4866 74.1569 42.7278C74.1569 41.9856 74.0179 41.334 73.74 40.7732C73.4785 40.2124 73.1025 39.7753 72.6121 39.4619C72.1217 39.132 71.5496 38.967 70.8957 38.967C70.2582 38.967 69.6942 39.132 69.2038 39.4619C68.7298 39.7753 68.3538 40.2124 68.0759 40.7732C67.798 41.334 67.6591 41.9856 67.6591 42.7278C67.6591 43.4866 67.798 44.1546 68.0759 44.732C68.3538 45.2928 68.7298 45.7299 69.2038 46.0433C69.6942 46.3567 70.2582 46.5134 70.8957 46.5134Z" fill="#575757"/>
<path d="M81.056 49.3093V36.2206H84.3907L84.4888 38.8928L83.8022 39.1897C83.9821 38.5959 84.3008 38.0598 84.7585 37.5814C85.2326 37.0866 85.7965 36.6907 86.4504 36.3938C87.1043 36.0969 87.7908 35.9485 88.5101 35.9485C89.4909 35.9485 90.3082 36.1464 90.9621 36.5423C91.6323 36.9381 92.1309 37.5402 92.4578 38.3485C92.8011 39.1402 92.9727 40.1216 92.9727 41.2928V49.3093H89.4909V41.5649C89.4909 40.9711 89.4091 40.4763 89.2457 40.0804C89.0822 39.6845 88.8288 39.3959 88.4856 39.2144C88.1586 39.033 87.75 38.9505 87.2596 38.967C86.8672 38.967 86.4994 39.033 86.1562 39.1649C85.8292 39.2804 85.5432 39.4536 85.298 39.6845C85.0691 39.9155 84.8811 40.1794 84.734 40.4763C84.6032 40.7732 84.5378 41.0948 84.5378 41.4412V49.3093H82.8214C82.4455 49.3093 82.1104 49.3093 81.8161 49.3093C81.5219 49.3093 81.2685 49.3093 81.056 49.3093Z" fill="#575757"/>
<path d="M109.884 49.5567C108.822 49.5567 107.849 49.4247 106.967 49.1608C106.1 48.8969 105.324 48.5093 104.637 47.9979C103.967 47.4866 103.362 46.868 102.823 46.1423L105.128 43.4948C105.929 44.6165 106.721 45.3835 107.506 45.7959C108.307 46.1918 109.173 46.3897 110.105 46.3897C110.612 46.3897 111.061 46.3155 111.454 46.167C111.862 46.0186 112.181 45.8206 112.41 45.5732C112.639 45.3093 112.753 44.9959 112.753 44.633C112.753 44.3691 112.696 44.1299 112.582 43.9155C112.467 43.6845 112.304 43.4866 112.091 43.3216C111.879 43.1402 111.625 42.9835 111.331 42.8515C111.037 42.7031 110.71 42.5794 110.35 42.4804C109.991 42.3649 109.598 42.2742 109.173 42.2082C108.258 41.9938 107.457 41.7381 106.77 41.4412C106.084 41.1278 105.512 40.7485 105.054 40.3031C104.596 39.8412 104.253 39.3217 104.024 38.7443C103.812 38.167 103.705 37.5155 103.705 36.7897C103.705 36.0474 103.869 35.3629 104.196 34.7361C104.523 34.0928 104.972 33.5402 105.544 33.0784C106.133 32.6165 106.803 32.2619 107.555 32.0144C108.323 31.767 109.133 31.6433 109.983 31.6433C111.029 31.6433 111.944 31.7588 112.729 31.9897C113.513 32.2206 114.192 32.567 114.764 33.0289C115.352 33.4742 115.843 34.0186 116.235 34.6619L113.906 36.9381C113.562 36.4763 113.186 36.0887 112.778 35.7753C112.385 35.4619 111.952 35.2309 111.478 35.0825C111.021 34.9175 110.546 34.8351 110.056 34.8351C109.517 34.8351 109.051 34.9093 108.658 35.0577C108.266 35.1897 107.956 35.3959 107.727 35.6763C107.514 35.9402 107.408 36.2536 107.408 36.6165C107.408 36.9134 107.481 37.1773 107.629 37.4082C107.776 37.6392 107.988 37.8454 108.266 38.0268C108.544 38.1918 108.879 38.3402 109.271 38.4722C109.664 38.6041 110.097 38.7196 110.571 38.8186C111.47 39 112.279 39.2392 112.998 39.5361C113.718 39.833 114.331 40.1959 114.837 40.6247C115.361 41.0371 115.761 41.532 116.039 42.1093C116.317 42.6701 116.456 43.3052 116.456 44.0144C116.456 45.1856 116.178 46.1835 115.622 47.0082C115.066 47.833 114.298 48.468 113.317 48.9134C112.336 49.3423 111.192 49.5567 109.884 49.5567Z" fill="#575757"/>
<path d="M120.547 49.3093V32.9052H124.029V49.3093H120.547ZM118.12 39.3629V36.2206H126.702V39.3629H118.12Z" fill="#575757"/>
<path d="M133.682 49.5567C132.603 49.5567 131.63 49.2598 130.764 48.666C129.898 48.0722 129.211 47.2639 128.704 46.2412C128.198 45.2186 127.944 44.0474 127.944 42.7278C127.944 41.4082 128.198 40.2371 128.704 39.2144C129.227 38.1918 129.93 37.3918 130.813 36.8144C131.696 36.2371 132.701 35.9485 133.829 35.9485C134.467 35.9485 135.047 36.0474 135.57 36.2454C136.109 36.4268 136.575 36.6825 136.968 37.0124C137.376 37.3423 137.72 37.7216 137.997 38.1505C138.275 38.5794 138.471 39.0412 138.586 39.5361L137.85 39.4124V36.2206H141.308V49.3093H137.801V46.167L138.586 46.0928C138.455 46.5546 138.243 46.9918 137.948 47.4041C137.654 47.8165 137.286 48.1876 136.845 48.5175C136.42 48.8309 135.938 49.0866 135.398 49.2845C134.859 49.466 134.287 49.5567 133.682 49.5567ZM134.638 46.5134C135.292 46.5134 135.864 46.3567 136.355 46.0433C136.845 45.7299 137.221 45.2928 137.483 44.732C137.76 44.1546 137.899 43.4866 137.899 42.7278C137.899 41.9856 137.76 41.334 137.483 40.7732C137.221 40.2124 136.845 39.7753 136.355 39.4619C135.864 39.132 135.292 38.967 134.638 38.967C134.001 38.967 133.437 39.132 132.946 39.4619C132.472 39.7753 132.096 40.2124 131.818 40.7732C131.54 41.334 131.402 41.9856 131.402 42.7278C131.402 43.4866 131.54 44.1546 131.818 44.732C132.096 45.2928 132.472 45.7299 132.946 46.0433C133.437 46.3567 134.001 46.5134 134.638 46.5134Z" fill="#575757"/>
<path d="M144.798 49.3093V36.2206H148.133L148.231 38.8928L147.545 39.1897C147.725 38.5959 148.043 38.0598 148.501 37.5814C148.975 37.0866 149.539 36.6907 150.193 36.3938C150.847 36.0969 151.533 35.9485 152.253 35.9485C153.233 35.9485 154.051 36.1464 154.705 36.5423C155.375 36.9381 155.873 37.5402 156.2 38.3485C156.544 39.1402 156.715 40.1216 156.715 41.2928V49.3093H153.233V41.5649C153.233 40.9711 153.152 40.4763 152.988 40.0804C152.825 39.6845 152.571 39.3959 152.228 39.2144C151.901 39.033 151.492 38.9505 151.002 38.967C150.61 38.967 150.242 39.033 149.899 39.1649C149.572 39.2804 149.286 39.4536 149.04 39.6845C148.812 39.9155 148.624 40.1794 148.476 40.4763C148.346 40.7732 148.28 41.0948 148.28 41.4412V49.3093H146.564C146.188 49.3093 145.853 49.3093 145.559 49.3093C145.264 49.3093 145.011 49.3093 144.798 49.3093Z" fill="#575757"/>
<path d="M160.076 49.3093V31H163.558V49.3093H160.076Z" fill="#575757"/>
<path d="M173.007 49.5567C171.601 49.5567 170.367 49.268 169.304 48.6907C168.258 48.1134 167.441 47.3216 166.852 46.3155C166.28 45.3093 165.994 44.1546 165.994 42.8515C165.994 41.8289 166.157 40.8969 166.484 40.0557C166.811 39.2144 167.269 38.4887 167.857 37.8784C168.446 37.2515 169.141 36.7732 169.942 36.4433C170.759 36.0969 171.642 35.9237 172.59 35.9237C173.473 35.9237 174.29 36.0887 175.042 36.4186C175.794 36.7485 176.439 37.2103 176.979 37.8041C177.535 38.3814 177.96 39.0742 178.254 39.8825C178.548 40.6742 178.679 41.532 178.646 42.4557L178.622 43.5443H168.201L167.637 41.3918H175.753L175.361 41.8371V41.2928C175.328 40.8474 175.181 40.4515 174.919 40.1052C174.674 39.7423 174.355 39.4619 173.963 39.2639C173.571 39.0495 173.129 38.9423 172.639 38.9423C171.92 38.9423 171.307 39.0825 170.8 39.3629C170.309 39.6433 169.933 40.0557 169.672 40.6C169.41 41.1443 169.28 41.8041 169.28 42.5794C169.28 43.3711 169.443 44.0557 169.77 44.633C170.113 45.2103 170.587 45.6639 171.192 45.9938C171.813 46.3072 172.541 46.4639 173.374 46.4639C173.947 46.4639 174.47 46.3732 174.944 46.1918C175.418 46.0103 175.925 45.6969 176.464 45.2515L178.131 47.6021C177.657 48.0309 177.134 48.3938 176.562 48.6907C175.99 48.9711 175.401 49.1856 174.797 49.334C174.192 49.4825 173.595 49.5567 173.007 49.5567Z" fill="#575757"/>
<path d="M182.794 55L185.639 48.2701L185.688 50.299L179.362 36.2206H183.309L186.472 43.767C186.603 44.0474 186.726 44.3773 186.84 44.7567C186.971 45.1196 187.077 45.466 187.159 45.7959L186.57 46.068C186.685 45.7876 186.799 45.466 186.914 45.1031C187.044 44.7402 187.175 44.3526 187.306 43.9402L190.028 36.2206H194L188.557 49.3093L186.325 55H182.794Z" fill="#575757"/>
</svg>
