<svg width="169" height="50" viewBox="0 0 169 50" fill="none" xmlns="http://www.w3.org/2000/svg">
<g clip-path="url(#clip0_2022_24)">
<path d="M36.4967 9.3185C36.4639 9.0741 36.2556 8.93851 36.0827 8.92381C35.9112 8.90901 32.5497 8.85661 32.5497 8.85661C32.5497 8.85661 29.7384 6.0587 29.4606 5.774C29.183 5.4894 28.6406 5.5753 28.4297 5.6398C28.4271 5.6411 27.9018 5.8076 27.0175 6.0882C26.8695 5.5968 26.652 4.9926 26.3415 4.3858C25.3407 2.4283 23.8748 1.3931 22.1037 1.3904C22.1011 1.3904 22.0997 1.3904 22.0971 1.3904C21.974 1.3904 21.8521 1.4025 21.7291 1.4133C21.6766 1.3488 21.6242 1.2857 21.5692 1.224C20.7976 0.378102 19.8086 -0.0340955 18.623 0.00220449C16.3357 0.0693045 14.0577 1.7623 12.2106 4.7698C10.911 6.8857 9.922 9.54411 9.6416 11.6022C7.0151 12.436 5.1784 13.0186 5.1378 13.0321C3.8121 13.459 3.7702 13.5006 3.5973 14.7815C3.4689 15.7495 0 43.2406 0 43.2406L29.0703 48.393L41.6699 45.183C41.6699 45.183 36.5294 9.5629 36.4967 9.3185ZM25.5621 6.55C24.8927 6.7622 24.1315 7.0038 23.3062 7.2657C23.2892 6.0788 23.1517 4.4274 22.612 3.0002C24.3477 3.3372 25.2018 5.3498 25.5621 6.55ZM21.7853 7.749C20.2618 8.2323 18.5994 8.75991 16.9318 9.28901C17.4008 7.44821 18.2903 5.6156 19.3828 4.414C19.7889 3.9669 20.3574 3.4688 21.0308 3.1842C21.6635 4.5375 21.8011 6.4534 21.7853 7.749ZM18.6688 1.56231C19.2059 1.55021 19.6579 1.671 20.0444 1.9315C19.426 2.2604 18.8287 2.733 18.268 3.3493C16.8152 4.947 15.7017 7.4268 15.2576 9.8193C13.8729 10.2583 12.5184 10.6893 11.2712 11.084C12.0586 7.318 15.1384 1.66701 18.6688 1.56231Z" fill="#95BF47"/>
<path d="M36.0847 8.9255C35.9131 8.9107 32.5517 8.85839 32.5517 8.85839C32.5517 8.85839 29.7404 6.0604 29.4627 5.7757C29.3592 5.6697 29.219 5.6146 29.0723 5.5918L29.0736 48.392L41.6719 45.184C41.6719 45.184 36.5315 9.56459 36.4987 9.32019C36.4659 9.07579 36.2563 8.9402 36.0847 8.9255Z" fill="#5E8E3E"/>
<path d="M22.0873 15.5639L20.6241 21.1746C20.6241 21.1746 18.9918 20.4133 17.057 20.5382C14.2195 20.7222 14.1893 22.5561 14.2182 23.0167C14.3728 25.526 20.814 26.0738 21.1756 31.9516C21.4599 36.5755 18.7822 39.7387 14.9243 39.9884C10.2934 40.2878 7.74414 37.4885 7.74414 37.4885L8.72534 33.211C8.72534 33.211 11.2916 35.1954 13.3457 35.0624C14.6872 34.9752 15.1666 33.8568 15.1181 33.066C14.9164 29.7927 9.67114 29.9861 9.33974 24.6076C9.06074 20.0818 11.9611 15.4954 18.3604 15.0819C20.8258 14.9195 22.0873 15.5639 22.0873 15.5639Z" fill="white"/>
<path d="M58.2612 27.3132C56.8125 26.5076 56.0679 25.8284 56.0679 24.8949C56.0679 23.7071 57.1021 22.944 58.7173 22.944C60.5973 22.944 62.276 23.7497 62.276 23.7497L63.6001 19.5923C63.6001 19.5923 62.3826 18.6162 58.7991 18.6162C53.8123 18.6162 50.3561 21.5431 50.3561 25.6579C50.3561 27.991 51.9699 29.7728 54.1228 31.0445C55.8613 32.0618 56.4824 32.7836 56.4824 33.8436C56.4824 34.9463 55.6132 35.8371 53.9994 35.8371C51.5943 35.8371 49.3231 34.564 49.3231 34.564L47.916 38.7214C47.916 38.7214 50.0144 40.1636 53.5446 40.1636C58.677 40.1636 62.3606 37.5762 62.3606 32.9101C62.3592 30.4093 60.4973 28.6275 58.2612 27.3132Z" fill="black"/>
<path d="M78.708 18.5746C76.183 18.5746 74.196 19.805 72.6658 21.6707L72.5826 21.628L74.776 9.87891H69.0641L63.5186 39.7824H69.2304L71.1339 29.5607C71.8784 25.7003 73.823 23.3259 75.645 23.3259C76.928 23.3259 77.425 24.2168 77.425 25.4898C77.425 26.2955 77.342 27.2716 77.177 28.0773L75.025 39.7838H80.737L82.972 27.695C83.22 26.422 83.386 24.896 83.386 23.8772C83.384 20.5681 81.687 18.5746 78.708 18.5746Z" fill="black"/>
<path d="M96.297 18.5742C89.426 18.5742 84.875 24.9369 84.875 32.0199C84.875 36.5582 87.605 40.2056 92.738 40.2056C99.484 40.2056 104.037 34.0134 104.037 26.7599C104.037 22.5612 101.636 18.5742 96.297 18.5742ZM93.482 35.7112C91.537 35.7112 90.709 34.0147 90.709 31.8934C90.709 28.5429 92.407 23.0713 95.511 23.0713C97.539 23.0713 98.2 24.8529 98.2 26.5921C98.2 30.1969 96.504 35.7112 93.482 35.7112Z" fill="black"/>
<path d="M118.646 18.5742C114.791 18.5742 112.603 22.0525 112.603 22.0525H112.521L112.852 18.9138H107.803C107.555 21.0351 107.099 24.2577 106.645 26.676L102.671 48.096H108.383L109.955 39.4425H110.08C110.08 39.4425 111.252 40.2056 113.432 40.2056C120.137 40.2056 124.523 33.1652 124.523 26.0382C124.523 22.0952 122.826 18.5742 118.646 18.5742ZM113.183 35.7951C111.7 35.7951 110.823 34.9468 110.823 34.9468L111.775 29.4752C112.438 25.8277 114.3 23.4094 116.287 23.4094C118.025 23.4094 118.563 25.0634 118.563 26.6334C118.563 30.4086 116.37 35.7951 113.183 35.7951Z" fill="black"/>
<path d="M132.676 10.1758C130.856 10.1758 129.407 11.6606 129.407 13.5688C129.407 15.308 130.483 16.4958 132.097 16.4958H132.18C133.96 16.4958 135.491 15.2653 135.532 13.1028C135.532 11.4062 134.415 10.1758 132.676 10.1758Z" fill="black"/>
<path d="M124.689 39.7825H130.4L134.291 19.042H128.538L124.689 39.7825Z" fill="black"/>
<path d="M148.818 19H144.845L145.051 18.0239C145.382 16.0304 146.541 14.2486 148.445 14.2486C149.461 14.2486 150.265 14.5456 150.265 14.5456L151.383 9.96475C151.383 9.96475 150.39 9.45605 148.278 9.45605C146.25 9.45605 144.224 10.0499 142.692 11.4069C140.746 13.1035 139.836 15.563 139.381 18.0239L139.216 19H136.567L135.739 23.4118H138.388L135.367 39.7844H141.079L144.1 23.4118H148.032L148.818 19Z" fill="black"/>
<path d="M162.558 19.0424C162.558 19.0424 158.987 28.2613 157.384 33.2937H157.301C157.192 31.6731 155.894 19.0424 155.894 19.0424H149.892L153.329 38.0863C153.412 38.5098 153.371 38.7655 153.205 39.0623C152.541 40.3767 151.424 41.6498 150.1 42.5833C149.024 43.3889 147.824 43.8976 146.873 44.2371L148.445 49.2C149.604 48.946 152.004 47.97 154.032 46.019C156.64 43.5167 159.039 39.6563 161.522 34.3963L168.517 19.041H162.558V19.0424Z" fill="black"/>
</g>
<defs>
<clipPath id="clip0_2022_24">
<rect width="169" height="50" fill="white"/>
</clipPath>
</defs>
</svg>
