<svg width="117" height="50" viewBox="0 0 117 50" fill="none" xmlns="http://www.w3.org/2000/svg">
<path fill-rule="evenodd" clip-rule="evenodd" d="M115.825 25.5963C115.825 17.2841 111.867 10.7252 104.301 10.7252C96.7044 10.7252 92.1074 17.2841 92.1074 25.5314C92.1074 35.3048 97.534 40.2401 105.323 40.2401C109.121 40.2401 111.994 39.3635 114.165 38.1296V31.6357C111.994 32.7397 109.504 33.4215 106.344 33.4215C103.248 33.4215 100.502 32.3176 100.151 28.4861H115.76C115.76 28.064 115.825 26.3756 115.825 25.5963ZM100.055 22.5118C100.055 18.8427 102.258 17.3165 104.27 17.3165C106.217 17.3165 108.291 18.8427 108.291 22.5118H100.055Z" fill="#635BFF"/>
<path fill-rule="evenodd" clip-rule="evenodd" d="M79.7857 10.7252C76.6571 10.7252 74.6469 12.2189 73.5296 13.2579L73.1142 11.2448H66.0918V49.1041L74.0724 47.3837L74.104 38.1946C75.253 39.0388 76.9449 40.2401 79.754 40.2401C85.4673 40.2401 90.6704 35.5645 90.6704 25.2716C90.6387 15.8554 85.3714 10.7252 79.7857 10.7252ZM77.8704 33.0969C75.9867 33.0969 74.8704 32.415 74.104 31.5707L74.0724 19.5245C74.902 18.5829 76.051 17.9335 77.8704 17.9335C80.7755 17.9335 82.7867 21.2454 82.7867 25.4989C82.7867 29.8499 80.8071 33.0969 77.8704 33.0969Z" fill="#635BFF"/>
<path fill-rule="evenodd" clip-rule="evenodd" d="M55.1113 8.80904L63.1236 7.05568V0.464355L55.1113 2.18517V8.80904Z" fill="#635BFF"/>
<path d="M63.1236 11.2764H55.1113V39.6873H63.1236V11.2764Z" fill="#635BFF"/>
<path fill-rule="evenodd" clip-rule="evenodd" d="M46.5243 13.6799L46.0141 11.2772H39.1191V39.6881H47.0988V20.4336C48.9825 17.9334 52.1743 18.388 53.1641 18.7451V11.2772C52.1427 10.8875 48.408 10.1732 46.5243 13.6799Z" fill="#635BFF"/>
<path fill-rule="evenodd" clip-rule="evenodd" d="M30.5647 4.23108L22.776 5.91945L22.7441 31.9276C22.7441 36.7331 26.2873 40.2723 31.0115 40.2723C33.6289 40.2723 35.5442 39.7853 36.5976 39.2009V32.6095C35.5762 33.0316 30.5327 34.5253 30.5327 29.7197V18.193H36.5976V11.277H30.5327L30.5647 4.23108Z" fill="#635BFF"/>
<path fill-rule="evenodd" clip-rule="evenodd" d="M8.98597 19.5245C8.98597 18.2582 10.0075 17.7711 11.6992 17.7711C14.1253 17.7711 17.1895 18.518 19.6156 19.8492V12.2189C16.9662 11.1474 14.3486 10.7252 11.6992 10.7252C5.21944 10.7252 0.910156 14.1671 0.910156 19.9142C0.910156 28.8757 13.0399 27.4472 13.0399 31.311C13.0399 32.8046 11.7631 33.2917 9.97556 33.2917C7.32617 33.2917 3.9426 32.1877 1.26128 30.6941V38.4219C4.22985 39.7206 7.23036 40.2726 9.97556 40.2726C16.6151 40.2726 21.1796 36.9283 21.1796 31.1161C21.1477 21.4402 8.98597 23.1611 8.98597 19.5245Z" fill="#635BFF"/>
</svg>
