<svg width="173" height="50" viewBox="0 0 173 50" fill="none" xmlns="http://www.w3.org/2000/svg">
<g clip-path="url(#clip0_2022_46)">
<path d="M33.0454 18.0489C36.2986 20.3555 40.2839 21.7127 44.5884 21.7127V13.4972C43.7738 13.4973 42.9612 13.413 42.1642 13.2456V19.7124C37.8602 19.7124 33.8753 18.3552 30.6212 16.0488V32.8145C30.6212 41.2014 23.7664 48 15.3112 48C12.1563 48 9.22402 47.0541 6.78809 45.4314C9.56829 48.251 13.4454 50 17.7347 50C26.1906 50 33.0457 43.2015 33.0457 34.8143V18.0489H33.0454ZM36.0358 9.7604C34.3732 7.95884 33.2815 5.63061 33.0454 3.05665V1.99988H30.7481C31.3263 5.27144 33.2986 8.06644 36.0358 9.7604ZM12.1361 38.9955C11.2071 37.7875 10.7052 36.3097 10.7075 34.7902C10.7075 30.9543 13.8428 27.844 17.7109 27.844C18.4318 27.8439 19.1484 27.9534 19.8354 28.1696V19.7704C19.0325 19.6612 18.2223 19.615 17.4123 19.632V26.1695C16.7248 25.9532 16.0079 25.8434 15.2867 25.8442C11.4186 25.8442 8.2835 28.9539 8.2835 32.7904C8.2835 35.503 9.85058 37.8514 12.1361 38.9955Z" fill="#FF004F"/>
<path d="M30.6205 16.0486C33.8747 18.3551 37.8596 19.7123 42.1636 19.7123V13.2454C39.7611 12.7378 37.6342 11.4925 36.0351 9.7604C33.2978 8.06624 31.3257 5.27123 30.7475 1.99988H24.7133V34.8138C24.6997 38.6393 21.5698 41.7368 17.7099 41.7368C15.4354 41.7368 13.4147 40.6614 12.1349 38.9955C9.84966 37.8514 8.28247 35.5028 8.28247 32.7905C8.28247 28.9545 11.4176 25.8443 15.2858 25.8443C16.0268 25.8443 16.7412 25.9587 17.4112 26.1697V19.6321C9.10456 19.8023 2.42383 26.5345 2.42383 34.814C2.42383 38.9472 4.08747 42.6939 6.78758 45.4317C9.22351 47.0542 12.1558 48 15.3107 48C23.7661 48 30.6207 41.2012 30.6207 32.8144V16.0486H30.6205Z" fill="black"/>
<path d="M42.1636 13.2454V11.4969C39.9972 11.5001 37.8732 10.8983 36.0351 9.76032C37.6623 11.5273 39.8049 12.7456 42.1636 13.2454ZM30.7475 2C30.6924 1.68729 30.65 1.3726 30.6206 1.05667V0H22.2892V32.8143C22.2758 36.6393 19.146 39.7368 15.2858 39.7368C14.1525 39.7368 13.0825 39.4699 12.1349 38.9957C13.4147 40.6615 15.4354 41.7367 17.71 41.7367C21.5695 41.7367 24.6999 38.6396 24.7134 34.8141V2H30.7475ZM17.4117 19.6322V17.7706C16.7155 17.6762 16.0136 17.629 15.3109 17.6293C6.85479 17.6291 0 24.428 0 32.8143C0 38.0721 2.69406 42.7057 6.78781 45.4313C4.08771 42.6939 2.42417 38.9469 2.42417 34.814C2.42417 26.5345 9.10458 19.8024 17.4117 19.6322Z" fill="#00F2EA"/>
<path d="M138.701 41.1248C144.751 41.1248 149.656 36.2968 149.656 30.3416C149.656 24.3867 144.751 19.5577 138.701 19.5577H137.05C143.101 19.5577 148.005 24.3865 148.005 30.3416C148.005 36.2968 143.101 41.1248 137.05 41.1248H138.701Z" fill="#FF004F"/>
<path d="M136.901 19.5577H135.251C129.201 19.5577 124.295 24.3865 124.295 30.3416C124.295 36.2968 129.201 41.1248 135.251 41.1248H136.901C130.85 41.1248 125.946 36.2968 125.946 30.3416C125.945 24.3867 130.85 19.5577 136.901 19.5577Z" fill="#00F2EA"/>
<path d="M53.6152 14.6841V20.1499H60.0669V40.9775H66.5213V20.2975H71.7731L73.5738 14.6842H53.6152V14.6841ZM106.438 14.6841V20.1499H112.89V40.9775H119.344V20.2975H124.596L126.396 14.6842H106.438V14.6841ZM74.7754 17.7859C74.7754 16.0731 76.1838 14.6841 77.9244 14.6841C79.6661 14.6841 81.0765 16.0731 81.0765 17.7859C81.0765 19.4988 79.6671 20.8878 77.9244 20.8878C76.1838 20.887 74.7754 19.4988 74.7754 17.7859ZM74.7754 23.1042H81.0765V40.9775H74.7754V23.1042ZM83.7775 14.6841V40.9773H90.0807V34.183L92.0317 32.4089L98.1838 41.1249H104.936L96.0817 28.4215L104.035 20.7394H96.3827L90.0807 26.9431V14.6841H83.7775ZM151.756 14.6841V40.9773H158.06V34.183L160.01 32.4089L166.164 41.1249H172.917L164.063 28.4215L172.016 20.7394H164.363L158.06 26.9431V14.6841H151.756Z" fill="black"/>
<path d="M137.05 41.1248C143.1 41.1248 148.005 36.2968 148.005 30.3416C148.005 24.3867 143.1 19.5577 137.05 19.5577H136.9C130.85 19.5577 125.944 24.3865 125.944 30.3416C125.944 36.2968 130.85 41.1248 136.9 41.1248H137.05ZM131.647 30.3416C131.647 27.4449 134.033 25.0985 136.976 25.0985C139.916 25.0985 142.303 27.4449 142.303 30.3416C142.303 33.2384 139.916 35.5862 136.976 35.5862C134.033 35.5857 131.647 33.2384 131.647 30.3416Z" fill="black"/>
</g>
<defs>
<clipPath id="clip0_2022_46">
<rect width="172.917" height="50" fill="white"/>
</clipPath>
</defs>
</svg>
