<svg width="195" height="85" viewBox="0 0 195 85" fill="none" xmlns="http://www.w3.org/2000/svg">
<path d="M110.64 44.2219C110.64 40.4692 109.039 37.1536 103.622 37.1536C100.843 37.1536 98.6359 37.948 97.439 38.6434L98.3163 41.6541C99.4182 40.9607 101.176 40.3896 102.836 40.3896C105.578 40.3857 106.027 41.9416 106.027 42.9419V43.1828C100.042 43.173 96.2578 45.2475 96.2578 49.4722C96.2578 52.0537 98.1788 54.4739 101.537 54.4739C103.585 54.4739 105.317 53.6445 106.351 52.3353H106.451C106.451 52.3353 107.133 55.1964 110.903 54.1029C110.712 52.9044 110.64 51.6419 110.64 50.1074V44.2219V44.2219ZM106.175 48.1844C106.175 48.4874 106.149 48.8021 106.06 49.0721C105.716 50.2278 104.527 51.1951 103.047 51.1951C101.798 51.1951 100.818 50.4862 100.818 49.0002C100.818 46.7276 103.32 46.1022 106.175 46.1177" fill="#575757"/>
<path d="M19 32.0476C19 32.0476 22.9097 48.0918 23.5314 50.6907C24.2633 53.7286 25.5743 54.8513 29.3583 54.1035L31.8021 44.1545C32.4198 41.6896 32.84 39.9221 33.239 37.4106H33.3067C33.5836 39.9473 33.9826 41.6896 34.488 44.1623C34.488 44.1623 35.4852 48.6823 36.0023 51.05C36.5058 53.4178 37.9233 54.9115 41.6356 54.1035L47.4527 32.0476H42.7567L40.7603 41.5886C40.2316 44.3527 39.7513 46.5301 39.3776 49.063H39.3098C38.9729 46.5573 38.5449 44.4692 37.995 41.7615L35.9268 32.0476H31.0275L28.8199 41.5129C28.1905 44.4032 27.6018 46.7204 27.2319 49.1737H27.1681C26.7866 46.8719 26.2696 43.9409 25.7215 41.1594C25.7215 41.1594 24.4105 34.3824 23.9477 32.0476" fill="#575757"/>
<path d="M60.5394 44.2219C60.5394 40.4692 58.934 37.1536 53.5177 37.1536C50.7466 37.1536 48.5352 37.948 47.3384 38.6434L48.2156 41.6541C49.3136 40.9607 51.0701 40.3896 52.7354 40.3896C55.4774 40.3857 55.9267 41.9416 55.9267 42.9419V43.1828C49.9411 43.173 46.1533 45.2475 46.1533 49.4722C46.1533 52.0537 48.0821 54.4739 51.4244 54.4739C53.4925 54.4739 55.2083 53.6445 56.2424 52.3353H56.3469C56.3469 52.3353 57.0324 55.1964 60.7989 54.1029C60.6053 52.9044 60.5394 51.6419 60.5394 50.1074V44.2219V44.2219ZM56.0701 48.1844C56.0701 48.4874 56.0449 48.8021 55.9597 49.0721C55.611 50.2278 54.4221 51.1951 52.9388 51.1951C51.6974 51.1951 50.7137 50.4862 50.7137 49.0002C50.7137 46.7276 53.2156 46.1022 56.0701 46.1177" fill="#575757"/>
<path d="M62.9766 32.0476V54.0957H67.4459V49.4204V32.0476H62.9766Z" fill="#575757"/>
<path d="M124.357 32.0476V48.3151C124.357 50.5606 124.778 52.1261 125.682 53.0857C126.476 53.9267 127.775 54.4745 129.322 54.4745C130.651 54.4745 131.95 54.2181 132.564 53.9947L132.51 50.4926C132.051 50.5994 131.526 50.6907 130.806 50.6907C129.28 50.6907 128.776 49.7214 128.776 47.7052V41.4779H132.669V37.2649H128.776V32.0476" fill="#575757"/>
<path d="M112.805 37.536V54.1027H117.426V45.6183C117.426 45.1619 117.455 44.7676 117.526 44.4024C117.871 42.6135 119.225 41.481 121.175 41.481C121.719 41.481 122.089 41.5413 122.499 41.6054V37.2622C122.154 37.2 121.92 37.167 121.496 37.167C119.767 37.167 117.807 38.2683 116.98 40.6672H116.866V37.536" fill="#575757"/>
<path d="M70.041 37.536V54.1027H74.5432V44.3791C74.5432 43.9226 74.5936 43.4565 74.7543 43.035C75.1204 42.0502 76.0286 40.91 77.4867 40.91C79.2992 40.91 80.1552 42.4445 80.1552 44.6588V54.1027H84.646V44.2626C84.646 43.8333 84.706 43.3069 84.8318 42.9262C85.192 41.8093 86.1757 40.91 87.5352 40.91C89.3671 40.91 90.254 42.4115 90.254 45.022V54.1027H94.7408V44.3344C94.7408 39.2026 92.1381 37.167 89.1831 37.167C87.8838 37.167 86.8497 37.4875 85.9201 38.0624C85.1339 38.5461 84.4446 39.2279 83.8268 40.1194H83.759C83.0483 38.3363 81.3791 37.167 79.1985 37.167C76.4023 37.167 75.132 38.583 74.3845 39.7795H74.3167V37.536" fill="#575757"/>
<path d="M156.849 36.7926C157.732 36.7926 158.476 36.3303 158.573 35.7359L159.448 25.7909C159.448 24.8061 158.292 24 156.849 24C155.399 24 154.25 24.8061 154.25 25.7909L155.134 35.7359C155.227 36.3303 155.966 36.7926 156.849 36.7926Z" fill="#828282"/>
<path d="M151.479 39.9045C151.916 39.1275 151.891 38.2651 151.419 37.8805L143.247 32.1485C142.397 31.6513 141.124 32.2437 140.396 33.4985C139.67 34.7513 139.817 36.1576 140.65 36.6452L149.697 40.8524C150.276 41.0699 151.033 40.6659 151.479 39.8967" fill="#828282"/>
<path d="M162.218 39.8963C162.681 40.6654 163.438 41.0695 164.002 40.8636L173.049 36.6447C173.89 36.1474 174.015 34.7547 173.305 33.5019C172.579 32.2471 171.298 31.6586 170.45 32.1461L162.276 37.8723C161.823 38.2627 161.79 39.129 162.228 39.904" fill="#828282"/>
<path d="M156.849 49.2151C157.732 49.2151 158.476 49.6774 158.573 50.2718L159.448 60.2168C159.448 61.2016 158.292 61.9999 156.849 61.9999C155.399 61.9999 154.25 61.2016 154.25 60.2168L155.134 50.2718C155.227 49.6774 155.966 49.2151 156.849 49.2151Z" fill="#828282"/>
<path d="M162.218 46.1121C162.681 45.341 163.438 44.9292 164.002 45.1526L173.049 49.3637C173.89 49.8512 174.015 51.2556 173.305 52.5103C172.579 53.7554 171.298 54.3478 170.45 53.8603L162.276 48.1264C161.823 47.7398 161.79 46.8774 162.228 46.1121" fill="#828282"/>
<path d="M151.479 46.1036C151.916 46.8786 151.891 47.7391 151.419 48.1275L143.247 53.8518C142.397 54.349 141.124 53.7547 140.396 52.5096C139.67 51.2567 139.817 49.8504 140.65 49.3629L149.697 45.1518C150.276 44.9304 151.033 45.3383 151.479 46.1036Z" fill="#828282"/>
<path d="M175.697 52.9875H175.809C175.962 52.9875 176.024 53.0361 176.041 53.1584C176.074 53.2944 176.092 53.3857 176.125 53.4245H176.415C176.39 53.3954 176.357 53.3216 176.34 53.1507C176.307 53.003 176.231 52.9195 176.125 52.8904V52.8632C176.272 52.8302 176.357 52.7311 176.357 52.6087C176.357 52.498 176.307 52.4184 176.256 52.3679C176.16 52.3213 176.067 52.2843 175.861 52.2843C175.679 52.2843 175.546 52.2999 175.439 52.3251V53.4245H175.697V52.9875V52.9875ZM175.704 52.4864L175.836 52.4689C175.991 52.4689 176.074 52.5407 176.074 52.6417C176.074 52.7544 175.962 52.8069 175.819 52.8069H175.704V52.4864V52.4864ZM175.869 51.7405C175.234 51.7405 174.73 52.2377 174.73 52.8476C174.73 53.4731 175.234 53.9703 175.869 53.9703C176.512 53.9703 177 53.4731 177 52.8476C177 52.2377 176.512 51.7405 175.869 51.7405ZM175.869 51.9639C176.357 51.9639 176.719 52.3601 176.719 52.8476C176.719 53.3391 176.357 53.747 175.869 53.7392C175.381 53.7392 175.011 53.3391 175.011 52.8476C175.011 52.3601 175.381 51.9639 175.861 51.9639" fill="#828282"/>
</svg>
