<svg width="117" height="114" viewBox="0 0 117 114" fill="none" xmlns="http://www.w3.org/2000/svg">
<path d="M50.5056 102.944L48.4732 114L44.3575 113.253C43.5446 113.104 42.9348 112.855 42.4267 112.506C41.9694 112.157 41.6138 111.759 41.4613 111.261C41.2581 110.763 41.2581 110.265 41.3597 109.717C41.4613 109.269 41.6138 108.87 41.817 108.621C42.0203 108.372 42.3251 108.123 42.63 107.974C42.9348 107.825 43.2905 107.775 43.6462 107.725V107.625C43.2905 107.526 42.9348 107.376 42.63 107.078C42.3251 106.779 42.0711 106.43 41.9186 105.982C41.7662 105.534 41.7154 105.036 41.817 104.488C41.9186 103.94 42.1727 103.442 42.4775 103.044C42.8332 102.645 43.2905 102.346 43.9002 102.197C44.51 102.048 45.2721 102.048 46.1359 102.197L50.5056 102.944ZM47.6602 108.92L45.3737 108.522C44.9673 108.472 44.6116 108.472 44.3067 108.572C44.0019 108.671 43.697 108.821 43.4429 109.07C43.1889 109.319 43.0873 109.568 42.9856 109.966C42.884 110.414 42.9856 110.813 43.2905 111.211C43.5954 111.61 44.0527 111.809 44.7132 111.958L47.0505 112.357L47.6602 108.92ZM48.524 104.04L46.0851 103.591C45.2721 103.442 44.6624 103.492 44.2559 103.741C43.8494 103.99 43.5954 104.338 43.4938 104.787C43.4429 105.135 43.4429 105.484 43.5954 105.783C43.697 106.082 43.951 106.38 44.2559 106.629C44.5608 106.878 44.9164 107.028 45.3737 107.078L47.9142 107.526L48.524 104.04Z" fill="#232ED1"/>
<path d="M36.7369 99.1592C37.4991 99.458 38.1088 99.9062 38.5153 100.504C38.9217 101.052 39.1758 101.699 39.2266 102.446C39.2774 103.193 39.125 103.94 38.7693 104.737C38.4136 105.534 37.9563 106.181 37.3974 106.629C36.8385 107.127 36.178 107.426 35.5174 107.526C34.8061 107.625 34.0947 107.526 33.3834 107.227C32.9261 107.028 32.5196 106.779 32.164 106.48C31.8083 106.181 31.5542 105.783 31.351 105.335C31.1477 104.886 31.0461 104.388 31.0969 103.791C31.0969 103.193 31.3002 102.595 31.605 101.898L31.8591 101.35L38.1596 103.94L37.6515 105.086L32.8753 103.093C32.7229 103.492 32.6212 103.89 32.6721 104.239C32.7229 104.637 32.8245 104.936 33.0277 105.235C33.231 105.534 33.5358 105.783 33.9423 105.932C34.3996 106.131 34.8061 106.181 35.2126 106.082C35.6191 106.032 35.9747 105.833 36.2796 105.584C36.5845 105.335 36.8385 104.986 36.9909 104.637L37.3974 103.741C37.6007 103.243 37.7023 102.745 37.7023 102.297C37.6515 101.848 37.5499 101.45 37.2958 101.151C37.0418 100.852 36.6861 100.554 36.2288 100.354C35.9239 100.255 35.6699 100.155 35.365 100.155C35.111 100.155 34.8061 100.155 34.6029 100.255C34.3996 100.354 34.1456 100.504 33.9423 100.703L32.5704 99.8564C32.8753 99.5078 33.231 99.209 33.6883 99.0097C34.1456 98.8105 34.6029 98.7109 35.111 98.7607C35.6191 98.8105 36.178 98.9101 36.7369 99.1592Z" fill="#232ED1"/>
<path d="M22.2549 98.362L23.6776 99.0095C23.6268 99.2087 23.576 99.4079 23.6268 99.6071C23.6268 99.8063 23.7284 100.055 23.8301 100.254C23.9825 100.454 24.1857 100.703 24.4398 100.852C24.8463 101.101 25.2019 101.251 25.6084 101.251C25.9641 101.251 26.269 101.101 26.4722 100.852C26.6246 100.603 26.6754 100.354 26.6246 100.105C26.5738 99.8561 26.3706 99.5573 26.0149 99.2087L25.0495 98.2126C24.4906 97.615 24.1857 97.0672 24.0841 96.5692C23.9825 96.0712 24.0841 95.5233 24.4398 95.0253C24.7446 94.6269 25.1003 94.3281 25.6084 94.1787C26.0657 94.0293 26.5738 93.9795 27.1835 94.1289C27.7425 94.2285 28.3014 94.4775 28.9111 94.8759C29.7241 95.4237 30.2322 96.0214 30.4862 96.6688C30.7403 97.3162 30.7403 98.0134 30.3846 98.7106L28.9111 98.0134C29.0635 97.615 29.0635 97.2664 28.9619 96.9178C28.8095 96.5692 28.5554 96.2704 28.1489 95.9716C27.6916 95.6727 27.2852 95.5233 26.8787 95.5233C26.4722 95.5233 26.1673 95.6728 26.0149 95.9218C25.8625 96.121 25.8117 96.37 25.8625 96.619C25.9133 96.868 26.1165 97.1668 26.3706 97.4656L27.3868 98.5114C27.9457 99.1091 28.2506 99.6569 28.3522 100.205C28.4538 100.753 28.3014 101.251 27.9457 101.749C27.6408 102.147 27.2852 102.446 26.8279 102.595C26.3706 102.745 25.8625 102.745 25.3544 102.645C24.8463 102.545 24.2873 102.296 23.7792 101.948C23.0171 101.45 22.509 100.852 22.3057 100.254C22.0009 99.6569 22.0009 99.0095 22.2549 98.362Z" fill="#232ED1"/>
<path d="M16.1569 98.5111L14.9375 97.3657L20.5774 91.6385C20.7807 91.3895 20.9331 91.1903 20.9839 91.0409C21.0347 90.8417 21.0347 90.6923 20.9331 90.5429C20.8823 90.3934 20.7807 90.244 20.6283 90.1444C20.5266 90.0448 20.425 89.995 20.3742 89.9452C20.3234 89.8954 20.2218 89.8456 20.171 89.7958L20.9331 88.6006C21.0347 88.6504 21.1364 88.7002 21.2888 88.7998C21.4412 88.8994 21.6445 89.0488 21.7969 89.1982C22.1018 89.497 22.3558 89.8456 22.5082 90.1942C22.6607 90.5429 22.7115 90.9413 22.6607 91.3397C22.6099 91.7381 22.3558 92.1365 22.0001 92.4851L16.1569 98.5111ZM15.0899 94.7262L16.0045 93.78L19.358 96.9673L18.4434 97.9135L15.0899 94.7262Z" fill="#232ED1"/>
<path d="M15.3449 80.8316C15.5989 81.2798 15.7514 81.7778 15.8022 82.226C15.853 82.724 15.7514 83.1224 15.5481 83.5208C15.3449 83.9193 14.9892 84.2679 14.4811 84.5667C14.0746 84.8157 13.6681 84.9153 13.3125 84.9153C12.9568 84.9153 12.6011 84.8157 12.2963 84.6165C11.9914 84.4173 11.6865 84.2181 11.4325 83.9193C11.1784 83.6204 10.8736 83.3216 10.6703 83.0228C10.3655 82.6244 10.1114 82.2758 9.90817 82.0268C9.70493 81.7778 9.5525 81.6284 9.40007 81.5288C9.24764 81.4292 9.09521 81.479 8.89196 81.5786H8.84115C8.43467 81.8276 8.18062 82.1264 8.079 82.475C7.97738 82.8236 8.079 83.2718 8.33305 83.7201C8.63791 84.2181 8.94277 84.5169 9.29845 84.6663C9.65412 84.8157 10.0098 84.8655 10.3655 84.8157L10.8228 86.3097C10.2638 86.4093 9.75574 86.3595 9.29845 86.2101C8.84115 86.0607 8.43467 85.8117 8.079 85.5129C7.72333 85.1643 7.41846 84.8157 7.16441 84.3675C7.01198 84.0687 6.85955 83.7699 6.70712 83.3714C6.6055 83.0228 6.55469 82.6244 6.55469 82.226C6.55469 81.8276 6.70712 81.4292 6.91036 81.0806C7.1136 80.732 7.52008 80.3833 8.079 80.0347L13.0076 77.2458L13.8206 78.6403L12.8044 79.2379L12.8552 79.2877C13.1092 79.2877 13.3633 79.2877 13.6681 79.3873C13.973 79.4869 14.2271 79.6363 14.5319 79.8355C14.8368 80.1343 15.0908 80.4331 15.3449 80.8316ZM13.973 81.1802C13.7189 80.7818 13.4649 80.4829 13.16 80.2837C12.8552 80.0845 12.4995 79.9849 12.1438 79.9849C11.7882 79.9849 11.4833 80.0845 11.1784 80.2339L10.213 80.7818C10.3147 80.7818 10.4163 80.8814 10.5179 80.981C10.6195 81.0806 10.7719 81.23 10.9244 81.4292C11.0768 81.5786 11.1784 81.7778 11.3309 81.9272C11.4325 82.0766 11.5849 82.226 11.6357 82.3256C11.839 82.5746 12.0422 82.8236 12.2454 82.973C12.4487 83.1722 12.7027 83.2718 12.906 83.3216C13.16 83.3714 13.4141 83.3216 13.6681 83.1722C14.0238 82.973 14.2271 82.6742 14.2271 82.3256C14.3287 81.977 14.2271 81.5786 13.973 81.1802Z" fill="#232ED1"/>
<path d="M14.0756 70.5228C14.2788 71.1702 14.3805 71.718 14.3297 72.2658C14.3297 72.7638 14.228 73.2121 14.0248 73.6105C13.8216 74.0089 13.6183 74.3077 13.3134 74.5567L12.2972 73.4113C12.3989 73.2618 12.5513 73.1124 12.6529 72.8634C12.7545 72.6642 12.8562 72.3654 12.907 72.0666C12.9578 71.7678 12.907 71.3694 12.7545 70.971C12.5513 70.3734 12.2464 69.9251 11.8399 69.6263C11.4335 69.3275 10.8746 69.2777 10.2648 69.4769L8.6389 69.9749L8.68971 70.0745C8.89295 70.1244 9.147 70.1742 9.40105 70.2738C9.6551 70.3734 9.90915 70.5726 10.214 70.8216C10.5189 71.0706 10.6713 71.469 10.8237 71.967C11.027 72.6144 11.0778 73.212 10.9254 73.8097C10.7729 74.4073 10.4681 74.9551 9.95997 75.4531C9.45186 75.9511 8.79133 76.2997 7.92755 76.5986C7.06378 76.8476 6.25081 76.9472 5.53946 76.8476C4.82812 76.748 4.2184 76.499 3.71029 76.1005C3.20219 75.7021 2.84652 75.1543 2.64328 74.5069C2.49085 74.0089 2.44003 73.5607 2.49085 73.212C2.54166 72.8634 2.69409 72.5646 2.84652 72.3156C2.99895 72.0666 3.15138 71.8674 3.30381 71.718L3.253 71.6184L1.93193 72.0168L1.42383 70.473L9.80753 67.8833C10.5189 67.6841 11.1286 67.6343 11.6875 67.8335C12.2464 68.0327 12.7037 68.3315 13.1102 68.8295C13.5167 69.3275 13.8724 69.8255 14.0756 70.5228ZM9.40105 71.967C9.24862 71.5188 9.04538 71.1702 8.68971 70.9212C8.33403 70.6722 7.97836 70.5228 7.52107 70.5228C7.06378 70.473 6.55567 70.5726 5.99676 70.722C5.43784 70.8714 4.98055 71.1204 4.62488 71.4192C4.26921 71.718 4.01516 72.0666 3.86272 72.4152C3.71029 72.8136 3.71029 73.212 3.86272 73.6603C4.01516 74.1085 4.26921 74.5069 4.62488 74.7061C4.98055 74.9551 5.38703 75.0547 5.84433 75.1045C6.30162 75.1543 6.80972 75.0547 7.31783 74.9053C7.87674 74.7559 8.28322 74.5069 8.6389 74.2081C8.99457 73.9093 9.24862 73.5607 9.35024 73.212C9.55348 72.8634 9.55348 72.465 9.40105 71.967Z" fill="#232ED1"/>
<path d="M8.99374 61.6084C9.09537 62.455 8.94293 63.1523 8.63807 63.7997C8.33321 64.4471 7.87592 64.9451 7.21538 65.2937C6.60566 65.6922 5.8435 65.8914 4.92892 65.991C4.06514 66.0906 3.25218 65.991 2.59164 65.6921C1.8803 65.4431 1.32138 65.0447 0.914901 64.4969C0.508418 63.9491 0.254366 63.3017 0.152746 62.5049C0.101935 62.0068 0.152746 61.5586 0.254366 61.1104C0.355987 60.6622 0.610039 60.214 0.914901 59.8654C1.21976 59.467 1.62625 59.1681 2.18516 58.9191C2.69326 58.6701 3.3538 58.5207 4.11595 58.4211L4.72568 58.3713L5.3354 65.0447L4.06514 65.1443L3.60785 60.0646C3.15056 60.1144 2.79488 60.214 2.49002 60.4132C2.18516 60.6124 1.93111 60.9112 1.77868 61.21C1.62625 61.5088 1.52462 61.9072 1.57544 62.3554C1.62625 62.8037 1.77868 63.2021 2.03273 63.5009C2.28678 63.7997 2.59164 64.0487 2.99812 64.1981C3.40461 64.3475 3.81109 64.3973 4.21757 64.3475L5.18297 64.2479C5.74188 64.1981 6.24999 64.0487 6.60566 63.7997C6.96133 63.5507 7.26619 63.2519 7.46943 62.9033C7.62186 62.5049 7.72349 62.1064 7.67268 61.6084C7.62187 61.3096 7.57105 61.0108 7.46943 60.7618C7.36781 60.5128 7.21538 60.3136 7.01214 60.1144C6.8089 59.965 6.55485 59.8156 6.3008 59.7658L6.45323 58.1721C6.91052 58.2717 7.36781 58.4211 7.72349 58.7199C8.07916 59.0187 8.38402 59.3674 8.63807 59.8654C8.89212 60.3634 8.94293 61.0108 8.99374 61.6084Z" fill="#232ED1"/>
<path d="M3.65834 53.4901L8.73938 54.0878L8.53614 55.7312L0 54.7352L0.203241 53.1913L1.57512 53.3407V53.2411C1.16864 52.9921 0.812965 52.6435 0.609724 52.1953C0.406483 51.7471 0.304862 51.1993 0.406483 50.6017C0.457293 50.0538 0.660534 49.5558 0.965396 49.1574C1.27026 48.759 1.67674 48.4602 2.18484 48.3108C2.69295 48.1116 3.30267 48.0618 4.01402 48.1614L9.45072 48.8088L9.24748 50.4523L3.96321 49.755C3.35348 49.7052 2.84538 49.8048 2.4389 50.0538C2.03241 50.3526 1.82917 50.7511 1.77836 51.2989C1.72755 51.6973 1.77836 51.9961 1.93079 52.3447C2.08322 52.6435 2.28647 52.8925 2.59133 53.1415C2.84538 53.2909 3.20105 53.4403 3.65834 53.4901Z" fill="#232ED1"/>
<path d="M11.3309 42.7831C11.0768 43.5301 10.6703 44.1775 10.1114 44.5759C9.5525 45.0242 8.89197 45.2732 8.18062 45.3728C7.46928 45.4724 6.65631 45.3728 5.84335 45.074C5.03038 44.7752 4.31904 44.3767 3.81093 43.8787C3.30283 43.3807 2.94716 42.7831 2.79473 42.0859C2.6423 41.3886 2.69311 40.6914 2.94716 39.9444C3.1504 39.3468 3.45526 38.8488 3.86174 38.4503C4.26823 38.0519 4.72552 37.7531 5.23362 37.6037C5.74173 37.4543 6.30064 37.4543 6.85955 37.5539L6.35145 39.048C5.94497 38.9982 5.53848 39.0978 5.18281 39.297C4.82714 39.4962 4.52228 39.8448 4.36985 40.3428C4.21742 40.791 4.21742 41.1894 4.31904 41.5878C4.42066 41.9863 4.67471 42.3349 5.03038 42.6835C5.38605 43.0321 5.84335 43.2811 6.45307 43.4803C7.0628 43.6795 7.5709 43.7791 8.079 43.7293C8.5871 43.6795 8.99359 43.5799 9.34926 43.3309C9.70493 43.0819 9.95898 42.7333 10.1114 42.2851C10.213 41.9863 10.2638 41.6875 10.213 41.4384C10.1622 41.1396 10.1114 40.8906 9.95898 40.6914C9.80655 40.4922 9.60331 40.2432 9.34926 40.0938L9.85736 38.5997C10.3655 38.8488 10.7719 39.1476 11.0768 39.5958C11.3817 39.9942 11.5849 40.4922 11.6357 41.04C11.6357 41.5878 11.5849 42.1855 11.3309 42.7831Z" fill="#232ED1"/>
<path d="M16.6665 38.1519C16.5141 38.3511 16.4124 38.5503 16.26 38.6997C16.1076 38.8491 16.006 38.9487 15.9043 39.0483L14.9389 38.0025C15.1422 37.8033 15.3454 37.5543 15.4471 37.3551C15.5487 37.1559 15.5995 36.9069 15.5487 36.7077C15.4979 36.4587 15.3454 36.2096 15.0914 35.861L14.6849 35.4128L5.58984 33.7196L6.50443 32.2255L13.3638 33.7196L13.4146 33.62L8.7909 28.4406L9.70548 26.9465L16.26 34.7654C16.5649 35.114 16.7681 35.5124 16.9206 35.861C17.073 36.2096 17.1238 36.6081 17.073 36.9567C17.0222 37.3053 16.8697 37.7535 16.6665 38.1519Z" fill="#232ED1"/>
<path d="M21.5936 25.9504L20.7807 25.0042L21.0347 19.526C21.0347 18.9284 21.0855 18.4303 21.0347 18.0319C21.0347 17.6335 20.9839 17.2351 20.8823 16.9363C20.7807 16.6375 20.6282 16.3387 20.425 16.0897C20.1709 15.7908 19.8661 15.6414 19.5612 15.5418C19.2564 15.4422 18.9007 15.4422 18.5958 15.5418C18.291 15.6414 17.9353 15.7908 17.6812 16.0399C17.3764 16.2889 17.1731 16.5877 17.0207 16.9363C16.9191 17.2351 16.8683 17.5837 16.9699 17.9323C17.0715 18.2809 17.2239 18.5797 17.478 18.8786L16.2585 19.9742C15.8013 19.4762 15.4964 18.9284 15.3948 18.3307C15.2932 17.7331 15.344 17.1355 15.598 16.5877C15.8521 15.9901 16.2077 15.492 16.7667 15.0438C17.3256 14.5956 17.8845 14.2968 18.4942 14.1474C19.1039 13.998 19.6628 13.998 20.2218 14.1972C20.7807 14.3466 21.238 14.6454 21.6444 15.1434C21.9493 15.4422 22.1525 15.7908 22.305 16.2391C22.4574 16.6375 22.559 17.1355 22.559 17.7829C22.559 18.4303 22.559 19.1774 22.5082 20.1734L22.3558 23.2611L22.4066 23.3109L26.2682 19.9742L27.2336 21.0698L21.5936 25.9504Z" fill="#232ED1"/>
<path d="M33.0268 17.9324C32.2647 18.3309 31.4517 18.4803 30.6895 18.3807C29.9274 18.2811 29.1652 17.9324 28.4539 17.285C27.7425 16.6874 27.082 15.8408 26.5231 14.7451C25.9134 13.6495 25.5577 12.7033 25.4561 11.757C25.3545 10.8606 25.4561 10.0638 25.7609 9.36655C26.1166 8.66932 26.6247 8.1215 27.4377 7.72309C28.1998 7.32468 28.962 7.17527 29.775 7.27488C30.5879 7.37448 31.2993 7.72309 32.0106 8.32071C32.722 8.91833 33.3825 9.76496 33.9414 10.8108C34.5511 11.9064 34.9068 12.9025 35.0084 13.7989C35.1609 14.6953 35.0592 15.542 34.7036 16.1894C34.3479 16.9364 33.789 17.4842 33.0268 17.9324ZM32.3155 16.6376C32.976 16.289 33.3317 15.6914 33.3825 14.7949C33.4333 13.9483 33.0776 12.9025 32.4171 11.6574C31.9598 10.8606 31.5025 10.2132 30.9944 9.71516C30.4863 9.21714 30.029 8.91833 29.5209 8.81873C29.0128 8.71913 28.5555 8.76893 28.0982 9.01794C27.4377 9.36655 27.082 9.96417 27.0312 10.8606C26.9804 11.7072 27.3361 12.7531 27.9966 13.9981C28.4539 14.8447 28.9112 15.4922 29.4193 15.9404C29.9274 16.4384 30.3847 16.6874 30.8928 16.8368C31.3501 16.9364 31.8582 16.8866 32.3155 16.6376Z" fill="#232ED1"/>
<path d="M38.9213 14.9443L38.5656 13.7491L41.2077 8.91833C41.5126 8.42032 41.7158 7.9223 41.8683 7.57369C42.0207 7.17528 42.1731 6.82666 42.2239 6.52785C42.2747 6.22904 42.2747 5.88043 42.1731 5.58162C42.0715 5.23301 41.9191 4.9342 41.665 4.73499C41.411 4.53579 41.1061 4.38638 40.8012 4.33658C40.4456 4.28678 40.0899 4.28678 39.7342 4.38638C39.3277 4.48599 39.0229 4.68519 38.7688 4.8844C38.5148 5.13341 38.3623 5.43222 38.2607 5.73103C38.1591 6.02984 38.2099 6.42825 38.3115 6.82666L36.7364 7.27488C36.5332 6.62746 36.5332 5.98004 36.7364 5.43222C36.8888 4.8346 37.2445 4.33658 37.7018 3.93817C38.1591 3.53975 38.718 3.24094 39.4294 3.04174C40.1407 2.84253 40.7504 2.84253 41.3602 2.94213C41.9699 3.04174 42.478 3.34055 42.9353 3.68916C43.3418 4.08757 43.6466 4.53579 43.8499 5.13341C43.9515 5.53182 44.0023 5.93023 43.9515 6.37845C43.9007 6.82666 43.7482 7.32468 43.4942 7.8725C43.2401 8.42032 42.8845 9.16734 42.4272 10.014L40.8521 12.8527V12.9523L45.8315 11.6076L46.238 13.0021L38.9213 14.9443Z" fill="#232ED1"/>
<path d="M52.7416 12.5536C51.8778 12.6034 51.1157 12.4042 50.4551 11.956C49.7946 11.5078 49.2865 10.9102 48.9308 10.0636C48.5752 9.21693 48.3719 8.1711 48.2703 6.97586C48.2195 5.78062 48.3211 4.73478 48.626 3.83835C48.9308 2.94192 49.3881 2.2945 49.9978 1.79648C50.6076 1.29847 51.3697 1.04946 52.2335 0.999658C53.0973 0.949856 53.8594 1.14906 54.52 1.59728C55.1805 2.04549 55.6886 2.64311 56.0443 3.48974C56.3999 4.33637 56.654 5.38221 56.7048 6.57745C56.7556 7.82249 56.654 8.86832 56.3491 9.71495C56.0443 10.5616 55.587 11.2588 55.0281 11.7568C54.3675 12.2548 53.6562 12.5038 52.7416 12.5536ZM52.6908 11.1094C53.4529 11.0596 54.0627 10.6612 54.4691 9.91416C54.8756 9.16713 55.0281 8.0715 54.9773 6.67705C54.9264 5.73082 54.774 4.98379 54.5708 4.33637C54.3675 3.68895 54.0119 3.24073 53.6562 2.89212C53.2497 2.59331 52.8432 2.44391 52.3351 2.44391C51.573 2.49371 50.9632 2.89212 50.5568 3.63915C50.1503 4.38617 49.9978 5.48181 50.0487 6.87626C50.0995 7.82249 50.2519 8.61931 50.4551 9.21693C50.6584 9.81455 51.014 10.3126 51.3697 10.6612C51.7254 11.0098 52.1827 11.1094 52.6908 11.1094Z" fill="#232ED1"/>
<path d="M70.9308 8.3704L70.5751 9.76485L65.6465 8.47001L66.0022 7.07556L70.9308 8.3704Z" fill="#232ED1"/>
<path d="M76.4199 17.3841L77.0805 16.3383L82.5172 15.0435C83.0761 14.8941 83.5842 14.7447 83.9907 14.645C84.3972 14.5454 84.7528 14.3462 85.0069 14.1968C85.2609 14.0474 85.515 13.7984 85.6674 13.4996C85.8707 13.2008 85.9723 12.8522 85.9723 12.5534C85.9723 12.2048 85.8707 11.906 85.7182 11.6569C85.515 11.3581 85.2609 11.1091 84.9561 10.9099C84.6004 10.7107 84.2447 10.5613 83.8891 10.5613C83.5334 10.5613 83.2285 10.6111 82.9237 10.7605C82.6188 10.9099 82.3647 11.1589 82.1615 11.5075L80.7896 10.6609C81.1453 10.0633 81.6026 9.66488 82.1615 9.41587C82.7204 9.16687 83.2793 9.06726 83.9399 9.11706C84.5496 9.16687 85.1593 9.36607 85.769 9.76449C86.3788 10.1629 86.8361 10.6111 87.1409 11.1091C87.4458 11.6569 87.5982 12.2048 87.5982 12.7526C87.5982 13.3004 87.4458 13.8482 87.0901 14.3462C86.8869 14.6949 86.582 14.9937 86.2263 15.2427C85.8707 15.4917 85.4134 15.7407 84.8036 15.9399C84.1939 16.1391 83.4318 16.3383 82.4664 16.5873L79.2653 17.3841L79.2145 17.4339L83.5842 20.1232L82.7712 21.3683L76.4199 17.3841Z" fill="#232ED1"/>
<path d="M87.4963 25.801C86.8866 25.2034 86.5309 24.5062 86.3784 23.7591C86.2768 23.0121 86.3785 22.2153 86.7849 21.3686C87.1914 20.522 87.8011 19.6754 88.7157 18.8288C89.5795 17.9821 90.4433 17.3347 91.3071 16.9861C92.1708 16.5877 92.9838 16.4881 93.746 16.5877C94.5081 16.6873 95.2195 17.0857 95.8292 17.6833C96.4389 18.2809 96.7946 18.9782 96.947 19.7252C97.0486 20.4722 96.947 21.269 96.5405 22.1157C96.134 22.9623 95.5243 23.8089 94.6605 24.6556C93.7968 25.5022 92.8822 26.1496 92.0692 26.4982C91.2054 26.8966 90.3925 26.9962 89.6303 26.8966C88.8173 26.797 88.106 26.3986 87.4963 25.801ZM88.5633 24.7552C89.1222 25.303 89.7827 25.4524 90.6465 25.2532C91.5103 25.054 92.4249 24.4065 93.4411 23.4603C94.1016 22.8129 94.6097 22.1655 94.9654 21.5679C95.2703 20.9702 95.4227 20.4224 95.4227 19.9244C95.4227 19.4264 95.2194 19.028 94.8638 18.6296C94.3049 18.0817 93.6443 17.9323 92.7806 18.1315C91.9168 18.3307 91.0022 18.9782 89.986 19.9244C89.3255 20.5718 88.8173 21.2192 88.4617 21.8169C88.1568 22.4145 88.0044 22.9623 88.0044 23.4603C88.0044 24.0081 88.2076 24.4065 88.5633 24.7552Z" fill="#232ED1"/>
<path d="M92.0684 30.5316L93.1354 29.8841L98.5721 31.0296C99.1818 31.1292 99.6899 31.2288 100.096 31.2786C100.503 31.3284 100.909 31.3284 101.214 31.2786C101.519 31.2288 101.824 31.1292 102.129 30.93C102.434 30.7308 102.688 30.4818 102.84 30.183C102.993 29.8841 103.043 29.5853 102.993 29.2367C102.942 28.8881 102.84 28.5893 102.637 28.2407C102.434 27.8921 102.18 27.6431 101.875 27.4937C101.57 27.3443 101.265 27.2447 100.909 27.2945C100.554 27.2945 100.198 27.4439 99.8931 27.6431L99.0294 26.2486C99.6391 25.9 100.198 25.7008 100.859 25.7008C101.519 25.7008 102.027 25.8502 102.586 26.149C103.145 26.4478 103.602 26.896 103.958 27.4937C104.364 28.0913 104.568 28.6889 104.618 29.2865C104.669 29.8841 104.568 30.432 104.314 30.9798C104.06 31.5276 103.653 31.926 103.145 32.2248C102.789 32.424 102.383 32.5734 101.976 32.673C101.57 32.7726 101.011 32.7726 100.401 32.673C99.7915 32.6232 98.9785 32.4738 98.0132 32.2746L94.7613 31.6272L94.7105 31.677L97.4542 35.9599L96.184 36.707L92.0684 30.5316Z" fill="#232ED1"/>
<path d="M109.446 39.1972L98.725 43.1813L98.1152 41.5876L107.21 38.2011V38.1513L104.568 36.2589L106.092 35.6613L108.836 37.6533L109.446 39.1972Z" fill="#232ED1"/>
<path d="M116.001 52.2455L97.252 54.138L97.0996 52.6937L115.849 50.8013L116.001 52.2455Z" fill="#232ED1"/>
<path d="M112.036 65.2936L100.654 63.949L100.858 62.3055L112.239 63.6502L112.036 65.2936Z" fill="#232ED1"/>
<path d="M99.1309 70.1242C99.3342 69.3771 99.7407 68.7297 100.249 68.2815C100.757 67.8333 101.417 67.5345 102.129 67.3851C102.84 67.2357 103.653 67.2855 104.517 67.5345C105.381 67.7835 106.092 68.1321 106.651 68.6301C107.21 69.1281 107.565 69.7257 107.769 70.3732C107.972 71.0206 107.921 71.7676 107.718 72.5146C107.515 73.2617 107.108 73.9091 106.6 74.3573C106.092 74.8055 105.431 75.1043 104.72 75.2537C104.009 75.4031 103.196 75.3533 102.332 75.1043C101.468 74.8553 100.757 74.5067 100.249 74.0087C99.6899 73.5107 99.3342 72.9131 99.1309 72.2656C98.9277 71.6182 98.9277 70.8712 99.1309 70.1242ZM100.503 70.5226C100.35 71.0206 100.35 71.4688 100.554 71.8672C100.757 72.2656 101.011 72.6142 101.417 72.8633C101.824 73.1621 102.281 73.3613 102.789 73.5107C103.297 73.6601 103.805 73.7099 104.314 73.7099C104.822 73.6601 105.228 73.5605 105.584 73.3115C105.94 73.0625 106.194 72.7138 106.346 72.2158C106.498 71.7178 106.498 71.2696 106.295 70.8712C106.143 70.4728 105.838 70.1242 105.431 69.8253C105.025 69.5265 104.568 69.3273 104.06 69.1779C103.551 69.0285 103.043 68.9787 102.535 68.9787C102.027 69.0285 101.621 69.1281 101.265 69.4269C100.909 69.6759 100.655 70.0246 100.503 70.5226Z" fill="#232ED1"/>
<path d="M100.961 79.8855L96.4898 77.495L97.3027 76.0508L104.873 80.0349L104.111 81.4294L102.892 80.7819L102.841 80.8816C103.146 81.28 103.298 81.6784 103.349 82.1764C103.4 82.6744 103.248 83.1724 102.943 83.7701C102.689 84.2681 102.333 84.6665 101.876 84.9155C101.469 85.1645 100.961 85.3139 100.453 85.3139C99.8941 85.3139 99.3351 85.1147 98.7254 84.8159L93.8984 82.276L94.7114 80.8318L99.3351 83.272C99.8941 83.5708 100.402 83.6705 100.859 83.521C101.317 83.4214 101.672 83.1226 101.977 82.6246C102.181 82.276 102.231 81.9772 102.231 81.6286C102.231 81.28 102.13 80.9812 101.926 80.6823C101.672 80.3835 101.368 80.1345 100.961 79.8855Z" fill="#232ED1"/>
<path d="M90.0875 86.7578C90.5448 86.2598 91.1037 85.9112 91.7134 85.712C92.3232 85.5626 92.9837 85.5626 93.695 85.7618C94.4064 85.961 95.1177 86.3594 95.7783 86.957C96.4388 87.5546 96.9977 88.202 97.2518 88.8495C97.5566 89.4969 97.6583 90.1443 97.5566 90.7917C97.455 91.4392 97.201 91.987 96.7437 92.485C96.388 92.8834 96.0323 93.1324 95.6767 93.2818C95.321 93.4312 95.0161 93.481 94.7113 93.4312C94.4064 93.4312 94.1523 93.3814 93.9491 93.3316L93.8983 93.3814L97.0993 96.1205L95.9815 97.3655L87.3438 89.9949L88.4108 88.7997L89.427 89.6463L89.5286 89.5467C89.4778 89.3475 89.3762 89.0985 89.3254 88.7997C89.2745 88.5009 89.2745 88.202 89.3762 87.8534C89.4778 87.5048 89.7318 87.1562 90.0875 86.7578ZM90.9005 87.953C90.5956 88.3017 90.3924 88.7001 90.3924 89.0985C90.3924 89.4969 90.494 89.9451 90.6972 90.3435C90.9513 90.7419 91.2562 91.1901 91.7134 91.5388C92.1707 91.9372 92.628 92.1862 93.0853 92.3356C93.5426 92.485 93.9491 92.5348 94.3556 92.4352C94.7621 92.3356 95.1177 92.1364 95.4226 91.7878C95.7275 91.4392 95.9307 91.0407 95.9307 90.5925C95.9307 90.1941 95.8291 89.7459 95.6258 89.3475C95.3718 88.9491 95.0669 88.5507 94.6604 88.202C94.2032 87.8534 93.7967 87.5546 93.3394 87.4052C92.8821 87.2558 92.4248 87.206 92.0183 87.2558C91.6118 87.3554 91.2561 87.6044 90.9005 87.953Z" fill="#232ED1"/>
<path d="M82.3136 93.9298C82.9742 93.4816 83.6347 93.1828 84.346 93.133C85.0574 93.0832 85.7179 93.1828 86.3785 93.5314C87.039 93.88 87.6487 94.378 88.1568 95.0753C88.6649 95.7725 89.0206 96.4697 89.173 97.2167C89.3255 97.9139 89.2238 98.6112 88.9698 99.2586C88.7157 99.906 88.2584 100.454 87.5979 100.952C86.9374 101.4 86.2768 101.699 85.5655 101.749C84.8541 101.798 84.1936 101.649 83.5331 101.35C82.8725 101.002 82.2628 100.504 81.7547 99.8064C81.2466 99.1092 80.8909 98.412 80.7893 97.6649C80.6877 96.9179 80.7385 96.2705 80.9925 95.6231C81.1958 94.9259 81.6531 94.378 82.3136 93.9298ZM83.1266 95.0255C82.7201 95.3243 82.466 95.6729 82.3136 96.1211C82.1612 96.5693 82.212 96.9677 82.3644 97.4159C82.5169 97.8642 82.7201 98.3124 83.0758 98.7606C83.3806 99.2088 83.7871 99.5574 84.1936 99.8064C84.6001 100.055 85.0066 100.205 85.4639 100.255C85.9212 100.304 86.3276 100.155 86.7341 99.8064C87.1406 99.5076 87.4455 99.159 87.5471 98.7108C87.6487 98.2626 87.6487 97.8641 87.4963 97.3661C87.3438 96.9179 87.1406 96.4697 86.7849 96.0215C86.4801 95.5733 86.0736 95.2247 85.6671 94.9757C85.2606 94.7266 84.8541 94.5772 84.3968 94.5772C83.9904 94.5772 83.5839 94.7266 83.1266 95.0255Z" fill="#232ED1"/>
<path d="M77.6896 102.745L75.6064 98.163L77.1307 97.4658L80.6874 105.135L79.2139 105.783L78.655 104.538L78.5534 104.587C78.5534 105.085 78.4517 105.534 78.1469 105.932C77.8928 106.331 77.4355 106.679 76.8766 106.928C76.3177 107.177 75.8096 107.277 75.3015 107.227C74.7934 107.177 74.3361 106.978 73.9296 106.679C73.5231 106.38 73.1675 105.882 72.8626 105.235L70.627 100.354L72.1513 99.6571L74.3361 104.338C74.5902 104.886 74.9458 105.285 75.4031 105.434C75.8604 105.633 76.3177 105.583 76.8258 105.384C77.1815 105.235 77.4355 105.036 77.6388 104.737C77.842 104.488 77.9436 104.139 77.9945 103.791C77.9945 103.542 77.8928 103.193 77.6896 102.745Z" fill="#232ED1"/>
</svg>
