<svg width="165" height="34" viewBox="0 0 165 34" fill="none" xmlns="http://www.w3.org/2000/svg">
<g clip-path="url(#clip0_186_1365)">
<path d="M10.152 23.7912C9.28048 22.9128 8.59105 21.8714 8.12317 20.7265C7.65529 19.5817 7.41816 18.3559 7.42535 17.1193C7.42219 15.8828 7.66588 14.6581 8.1422 13.5168C8.61851 12.3754 9.31788 11.3404 10.1994 10.4722C10.577 10.137 10.8822 9.72829 11.0961 9.2712C11.3101 8.81411 11.4284 8.31821 11.4438 7.81387C11.4592 7.30953 11.3714 6.80735 11.1857 6.3381C11 5.86884 10.7203 5.44238 10.3638 5.08482C10.0074 4.72726 9.58157 4.44612 9.11252 4.25863C8.64347 4.07114 8.14103 3.98124 7.63598 3.99443C7.13093 4.00762 6.63389 4.12363 6.17529 4.33534C5.71669 4.54706 5.30619 4.85003 4.96891 5.22571C1.80093 8.37096 0.0136149 12.6442 7.74615e-05 17.1054C-0.01346 21.5667 1.74789 25.8506 4.89673 29.015C5.2329 29.3902 5.64206 29.693 6.09925 29.9051C6.55644 30.1172 7.05209 30.234 7.55598 30.2486C8.05987 30.2631 8.56144 30.175 9.03013 29.9896C9.49881 29.8042 9.92478 29.5255 10.2821 29.1703C10.6394 28.8152 10.9205 28.3911 11.1083 27.9239C11.2962 27.4567 11.3867 26.9561 11.3746 26.4528C11.3624 25.9495 11.2477 25.454 11.0375 24.9964C10.8273 24.5388 10.526 24.1287 10.152 23.7912Z" fill="#EF5DA8"/>
<path d="M10.1983 10.4725C11.9749 8.71598 14.3763 7.73462 16.8762 7.7435C19.376 7.75238 21.7704 8.75078 23.5344 10.5198C23.8694 10.899 24.2785 11.2056 24.7366 11.421C25.1946 11.6364 25.6919 11.756 26.1979 11.7723C26.7039 11.7887 27.208 11.7015 27.679 11.5161C28.15 11.3308 28.5781 11.0511 28.9369 10.6945C29.2958 10.3378 29.5778 9.91156 29.7656 9.44201C29.9534 8.97247 30.0431 8.46952 30.0291 7.96408C30.0151 7.45865 29.8978 6.96141 29.6843 6.50294C29.4708 6.04448 29.1656 5.63446 28.7876 5.29811C27.2342 3.7267 25.3853 2.47725 23.347 1.62153C21.3087 0.765801 19.1213 0.320658 16.9102 0.311663C14.6992 0.302667 12.5082 0.729995 10.463 1.56911C8.41779 2.40822 6.55873 3.64258 4.99256 5.2013C4.61358 5.53479 4.30673 5.94202 4.09078 6.39805C3.87483 6.85408 3.75433 7.34932 3.73665 7.85347C3.71897 8.35762 3.80449 8.86007 3.98797 9.33007C4.17145 9.80007 4.44903 10.2277 4.80373 10.5869C5.15842 10.946 5.58277 11.2291 6.0508 11.4188C6.51883 11.6085 7.0207 11.7008 7.5257 11.6901C8.03069 11.6794 8.52818 11.5659 8.98772 11.3565C9.44727 11.1472 9.8592 10.8463 10.1983 10.4725Z" fill="#232ED1"/>
<path d="M23.513 23.8388C22.6338 24.7109 21.5911 25.4012 20.4444 25.8703C19.2977 26.3393 18.0696 26.5778 16.8305 26.5722C15.5917 26.574 14.365 26.329 13.2221 25.8515C12.0793 25.374 11.0433 24.6737 10.1748 23.7914C9.83917 23.4143 9.42998 23.1095 8.97231 22.8958C8.51463 22.6821 8.0181 22.564 7.51311 22.5486C7.00812 22.5332 6.5053 22.621 6.03544 22.8064C5.56558 22.9919 5.13857 23.2712 4.78055 23.6272C4.42253 23.9832 4.14104 24.4084 3.95331 24.8769C3.76558 25.3453 3.67556 25.8471 3.68877 26.3515C3.70198 26.8559 3.81813 27.3523 4.03012 27.8104C4.2421 28.2684 4.54547 28.6783 4.92163 29.0152C6.4777 30.5865 8.32897 31.8356 10.3693 32.6911C12.4097 33.5465 14.599 33.9913 16.8118 34.0001C19.0247 34.0089 21.2175 33.5815 23.2646 32.7424C25.3117 31.9032 27.1729 30.6688 28.7414 29.1099C29.088 28.7671 29.3635 28.3594 29.5523 27.9102C29.7411 27.461 29.8395 26.979 29.8418 26.4918C29.8441 26.0047 29.7503 25.5218 29.5657 25.0708C29.3812 24.6198 29.1095 24.2096 28.7662 23.8635C28.4229 23.5174 28.0147 23.2422 27.5649 23.0536C27.1151 22.8651 26.6325 22.7668 26.1447 22.7646C25.6569 22.7623 25.1734 22.8559 24.7219 23.0403C24.2703 23.2246 23.8596 23.4959 23.513 23.8388Z" fill="#01B8AA"/>
<path d="M10.1994 10.4722C9.67902 10.9912 9.01603 11.3443 8.2945 11.4865C7.57296 11.6287 6.8254 11.5536 6.14663 11.2709C5.46785 10.9881 4.88847 10.5104 4.48195 9.89827C4.07544 9.28617 3.86013 8.56727 3.86332 7.83278C3.86651 7.09828 4.08806 6.38127 4.49987 5.77271C4.91169 5.16416 5.4952 4.69146 6.1764 4.4146C6.8576 4.13774 7.60579 4.06918 8.32607 4.21762C9.04634 4.36606 9.70624 4.72482 10.2221 5.24837C10.9093 5.94588 11.2925 6.88641 11.2882 7.86494C11.284 8.84347 10.8926 9.78065 10.1994 10.4722Z" fill="#9C60FA"/>
<path d="M10.1261 29.0152C9.60551 29.5341 8.94238 29.8868 8.22079 30.0287C7.4992 30.1706 6.75166 30.0953 6.07301 29.8123C5.39435 29.5293 4.81515 29.0513 4.40888 28.439C4.00261 27.8268 3.78758 27.1078 3.79106 26.3733C3.79454 25.6388 4.01637 24.9219 4.42843 24.3135C4.84048 23.7051 5.42418 23.2326 6.10549 22.956C6.7868 22.6794 7.53502 22.6112 8.25523 22.7599C8.97544 22.9086 9.6352 23.2676 10.1508 23.7914C10.8377 24.4892 11.2206 25.4299 11.216 26.4084C11.2113 27.3869 10.8196 28.3239 10.1261 29.0152Z" fill="#8CFEE3" fill-opacity="0.9"/>
<path d="M39.3977 25.1301L35.207 10.7486H39.0531L41.2258 20.1724H41.3453L43.8273 10.7486H46.9633L49.4453 20.1935H49.5648L51.7445 10.7486H55.5836L51.4 25.1301H48.0461L45.4516 16.4085H45.3391L42.7445 25.1301H39.3977Z" fill="black"/>
<path d="M60.8711 25.3338C59.7414 25.3338 58.7664 25.1114 57.9461 24.6667C57.1305 24.2173 56.5023 23.5782 56.0617 22.7496C55.6258 21.9163 55.4078 20.9262 55.4078 19.7792C55.4078 18.665 55.6281 17.6913 56.0688 16.8579C56.5094 16.02 57.1305 15.3692 57.932 14.9058C58.7336 14.4376 59.6781 14.2035 60.7656 14.2035C61.5344 14.2035 62.2375 14.3229 62.875 14.5617C63.5125 14.8004 64.0633 15.1539 64.5273 15.622C64.9914 16.0902 65.3523 16.6683 65.6102 17.3565C65.868 18.04 65.9969 18.8242 65.9969 19.709V20.5657H56.6102V18.5714H62.7977C62.793 18.2062 62.7063 17.8809 62.5375 17.5953C62.3688 17.3097 62.1367 17.0873 61.8414 16.9282C61.5508 16.7643 61.2156 16.6824 60.8359 16.6824C60.4516 16.6824 60.107 16.769 59.8023 16.9422C59.4977 17.1107 59.2563 17.3425 59.0781 17.6374C58.9 17.9277 58.8063 18.2577 58.7969 18.6276V20.657C58.7969 21.097 58.8836 21.4833 59.057 21.8156C59.2305 22.1434 59.4766 22.3985 59.7953 22.5811C60.1141 22.7637 60.4938 22.8549 60.9344 22.8549C61.2391 22.8549 61.5156 22.8128 61.7641 22.7285C62.0125 22.6443 62.2258 22.5202 62.4039 22.3564C62.582 22.1925 62.7156 21.9912 62.8047 21.7524L65.9617 21.8437C65.8305 22.5506 65.5422 23.1663 65.0969 23.6906C64.6563 24.2102 64.0773 24.6152 63.3602 24.9054C62.643 25.191 61.8133 25.3338 60.8711 25.3338Z" fill="black"/>
<path d="M67.7529 25.1301V10.7486H71.1912V16.1908H71.2615C71.4021 15.8631 71.6014 15.5471 71.8592 15.2428C72.1217 14.9385 72.4545 14.6904 72.8576 14.4985C73.2654 14.3019 73.7529 14.2035 74.3201 14.2035C75.0701 14.2035 75.7709 14.4002 76.4225 14.7934C77.0787 15.1867 77.6084 15.7929 78.0115 16.6122C78.4147 17.4314 78.6162 18.4754 78.6162 19.7441C78.6162 20.966 78.4217 21.9889 78.0326 22.8128C77.6482 23.6367 77.1279 24.2547 76.4717 24.6667C75.8201 25.0786 75.0959 25.2846 74.299 25.2846C73.7553 25.2846 73.2842 25.1957 72.8857 25.0178C72.4873 24.8399 72.1522 24.6058 71.8803 24.3156C71.6131 24.0253 71.4068 23.714 71.2615 23.3816H71.1561V25.1301H67.7529ZM71.1209 19.7371C71.1209 20.3176 71.1982 20.8232 71.3529 21.2539C71.5123 21.6846 71.7397 22.0193 72.035 22.258C72.335 22.4921 72.6936 22.6092 73.1107 22.6092C73.5326 22.6092 73.8912 22.4921 74.1865 22.258C74.4818 22.0193 74.7045 21.6846 74.8545 21.2539C75.0092 20.8232 75.0865 20.3176 75.0865 19.7371C75.0865 19.1566 75.0092 18.6533 74.8545 18.2273C74.7045 17.8013 74.4818 17.4712 74.1865 17.2371C73.8959 17.0031 73.5373 16.886 73.1107 16.886C72.6889 16.886 72.3303 17.0007 72.035 17.2301C71.7397 17.4595 71.5123 17.7872 71.3529 18.2132C71.1982 18.6393 71.1209 19.1472 71.1209 19.7371Z" fill="black"/>
<path d="M86.5141 14.344V16.872H79.7008V14.344H86.5141ZM81.1281 11.7598H84.5664V21.7384C84.5664 21.9491 84.5992 22.1199 84.6648 22.251C84.7352 22.3774 84.8359 22.4687 84.9672 22.5249C85.0984 22.5764 85.2555 22.6021 85.4383 22.6021C85.5695 22.6021 85.7078 22.5904 85.8531 22.567C86.0031 22.5389 86.1156 22.5155 86.1906 22.4968L86.7109 24.9757C86.5469 25.0225 86.3148 25.081 86.0148 25.1512C85.7195 25.2214 85.3656 25.2659 84.9531 25.2846C84.1469 25.3221 83.4555 25.2285 82.8789 25.0037C82.307 24.7744 81.8688 24.4186 81.5641 23.9364C81.2641 23.4542 81.1188 22.8479 81.1281 22.1176V11.7598Z" fill="black"/>
<path d="M93.1937 25.3338C92.0594 25.3338 91.0844 25.1021 90.2687 24.6386C89.4578 24.1704 88.832 23.5197 88.3914 22.6864C87.9555 21.8484 87.7375 20.877 87.7375 19.7722C87.7375 18.6627 87.9555 17.6913 88.3914 16.8579C88.832 16.02 89.4578 15.3692 90.2687 14.9058C91.0844 14.4376 92.0594 14.2035 93.1937 14.2035C94.3281 14.2035 95.3008 14.4376 96.1117 14.9058C96.9273 15.3692 97.5531 16.02 97.9891 16.8579C98.4297 17.6913 98.65 18.6627 98.65 19.7722C98.65 20.877 98.4297 21.8484 97.9891 22.6864C97.5531 23.5197 96.9273 24.1704 96.1117 24.6386C95.3008 25.1021 94.3281 25.3338 93.1937 25.3338ZM93.2148 22.7426C93.6273 22.7426 93.9766 22.6162 94.2625 22.3634C94.5484 22.1106 94.7664 21.7595 94.9164 21.31C95.0711 20.8606 95.1484 20.341 95.1484 19.7511C95.1484 19.1519 95.0711 18.6276 94.9164 18.1781C94.7664 17.7287 94.5484 17.3776 94.2625 17.1248C93.9766 16.872 93.6273 16.7456 93.2148 16.7456C92.7883 16.7456 92.4273 16.872 92.132 17.1248C91.8414 17.3776 91.6188 17.7287 91.4641 18.1781C91.3141 18.6276 91.2391 19.1519 91.2391 19.7511C91.2391 20.341 91.3141 20.8606 91.4641 21.31C91.6188 21.7595 91.8414 22.1106 92.132 22.3634C92.4273 22.6162 92.7883 22.7426 93.2148 22.7426Z" fill="black"/>
<path d="M109.988 25.1301H104.665V10.7486H109.981C111.448 10.7486 112.711 11.0365 113.771 11.6123C114.835 12.1835 115.655 13.0074 116.232 14.0842C116.808 15.1562 117.096 16.439 117.096 17.9323C117.096 19.4304 116.808 20.7178 116.232 21.7946C115.66 22.8713 114.842 23.6976 113.778 24.2734C112.714 24.8446 111.45 25.1301 109.988 25.1301ZM108.146 22.1668H109.854C110.661 22.1668 111.343 22.031 111.9 21.7595C112.463 21.4833 112.887 21.0362 113.173 20.4182C113.464 19.7956 113.609 18.967 113.609 17.9323C113.609 16.8977 113.464 16.0738 113.173 15.4605C112.882 14.8426 112.454 14.3978 111.886 14.1263C111.324 13.8501 110.63 13.712 109.805 13.712H108.146V22.1668Z" fill="black"/>
<path d="M119.129 25.1301V14.344H122.567V25.1301H119.129ZM120.851 13.087C120.368 13.087 119.954 12.9278 119.607 12.6095C119.26 12.2865 119.086 11.8979 119.086 11.4438C119.086 10.9944 119.26 10.6105 119.607 10.2922C119.954 9.96913 120.368 9.80762 120.851 9.80762C121.339 9.80762 121.754 9.96913 122.096 10.2922C122.443 10.6105 122.616 10.9944 122.616 11.4438C122.616 11.8979 122.443 12.2865 122.096 12.6095C121.754 12.9278 121.339 13.087 120.851 13.087Z" fill="black"/>
<path d="M129.79 29.3997C128.763 29.3997 127.884 29.2569 127.153 28.9713C126.422 28.6857 125.847 28.2948 125.43 27.7986C125.013 27.3024 124.762 26.7406 124.678 26.1133L127.933 25.9307C127.994 26.1507 128.107 26.3427 128.271 26.5065C128.44 26.6704 128.658 26.7968 128.925 26.8857C129.197 26.9747 129.515 27.0191 129.881 27.0191C130.458 27.0191 130.933 26.8787 131.308 26.5978C131.688 26.3216 131.878 25.8371 131.878 25.1442V23.2482H131.758C131.622 23.5806 131.416 23.8778 131.14 24.14C130.863 24.4022 130.519 24.6082 130.106 24.758C129.698 24.9078 129.229 24.9827 128.7 24.9827C127.912 24.9827 127.19 24.8001 126.534 24.4349C125.883 24.0651 125.36 23.494 124.966 22.7215C124.577 21.9444 124.383 20.9449 124.383 19.723C124.383 18.4637 124.584 17.4267 124.987 16.6122C125.39 15.7929 125.918 15.1867 126.569 14.7934C127.226 14.4002 127.931 14.2035 128.686 14.2035C129.253 14.2035 129.738 14.3019 130.141 14.4985C130.549 14.6904 130.884 14.9385 131.147 15.2428C131.409 15.5471 131.608 15.8631 131.744 16.1908H131.843V14.344H135.267V25.1723C135.267 26.0852 135.037 26.8553 134.578 27.4826C134.119 28.1099 133.476 28.5851 132.651 28.9081C131.826 29.2358 130.872 29.3997 129.79 29.3997ZM129.895 22.4828C130.312 22.4828 130.669 22.3727 130.964 22.1527C131.259 21.9327 131.487 21.6167 131.646 21.2047C131.805 20.7927 131.885 20.2988 131.885 19.723C131.885 19.1378 131.805 18.6346 131.646 18.2132C131.491 17.7872 131.264 17.4595 130.964 17.2301C130.669 17.0007 130.312 16.886 129.895 16.886C129.469 16.886 129.108 17.0031 128.812 17.2371C128.517 17.4712 128.292 17.8013 128.137 18.2273C127.987 18.6486 127.912 19.1472 127.912 19.723C127.912 20.2988 127.99 20.7927 128.144 21.2047C128.299 21.6167 128.522 21.9327 128.812 22.1527C129.108 22.3727 129.469 22.4828 129.895 22.4828Z" fill="black"/>
<path d="M137.459 25.1301V14.344H140.897V25.1301H137.459ZM139.182 13.087C138.699 13.087 138.284 12.9278 137.937 12.6095C137.59 12.2865 137.417 11.8979 137.417 11.4438C137.417 10.9944 137.59 10.6105 137.937 10.2922C138.284 9.96913 138.699 9.80762 139.182 9.80762C139.669 9.80762 140.084 9.96913 140.426 10.2922C140.773 10.6105 140.946 10.9944 140.946 11.4438C140.946 11.8979 140.773 12.2865 140.426 12.6095C140.084 12.9278 139.669 13.087 139.182 13.087Z" fill="black"/>
<path d="M149.182 14.344V16.872H142.369V14.344H149.182ZM143.796 11.7598H147.234V21.7384C147.234 21.9491 147.267 22.1199 147.333 22.251C147.403 22.3774 147.504 22.4687 147.635 22.5249C147.766 22.5764 147.923 22.6021 148.106 22.6021C148.237 22.6021 148.376 22.5904 148.521 22.567C148.671 22.5389 148.783 22.5155 148.858 22.4968L149.379 24.9757C149.215 25.0225 148.983 25.081 148.683 25.1512C148.387 25.2214 148.033 25.2659 147.621 25.2846C146.815 25.3221 146.123 25.2285 145.547 25.0037C144.975 24.7744 144.537 24.4186 144.232 23.9364C143.932 23.4542 143.787 22.8479 143.796 22.1176V11.7598Z" fill="black"/>
<path d="M153.981 25.3127C153.292 25.3127 152.68 25.198 152.146 24.9686C151.616 24.7346 151.196 24.3834 150.887 23.9153C150.582 23.4425 150.43 22.8503 150.43 22.1387C150.43 21.5394 150.535 21.0338 150.746 20.6219C150.957 20.2099 151.248 19.8752 151.618 19.6177C151.988 19.3602 152.415 19.1659 152.898 19.0348C153.381 18.8991 153.896 18.8078 154.445 18.761C155.059 18.7048 155.553 18.6463 155.928 18.5854C156.303 18.5199 156.575 18.4286 156.744 18.3116C156.917 18.1898 157.004 18.019 157.004 17.7989V17.7638C157.004 17.4033 156.88 17.1248 156.631 16.9282C156.383 16.7315 156.048 16.6332 155.626 16.6332C155.171 16.6332 154.806 16.7315 154.529 16.9282C154.253 17.1248 154.077 17.3963 154.002 17.7427L150.831 17.6304C150.924 16.975 151.166 16.3898 151.555 15.8748C151.949 15.3552 152.488 14.9479 153.172 14.653C153.861 14.3533 154.688 14.2035 155.654 14.2035C156.343 14.2035 156.978 14.2855 157.56 14.4493C158.141 14.6085 158.647 14.8426 159.078 15.1515C159.51 15.4558 159.842 15.8304 160.077 16.2751C160.316 16.7198 160.435 17.2278 160.435 17.7989V25.1301H157.201V23.6274H157.117C156.924 23.9925 156.678 24.3015 156.378 24.5543C156.083 24.8071 155.734 24.9967 155.331 25.1231C154.932 25.2495 154.482 25.3127 153.981 25.3127ZM155.042 23.0656C155.413 23.0656 155.746 22.9907 156.041 22.8409C156.341 22.6911 156.58 22.4851 156.758 22.2229C156.936 21.9561 157.025 21.6471 157.025 21.296V20.2708C156.927 20.3223 156.807 20.3691 156.667 20.4112C156.531 20.4533 156.381 20.4931 156.217 20.5306C156.053 20.568 155.884 20.6008 155.71 20.6289C155.537 20.657 155.371 20.6827 155.211 20.7061C154.888 20.7576 154.611 20.8372 154.381 20.9449C154.156 21.0526 153.983 21.193 153.861 21.3662C153.744 21.5348 153.685 21.7361 153.685 21.9701C153.685 22.3259 153.812 22.5975 154.065 22.7847C154.323 22.972 154.649 23.0656 155.042 23.0656Z" fill="black"/>
<path d="M165.976 10.7486V25.1301H162.538V10.7486H165.976Z" fill="black"/>
</g>
<defs>
<clipPath id="clip0_186_1365">
<rect width="165" height="34" fill="white"/>
</clipPath>
</defs>
</svg>
