<svg width="206" height="43" viewBox="0 0 206 43" fill="none" xmlns="http://www.w3.org/2000/svg">
<g clip-path="url(#clip0_186_1557)">
<path d="M12.6746 30.0891C11.5865 28.9782 10.7258 27.6611 10.1417 26.2132C9.55752 24.7653 9.26146 23.215 9.27044 21.6511C9.26649 20.0873 9.57074 18.5384 10.1654 17.095C10.7601 15.6515 11.6332 14.3425 12.7338 13.2444C13.2053 12.8205 13.5862 12.3037 13.8534 11.7256C14.1205 11.1475 14.2682 10.5203 14.2874 9.88248C14.3066 9.24464 14.197 8.60954 13.9651 8.01607C13.7333 7.4226 13.3841 6.88324 12.9391 6.43103C12.494 5.97883 11.9624 5.62328 11.3768 5.38616C10.7912 5.14904 10.164 5.03534 9.53341 5.05202C8.90286 5.0687 8.28231 5.21541 7.70976 5.48317C7.13721 5.75093 6.6247 6.1341 6.20361 6.60922C2.24844 10.587 0.0169981 15.9914 9.67095e-05 21.6336C-0.0168046 27.2757 2.18222 32.6937 6.11349 36.6957C6.5332 37.1701 7.04402 37.5532 7.61482 37.8214C8.18561 38.0896 8.80442 38.2374 9.43352 38.2558C10.0626 38.2742 10.6888 38.1627 11.274 37.9283C11.8591 37.6938 12.3909 37.3413 12.837 36.8921C13.2831 36.4429 13.6341 35.9066 13.8686 35.3157C14.1031 34.7248 14.2162 34.0918 14.201 33.4553C14.1858 32.8188 14.0426 32.192 13.7802 31.6133C13.5178 31.0346 13.1416 30.516 12.6746 30.0891Z" fill="#EF5DA8"/>
<path d="M12.7342 13.2444C14.9522 11.023 17.9504 9.78184 21.0714 9.79307C24.1925 9.8043 27.1818 11.067 29.3841 13.3043C29.8024 13.7838 30.3131 14.1716 30.885 14.444C31.4568 14.7165 32.0777 14.8676 32.7095 14.8883C33.3412 14.909 33.9705 14.7987 34.5585 14.5643C35.1466 14.3299 35.6811 13.9763 36.1291 13.5252C36.5771 13.0741 36.9292 12.535 37.1636 11.9412C37.3981 11.3473 37.5101 10.7113 37.4926 10.072C37.4752 9.43281 37.3287 8.80396 37.0621 8.22413C36.7956 7.6443 36.4146 7.12575 35.9427 6.70037C34.0033 4.71299 31.6949 3.13281 29.1501 2.05057C26.6054 0.968327 23.8744 0.405352 21.1139 0.393975C18.3535 0.382598 15.618 0.923043 13.0646 1.98427C10.5112 3.0455 8.19023 4.6066 6.23489 6.57793C5.76174 6.9997 5.37863 7.51472 5.10902 8.09146C4.83941 8.66821 4.68897 9.29454 4.6669 9.93215C4.64483 10.5697 4.7516 11.2052 4.98067 11.7996C5.20974 12.394 5.5563 12.9349 5.99913 13.3891C6.44197 13.8433 6.97176 14.2014 7.55609 14.4413C8.14042 14.6812 8.76699 14.7979 9.39747 14.7844C10.0279 14.7709 10.6491 14.6273 11.2228 14.3625C11.7965 14.0977 12.3108 13.7172 12.7342 13.2444Z" fill="#232ED1"/>
<path d="M29.3554 30.149C28.2577 31.252 26.9558 32.1251 25.5242 32.7183C24.0926 33.3115 22.5594 33.6131 21.0124 33.606C19.4657 33.6083 17.9342 33.2984 16.5073 32.6945C15.0805 32.0907 13.7871 31.2049 12.7028 30.0891C12.2838 29.6121 11.7729 29.2267 11.2015 28.9564C10.6301 28.6862 10.0102 28.5368 9.37973 28.5173C8.74926 28.4979 8.1215 28.6088 7.53489 28.8434C6.94828 29.0779 6.41516 29.4311 5.96818 29.8814C5.52119 30.3317 5.16975 30.8695 4.93538 31.4619C4.701 32.0544 4.58861 32.689 4.6051 33.3269C4.62159 33.9648 4.7666 34.5926 5.03127 35.1719C5.29593 35.7511 5.67467 36.2696 6.1443 36.6957C8.08703 38.6829 10.3983 40.2627 12.9457 41.3445C15.493 42.4264 18.2264 42.989 20.9891 43.0001C23.7517 43.0113 26.4894 42.4707 29.0452 41.4094C31.601 40.3481 33.9247 38.787 35.883 36.8155C36.3156 36.3819 36.6597 35.8663 36.8954 35.2981C37.1311 34.73 37.2539 34.1205 37.2567 33.5043C37.2596 32.8882 37.1425 32.2775 36.9121 31.7072C36.6817 31.1368 36.3425 30.618 35.9139 30.1803C35.4853 29.7425 34.9756 29.3945 34.4141 29.156C33.8525 28.9176 33.25 28.7933 32.641 28.7904C32.032 28.7875 31.4284 28.906 30.8646 29.1391C30.3009 29.3722 29.788 29.7154 29.3554 30.149Z" fill="#01B8AA"/>
<path d="M12.7328 13.2444C12.0831 13.9008 11.2554 14.3473 10.3546 14.5271C9.45375 14.707 8.52042 14.6121 7.67299 14.2545C6.82555 13.8969 6.10219 13.2927 5.59467 12.5185C5.08715 11.7444 4.81833 10.8352 4.82231 9.90629C4.82629 8.97737 5.1029 8.07057 5.61704 7.30092C6.13118 6.53127 6.85969 5.93346 7.71016 5.58331C8.56063 5.23316 9.49474 5.14645 10.394 5.33419C11.2932 5.52192 12.1171 5.97564 12.7611 6.63778C13.6191 7.51992 14.0975 8.70942 14.0922 9.94697C14.0869 11.1845 13.5983 12.3698 12.7328 13.2444Z" fill="#9C60FA"/>
<path d="M12.6436 36.6956C11.9937 37.3518 11.1658 37.798 10.2649 37.9774C9.36399 38.1569 8.4307 38.0616 7.5834 37.7037C6.73611 37.3458 6.01299 36.7413 5.50577 35.967C4.99855 35.1926 4.73008 34.2833 4.73443 33.3544C4.73877 32.4255 5.01573 31.5188 5.53017 30.7493C6.04461 29.9799 6.77336 29.3824 7.62396 29.0326C8.47457 28.6828 9.4087 28.5964 10.3079 28.7845C11.2071 28.9726 12.0308 29.4266 12.6745 30.089C13.5321 30.9715 14.0101 32.1612 14.0043 33.3988C13.9985 34.6363 13.5094 35.8214 12.6436 36.6956Z" fill="#8CFEE3" fill-opacity="0.9"/>
<path d="M49.189 31.7824L43.957 13.594H48.7588L51.4713 25.5124H51.6206L54.7194 13.594H58.6345L61.7333 25.539H61.8825L64.6038 13.594H69.3969L64.1737 31.7824H59.9864L56.7472 20.7521H56.6067L53.3675 31.7824H49.189Z" fill="white"/>
<path d="M75.9982 32.04C74.5878 32.04 73.3706 31.7587 72.3464 31.1963C71.3281 30.6279 70.5439 29.8197 69.9938 28.7717C69.4495 27.7179 69.1774 26.4656 69.1774 25.015C69.1774 23.6059 69.4525 22.3744 70.0026 21.3205C70.5527 20.2607 71.3281 19.4377 72.3288 18.8516C73.3296 18.2595 74.5088 17.9635 75.8665 17.9635C76.8263 17.9635 77.7042 18.1145 78.5001 18.4164C79.296 18.7184 79.9836 19.1654 80.563 19.7575C81.1424 20.3495 81.593 21.0807 81.9149 21.9511C82.2367 22.8155 82.3977 23.8072 82.3977 24.9262V26.0097H70.6785V23.4875H78.4035C78.3977 23.0257 78.2894 22.6142 78.0787 22.253C77.868 21.8919 77.5783 21.6106 77.2096 21.4093C76.8468 21.2021 76.4284 21.0985 75.9543 21.0985C75.4744 21.0985 75.0443 21.208 74.6639 21.4271C74.2835 21.6402 73.9821 21.9333 73.7597 22.3063C73.5373 22.6734 73.4203 23.0908 73.4086 23.5586V26.1252C73.4086 26.6817 73.5169 27.1702 73.7334 27.5906C73.9499 28.005 74.2572 28.3277 74.6551 28.5586C75.0531 28.7895 75.5271 28.905 76.0772 28.905C76.4576 28.905 76.8029 28.8517 77.1131 28.7451C77.4233 28.6385 77.6895 28.4816 77.9119 28.2744C78.1343 28.0672 78.3011 27.8126 78.4123 27.5106L82.3538 27.6261C82.1899 28.5201 81.83 29.2987 81.274 29.9618C80.7239 30.619 80.0012 31.1311 79.1058 31.4982C78.2104 31.8594 77.1745 32.04 75.9982 32.04Z" fill="white"/>
<path d="M84.5901 31.7824V13.594H88.8827V20.4768H88.9705C89.1461 20.0624 89.3948 19.6627 89.7167 19.2779C90.0444 18.893 90.4599 18.5792 90.9632 18.3365C91.4724 18.0878 92.081 17.9635 92.7891 17.9635C93.7255 17.9635 94.6004 18.2121 95.4139 18.7095C96.2332 19.2068 96.8945 19.9736 97.3978 21.0097C97.9011 22.0458 98.1527 23.3661 98.1527 24.9706C98.1527 26.5159 97.9099 27.8096 97.4241 28.8517C96.9442 29.8937 96.2946 30.6752 95.4753 31.1963C94.6619 31.7173 93.7577 31.9778 92.7628 31.9778C92.0839 31.9778 91.4958 31.8653 90.9983 31.6403C90.5009 31.4153 90.0825 31.1193 89.743 30.7522C89.4094 30.3851 89.1519 29.9914 88.9705 29.571H88.8388V31.7824H84.5901ZM88.7949 24.9618C88.7949 25.6959 88.8915 26.3354 89.0846 26.8801C89.2836 27.4248 89.5675 27.8481 89.9361 28.1501C90.3107 28.4461 90.7584 28.5941 91.2792 28.5941C91.8059 28.5941 92.2536 28.4461 92.6223 28.1501C92.991 27.8481 93.269 27.4248 93.4563 26.8801C93.6494 26.3354 93.746 25.6959 93.746 24.9618C93.746 24.2276 93.6494 23.5911 93.4563 23.0523C93.269 22.5135 92.991 22.0961 92.6223 21.8001C92.2595 21.5041 91.8118 21.356 91.2792 21.356C90.7525 21.356 90.3048 21.5011 89.9361 21.7912C89.5675 22.0813 89.2836 22.4958 89.0846 23.0346C88.8915 23.5734 88.7949 24.2158 88.7949 24.9618Z" fill="white"/>
<path d="M108.013 18.1411V21.3383H99.5068V18.1411H108.013ZM101.289 14.8729H105.581V27.4929C105.581 27.7593 105.622 27.9754 105.704 28.1412C105.792 28.301 105.918 28.4165 106.082 28.4875C106.246 28.5527 106.442 28.5852 106.67 28.5852C106.834 28.5852 107.006 28.5704 107.188 28.5408C107.375 28.5053 107.516 28.4757 107.609 28.452L108.259 31.587C108.054 31.6462 107.764 31.7203 107.39 31.8091C107.021 31.8979 106.579 31.9541 106.064 31.9778C105.058 32.0252 104.194 31.9068 103.475 31.6226C102.761 31.3324 102.213 30.8825 101.833 30.2726C101.459 29.6628 101.277 28.8961 101.289 27.9724V14.8729Z" fill="white"/>
<path d="M116.353 32.04C114.936 32.04 113.719 31.7469 112.701 31.1607C111.688 30.5687 110.907 29.7457 110.357 28.6918C109.813 27.632 109.541 26.4035 109.541 25.0062C109.541 23.603 109.813 22.3744 110.357 21.3205C110.907 20.2607 111.688 19.4377 112.701 18.8516C113.719 18.2595 114.936 17.9635 116.353 17.9635C117.769 17.9635 118.983 18.2595 119.996 18.8516C121.014 19.4377 121.795 20.2607 122.339 21.3205C122.89 22.3744 123.165 23.603 123.165 25.0062C123.165 26.4035 122.89 27.632 122.339 28.6918C121.795 29.7457 121.014 30.5687 119.996 31.1607C118.983 31.7469 117.769 32.04 116.353 32.04ZM116.379 28.7629C116.894 28.7629 117.33 28.603 117.687 28.2833C118.044 27.9636 118.316 27.5195 118.503 26.9511C118.696 26.3827 118.793 25.7255 118.793 24.9795C118.793 24.2217 118.696 23.5586 118.503 22.9902C118.316 22.4218 118.044 21.9777 117.687 21.658C117.33 21.3383 116.894 21.1784 116.379 21.1784C115.846 21.1784 115.396 21.3383 115.027 21.658C114.664 21.9777 114.386 22.4218 114.193 22.9902C114.006 23.5586 113.912 24.2217 113.912 24.9795C113.912 25.7255 114.006 26.3827 114.193 26.9511C114.386 27.5195 114.664 27.9636 115.027 28.2833C115.396 28.603 115.846 28.7629 116.379 28.7629Z" fill="white"/>
<path d="M137.32 31.7824H130.675V13.594H137.311C139.143 13.594 140.72 13.9581 142.043 14.6864C143.371 15.4087 144.395 16.4507 145.115 17.8125C145.835 19.1683 146.195 20.7906 146.195 22.6793C146.195 24.574 145.835 26.2022 145.115 27.5639C144.401 28.9257 143.38 29.9707 142.051 30.6989C140.723 31.4213 139.146 31.7824 137.32 31.7824ZM135.02 28.0346H137.153C138.16 28.0346 139.011 27.8629 139.708 27.5195C140.41 27.1702 140.939 26.6048 141.296 25.8232C141.659 25.0358 141.841 23.9878 141.841 22.6793C141.841 21.3709 141.659 20.3288 141.296 19.5532C140.934 18.7717 140.398 18.2092 139.69 17.8658C138.988 17.5165 138.122 17.3418 137.092 17.3418H135.02V28.0346Z" fill="white"/>
<path d="M148.732 31.7824V18.1411H153.024V31.7824H148.732ZM150.882 16.5514C150.28 16.5514 149.762 16.3501 149.329 15.9475C148.896 15.5389 148.679 15.0475 148.679 14.4732C148.679 13.9048 148.896 13.4193 149.329 13.0167C149.762 12.6082 150.28 12.4039 150.882 12.4039C151.491 12.4039 152.009 12.6082 152.436 13.0167C152.869 13.4193 153.086 13.9048 153.086 14.4732C153.086 15.0475 152.869 15.5389 152.436 15.9475C152.009 16.3501 151.491 16.5514 150.882 16.5514Z" fill="white"/>
<path d="M162.042 37.1821C160.76 37.1821 159.663 37.0015 158.75 36.6404C157.837 36.2792 157.12 35.7848 156.599 35.1572C156.079 34.5296 155.765 33.8191 155.66 33.0258L159.724 32.7949C159.801 33.0731 159.941 33.3159 160.146 33.5231C160.357 33.7303 160.629 33.8902 160.962 34.0027C161.302 34.1152 161.7 34.1714 162.156 34.1714C162.876 34.1714 163.47 33.9938 163.938 33.6386C164.412 33.2892 164.649 32.6765 164.649 31.8002V29.4023H164.5C164.33 29.8227 164.073 30.1986 163.727 30.5302C163.382 30.8618 162.952 31.1223 162.437 31.3117C161.928 31.5012 161.343 31.5959 160.681 31.5959C159.698 31.5959 158.797 31.365 157.978 30.9032C157.164 30.4355 156.512 29.7131 156.02 28.7362C155.534 27.7534 155.291 26.4893 155.291 24.944C155.291 23.3513 155.543 22.0399 156.046 21.0097C156.55 19.9736 157.208 19.2068 158.021 18.7095C158.841 18.2121 159.722 17.9635 160.664 17.9635C161.372 17.9635 161.978 18.0878 162.481 18.3365C162.99 18.5792 163.409 18.893 163.736 19.2779C164.064 19.6627 164.313 20.0624 164.482 20.4768H164.605V18.1411H168.88V31.8357C168.88 32.9902 168.594 33.9642 168.02 34.7576C167.447 35.551 166.645 36.1519 165.615 36.5604C164.585 36.9749 163.394 37.1821 162.042 37.1821ZM162.174 28.4343C162.695 28.4343 163.139 28.2951 163.508 28.0169C163.877 27.7386 164.161 27.3389 164.359 26.8179C164.558 26.2969 164.658 25.6722 164.658 24.944C164.658 24.2039 164.558 23.5674 164.359 23.0346C164.166 22.4958 163.883 22.0813 163.508 21.7912C163.139 21.5011 162.695 21.356 162.174 21.356C161.641 21.356 161.19 21.5041 160.822 21.8001C160.453 22.0961 160.172 22.5135 159.979 23.0523C159.792 23.5852 159.698 24.2158 159.698 24.944C159.698 25.6722 159.795 26.2969 159.988 26.8179C160.181 27.3389 160.459 27.7386 160.822 28.0169C161.19 28.2951 161.641 28.4343 162.174 28.4343Z" fill="white"/>
<path d="M171.617 31.7824V18.1411H175.91V31.7824H171.617ZM173.768 16.5514C173.165 16.5514 172.647 16.3501 172.214 15.9475C171.781 15.5389 171.564 15.0475 171.564 14.4732C171.564 13.9048 171.781 13.4193 172.214 13.0167C172.647 12.6082 173.165 12.4039 173.768 12.4039C174.376 12.4039 174.894 12.6082 175.322 13.0167C175.755 13.4193 175.971 13.9048 175.971 14.4732C175.971 15.0475 175.755 15.5389 175.322 15.9475C174.894 16.3501 174.376 16.5514 173.768 16.5514Z" fill="white"/>
<path d="M186.253 18.1411V21.3383H177.747V18.1411H186.253ZM179.529 14.8729H183.821V27.4929C183.821 27.7593 183.862 27.9754 183.944 28.1412C184.032 28.301 184.158 28.4165 184.322 28.4875C184.485 28.5527 184.682 28.5852 184.91 28.5852C185.074 28.5852 185.246 28.5704 185.428 28.5408C185.615 28.5053 185.755 28.4757 185.849 28.452L186.499 31.587C186.294 31.6462 186.004 31.7203 185.63 31.8091C185.261 31.8979 184.819 31.9541 184.304 31.9778C183.297 32.0252 182.434 31.9068 181.714 31.6226C181 31.3324 180.453 30.8825 180.073 30.2726C179.698 29.6628 179.517 28.8961 179.529 27.9724V14.8729Z" fill="white"/>
<path d="M192.244 32.0133C191.384 32.0133 190.62 31.8683 189.953 31.5782C189.292 31.2821 188.768 30.8381 188.382 30.246C188.001 29.648 187.811 28.899 187.811 27.9991C187.811 27.2412 187.943 26.6018 188.206 26.0808C188.469 25.5598 188.832 25.1364 189.295 24.8108C189.757 24.4851 190.289 24.2394 190.892 24.0737C191.495 23.902 192.139 23.7865 192.823 23.7273C193.59 23.6562 194.208 23.5822 194.676 23.5053C195.144 23.4224 195.483 23.3069 195.694 23.1589C195.911 23.005 196.019 22.7889 196.019 22.5106V22.4662C196.019 22.0103 195.864 21.658 195.554 21.4093C195.243 21.1607 194.825 21.0363 194.298 21.0363C193.731 21.0363 193.274 21.1607 192.929 21.4093C192.584 21.658 192.364 22.0014 192.27 22.4395L188.311 22.2974C188.428 21.4685 188.73 20.7285 189.216 20.0772C189.707 19.42 190.38 18.9049 191.235 18.5319C192.095 18.1529 193.128 17.9635 194.333 17.9635C195.194 17.9635 195.987 18.0671 196.712 18.2743C197.438 18.4756 198.07 18.7717 198.608 19.1624C199.147 19.5473 199.562 20.0209 199.855 20.5834C200.153 21.1459 200.303 21.7883 200.303 22.5106V31.7824H196.265V29.8819H196.159C195.919 30.3437 195.612 30.7345 195.238 31.0542C194.869 31.3739 194.433 31.6137 193.93 31.7735C193.432 31.9334 192.87 32.0133 192.244 32.0133ZM193.57 29.1714C194.032 29.1714 194.447 29.0767 194.816 28.8872C195.191 28.6977 195.489 28.4372 195.712 28.1057C195.934 27.7682 196.045 27.3774 196.045 26.9334V25.6367C195.922 25.7019 195.773 25.7611 195.597 25.8143C195.428 25.8676 195.24 25.918 195.036 25.9653C194.831 26.0127 194.62 26.0541 194.404 26.0897C194.187 26.1252 193.979 26.1577 193.78 26.1874C193.377 26.2525 193.031 26.3531 192.744 26.4893C192.464 26.6255 192.247 26.8031 192.095 27.0222C191.949 27.2353 191.875 27.4899 191.875 27.7859C191.875 28.2359 192.033 28.5793 192.349 28.8161C192.671 29.053 193.078 29.1714 193.57 29.1714Z" fill="white"/>
<path d="M207.22 13.594V31.7824H202.927V13.594H207.22Z" fill="white"/>
</g>
<defs>
<clipPath id="clip0_186_1557">
<rect width="206" height="43" fill="white"/>
</clipPath>
</defs>
</svg>
