<svg width="179" height="178" viewBox="0 0 179 178" fill="none" xmlns="http://www.w3.org/2000/svg">
<path d="M0 2.5C0 1.11929 1.11929 0 2.5 0H16V16H0V2.5Z" fill="#1D2275"/>
<path d="M163 162H179V175.5C179 176.881 177.881 178 176.5 178H163V162Z" fill="#1D2275"/>
<path d="M177.295 176.304L1.71869 1.70908C1.086 1.07993 1.53156 0 2.42381 0H81.8579C84.51 0 87.0536 1.05357 88.9289 2.92893L176.071 90.0711C177.946 91.9464 179 94.49 179 97.1421V175.595C179 176.485 177.926 176.932 177.295 176.304Z" fill="#232ED1"/>
<path d="M123.185 56.0615L118.025 66.1883L126.061 74.225L114.836 72.447L109.676 82.5739L107.898 71.3482L96.6723 69.5702L106.799 64.4104L105.021 53.1847L113.058 61.2214L123.185 56.0615Z" fill="white"/>
<path opacity="0.4" d="M89.4146 34.8052L86.2402 41.0354L91.1844 45.9796L84.2783 44.8858L81.1038 51.1159L80.01 44.2098L73.1038 43.1159L79.334 39.9415L78.2402 33.0354L83.1844 37.9796L89.4146 34.8052Z" fill="white"/>
<path opacity="0.4" d="M146.415 86.8052L143.24 93.0354L148.184 97.9796L141.278 96.8858L138.104 103.116L137.01 96.2098L130.104 95.1159L136.334 91.9415L135.24 85.0354L140.184 89.9796L146.415 86.8052Z" fill="white"/>
</svg>
