<?xml version="1.0" standalone="no"?>
<!DOCTYPE svg PUBLIC "-//W3C//DTD SVG 20010904//EN"
 "http://www.w3.org/TR/2001/REC-SVG-20010904/DTD/svg10.dtd">
<svg version="1.0" xmlns="http://www.w3.org/2000/svg"
 width="260.000000pt" height="260.000000pt" viewBox="0 0 260.000000 260.000000"
 preserveAspectRatio="xMidYMid meet">
<metadata>
Created by potrace 1.14, written by Peter Selinger 2001-2017
</metadata>
<g transform="translate(0.000000,260.000000) scale(0.100000,-0.100000)"
fill="#000000" stroke="none">
<path d="M1066 2593 c-11 -11 -6 -21 13 -26 13 -3 18 0 15 7 -3 7 1 13 9 13 9
0 12 -7 10 -18 -3 -10 -13 -18 -22 -17 -43 3 -92 -3 -87 -11 4 -5 0 -12 -6
-14 -10 -4 -9 -8 2 -16 12 -8 11 -10 -6 -9 -19 2 -31 28 -12 28 19 0 6 16 -14
17 -13 1 -18 -1 -13 -5 6 -4 10 -13 9 -19 -1 -7 -2 -18 -3 -24 0 -6 -12 -9
-26 -7 -20 4 -25 0 -30 -23 -6 -26 -20 -35 -47 -30 -5 0 -8 -10 -8 -24 0 -22
-5 -25 -32 -25 -18 0 -28 -4 -22 -8 8 -4 8 -15 3 -30 -7 -18 -14 -22 -29 -17
-14 4 -20 2 -21 -9 -3 -33 -4 -37 -18 -45 -8 -5 -20 -7 -28 -4 -9 3 -13 -3
-13 -21 0 -21 -5 -26 -25 -26 -14 0 -24 -3 -24 -7 5 -29 -3 -50 -18 -50 -42 0
-49 -9 -30 -39 4 -7 -2 -11 -16 -11 -49 -1 -51 -2 -36 -20 10 -11 10 -14 2 -9
-8 4 -13 1 -13 -8 0 -11 -9 -16 -26 -16 -18 0 -25 -4 -21 -14 3 -7 -1 -23 -8
-34 -8 -10 -11 -23 -7 -27 4 -5 1 -5 -6 -1 -7 4 -10 12 -7 17 4 5 -2 9 -11 9
-10 0 -14 -3 -11 -7 4 -3 1 -13 -6 -21 -10 -13 -9 -15 8 -9 19 7 19 6 2 -7
-10 -8 -29 -13 -43 -11 -15 1 -24 -3 -24 -12 0 -8 5 -11 11 -8 6 4 5 -2 -2
-14 -7 -11 -22 -21 -34 -23 -12 -2 -22 -13 -25 -28 -3 -15 -12 -26 -22 -26
-35 -3 -37 -4 -32 -18 3 -8 1 -23 -5 -33 -6 -10 -11 -12 -11 -5 0 16 -40 -3
-40 -19 0 -6 6 -7 13 -3 8 5 8 2 -2 -9 -7 -9 -24 -17 -38 -17 -13 0 -23 -5
-22 -12 4 -35 -2 -47 -21 -43 -12 2 -24 -4 -30 -16 -8 -13 -7 -19 0 -19 7 0 6
-5 -2 -14 -8 -9 -19 -11 -29 -5 -17 8 -29 3 -29 -13 0 -5 5 -6 10 -3 18 11 10
-7 -11 -26 -11 -10 -28 -15 -37 -12 -15 4 -15 3 -2 -6 10 -7 11 -11 3 -11 -7
0 -13 -5 -13 -10 0 -7 6 -7 19 0 11 5 23 10 28 10 4 -1 -4 -8 -19 -16 -25 -13
-28 -20 -28 -69 0 -51 1 -54 28 -57 22 -2 26 -7 24 -26 -3 -22 -1 -22 77 -21
79 1 80 2 83 28 2 17 8 25 19 23 9 -1 22 5 29 13 8 10 9 15 2 15 -6 0 -9 7 -6
15 4 9 19 15 35 15 16 0 29 5 29 10 0 6 -4 10 -10 10 -5 0 -3 8 6 19 10 11 24
16 35 14 21 -6 25 6 9 25 -6 6 -7 10 -4 7 4 -2 13 3 21 11 9 8 22 13 29 10 13
-5 19 11 15 42 -1 7 4 12 11 11 27 -3 48 1 48 11 0 5 -8 7 -18 4 -16 -5 -16
-5 1 6 9 6 15 15 12 21 -4 5 8 9 25 9 17 0 29 3 27 8 -3 4 -1 17 4 29 5 15 14
20 28 16 15 -4 21 0 22 11 1 9 2 22 3 29 1 6 13 12 27 12 22 -1 26 3 24 27 -2
16 2 26 9 25 6 -1 10 6 8 16 -2 9 2 17 8 17 5 0 9 -5 8 -11 -2 -6 3 -14 10
-16 8 -3 12 6 12 27 0 18 4 29 10 25 6 -3 19 -3 30 0 16 5 18 10 10 25 -7 13
-5 21 7 31 14 12 16 12 8 0 -6 -11 -4 -13 9 -8 10 4 21 7 25 7 4 0 8 7 8 15 0
12 -3 12 -16 3 -10 -8 -8 -4 3 10 11 12 29 22 40 22 13 0 23 7 24 18 4 35 8
52 16 59 4 4 6 2 4 -6 -1 -8 6 -17 16 -19 14 -3 17 0 13 11 -8 22 17 51 39 45
15 -4 20 0 21 14 2 15 -1 17 -11 9 -9 -8 -13 -7 -13 4 0 8 4 12 8 9 4 -2 10 0
14 6 3 5 17 10 30 10 19 0 23 4 20 20 -3 15 3 24 18 29 12 5 25 7 30 4 4 -2 7
7 7 20 0 28 24 54 35 37 11 -18 26 -1 16 19 -7 13 -5 17 7 19 34 4 52 8 58 15
4 4 13 2 21 -4 10 -9 13 -8 13 0 0 7 4 10 9 7 5 -3 14 1 21 9 7 8 17 15 23 15
6 0 3 -6 -8 -13 -12 -10 -14 -16 -7 -21 7 -4 12 -3 12 1 0 5 9 9 20 9 11 0 20
-3 20 -6 0 -3 19 -6 43 -5 38 0 42 -2 39 -23 -2 -13 2 -22 10 -23 7 -1 18 -2
23 -4 6 -1 16 -3 24 -3 10 -2 11 -5 3 -15 -7 -8 -7 -18 -2 -27 8 -13 10 -12
10 2 0 9 4 19 9 22 5 4 7 -3 4 -14 -4 -15 0 -20 14 -20 16 0 19 -5 15 -25 -4
-22 -1 -25 25 -25 26 0 29 -3 27 -28 -1 -21 3 -28 17 -28 22 0 22 1 10 25 -7
12 -6 18 2 18 7 0 13 -10 13 -21 4 -54 20 -75 58 -78 17 -2 22 -6 16 -12 -18
-18 -11 -36 12 -33 18 1 23 -4 28 -28 4 -23 10 -29 26 -27 12 1 27 -5 35 -15
8 -9 9 -14 2 -10 -7 4 -10 1 -9 -10 2 -9 9 -19 16 -21 7 -3 10 0 6 7 -10 16 3
14 20 -3 8 -8 14 -24 14 -35 0 -15 6 -21 21 -21 11 0 32 -9 46 -20 14 -11 21
-20 16 -20 -5 0 -14 5 -21 12 -7 7 -12 8 -12 3 0 -18 15 -30 35 -30 14 0 20
-6 19 -22 -1 -13 3 -20 7 -17 5 3 9 0 9 -5 0 -6 3 -10 8 -10 23 4 32 -4 32
-26 0 -22 4 -25 25 -21 14 3 26 0 26 -5 1 -5 3 -18 4 -29 4 -34 5 -35 15 -20
7 11 10 11 10 2 0 -7 5 -10 10 -7 10 6 14 -7 11 -32 -1 -7 3 -14 9 -14 5 -1
15 -3 20 -4 6 -1 15 -3 20 -4 6 0 10 -8 10 -17 0 -9 5 -13 13 -9 6 4 3 -1 -8
-10 -14 -12 -16 -16 -5 -15 38 5 50 -1 50 -25 0 -25 8 -31 26 -17 5 4 8 5 6 3
-1 -3 8 -11 20 -18 13 -7 17 -12 11 -13 -18 0 -16 -27 3 -34 8 -3 12 -2 9 3
-3 5 0 13 6 17 8 4 9 3 5 -5 -4 -6 0 -14 8 -17 9 -3 13 -10 10 -15 -3 -5 0 -9
7 -9 8 0 8 -4 -2 -16 -11 -13 -11 -15 2 -14 48 7 48 7 47 -122 -1 -116 -9
-155 -29 -142 -5 3 -17 0 -26 -5 -12 -7 -14 -10 -4 -11 10 0 11 -3 2 -14 -9
-11 -9 -15 1 -20 7 -3 -2 -4 -19 -2 -31 4 -33 2 -33 -26 0 -27 -3 -30 -25 -26
-23 5 -25 2 -25 -31 0 -24 -3 -31 -9 -22 -6 10 -10 10 -16 1 -6 -9 -10 -9 -16
1 -6 10 -9 11 -9 2 0 -23 -2 -28 -11 -40 -7 -7 -5 -13 3 -17 7 -3 0 -4 -17 -3
-26 2 -30 -2 -33 -26 -3 -21 -9 -27 -28 -27 -13 0 -25 -6 -25 -12 -1 -7 -2
-19 -3 -27 -1 -17 -26 -28 -26 -12 0 6 -6 8 -14 5 -8 -3 -12 -17 -11 -34 2
-25 -1 -29 -24 -27 -22 2 -27 -3 -29 -26 -3 -21 -9 -27 -28 -27 -22 0 -30 -13
-25 -42 1 -8 -21 -12 -45 -9 -7 1 -12 -4 -11 -11 1 -39 -4 -50 -21 -46 -10 3
-23 -1 -30 -9 -7 -7 -8 -13 -3 -13 6 0 8 -7 5 -15 -4 -8 -17 -15 -30 -15 -23
0 -28 -9 -25 -37 2 -12 -17 -17 -45 -14 -6 1 -10 -10 -9 -24 2 -14 -1 -26 -6
-26 -5 -1 -13 -3 -19 -4 -5 -1 -14 -3 -20 -4 -5 0 -10 -12 -10 -26 0 -20 -5
-25 -24 -25 -18 0 -25 -6 -28 -22 -2 -15 -12 -25 -28 -28 -19 -4 -25 -11 -25
-30 0 -21 -5 -25 -26 -24 -22 1 -26 -3 -25 -25 1 -21 -4 -27 -28 -29 -24 -3
-27 -7 -23 -28 5 -27 -9 -43 -36 -39 -9 2 -15 -1 -12 -5 3 -5 14 -7 26 -5 17
4 19 -1 17 -36 -2 -42 13 -62 39 -52 8 3 13 2 12 -3 -7 -39 1 -44 62 -44 l61
0 -6 28 c-4 18 -3 22 2 13 8 -11 10 -11 15 0 3 8 4 2 2 -12 -2 -16 2 -26 10
-26 8 0 12 8 9 20 -2 10 4 26 12 34 8 9 13 21 11 28 -3 6 1 12 9 12 7 0 11 -4
8 -9 -3 -4 -1 -15 4 -24 6 -11 11 -13 16 -5 4 6 2 11 -4 11 -7 0 -6 10 3 28 8
15 12 32 10 39 -2 6 0 14 5 17 5 3 8 -9 6 -27 -3 -22 -1 -28 5 -17 6 8 8 17 5
21 -8 14 30 33 78 38 4 1 5 8 2 16 -4 8 -10 12 -15 9 -5 -3 -7 -9 -4 -14 3 -4
-2 -7 -12 -6 -25 4 -24 32 1 33 69 4 83 17 88 77 1 14 9 23 22 24 15 1 17 -1
7 -7 -7 -5 -9 -11 -5 -13 5 -3 3 -3 -3 -2 -7 2 -13 -1 -13 -6 0 -6 8 -10 19
-10 13 0 19 8 20 25 1 14 2 36 3 50 2 19 5 22 15 13 7 -6 13 -6 13 -1 0 9 13
13 52 14 19 1 17 31 -3 37 -11 3 -12 2 -1 -6 11 -7 11 -10 -3 -15 -9 -4 -13
-3 -10 3 3 6 0 10 -7 10 -9 0 -9 3 2 10 8 5 23 7 33 4 15 -5 22 11 19 46 0 3
9 7 21 7 15 2 18 0 8 -6 -7 -5 -9 -11 -5 -13 5 -3 3 -3 -3 -2 -7 2 -13 -1 -13
-6 0 -6 9 -10 19 -10 12 0 19 7 19 18 -1 22 10 73 17 80 3 3 5 -1 5 -9 0 -12
2 -11 10 1 7 12 9 10 7 -7 0 -12 -4 -20 -8 -17 -4 2 -10 0 -13 -5 -4 -5 2 -8
11 -7 11 2 19 13 21 29 3 23 7 26 27 21 20 -5 24 -2 22 14 0 12 -5 18 -9 16
-5 -3 -6 -10 -3 -15 4 -5 1 -9 -4 -9 -6 0 -11 5 -11 10 0 6 -1 13 -2 17 -2 3
8 8 22 10 39 5 52 12 45 23 -3 5 -2 10 4 10 5 0 12 -5 14 -10 3 -6 4 -5 3 2
-2 7 -12 13 -23 13 -32 0 -36 10 -6 13 31 2 43 17 38 45 -4 15 -2 17 10 7 12
-10 15 -10 15 0 0 8 3 10 7 7 3 -4 -2 -17 -13 -29 -10 -12 -13 -18 -6 -14 7 4
12 2 12 -5 0 -19 10 -5 15 21 5 28 7 30 35 35 26 5 40 15 21 15 -7 0 -9 5 -5
13 4 6 -2 4 -13 -6 -13 -11 -23 -14 -27 -8 -7 10 10 24 32 27 8 2 20 11 29 21
8 10 12 13 9 6 -9 -18 10 -25 23 -9 14 17 5 24 -27 21 -30 -2 -14 12 18 17 19
2 25 9 25 28 0 18 5 25 20 25 26 -1 48 27 32 37 -7 4 -7 8 -2 9 14 1 72 15 85
19 3 1 9 2 14 1 5 -1 4 5 -4 13 -8 11 -9 16 -1 16 6 0 10 3 10 8 -1 4 -1 21 0
37 1 23 3 27 11 15 6 -10 10 -11 10 -2 0 6 6 12 13 12 10 0 15 16 16 52 3 83
8 118 16 126 5 4 5 -1 2 -10 -3 -10 -2 -20 4 -23 5 -4 6 -12 2 -18 -13 -22
-13 -39 1 -28 7 6 15 9 17 6 3 -2 5 6 5 20 0 13 -4 21 -8 19 -4 -3 -8 0 -8 5
0 6 5 11 10 11 6 0 10 7 10 15 0 8 -6 15 -12 15 -10 0 -9 3 1 9 7 5 10 14 7
20 -4 6 -11 9 -15 7 -4 -3 -8 1 -8 9 0 10 4 12 12 5 10 -8 12 7 11 64 -1 73
-1 75 -21 62 -18 -12 -21 -11 -21 5 0 13 5 18 16 14 11 -4 10 -1 -2 9 -12 9
-18 27 -18 53 0 38 -1 40 -27 36 -25 -3 -26 -2 -7 6 12 5 25 16 29 23 6 10 5
11 -6 1 -20 -19 -33 -16 -46 12 -6 14 -7 23 -3 20 5 -3 8 4 7 15 -1 20 -27 29
-27 9 0 -6 -7 -3 -16 5 -8 9 -13 19 -10 24 8 13 -12 37 -31 37 -11 0 -20 10
-23 26 -4 19 -11 25 -27 24 -23 -2 -26 3 -26 38 0 12 -8 17 -29 17 -22 0 -29
4 -27 18 3 35 -1 41 -26 36 -22 -4 -25 -1 -25 25 0 25 -3 29 -25 26 -24 -2
-30 8 -26 43 1 7 -10 12 -30 12 -23 0 -30 4 -26 14 3 8 -1 22 -8 33 -8 10 -15
13 -15 6 0 -26 -30 1 -30 27 0 24 -4 28 -25 25 -25 -2 -30 8 -25 44 1 9 -5 12
-19 8 -25 -6 -60 16 -42 27 9 6 9 11 0 22 -10 12 -14 12 -20 2 -7 -11 -9 -11
-9 0 0 7 -5 10 -10 7 -9 -6 -14 14 -11 42 1 6 -9 10 -24 9 -22 -3 -25 1 -25
25 0 26 -4 29 -31 29 -25 0 -29 3 -24 19 6 19 -13 37 -40 40 -5 1 -10 9 -10
19 0 24 -23 36 -41 21 -8 -7 -14 -8 -13 -3 5 30 -2 65 -13 61 -20 -7 -48 12
-42 27 3 8 -4 19 -16 26 -18 10 -21 10 -14 -2 6 -10 4 -10 -10 1 -9 8 -15 23
-13 32 4 14 -2 19 -27 21 -26 3 -31 7 -29 28 2 26 -9 29 -128 34 -18 1 -26 7
-27 21 -1 15 1 16 7 6 5 -7 13 -11 19 -7 6 3 13 2 17 -4 3 -5 12 -10 18 -10 8
0 7 3 -2 9 -7 5 -11 13 -8 18 7 11 -357 16 -367 6z m454 -87 c-13 -13 -35 7
-25 24 5 8 11 8 21 -1 10 -8 12 -15 4 -23z m-103 -202 c-3 -3 -12 -4 -19 -1
-8 3 -5 6 6 6 11 1 17 -2 13 -5z m-427 -88 c0 -2 -8 -10 -17 -17 -16 -13 -17
-12 -4 4 13 16 21 21 21 13z m547 -2 c-3 -3 -12 -4 -19 -1 -8 3 -5 6 6 6 11 1
17 -2 13 -5z m98 -122 c-3 -3 -11 0 -18 7 -9 10 -8 11 6 5 10 -3 15 -9 12 -12z
m-805 -36 c0 -2 -8 -10 -17 -17 -16 -13 -17 -12 -4 4 13 16 21 21 21 13z m915
-55 c3 -5 2 -12 -3 -15 -5 -3 -9 1 -9 9 0 17 3 19 12 6z m-1385 -117 c0 -8
-19 -13 -24 -6 -3 5 1 9 9 9 8 0 15 -2 15 -3z m-50 -58 c0 -2 -7 -7 -16 -10
-8 -3 -12 -2 -9 4 6 10 25 14 25 6z m1660 -30 c0 -2 -8 -10 -17 -17 -16 -13
-17 -12 -4 4 13 16 21 21 21 13z m454 -174 c3 -5 -1 -9 -9 -9 -8 0 -12 4 -9 9
3 4 7 8 9 8 2 0 6 -4 9 -8z m-2234 -222 c0 -5 -2 -10 -4 -10 -3 0 -8 5 -11 10
-3 6 -1 10 4 10 6 0 11 -4 11 -10z m2387 -76 c2 -13 1 -15 -4 -4 -3 8 -11 19
-17 23 -7 6 -6 7 4 4 8 -2 16 -12 17 -23z m8 -33 c3 -5 2 -12 -3 -15 -5 -3 -9
1 -9 9 0 17 3 19 12 6z m-108 -351 c-2 -11 -7 -23 -12 -27 -4 -5 -5 -2 -1 5 4
6 2 12 -3 12 -6 0 -11 -5 -11 -12 0 -6 -2 -9 -5 -6 -9 8 6 38 16 32 5 -3 9 0
9 5 0 6 2 11 5 11 3 0 4 -9 2 -20z m-687 -695 c0 -7 -8 -16 -17 -19 -10 -4
-14 -4 -10 0 4 4 3 12 -3 18 -6 8 -3 12 11 13 10 1 19 -4 19 -12z"/>
<path d="M1500 2520 c0 -5 5 -10 11 -10 5 0 7 5 4 10 -3 6 -8 10 -11 10 -2 0
-4 -4 -4 -10z"/>
<path d="M1230 1901 c0 -6 5 -11 12 -11 9 0 8 -4 -2 -14 -11 -11 -46 -16 -120
-19 -70 -2 -105 -7 -106 -15 -1 -7 -2 -18 -3 -25 0 -7 -13 -13 -28 -13 -22 1
-29 -4 -33 -24 -3 -14 -11 -26 -19 -28 -10 -2 -12 1 -5 10 6 7 10 19 10 26 -1
15 -19 17 -24 3 -2 -6 2 -11 8 -11 22 0 -18 -30 -43 -32 -13 -1 -24 -8 -24
-15 0 -16 9 -17 25 -1 7 7 12 8 12 2 0 -6 -12 -16 -26 -23 -17 -7 -24 -17 -20
-27 3 -8 2 -13 -3 -9 -5 3 -12 -1 -15 -7 -3 -7 -4 -4 -1 8 4 14 0 21 -10 21
-8 0 -15 -3 -16 -6 0 -3 -2 -25 -3 -49 -2 -38 -16 -74 -16 -42 0 10 -4 10 -17
-1 -15 -13 -15 -12 0 12 15 23 15 26 2 26 -9 0 -14 -6 -11 -13 2 -6 2 -15 -2
-18 -7 -7 -14 -41 -15 -72 -1 -16 -7 -21 -23 -19 -22 2 -24 -14 -28 -167 0
-15 -4 -24 -8 -22 -4 3 -8 1 -8 -5 0 -5 6 -12 13 -14 9 -4 9 -6 -1 -6 -8 -1
-10 -6 -5 -13 11 -20 10 -65 -2 -65 -6 0 -11 15 -10 33 1 18 -3 35 -9 37 -7 3
-12 -5 -12 -19 0 -13 4 -24 8 -24 4 0 8 -5 8 -11 0 -5 -4 -8 -8 -5 -13 8 -8
-72 6 -84 9 -7 9 -7 2 2 -15 18 -12 27 8 24 19 -3 19 -4 21 -77 1 -35 4 -48
13 -43 6 4 8 3 4 -4 -3 -5 -3 -12 1 -15 5 -2 2 -2 -4 -1 -7 2 -13 -4 -13 -12
0 -12 6 -15 21 -11 11 3 22 0 24 -6 5 -15 16 -68 17 -84 1 -12 12 -17 29 -15
4 1 17 -11 30 -26 13 -15 17 -21 9 -15 -19 17 -31 16 -24 -2 4 -8 19 -15 34
-15 25 0 28 -3 24 -24 -2 -15 2 -26 12 -30 12 -5 14 -1 9 17 l-6 22 14 -23 c7
-12 17 -19 21 -15 5 4 6 -4 4 -19 -3 -16 -1 -28 3 -28 8 0 12 13 11 30 0 3 8
6 18 6 10 0 16 -6 13 -13 -3 -7 -8 -11 -12 -8 -4 2 -8 -1 -8 -8 0 -7 17 -13
40 -15 46 -3 57 -8 57 -25 0 -7 -4 -6 -10 3 -7 12 -9 11 -8 -6 2 -21 25 -25
151 -27 52 0 58 -7 25 -31 -21 -15 -21 -16 -2 -7 15 7 27 6 42 -5 15 -10 22
-11 22 -3 0 6 7 8 16 5 9 -4 13 -2 8 5 -4 7 0 9 14 5 14 -5 25 -1 34 11 12 18
41 22 184 26 18 1 20 4 11 18 -10 16 -12 16 -23 1 -12 -15 -12 -15 -8 5 4 13
13 21 24 20 10 -1 17 -4 14 -8 -2 -4 0 -11 6 -14 6 -4 10 -3 9 2 -4 24 3 31
26 27 14 -2 26 0 26 6 1 5 2 16 3 22 0 7 10 14 21 16 11 2 24 8 29 13 14 13
29 11 20 -2 -4 -7 1 -7 16 1 16 9 19 15 11 23 -14 14 -15 30 -1 22 6 -4 10 6
10 22 0 41 11 74 23 70 6 -2 12 -10 15 -18 3 -11 2 -11 -6 -1 -8 11 -10 11
-15 0 -3 -9 2 -14 14 -15 14 -1 19 5 19 23 0 19 -5 24 -26 24 -23 0 -26 3 -22
30 4 28 2 30 -28 30 -18 0 -36 5 -40 12 -4 6 -3 8 4 4 6 -4 10 1 9 12 -1 15
-10 18 -51 18 -28 -1 -50 -4 -48 -8 1 -5 2 -12 2 -16 0 -4 9 -8 19 -9 14 -1
18 3 15 15 -5 14 -3 14 6 -1 11 -18 12 -18 27 0 14 17 14 17 4 -2 -6 -12 -21
-21 -38 -21 -15 -1 -36 -2 -46 -3 -12 -1 -16 -5 -11 -13 6 -10 5 -10 -7 -1
-18 15 -34 5 -34 -22 0 -16 -6 -20 -32 -19 -30 0 -31 -1 -26 -28 3 -17 1 -28
-5 -28 -7 0 -9 8 -5 18 6 16 5 16 -13 0 -17 -15 -39 -17 -151 -15 -72 1 -129
4 -127 6 2 2 -1 9 -6 16 -7 8 -5 12 5 12 8 0 11 -5 8 -10 -3 -6 -1 -7 5 -3 5
3 12 1 14 -6 3 -8 7 -6 11 5 4 10 2 16 -6 14 -7 -1 -11 4 -9 12 2 11 0 12 -10
4 -7 -6 -22 -7 -33 -3 -11 4 -26 5 -32 3 -7 -3 -13 -1 -13 5 0 5 -10 9 -22 8
-11 0 -23 4 -25 11 -3 7 4 11 16 10 11 0 17 -6 14 -12 -3 -5 0 -4 8 3 10 9 10
15 1 24 -9 9 -12 9 -12 -1 0 -10 -3 -11 -13 -2 -8 6 -24 12 -38 14 -17 3 -24
10 -23 26 1 11 -2 21 -6 21 -4 0 -6 13 -5 30 1 16 -1 27 -6 24 -5 -3 -9 3 -10
13 0 16 -1 16 -9 -2 -6 -13 -9 -15 -9 -5 -1 13 -2 13 -11 0 -6 -9 -10 -10 -10
-3 0 23 12 43 24 37 6 -3 4 1 -5 8 -16 13 -21 49 -18 138 1 19 2 56 2 82 1 39
3 44 14 30 12 -16 13 -16 7 0 -4 13 -1 16 13 14 14 -3 18 3 19 23 3 52 11 74
34 86 13 7 31 10 40 8 22 -6 36 15 20 30 -6 7 -10 8 -8 2 3 -11 -4 -15 -24
-15 -7 0 -4 6 7 12 21 13 34 16 72 20 12 1 19 6 17 10 -3 4 -1 8 5 8 5 0 11
-5 13 -12 3 -7 7 -5 11 6 4 9 3 15 -2 12 -5 -3 -14 0 -19 7 -9 10 -6 13 13 13
13 0 21 -4 19 -8 -3 -4 0 -8 5 -8 6 0 11 8 12 18 0 10 3 12 6 5 3 -10 10 -10
25 -2 16 9 19 8 13 -2 -5 -8 -4 -10 4 -5 18 11 112 13 118 3 3 -5 9 -3 14 4 7
11 9 11 9 1 0 -7 5 -10 10 -7 6 3 10 1 10 -6 0 -8 4 -8 15 1 9 7 15 8 15 2 0
-5 -7 -12 -15 -16 -21 -8 -19 -22 4 -22 11 0 17 4 15 8 -3 4 0 8 5 8 6 0 11
-4 11 -10 0 -5 14 -10 30 -10 17 0 29 -3 29 -7 -5 -33 2 -45 26 -41 22 5 25 2
25 -23 0 -28 10 -34 45 -30 9 1 11 -42 6 -101 -1 -4 -40 -7 -88 -6 -65 1 -93
5 -108 17 -18 15 -19 15 -6 -1 12 -16 11 -18 -12 -18 -14 0 -31 8 -37 18 -11
16 -11 16 -6 0 5 -16 -3 -18 -79 -18 l-85 0 0 -31 c0 -16 -3 -28 -7 -26 -5 3
-16 -6 -26 -19 -14 -19 -15 -23 -2 -18 8 3 15 10 15 15 0 5 4 9 9 9 5 0 8 -13
7 -30 0 -16 -4 -30 -8 -30 -5 0 -8 -7 -8 -15 0 -8 5 -15 10 -15 6 0 10 -11 10
-25 0 -14 6 -25 13 -26 6 0 37 -2 67 -2 30 -1 60 -5 67 -10 6 -4 14 -1 16 5 4
10 8 9 16 -2 6 -8 11 -10 11 -4 0 5 11 10 24 10 15 0 22 -4 18 -10 -3 -6 2 -5
11 3 13 10 17 10 17 1 0 -9 3 -10 14 -1 10 8 16 8 25 -2 6 -8 7 -18 3 -22 -4
-5 -1 -5 6 -1 9 6 10 11 2 20 -8 10 0 13 35 13 30 0 42 -3 38 -11 -4 -6 1 -5
10 3 14 11 17 11 17 0 0 -11 2 -11 8 -1 9 13 38 12 61 -2 10 -6 12 -5 7 2 -4
7 -1 12 9 12 9 0 14 -4 11 -9 -7 -11 13 -9 33 3 8 5 16 3 22 -5 5 -8 9 -9 9
-3 0 6 12 10 28 9 34 -2 54 4 46 16 -3 5 0 9 7 9 8 0 8 4 1 13 -8 10 -6 13 11
14 15 2 18 0 8 -6 -11 -7 -11 -9 0 -14 10 -4 10 -6 2 -6 -18 -1 -16 -18 2 -18
12 0 14 25 14 146 -1 151 -5 183 -20 159 -7 -10 -9 -11 -9 0 0 7 -4 10 -10 7
-6 -4 -10 7 -10 24 0 18 -5 31 -12 31 -9 0 -8 4 2 10 13 9 13 11 0 20 -13 9
-13 10 0 11 8 1 2 4 -15 8 -25 5 -30 11 -29 34 1 20 -3 27 -12 23 -17 -7 -19
10 -1 18 8 4 7 5 -3 5 -30 -2 -40 1 -38 13 2 6 -6 14 -17 16 -31 6 -40 19 -24
38 8 10 9 15 2 11 -6 -4 -14 -3 -17 1 -3 5 -18 7 -33 4 -26 -5 -27 -4 -13 13
9 11 10 16 3 11 -9 -5 -13 -1 -13 13 0 13 -6 18 -17 16 -10 -1 -24 3 -32 9
-12 9 -13 8 -7 -2 7 -11 4 -12 -12 -3 -11 6 -22 7 -24 2 -2 -5 -9 -3 -16 5
-10 11 -10 14 1 14 27 0 13 25 -14 26 -18 1 -26 -3 -22 -10 4 -6 -1 -4 -11 3
-10 8 -33 14 -51 13 -23 -2 -37 3 -45 15 -11 17 -11 17 -6 1 4 -14 0 -18 -19
-18 -14 0 -25 5 -25 10 0 6 -7 10 -15 10 -8 0 -13 6 -11 13 1 6 1 8 -2 4 -2
-4 -10 -3 -18 4 -10 8 -14 8 -14 0z m50 -37 c0 -2 -9 -4 -21 -4 -11 0 -18 4
-14 10 5 8 35 3 35 -6z m-225 -24 c-3 -5 -1 -10 5 -10 6 0 8 -5 4 -11 -4 -8
-9 -7 -15 2 -8 14 -13 5 -9 -16 1 -5 -4 -4 -11 2 -10 11 -9 16 7 28 23 17 27
18 19 5z m665 -190 c0 -5 -2 -10 -4 -10 -3 0 -8 5 -11 10 -3 6 -1 10 4 10 6 0
11 -4 11 -10z m125 -192 c5 4 5 2 1 -5 -8 -14 -36 -6 -36 9 0 7 5 6 13 -1 8
-6 18 -7 22 -3z m-639 -104 c-1 -8 -6 -17 -12 -21 -5 -4 -6 -4 -2 1 4 5 3 14
-2 21 -7 8 -5 12 4 12 8 0 13 -6 12 -13z m-516 -155 c0 -5 -4 -9 -10 -9 -5 0
-13 -1 -17 -2 -3 -2 -7 4 -8 13 -2 12 3 15 16 12 10 -3 19 -9 19 -14z m104
-265 c3 -8 2 -13 -3 -9 -5 3 -11 0 -13 -7 -3 -7 -7 -5 -11 6 -4 10 -3 15 3 11
6 -3 10 -1 10 4 0 16 7 13 14 -5z m892 -122 c-9 -8 -34 12 -29 24 4 12 8 11
18 -3 8 -10 12 -19 11 -21z m-436 -134 c0 -4 -5 -8 -12 -8 -6 0 -8 -3 -4 -7 4
-5 13 -1 19 7 13 16 51 24 41 9 -3 -5 -1 -9 5 -9 5 0 12 5 14 10 3 6 4 5 3 -2
-2 -7 -11 -12 -22 -11 -10 1 -26 -3 -35 -8 -22 -11 -49 -2 -43 15 5 14 34 18
34 4z"/>
<path d="M1284 1898 c-4 -7 -4 -10 1 -6 4 4 14 0 22 -10 13 -15 13 -15 3 6
-12 25 -16 27 -26 10z"/>
<path d="M1186 1882 c-2 -4 4 -9 15 -9 11 -1 17 2 14 8 -7 11 -22 12 -29 1z"/>
<path d="M1510 1840 c0 -5 5 -10 10 -10 6 0 10 5 10 10 0 6 -4 10 -10 10 -5 0
-10 -4 -10 -10z"/>
<path d="M1336 1603 c-6 -14 -5 -15 5 -6 7 7 10 15 7 18 -3 3 -9 -2 -12 -12z"/>
<path d="M1155 1600 c3 -5 8 -10 11 -10 2 0 4 5 4 10 0 6 -5 10 -11 10 -5 0
-7 -4 -4 -10z"/>
<path d="M1196 1598 c3 -5 10 -6 15 -3 13 9 11 12 -6 12 -8 0 -12 -4 -9 -9z"/>
<path d="M690 1536 c0 -9 30 -14 35 -6 4 6 -3 10 -14 10 -12 0 -21 -2 -21 -4z"/>
<path d="M980 1519 c-12 -9 -11 -10 5 -5 20 6 20 6 1 -9 -20 -15 -20 -15 0
-15 13 0 20 7 21 20 2 22 -5 25 -27 9z"/>
<path d="M2570 1426 c0 -2 7 -7 16 -10 8 -3 12 -2 9 4 -6 10 -25 14 -25 6z"/>
<path d="M1416 1407 c3 -10 9 -15 12 -12 3 3 0 11 -7 18 -10 9 -11 8 -5 -6z"/>
<path d="M1246 1398 c3 -5 10 -6 15 -3 13 9 11 12 -6 12 -8 0 -12 -4 -9 -9z"/>
<path d="M1496 1398 c3 -5 10 -6 15 -3 13 9 11 12 -6 12 -8 0 -12 -4 -9 -9z"/>
<path d="M647 1377 c-4 -11 -1 -20 8 -23 8 -4 12 -10 9 -15 -3 -5 -10 -6 -16
-3 -6 4 -8 2 -4 -4 3 -5 1 -12 -6 -14 -7 -3 -2 -7 10 -10 12 -4 20 -2 16 3 -3
5 -2 14 2 21 4 7 9 24 10 37 2 17 0 21 -5 12 -7 -11 -9 -11 -13 0 -3 9 -6 8
-11 -4z"/>
<path d="M1140 1270 c-9 -6 -10 -10 -3 -10 6 0 15 5 18 10 8 12 4 12 -15 0z"/>
<path d="M2299 1168 c-6 -21 -5 -38 2 -38 5 0 12 -1 16 -2 3 -2 7 5 9 14 1 11
-3 15 -14 11 -10 -4 -13 -2 -8 5 4 7 5 12 2 12 -3 0 -6 -1 -7 -2z"/>
<path d="M1255 1140 c-3 -5 -1 -10 4 -10 6 0 11 5 11 10 0 6 -2 10 -4 10 -3 0
-8 -4 -11 -10z"/>
<path d="M1733 1125 c0 -8 4 -12 9 -9 5 3 6 10 3 15 -9 13 -12 11 -12 -6z"/>
<path d="M1516 1118 c3 -5 10 -6 15 -3 13 9 11 12 -6 12 -8 0 -12 -4 -9 -9z"/>
<path d="M985 1052 c-18 -13 -14 -28 8 -29 12 0 16 1 10 4 -7 3 -13 9 -13 14
0 6 5 7 12 3 7 -4 8 -3 4 4 -8 14 -8 14 -21 4z"/>
<path d="M1374 938 c-5 -8 -1 -9 12 -5 18 7 18 7 0 -8 -11 -8 -15 -15 -10 -15
12 0 34 21 34 32 0 12 -28 9 -36 -4z"/>
<path d="M1336 918 c3 -5 10 -6 15 -3 13 9 11 12 -6 12 -8 0 -12 -4 -9 -9z"/>
<path d="M1713 874 c0 -9 4 -11 12 -4 7 5 14 9 16 7 2 -1 3 0 1 2 -7 11 -29 7
-29 -5z"/>
<path d="M2413 868 c-1 -11 3 -18 9 -16 15 5 19 35 4 35 -7 0 -13 -9 -13 -19z"/>
<path d="M2354 822 c2 -8 10 -16 20 -18 11 -1 16 3 14 13 -4 21 -37 26 -34 5z"/>
<path d="M1610 759 c0 -5 5 -7 10 -4 6 3 10 8 10 11 0 2 -4 4 -10 4 -5 0 -10
-5 -10 -11z"/>
<path d="M1331 657 c-8 -10 -7 -14 4 -14 8 0 12 4 9 9 -3 4 4 8 16 8 13 0 19
-4 14 -12 -4 -7 -3 -8 5 -4 6 4 9 12 6 17 -9 13 -41 11 -54 -4z"/>
<path d="M1873 335 c0 -6 8 -12 17 -12 9 -1 17 5 17 12 0 7 -8 13 -17 12 -9 0
-17 -6 -17 -12z"/>
<path d="M1686 142 c-2 -4 -1 -14 4 -22 7 -11 9 -9 7 8 -1 24 -3 26 -11 14z"/>
<path d="M1390 21 c0 -5 7 -11 14 -14 10 -4 13 -1 9 9 -6 15 -23 19 -23 5z"/>
</g>
</svg>
