<svg width="512" height="512" viewBox="0 0 512 512" fill="none" xmlns="http://www.w3.org/2000/svg">
<rect width="512" height="512" rx="256" fill="#1C1E53"/>
<path d="M271.388 210.428C271.388 227.09 271.388 247.393 248.486 255.669C271.939 263.724 271.388 280.828 271.388 298.703V364.91C271.388 377.49 276.453 385.103 285.482 386.979C287.466 387.65 289.556 387.949 291.648 387.862H313.67V432H277.334C238.576 432 217.215 409.931 217.215 368.993V290.648C216.94 286.626 215.17 282.853 212.255 280.075C209.34 277.297 205.492 275.715 201.469 275.641H192V236.91H201.469C205.572 236.856 209.496 235.221 212.428 232.345C215.359 229.468 217.074 225.571 217.215 221.462V142.014C217.215 101.738 238.135 80 277.334 80H314V123.476H291.978C289.884 123.482 287.803 123.817 285.812 124.469C276.783 126.786 271.718 134.29 271.718 146.538L271.388 210.428Z" fill="white"/>
</svg>
