<svg width="87" height="23" viewBox="0 0 87 23" fill="none" xmlns="http://www.w3.org/2000/svg">
<g clip-path="url(#clip0_462_1312)">
<path d="M17.9246 18.9246C16.4562 20.3931 14.5852 21.3931 12.5484 21.7982C10.5116 22.2034 8.40045 21.9955 6.48182 21.2007C4.5632 20.406 2.92332 19.0602 1.76957 17.3335C0.615813 15.6068 -8.62347e-07 13.5767 0 11.5C8.62349e-07 9.42329 0.615816 7.39322 1.76957 5.66651C2.92333 3.93979 4.5632 2.59398 6.48183 1.79926C8.40045 1.00454 10.5117 0.79661 12.5485 1.20176C14.5853 1.6069 16.4562 2.60693 17.9246 4.07538L14.5336 7.46638C13.7359 6.6686 12.7194 6.12531 11.6129 5.9052C10.5063 5.6851 9.35937 5.79806 8.31702 6.22981C7.27468 6.66157 6.38377 7.39271 5.75696 8.3308C5.13015 9.26888 4.79559 10.3718 4.79559 11.5C4.79559 12.6282 5.13015 13.7311 5.75696 14.6692C6.38377 15.6073 7.27467 16.3384 8.31702 16.7702C9.35936 17.2019 10.5063 17.3149 11.6129 17.0948C12.7194 16.8747 13.7358 16.3314 14.5336 15.5336L17.9246 18.9246Z" fill="black"/>
<path d="M86.7523 18.6557V22.1203H83.8459C80.7447 22.0228 79.0877 20.3481 79.0877 17.2026V9.28992H77.0586V6.25068H79.0877V2.84814H83.3763V6.21523H86.6548V9.24561H83.3763V16.7773C83.3763 17.7962 83.5801 18.6114 85.1485 18.6114L86.7523 18.6557Z" fill="#EF5DA8"/>
<path d="M59.9651 14.2168V13.9864C59.9187 12.9673 60.0739 11.9491 60.4217 10.99C60.7696 10.031 61.3033 9.15008 61.9923 8.39772C62.6813 7.64536 63.512 7.03636 64.4368 6.60564C65.3616 6.17492 66.3623 5.93094 67.3815 5.8877C67.5853 5.8877 67.798 5.8877 68.0018 5.8877C72.0511 5.8877 75.6043 8.24466 75.6043 13.8624V15.0586H64.3511C64.4663 17.6459 65.8663 19.1079 68.2233 19.1079C70.2524 19.1079 71.2005 18.2219 71.4752 16.9282H75.5245C75.0283 20.3042 72.3347 22.1826 68.0726 22.1826C63.3942 22.1472 59.9651 19.1877 59.9651 14.2168ZM71.3866 12.3472C71.2359 9.99023 70.0486 8.85605 67.984 8.85605C65.9195 8.85605 64.7321 10.132 64.4397 12.3472H71.3866Z" fill="#EF5DA8"/>
<path d="M42.4573 14.2168V13.9864C42.4108 12.9687 42.5654 11.9519 42.9122 10.994C43.259 10.0361 43.7912 9.1559 44.4783 8.40376C45.1654 7.65163 45.994 7.04229 46.9168 6.61057C47.8395 6.17885 48.8383 5.93321 49.856 5.8877C50.0598 5.8877 50.2725 5.8877 50.4763 5.8877C54.5256 5.8877 58.0877 8.24466 58.0877 13.8624V15.0586H46.8433C46.9585 17.6459 48.3585 19.1079 50.7155 19.1079C52.7446 19.1079 53.6927 18.2219 53.9674 16.9282H58.0168C57.5117 20.3042 54.818 22.1826 50.556 22.1826C45.8864 22.1472 42.4573 19.1877 42.4573 14.2168ZM53.8788 12.3472C53.7282 9.99023 52.5408 8.85605 50.4763 8.85605C48.4117 8.85605 47.2598 10.1674 46.932 12.3383L53.8788 12.3472Z" fill="#EF5DA8"/>
<path d="M35.9858 2.28988C35.9703 1.86229 36.0819 1.4397 36.3067 1.07562C36.5315 0.711534 36.8592 0.42233 37.2484 0.244618C37.6377 0.0669068 38.0709 0.00868063 38.4932 0.0773116C38.9155 0.145943 39.308 0.338344 39.6209 0.630157C39.9338 0.921971 40.1531 1.30007 40.2511 1.71659C40.349 2.13311 40.3211 2.56932 40.171 2.96999C40.0208 3.37065 39.7552 3.71776 39.4076 3.96737C39.0601 4.21697 38.6463 4.35785 38.2187 4.37216H38.139C37.8736 4.38896 37.6074 4.35319 37.3559 4.2669C37.1043 4.18062 36.8723 4.04551 36.673 3.86934C36.4738 3.69317 36.3113 3.4794 36.1949 3.24029C36.0785 3.00117 36.0105 2.74143 35.9947 2.47596C35.9873 2.41422 35.9843 2.35204 35.9858 2.28988ZM35.9858 6.2152H40.3187V21.8279H36.0035L35.9858 6.2152Z" fill="#EF5DA8"/>
<path d="M20.6562 0.491211H34.355V4.27476H25.4942V9.91906H32.5119V13.5608H25.4854V21.8279H20.6562V0.491211Z" fill="#EF5DA8"/>
</g>
<defs>
<clipPath id="clip0_462_1312">
<rect width="87" height="23" fill="white"/>
</clipPath>
</defs>
</svg>
