<svg width="166" height="40" viewBox="0 0 166 40" fill="none" xmlns="http://www.w3.org/2000/svg">
<g clip-path="url(#clip0_448_9671)">
<path d="M47.6094 12.3745H51.783V29.7087H47.6094V12.3745ZM53.4473 23.1883C53.4473 18.8948 56.0477 16.3213 59.9483 16.3213C63.849 16.3213 66.4494 18.8948 66.4494 23.1883C66.4494 27.4818 63.94 30.082 59.9483 30.082C55.9567 30.082 53.4473 27.5752 53.4473 23.1883ZM62.3147 23.1883C62.3147 20.8282 61.4176 19.4415 59.9873 19.4415C58.5571 19.4415 57.6729 20.7749 57.6729 23.1883C57.6729 25.6017 58.5571 26.9218 59.9873 26.9218C61.4176 26.9218 62.3407 25.6018 62.3407 23.2016L62.3147 23.1883ZM68.1136 30.602H72.1443C72.3278 31.0471 72.6483 31.4182 73.0568 31.659C73.4652 31.8998 73.9394 31.9969 74.4067 31.9354C76.0059 31.9354 76.838 31.0554 76.838 29.7487V27.3486H76.851C76.5067 28.0959 75.9497 28.7188 75.2535 29.1353C74.5572 29.5518 73.7543 29.7423 72.9504 29.6819C69.8949 29.6819 67.8666 27.2952 67.8666 23.1883C67.8666 19.0814 69.8039 16.5213 73.0674 16.5213C73.8919 16.476 74.7098 16.6941 75.4084 17.1455C76.107 17.5969 76.6518 18.2593 76.968 19.0414H76.851V16.628H80.9858V29.6153C80.9858 32.7488 78.2813 34.7089 74.3026 34.7089C70.6881 34.6955 68.3737 33.0021 68.1397 30.6154L68.1136 30.602ZM76.851 23.1883C76.851 21.0949 75.915 19.7748 74.4326 19.7748C72.9504 19.7748 72.0403 21.1082 72.0403 23.1883C72.0403 25.2684 72.9374 26.4952 74.4326 26.4952C75.928 26.4952 76.851 25.3617 76.851 23.1883ZM82.637 23.1883C82.637 18.8948 85.2374 16.3213 89.138 16.3213C93.0387 16.3213 95.6391 18.8948 95.6391 23.1883C95.6391 27.4818 93.1167 30.082 89.138 30.082C85.1594 30.082 82.663 27.5752 82.663 23.1883H82.637ZM91.5045 23.1883C91.5045 20.8282 90.5943 19.4415 89.177 19.4415C87.7598 19.4415 86.8626 20.7749 86.8626 23.1883C86.8626 25.6017 87.7468 26.9218 89.177 26.9218C90.6073 26.9218 91.5305 25.6018 91.5305 23.2016L91.5045 23.1883ZM97.3294 13.4678C97.3112 13.0318 97.4207 12.6002 97.6436 12.2286C97.8667 11.8569 98.193 11.5621 98.5806 11.3822C98.9684 11.2023 99.3996 11.1455 99.8191 11.219C100.239 11.2926 100.627 11.4931 100.934 11.7949C101.242 12.0967 101.454 12.4858 101.544 12.9123C101.634 13.3389 101.597 13.7833 101.439 14.1883C101.281 14.5934 101.008 14.9406 100.655 15.1853C100.303 15.4299 99.8872 15.5609 99.4617 15.5613C99.1898 15.5683 98.9192 15.52 98.6656 15.419C98.412 15.3179 98.1805 15.1662 97.9846 14.9728C97.7886 14.7792 97.6321 14.5477 97.5241 14.2917C97.4161 14.0356 97.3587 13.7601 97.3554 13.4812L97.3294 13.4678ZM97.3294 16.6147H101.555V29.7619H97.3943L97.3294 16.6147ZM116.754 23.1883C116.754 27.4686 114.882 29.9487 111.697 29.9487C110.881 30.0002 110.07 29.7939 109.372 29.3575C108.674 28.9212 108.125 28.2758 107.796 27.5086H107.718V33.9889H103.544V16.6547H107.692V19.0014H107.771C108.087 18.2191 108.632 17.556 109.33 17.1027C110.028 16.6493 110.845 16.4277 111.67 16.468C114.947 16.4413 116.832 18.9081 116.832 23.2016L116.754 23.1883ZM112.503 23.1883C112.503 21.1082 111.553 19.7615 110.084 19.7615C108.615 19.7615 107.692 21.0949 107.679 23.1883C107.666 25.2817 108.615 26.6018 110.084 26.6018C111.553 26.6018 112.581 25.3617 112.581 23.2016L112.503 23.1883ZM123.879 16.3079C127.378 16.3079 129.549 18.0014 129.574 20.7215H125.765C125.765 19.7748 124.998 19.1881 123.854 19.1881C122.709 19.1881 122.163 19.6415 122.163 20.3215C122.163 21.0015 122.645 21.2149 123.607 21.4149L126.285 21.9749C128.886 22.535 129.926 23.6017 129.926 25.5885C129.926 28.2552 127.52 30.0687 123.945 30.0687C120.369 30.0687 118.041 28.3086 117.873 25.6285H121.916C122.033 26.6018 122.787 27.1752 124.01 27.1752C125.232 27.1752 125.804 26.7752 125.804 26.0684C125.804 25.3617 125.414 25.2417 124.412 25.0285L121.994 24.5083C119.485 23.9617 118.171 22.615 118.171 20.6015C118.25 17.988 120.434 16.3213 123.957 16.3213L123.879 16.3079ZM143.902 29.7487H139.859V27.2818H139.781C139.555 28.1047 139.062 28.8238 138.384 29.3207C137.706 29.8176 136.882 30.0626 136.05 30.0153C135.421 30.0363 134.796 29.9208 134.214 29.6763C133.632 29.4318 133.107 29.0639 132.674 28.5968C132.24 28.1296 131.908 27.5738 131.699 26.9657C131.489 26.3576 131.408 25.7111 131.46 25.0684V16.628H135.634V24.1483C135.634 25.6951 136.427 26.5352 137.727 26.5352C138.032 26.5328 138.333 26.4634 138.609 26.3315C138.886 26.1996 139.132 26.0085 139.331 25.7709C139.528 25.5332 139.675 25.2548 139.76 24.9541C139.844 24.6535 139.864 24.3378 139.82 24.0283V16.628H143.981L143.902 29.7487ZM145.918 16.6147H149.975V19.1481H150.066C150.29 18.3366 150.77 17.624 151.431 17.1222C152.092 16.6203 152.898 16.3575 153.719 16.3747C154.545 16.3011 155.368 16.5458 156.027 17.0613C156.686 17.5767 157.133 18.3255 157.282 19.1614H157.464C157.724 18.3211 158.247 17.5922 158.953 17.0882C159.658 16.5842 160.506 16.3334 161.365 16.3747C161.936 16.3523 162.504 16.4539 163.034 16.6728C163.564 16.8915 164.043 17.2226 164.439 17.6442C164.835 18.0659 165.141 18.5687 165.334 19.1197C165.529 19.6707 165.607 20.2574 165.565 20.8415V29.7619H161.365V21.9349C161.365 20.6015 160.753 19.8548 159.571 19.8548C159.308 19.8503 159.047 19.9042 158.808 20.0127C158.568 20.121 158.353 20.2814 158.178 20.4828C158.004 20.6841 157.875 20.9217 157.798 21.1793C157.722 21.4369 157.702 21.7082 157.737 21.9749V29.7619H153.758V21.8949C153.758 20.5615 153.121 19.8548 151.977 19.8548C151.712 19.8527 151.45 19.9087 151.207 20.0192C150.965 20.1296 150.748 20.2919 150.573 20.4953C150.396 20.6987 150.264 20.9382 150.186 21.198C150.108 21.4578 150.085 21.7318 150.118 22.0016V29.7619H145.945L145.918 16.6147Z" fill="#1D2130"/>
<path d="M39.3547 13.5079C39.3548 10.854 38.5733 8.26196 37.1126 6.07127C35.6519 3.88056 33.5802 2.19336 31.1686 1.23063C28.7571 0.267914 26.1182 0.0745687 23.5977 0.675921C21.0772 1.27728 18.7926 2.64529 17.043 4.60077H0.816406V39.7225H35.0769V23.3084C36.4216 22.0749 37.4977 20.5646 38.2348 18.8759C38.9718 17.1871 39.3534 15.3581 39.3547 13.5079ZM32.7626 13.5079C32.7652 14.7796 32.3998 16.0235 31.7127 17.0822C31.0257 18.1408 30.0478 18.9666 28.9029 19.4551C27.758 19.9437 26.4974 20.0728 25.2809 19.8263C24.0644 19.5799 22.9465 18.9688 22.0687 18.0705C21.1909 17.1722 20.5928 16.027 20.3499 14.78C20.1071 13.5329 20.2305 12.24 20.7043 11.0648C21.1783 9.88965 21.9815 8.8851 23.0125 8.1783C24.0433 7.47151 25.2555 7.09423 26.4956 7.09422C28.1554 7.09422 29.7475 7.76952 30.9224 8.97193C32.0973 10.1743 32.7591 11.8057 32.7626 13.5079ZM28.4848 32.9622H7.40847V11.3611H13.8315C13.7075 12.0698 13.6422 12.7879 13.6364 13.5079C13.6399 17.0043 14.9958 20.3565 17.4066 22.8288C19.8174 25.3011 23.0862 26.6917 26.4956 26.6952C27.1621 26.6916 27.8272 26.6337 28.4848 26.5219V32.9622Z" fill="#1D2130"/>
</g>
<defs>
<clipPath id="clip0_448_9671">
<rect width="165.987" height="40" fill="white" transform="translate(0.0117188)"/>
</clipPath>
</defs>
</svg>
