<svg width="72" height="72" viewBox="0 0 72 72" fill="none" xmlns="http://www.w3.org/2000/svg">
<rect width="72" height="72" rx="36" fill="#F4F5F7"/>
<path fill-rule="evenodd" clip-rule="evenodd" d="M33.5065 35.4339C30.716 34.2933 28.751 31.5521 28.751 28.35C28.751 24.1233 32.1744 20.7 36.401 20.7C40.6276 20.7 44.051 24.1233 44.051 28.35C44.051 31.5522 42.0859 34.2934 39.2953 35.434C41.981 36.0653 44.3354 37.5559 46.0525 39.5999H41.722L41.5732 39.604C40.1947 39.6801 39.1006 40.808 39.1006 42.1883V47.6999H23.8008C23.8008 41.7371 27.9428 36.7417 33.5065 35.4339ZM40.4429 30.1973C39.9768 32.0214 38.3112 33.3 36.4012 33.3C34.4911 33.3 32.8255 32.0214 32.3594 30.1973L34.3797 29.7C34.6105 30.6145 35.4443 31.2565 36.4012 31.2565C37.3581 31.2565 38.1919 30.6145 38.4226 29.7L40.4429 30.1973Z" fill="#1D2130"/>
<path fill-rule="evenodd" clip-rule="evenodd" d="M40.8984 42.9144C40.8984 42.0779 41.5765 41.3999 42.4129 41.3999H53.784C54.6204 41.3999 55.2984 42.0779 55.2984 42.9144V49.1115C55.2984 49.9479 54.6204 50.6259 53.784 50.6259H42.4129C41.5765 50.6259 40.8984 49.9479 40.8984 49.1115V42.9144ZM45.1904 50.626H51.0058C50.6323 50.626 49.719 51.2426 49.0148 51.7629C48.4821 52.1565 47.7391 52.1269 47.2208 51.7145C46.5806 51.2051 45.7334 50.626 45.1904 50.626ZM44.7065 46.9355C45.2418 46.9355 45.6758 46.5225 45.6758 46.0129C45.6758 45.5034 45.2418 45.0903 44.7065 45.0903C44.1712 45.0903 43.7373 45.5034 43.7373 46.0129C43.7373 46.5225 44.1712 46.9355 44.7065 46.9355ZM48.0991 46.9355C48.6344 46.9355 49.0683 46.5225 49.0683 46.0129C49.0683 45.5034 48.6344 45.0903 48.0991 45.0903C47.5638 45.0903 47.1299 45.5034 47.1299 46.0129C47.1299 46.5225 47.5638 46.9355 48.0991 46.9355ZM52.4599 46.0129C52.4599 46.5225 52.026 46.9355 51.4907 46.9355C50.9554 46.9355 50.5215 46.5225 50.5215 46.0129C50.5215 45.5034 50.9554 45.0903 51.4907 45.0903C52.026 45.0903 52.4599 45.5034 52.4599 46.0129Z" fill="url(#paint0_radial_448_9639)"/>
<defs>
<radialGradient id="paint0_radial_448_9639" cx="0" cy="0" r="1" gradientUnits="userSpaceOnUse" gradientTransform="translate(33.7701 14.7956) rotate(56.7643) scale(61.5658 216.908)">
<stop offset="0.175497" stop-color="#D798E1"/>
<stop offset="0.275566" stop-color="#9B9FFF"/>
<stop offset="0.49892" stop-color="#AED3FF"/>
<stop offset="0.565292" stop-color="#C9D4EF"/>
<stop offset="0.656871" stop-color="#CACFFA"/>
</radialGradient>
</defs>
</svg>
