<?xml version="1.0" standalone="no"?>
<!DOCTYPE svg PUBLIC "-//W3C//DTD SVG 20010904//EN"
 "http://www.w3.org/TR/2001/REC-SVG-20010904/DTD/svg10.dtd">
<svg version="1.0" xmlns="http://www.w3.org/2000/svg"
 width="512.000000pt" height="512.000000pt" viewBox="0 0 512.000000 512.000000"
 preserveAspectRatio="xMidYMid meet">
<metadata>
Created by potrace 1.14, written by Peter Selinger 2001-2017
</metadata>
<g transform="translate(0.000000,512.000000) scale(0.100000,-0.100000)"
fill="#000000" stroke="none">
<path d="M3705 4953 c-36 -9 -71 -41 -88 -80 -9 -21 -37 -119 -61 -218 -24
-99 -49 -199 -55 -223 l-12 -43 -41 33 c-85 70 -146 110 -223 148 -124 61
-210 82 -355 85 -215 6 -343 -32 -534 -158 -160 -106 -221 -128 -356 -133
-173 -5 -254 20 -400 124 -94 67 -192 114 -295 143 -111 32 -333 33 -445 2
-276 -76 -522 -292 -669 -590 -81 -162 -140 -356 -158 -520 -15 -127 -7 -545
11 -663 2 -14 7 -52 11 -85 11 -108 56 -367 87 -500 16 -71 31 -137 33 -145 1
-8 10 -42 19 -75 9 -33 19 -71 22 -85 3 -14 27 -97 54 -185 43 -140 66 -207
150 -440 139 -388 488 -1104 564 -1158 54 -38 194 -29 289 20 58 29 138 101
169 152 12 20 24 38 27 41 24 21 89 179 121 293 26 94 19 66 74 322 75 357
107 462 167 554 103 156 256 104 335 -114 38 -106 95 -342 129 -536 12 -68 57
-236 86 -322 94 -274 238 -414 447 -433 57 -6 74 -3 109 15 45 22 67 56 173
256 29 55 59 111 66 125 21 38 164 341 164 347 0 2 12 30 26 61 135 293 320
837 401 1174 26 111 29 118 58 130 71 28 76 42 175 436 50 202 93 374 95 382
26 111 35 144 42 151 4 4 148 42 318 84 630 154 603 146 633 174 37 35 50 68
48 122 -2 56 -32 100 -83 122 -33 15 -157 46 -503 128 -47 12 -94 23 -105 25
-11 2 -85 21 -165 42 l-145 37 -17 65 c-10 36 -20 74 -22 85 -2 11 -46 186
-96 388 -88 350 -94 369 -126 401 -41 41 -90 53 -149 39z"/>
</g>
</svg>
