<?xml version="1.0" standalone="no"?>
<!DOCTYPE svg PUBLIC "-//W3C//DTD SVG 20010904//EN"
 "http://www.w3.org/TR/2001/REC-SVG-20010904/DTD/svg10.dtd">
<svg version="1.0" xmlns="http://www.w3.org/2000/svg"
 width="512.000000pt" height="512.000000pt" viewBox="0 0 512.000000 512.000000"
 preserveAspectRatio="xMidYMid meet">
<metadata>
Created by potrace 1.14, written by Peter Selinger 2001-2017
</metadata>
<g transform="translate(0.000000,512.000000) scale(0.100000,-0.100000)"
fill="#000000" stroke="none">
<path d="M383 5106 c-181 -44 -334 -202 -372 -384 -8 -38 -11 -661 -10 -2170
0 -1968 1 -2122 17 -2183 46 -173 202 -321 380 -358 38 -8 661 -11 2170 -10
1968 0 2122 1 2183 17 173 46 321 202 358 380 8 38 11 661 10 2170 0 1968 -1
2122 -17 2183 -46 173 -202 321 -380 358 -81 17 -4268 14 -4339 -3z m3827
-1660 c0 -438 -4 -808 -10 -867 -39 -399 -201 -786 -456 -1089 -34 -41 -175
-187 -313 -325 l-251 -250 0 1133 0 1132 -1132 0 -1133 0 235 236 c287 288
373 365 515 460 266 176 584 291 895 323 47 4 437 9 868 10 l782 1 0 -764z"/>
</g>
</svg>
