<svg width="300" height="200" viewBox="0 0 300 200" fill="none" xmlns="http://www.w3.org/2000/svg">
<path d="M234.542 52.3668C235.742 55.1835 236.834 57.7335 237.992 60.4335C242.059 61.0668 246.167 61.7502 250.292 62.3418C254.417 62.9335 255.217 63.9168 255.05 68.1752C254.892 72.0668 255.05 75.9668 255.05 79.8418C255.05 80.8668 255.15 81.8918 255.05 82.9085C254.842 85.4085 254.009 86.2918 251.442 86.6835C248.592 87.1168 245.742 87.5168 242.9 87.9418C241.234 88.1918 239.617 88.4752 237.9 88.7752L234.709 96.0335C237.317 100.733 241.675 104.308 244.15 108.95C242.784 113.117 232.225 123.759 227.825 125.617C226.159 125.617 225.109 124.55 223.95 123.658C221.217 121.575 218.542 119.417 215.834 117.292C215.4 116.958 214.942 116.658 214.467 116.317L207.134 119.459C206.817 121.742 206.55 124.034 206.175 126.309C205.759 128.875 205.342 131.442 204.759 133.975C204.25 136.134 203.667 136.542 201.425 136.558C195.759 136.597 190.089 136.597 184.417 136.558C181.917 136.558 181.367 136.067 180.925 133.559C180.184 129.259 179.55 124.942 178.867 120.633C178.817 120.275 178.734 119.917 178.642 119.417L171.45 116.408C166.909 119.292 163.059 123.125 158.2 125.975C157.206 125.495 156.264 124.911 155.392 124.234C151.575 120.567 147.842 116.808 144.084 113.075C143.951 112.946 143.828 112.807 143.717 112.658C141.55 110.008 141.5 109.033 143.559 106.292C145.459 103.792 147.434 101.292 149.392 98.7918C149.959 98.0585 150.5 97.3002 151.059 96.4918L147.725 88.5668C147.098 88.356 146.457 88.1835 145.809 88.0502C141.867 87.4502 137.917 86.8835 133.967 86.3002C131.417 85.9168 130.767 85.2418 130.75 82.6835C130.711 77.1279 130.711 71.5502 130.75 65.9502C130.75 63.3585 131.384 62.6918 133.942 62.2835C137.6 61.6835 141.275 61.1585 144.942 60.6168C145.859 60.4752 146.767 60.2752 147.759 60.0918L151.025 52.5002C149.425 50.3918 147.809 48.2502 146.175 46.1168C144.542 43.9835 142.759 42.2168 141.617 40.1002C141.667 38.2002 142.709 37.0335 143.7 35.9918C147.109 32.4418 150.625 28.9918 154.1 25.5085C154.167 25.4418 154.242 25.3918 154.317 25.3252C157.592 22.6585 158.267 22.6335 161.542 25.1668C164.117 27.1585 166.667 29.1668 169.234 31.1585C169.892 31.6668 170.575 32.1418 171.175 32.5835L178.459 29.5168C178.567 28.9502 178.725 28.2502 178.834 27.5418C179.434 23.6918 179.942 19.8168 180.642 15.9835C181.242 12.7168 181.967 12.2168 185.367 12.2085C190.367 12.2085 195.367 12.2085 200.417 12.2085C201.834 12.2085 203.234 12.2085 204.517 13.8752L207.017 29.4502L214.367 32.5418L224.025 25.2252C227.642 22.5002 228.05 22.4252 231.325 25.5418C234.75 28.8085 238.1 32.2085 241.325 35.6502C244.55 39.0918 244.417 39.6752 241.475 43.4835C239.167 46.4335 236.892 49.3418 234.542 52.3668ZM233.184 74.7502C234.2 53.7752 215.459 34.0835 193.184 34.0002C170.084 33.9168 152.5 53.6585 152.359 74.1668C152.225 95.1418 169.534 114.717 192.559 114.95C215.275 115.142 233.65 95.9335 233.184 74.7502Z" fill="#39BB68"/>
<path d="M189.317 111.85C211.813 111.85 230.05 93.613 230.05 71.1166C230.05 48.6202 211.813 30.3833 189.317 30.3833C166.82 30.3833 148.583 48.6202 148.583 71.1166C148.583 93.613 166.82 111.85 189.317 111.85Z" fill="white"/>
<path d="M231.058 48.8834C232.267 51.7001 233.358 54.2501 234.508 56.9501C238.583 57.5834 242.692 58.2751 246.808 58.8584C250.925 59.4417 251.742 60.4417 251.567 64.6917C251.408 68.5834 251.567 72.4917 251.567 76.3584C251.567 77.3751 251.667 78.4001 251.567 79.4167C251.35 81.9584 250.517 82.8084 247.95 83.2001C245.108 83.6251 242.258 84.0334 239.417 84.4584C237.75 84.7001 236.083 84.9834 234.417 85.2917L231.233 92.5501C233.842 97.2501 238.192 100.833 240.675 105.475C239.3 109.642 228.742 120.275 224.35 122.092C222.683 122.092 221.625 121.033 220.467 120.142C217.742 118.05 215.058 115.892 212.35 113.775C211.925 113.433 211.458 113.133 210.983 112.8L203.658 115.942C203.342 118.217 203.067 120.508 202.692 122.792C202.275 125.35 201.858 127.925 201.275 130.45C200.775 132.617 200.183 133.025 197.942 133.042C192.264 133.075 186.595 133.075 180.933 133.042C178.433 133.042 177.875 132.542 177.442 130.033C176.7 125.733 176.067 121.417 175.383 117.108C175.325 116.75 175.25 116.392 175.15 115.892L167.958 112.883C163.425 115.767 159.567 119.608 154.708 122.45C153.712 121.976 152.771 121.394 151.9 120.717C148.092 117.042 144.358 113.283 140.6 109.558C140.467 109.425 140.342 109.283 140.225 109.142C138.067 106.483 138.008 105.517 140.075 102.775C141.975 100.275 143.95 97.7751 145.908 95.2751C146.475 94.5417 147.008 93.7917 147.575 92.9834L144.242 85.0501C143.617 84.8412 142.979 84.6714 142.333 84.5417C138.383 83.9334 134.433 83.3751 130.492 82.7834C127.933 82.4084 127.283 81.7334 127.267 79.1667C127.222 73.6112 127.222 68.0362 127.267 62.4417C127.267 59.8501 127.892 59.1834 130.45 58.7667C134.117 58.1751 137.792 57.6417 141.458 57.1001C142.367 56.9584 143.275 56.7584 144.267 56.5667L147.525 49.0667C145.925 46.9667 144.317 44.8167 142.675 42.6917C141.033 40.5667 139.258 38.7834 138.125 36.6751C138.125 34.7667 139.208 33.6084 140.208 32.5667C143.608 29.0084 147.133 25.5667 150.608 22.0834L150.817 21.9001C154.092 19.2251 154.775 19.2084 158.042 21.7417C160.617 23.7251 163.175 25.7417 165.742 27.7334C166.4 28.2417 167.075 28.7167 167.683 29.1501L175 26.0501C175.108 25.4834 175.267 24.7751 175.375 24.0667C175.975 20.2167 176.483 16.3501 177.183 12.5167C177.775 9.24173 178.508 8.74173 181.9 8.7334C186.9 8.7334 191.942 8.7334 196.958 8.7334C198.375 8.7334 199.767 8.7334 201.05 10.4001L203.55 25.9751L210.9 29.0584L220.567 21.7417C224.175 19.0167 224.592 18.9501 227.858 22.0584C231.283 25.3251 234.633 28.7251 237.858 32.1667C241.083 35.6084 240.95 36.1917 238.008 40.0084C235.708 42.9501 233.417 45.8334 231.058 48.8834ZM229.708 71.2751C230.717 50.3001 211.975 30.6084 189.708 30.5251C166.608 30.4417 149.017 50.1751 148.875 70.6584C148.75 91.6251 166.058 111.208 189.075 111.433C211.792 111.667 230.175 92.5001 229.708 71.2751Z" stroke="black" stroke-width="2" stroke-linecap="round" stroke-linejoin="round"/>
<path d="M126.509 115.408L127.7 121.617C130.467 122.692 133.259 123.808 136.034 124.85C138.809 125.892 139.259 126.725 138.484 129.7C137.775 132.417 137.259 135.183 136.667 137.925C136.509 138.65 136.425 139.383 136.209 140.083C135.667 141.842 134.95 142.317 133.084 142.192C131.009 142.058 128.917 141.9 126.875 141.767C125.675 141.692 124.484 141.633 123.217 141.567L119.884 146.192C120.992 149.9 123.509 153.092 124.542 156.733C122.934 159.467 113.867 165.325 110.492 165.9C109.342 165.675 108.742 164.733 108.059 163.933C106.459 162.042 104.9 160.108 103.325 158.2C103.075 157.9 102.792 157.617 102.492 157.3L96.8504 158.392C96.2754 159.942 95.7337 161.517 95.1171 163.067C94.4337 164.808 93.7421 166.55 92.9421 168.242C92.2587 169.683 91.7754 169.908 90.2087 169.55C86.2143 168.706 82.2226 167.836 78.2337 166.942C76.5004 166.55 76.1587 166.108 76.2421 164.283C76.3754 161.142 76.6004 158.008 76.7837 154.867C76.7837 154.608 76.7837 154.342 76.7837 153.975L72.1837 150.75C68.5504 152.083 65.2421 154.192 61.3504 155.45C60.7395 154.953 60.181 154.394 59.6837 153.783C57.5671 150.617 55.5171 147.392 53.4421 144.192C53.3691 144.079 53.3024 143.962 53.2421 143.842C52.1337 141.642 52.2421 140.95 54.1171 139.333C55.8421 137.85 57.6087 136.417 59.3587 134.95C59.8671 134.525 60.3587 134.117 60.9087 133.6L59.7921 127.508C59.3855 127.26 58.9622 127.04 58.5254 126.85C55.8421 125.817 53.1421 124.817 50.4587 123.792C48.7171 123.133 48.3671 122.558 48.7421 120.75C49.5754 116.817 50.4087 112.892 51.3171 108.975C51.7254 107.15 52.2587 106.775 54.1254 106.875C56.7921 107.025 59.4671 107.217 62.1337 107.375C62.8004 107.417 63.4671 107.417 64.2004 107.433L67.6504 102.625C66.8171 100.9 66.0421 99.1417 65.2171 97.3917C64.3435 95.8208 63.5913 94.1855 62.9671 92.5C63.1276 91.9535 63.3962 91.4447 63.7569 91.0038C64.1176 90.563 64.5632 90.1989 65.0671 89.9333C68.0087 87.95 71.0171 86.0667 74.0004 84.15C74.0587 84.1118 74.12 84.0783 74.1837 84.05C76.9004 82.675 77.3837 82.7667 79.2921 85.05C80.8004 86.85 82.2837 88.6583 83.7921 90.4583C84.1754 90.9167 84.6254 91.35 84.9337 91.7583L90.5337 90.7167C90.7004 90.3333 90.9171 89.8833 91.1087 89.3833C92.1254 86.7583 93.0754 84.1167 94.1587 81.525C95.0754 79.3167 95.6671 79.075 98.0587 79.5917L108.667 81.9C109.227 81.9424 109.765 82.133 110.226 82.4523C110.687 82.7716 111.055 83.208 111.292 83.7167L110.65 95.0583L115.359 98.3917L123.284 94.725C126.242 93.3667 126.55 93.375 128.367 96.075C130.284 98.9 132.125 101.783 133.842 104.725C135.559 107.667 135.409 108.058 132.742 110.267C130.7 111.942 128.634 113.642 126.509 115.408ZM119.842 130.408C123.467 116.975 114.117 101.583 99.7171 98.3833C84.7754 95.05 70.5921 105.35 67.6171 118.583C64.5671 132.142 73.0004 147.258 87.8671 150.658C102.5 154.05 117.125 144.225 119.817 130.442L119.842 130.408Z" fill="#39BB68"/>
<path d="M122.058 112.708L123.242 118.925C126.017 119.992 128.8 121.108 131.575 122.158C134.35 123.208 134.808 124.033 134.025 127.008C133.317 129.717 132.808 132.492 132.208 135.233C132.058 135.95 131.967 136.692 131.75 137.392C131.217 139.15 130.492 139.617 128.625 139.5C126.558 139.367 124.458 139.208 122.417 139.075C121.225 138.992 120.025 138.942 118.767 138.875L115.433 143.492C116.55 147.2 119.058 150.392 120.092 154.042C118.483 156.775 109.417 162.633 106.042 163.208C104.892 162.983 104.292 162.042 103.608 161.233C102.008 159.342 100.458 157.417 98.8752 155.508C98.6252 155.2 98.3502 154.917 98.0418 154.608L92.4002 155.692C91.8252 157.25 91.2752 158.825 90.6668 160.367C89.9752 162.108 89.2918 163.858 88.4835 165.542C87.8002 166.992 87.3252 167.208 85.7585 166.858C81.7585 166.008 77.7668 165.136 73.7835 164.242C72.0418 163.85 71.7085 163.408 71.7835 161.592C71.9252 158.45 72.1418 155.308 72.3252 152.175C72.3252 151.908 72.3252 151.65 72.3252 151.283L67.7252 148.058C64.0835 149.383 60.7835 151.5 56.8918 152.758C56.2627 152.268 55.6898 151.709 55.1835 151.092C53.0585 147.917 51.0168 144.7 48.9335 141.492C48.8629 141.379 48.7989 141.262 48.7418 141.142C47.6252 138.942 47.7335 138.25 49.5752 136.633C51.3002 135.15 53.0752 133.717 54.8168 132.258C55.3252 131.833 55.8252 131.383 56.3668 130.9L55.2585 124.808C54.8459 124.568 54.4203 124.351 53.9835 124.158C51.3002 123.125 48.6085 122.125 45.9168 121.1C44.1835 120.442 43.8252 119.867 44.2085 118.058C45.0307 114.125 45.8863 110.197 46.7752 106.275C47.1918 104.458 47.7252 104.083 49.5835 104.183C52.2585 104.325 54.9252 104.517 57.6002 104.683C58.2585 104.683 58.9335 104.683 59.6585 104.742L63.2252 100C62.3918 98.2751 61.6168 96.5168 60.7918 94.7668C59.9102 93.1792 59.1497 91.5273 58.5168 89.8251C58.6773 89.2775 58.9457 88.7675 59.3064 88.3252C59.6671 87.883 60.1126 87.5174 60.6168 87.2501C63.5585 85.2751 66.5668 83.3918 69.5502 81.4668L69.7252 81.3751C72.4418 80.0001 72.9252 80.0918 74.8418 82.3751C76.3418 84.1668 77.8335 85.9835 79.3335 87.7751C79.7168 88.2335 80.1668 88.6751 80.4835 89.0751L86.0835 88.0418C86.2502 87.6585 86.4668 87.2085 86.6502 86.7001C87.6668 84.0835 88.6168 81.4418 89.7002 78.8501C90.6252 76.6335 91.2168 76.3501 93.6085 76.9085L104.208 79.1668C104.767 79.2075 105.305 79.3965 105.767 79.7144C106.228 80.0323 106.596 80.4675 106.833 80.9751L106.2 92.3251L110.9 95.6585L118.825 91.9918C121.792 90.6251 122.092 90.6418 123.917 93.3335C125.825 96.1668 127.667 99.0418 129.392 101.992C131.117 104.942 130.95 105.325 128.292 107.533C126.242 109.25 124.167 110.95 122.058 112.708ZM115.292 127.708C118.9 114.317 109.583 98.9585 95.2168 95.7668C80.3168 92.4335 66.1835 102.717 63.2168 115.917C60.1752 129.433 68.5835 144.508 83.4085 147.9C98.0335 151.275 112.608 141.467 115.292 127.733V127.708Z" fill="white"/>
<path d="M122.058 112.708L123.242 118.925C126.017 119.992 128.8 121.108 131.575 122.158C134.35 123.208 134.808 124.033 134.025 127.008C133.317 129.717 132.808 132.492 132.208 135.233C132.058 135.95 131.967 136.692 131.75 137.392C131.217 139.15 130.492 139.617 128.625 139.5C126.558 139.367 124.458 139.208 122.417 139.075C121.225 138.992 120.025 138.942 118.767 138.875L115.433 143.492C116.55 147.2 119.058 150.392 120.092 154.042C118.483 156.775 109.417 162.633 106.042 163.208C104.892 162.983 104.292 162.042 103.608 161.233C102.008 159.342 100.458 157.417 98.8752 155.508C98.6252 155.2 98.3502 154.917 98.0418 154.608L92.4002 155.692C91.8252 157.25 91.2752 158.825 90.6668 160.367C89.9752 162.108 89.2918 163.858 88.4835 165.542C87.8002 166.992 87.3252 167.208 85.7585 166.858C81.7585 166.008 77.7668 165.136 73.7835 164.242C72.0418 163.85 71.7085 163.408 71.7835 161.592C71.9252 158.45 72.1418 155.308 72.3252 152.175C72.3252 151.908 72.3252 151.65 72.3252 151.283L67.7252 148.058C64.0835 149.383 60.7835 151.5 56.8918 152.758C56.2627 152.268 55.6898 151.709 55.1835 151.092C53.0585 147.917 51.0168 144.7 48.9335 141.492C48.8629 141.379 48.7989 141.262 48.7418 141.142C47.6252 138.942 47.7335 138.25 49.5752 136.633C51.3002 135.15 53.0752 133.717 54.8168 132.258C55.3252 131.833 55.8252 131.383 56.3668 130.9L55.2585 124.808C54.8459 124.568 54.4203 124.351 53.9835 124.158C51.3002 123.125 48.6085 122.125 45.9168 121.1C44.1835 120.442 43.8252 119.867 44.2085 118.058C45.0307 114.125 45.8863 110.197 46.7752 106.275C47.1918 104.458 47.7252 104.083 49.5835 104.183C52.2585 104.325 54.9252 104.517 57.6002 104.683C58.2585 104.683 58.9335 104.683 59.6585 104.742L63.2252 100C62.3918 98.2751 61.6168 96.5168 60.7918 94.7668C59.9102 93.1792 59.1497 91.5273 58.5168 89.8251C58.6773 89.2775 58.9457 88.7675 59.3064 88.3252C59.6671 87.883 60.1126 87.5174 60.6168 87.2501C63.5585 85.2751 66.5668 83.3918 69.5502 81.4668L69.7252 81.3751C72.4418 80.0001 72.9252 80.0918 74.8418 82.3751C76.3418 84.1668 77.8335 85.9835 79.3335 87.7751C79.7168 88.2335 80.1668 88.6751 80.4835 89.0751L86.0835 88.0418C86.2502 87.6585 86.4668 87.2085 86.6502 86.7001C87.6668 84.0835 88.6168 81.4418 89.7002 78.8501C90.6252 76.6335 91.2168 76.3501 93.6085 76.9085L104.208 79.1668C104.767 79.2075 105.305 79.3965 105.767 79.7144C106.228 80.0323 106.596 80.4675 106.833 80.9751L106.2 92.3251L110.9 95.6585L118.825 91.9918C121.792 90.6251 122.092 90.6418 123.917 93.3335C125.825 96.1668 127.667 99.0418 129.392 101.992C131.117 104.942 130.95 105.325 128.292 107.533C126.242 109.25 124.167 110.95 122.058 112.708ZM115.392 127.758C119.017 114.3 109.65 98.8751 95.2168 95.6668C80.2168 92.3335 66.0502 102.65 63.0668 115.908C60.0085 129.492 68.4585 144.642 83.3585 148.05C98.0752 151.408 112.717 141.567 115.417 127.758H115.392Z" stroke="black" stroke-width="2" stroke-linecap="round" stroke-linejoin="round"/>
<path d="M185.383 151.209L186.933 154.817C188.75 155.1 190.592 155.409 192.433 155.65C194.275 155.892 194.633 156.35 194.558 158.259C194.492 160 194.558 161.75 194.558 163.492C194.558 163.95 194.558 164.409 194.558 164.859C194.458 166 194.083 166.375 192.942 166.525L189.117 167.092C188.383 167.2 187.65 167.325 186.875 167.45L185.45 170.7C186.617 172.8 188.567 174.409 189.675 176.484C189.058 178.35 184.333 183.1 182.367 183.917C181.708 183.854 181.094 183.558 180.633 183.084C179.417 182.15 178.217 181.184 177 180.234C176.808 180.084 176.608 179.95 176.392 179.8L173.117 181.209C172.975 182.225 172.85 183.25 172.683 184.267C172.5 185.417 172.308 186.567 172.05 187.7C171.825 188.667 171.558 188.85 170.567 188.85C168.067 188.85 165.492 188.85 162.958 188.85C161.85 188.85 161.592 188.625 161.4 187.5C161.067 185.575 160.783 183.65 160.475 181.717C160.475 181.559 160.417 181.4 160.375 181.175L157.158 179.834C155.125 181.117 153.4 182.834 151.233 184.109C150.796 183.895 150.382 183.635 150 183.334C148.292 181.667 146.625 180 144.942 178.334L144.775 178.15C143.808 176.959 143.783 176.525 144.708 175.3C145.633 174.075 146.442 173.067 147.308 171.967C147.558 171.642 147.8 171.3 148.067 170.934L146.583 167.392C146.311 167.297 146.032 167.219 145.75 167.159L140.458 166.375C139.317 166.209 139.025 165.909 139.017 164.759C139.017 162.259 139.017 159.759 139.017 157.259C139.017 156.1 139.292 155.8 140.442 155.592C142.108 155.325 143.725 155.092 145.358 154.834C145.767 154.767 146.192 154.684 146.617 154.6L148.075 151.225C147.358 150.284 146.642 149.325 145.908 148.367C145.157 147.525 144.475 146.625 143.867 145.675C143.894 145.323 143.99 144.98 144.151 144.666C144.311 144.351 144.531 144.071 144.8 143.842C146.325 142.25 147.9 140.709 149.458 139.15L149.55 139.067C151.017 137.875 151.317 137.867 152.783 139C153.933 139.892 155.075 140.792 156.225 141.675C156.517 141.909 156.825 142.117 157.058 142.317L160.317 140.942C160.367 140.692 160.433 140.375 160.483 140.059C160.758 138.334 160.983 136.609 161.317 134.892C161.583 133.425 161.917 133.225 163.433 133.225C165.675 133.225 167.925 133.225 170.167 133.225C170.511 133.173 170.864 133.216 171.187 133.348C171.509 133.48 171.79 133.696 172 133.975L173.117 140.942L176.408 142.317L180.725 139.05C182.342 137.825 182.525 137.8 183.992 139.192C185.458 140.584 187.025 142.15 188.458 143.709C189.892 145.267 189.842 145.509 188.525 147.217C187.5 148.559 186.442 149.859 185.383 151.209ZM184.783 161.209C185.233 151.825 176.85 143.017 166.883 142.984C156.55 142.984 148.683 151.775 148.625 160.934C148.65 165.718 150.545 170.304 153.905 173.711C157.265 177.117 161.824 179.076 166.608 179.167C176.767 179.292 185 170.7 184.783 161.225V161.209Z" fill="white"/>
<path d="M185.383 151.209L186.933 154.817C188.75 155.1 190.592 155.409 192.433 155.65C194.275 155.892 194.633 156.35 194.558 158.259C194.492 160 194.558 161.75 194.558 163.492C194.558 163.95 194.558 164.409 194.558 164.859C194.458 166 194.083 166.375 192.942 166.525L189.117 167.092C188.383 167.2 187.65 167.325 186.875 167.45L185.45 170.7C186.617 172.8 188.567 174.409 189.675 176.484C189.058 178.35 184.333 183.1 182.367 183.917C181.708 183.854 181.094 183.558 180.633 183.084C179.417 182.15 178.217 181.184 177 180.234C176.808 180.084 176.608 179.95 176.392 179.8L173.117 181.209C172.975 182.225 172.85 183.25 172.683 184.267C172.5 185.417 172.308 186.567 172.05 187.7C171.825 188.667 171.558 188.85 170.567 188.85C168.067 188.85 165.492 188.85 162.958 188.85C161.85 188.85 161.592 188.625 161.4 187.5C161.067 185.575 160.783 183.65 160.475 181.717C160.475 181.559 160.417 181.4 160.375 181.175L157.158 179.834C155.125 181.117 153.4 182.834 151.233 184.109C150.796 183.895 150.382 183.635 150 183.334C148.292 181.667 146.625 180 144.942 178.334L144.775 178.15C143.808 176.959 143.783 176.525 144.708 175.3C145.633 174.075 146.442 173.067 147.308 171.967C147.558 171.642 147.8 171.3 148.067 170.934L146.583 167.392C146.311 167.297 146.032 167.219 145.75 167.159L140.458 166.375C139.317 166.209 139.025 165.909 139.017 164.759C139.017 162.259 139.017 159.759 139.017 157.259C139.017 156.1 139.292 155.8 140.442 155.592C142.108 155.325 143.725 155.092 145.358 154.834C145.767 154.767 146.192 154.684 146.617 154.6L148.075 151.225C147.358 150.284 146.642 149.325 145.908 148.367C145.157 147.525 144.475 146.625 143.867 145.675C143.894 145.323 143.99 144.98 144.151 144.666C144.311 144.351 144.531 144.071 144.8 143.842C146.325 142.25 147.9 140.709 149.458 139.15L149.55 139.067C151.017 137.875 151.317 137.867 152.783 139C153.933 139.892 155.075 140.792 156.225 141.675C156.517 141.909 156.825 142.117 157.058 142.317L160.317 140.942C160.367 140.692 160.433 140.375 160.483 140.059C160.758 138.334 160.983 136.609 161.317 134.892C161.583 133.425 161.917 133.225 163.433 133.225C165.675 133.225 167.925 133.225 170.167 133.225C170.511 133.173 170.864 133.216 171.187 133.348C171.509 133.48 171.79 133.696 172 133.975L173.117 140.942L176.408 142.317L180.725 139.05C182.342 137.825 182.525 137.8 183.992 139.192C185.458 140.584 187.025 142.15 188.458 143.709C189.892 145.267 189.842 145.509 188.525 147.217C187.5 148.559 186.442 149.859 185.383 151.209ZM180.233 161.209C180.575 154.184 174.3 147.592 166.842 147.567C165.063 147.553 163.3 147.89 161.651 148.558C160.003 149.226 158.503 150.212 157.236 151.459C155.969 152.707 154.96 154.192 154.266 155.83C153.573 157.468 153.209 159.226 153.196 161.004C153.182 162.783 153.519 164.546 154.187 166.194C154.855 167.843 155.841 169.343 157.088 170.61C158.336 171.877 159.821 172.886 161.459 173.58C163.097 174.273 164.855 174.637 166.633 174.65C174.233 174.709 180.392 168.284 180.233 161.192V161.209Z" stroke="black" stroke-width="2" stroke-linecap="round" stroke-linejoin="round"/>
</svg>
