<svg width="300" height="200" viewBox="0 0 300 200" fill="none" xmlns="http://www.w3.org/2000/svg">
<path d="M84.7749 39.7834C96.1985 27.39 110.925 18.5178 127.221 14.2114C143.516 9.90493 160.703 10.3434 176.758 15.4751" stroke="black" stroke-width="2" stroke-linecap="round" stroke-linejoin="round"/>
<path d="M127.917 185.233C113.074 181.426 99.4741 173.832 88.4459 163.194C77.4177 152.556 69.3391 139.237 65 124.542" stroke="black" stroke-width="2" stroke-linecap="round" stroke-linejoin="round"/>
<path d="M235.2 77.05C239.523 93.4888 239.019 110.825 233.749 126.985C228.479 143.145 218.666 157.445 205.483 168.175" stroke="black" stroke-width="2" stroke-linecap="round" stroke-linejoin="round"/>
<path d="M182.875 39.4666H182.917V41.7166L182.875 39.4666Z" fill="#39BB68"/>
<path d="M216.075 6.2666H218.333C218.842 6.2666 219.35 6.30827 219.858 6.34993C220.367 6.3916 221.025 6.44993 221.608 6.52493C225.459 7.00954 229.196 8.16298 232.65 9.93327C235.207 11.241 237.596 12.8527 239.767 14.7333L239.85 14.7999L229.85 24.7999C229.234 24.3666 228.608 23.8999 227.958 23.4749C225.928 22.1517 223.666 21.2217 221.292 20.7333C220.667 20.6083 220.042 20.5416 219.409 20.4583C218.427 20.3375 217.438 20.2957 216.45 20.3333C214.067 20.41 211.717 20.9212 209.517 21.8416C206.833 22.9275 204.416 24.5807 202.431 26.6878C200.446 28.795 198.941 31.3064 198.017 34.0499C198 34.1074 197.977 34.1632 197.95 34.2166L195.65 32.4666L190 28.0916L186.458 25.3749C186.992 24.4083 187.483 23.4083 188.067 22.4666C192.556 15.1809 199.611 9.84116 207.842 7.49994C209.129 7.14343 210.437 6.86514 211.758 6.6666C212.25 6.5916 212.742 6.53327 213.234 6.47493C213.725 6.4166 214.375 6.37494 214.942 6.32494L216.075 6.2666Z" fill="#39BB68"/>
<path d="M239.617 66.3749C238.842 67.0332 238.092 67.7249 237.283 68.3416C233.617 71.1408 229.381 73.1009 224.875 74.0832C223.817 74.3166 222.75 74.4832 221.675 74.6499C221.062 74.7444 220.444 74.8056 219.825 74.8332C218.658 74.8832 217.483 74.9082 216.317 74.9166C215.833 74.9166 215.35 74.9166 214.858 74.8749C214.367 74.8332 214.025 74.7999 213.642 74.7582C213.258 74.7166 212.592 74.6666 212.075 74.5666C211.008 74.3749 209.933 74.1749 208.883 73.9166C203.899 72.7021 199.259 70.3648 195.317 67.0832C191.623 64.0403 188.613 60.2522 186.483 55.9666L186.408 55.7999L194.742 49.3916L197.925 46.9583C198.88 49.833 200.465 52.4583 202.564 54.6425C204.663 56.8267 207.224 58.5146 210.058 59.5833C211.292 60.0644 212.574 60.4081 213.883 60.6083C214.435 60.705 214.991 60.7746 215.55 60.8166C216.475 60.8166 217.408 60.8666 218.333 60.8166C219.303 60.7905 220.269 60.693 221.225 60.5249C223.078 60.2579 224.883 59.7246 226.583 58.9416C227.283 58.6166 227.942 58.2166 228.625 57.8499L230.908 59.6332L239.617 66.3749Z" fill="#39BB68"/>
<path d="M239.167 66.7666L230.509 60.0999L228.217 58.3166C228.775 57.9083 229.359 57.4833 229.884 57.0749C231.782 55.5169 233.265 53.5128 234.2 51.2416C234.628 50.2261 234.954 49.171 235.175 48.0916C235.175 48.0916 235.175 48.0249 235.175 48.0166C235.114 48.0124 235.053 48.0124 234.992 48.0166H216.825V34.7666H248.825C248.959 35.4249 249.117 36.0833 249.225 36.7416C249.334 37.3999 249.434 38.2166 249.525 38.9583C249.525 39.1333 249.525 39.3083 249.567 39.4833C249.567 40.3166 249.567 41.1999 249.567 42.0583C249.567 42.6166 249.567 43.1833 249.492 43.7249C249.384 44.9249 249.292 46.1249 249.117 47.3166C248.477 51.8228 246.947 56.1568 244.617 60.0666C243.168 62.4997 241.391 64.7207 239.334 66.6666C239.282 66.7063 239.226 66.7399 239.167 66.7666V66.7666Z" fill="#39BB68"/>
<path d="M197.95 46.9583L194.767 49.3917L186.434 55.8C186.009 54.825 185.55 53.8583 185.159 52.8667C184.26 50.5407 183.631 48.1193 183.284 45.65C183.195 45.0056 183.12 44.3639 183.059 43.725C183 43.0583 182.975 42.3833 182.934 41.7167V39.4667C182.934 39.025 182.934 38.5833 182.975 38.1417C183.017 37.7 183.067 37.2 183.117 36.725C183.266 35.3965 183.491 34.0777 183.792 32.775C184.36 30.3072 185.199 27.9094 186.292 25.625L186.425 25.375L190 28.0917L195.692 32.4417L197.992 34.1917C197.842 34.7583 197.675 35.325 197.534 35.8583C197.269 36.8756 197.107 37.917 197.05 38.9667C197 39.9494 197 40.934 197.05 41.9167C197.135 43.4093 197.398 44.8865 197.834 46.3167C197.825 46.5583 197.884 46.7583 197.95 46.9583Z" fill="#39BB68"/>
<path d="M210.917 2.3999H213.175C213.683 2.3999 214.192 2.44157 214.692 2.48324C215.192 2.5249 215.867 2.59157 216.45 2.65824C220.304 3.1429 224.043 4.29631 227.5 6.06657C230.053 7.36291 232.44 8.96343 234.608 10.8332C234.635 10.8561 234.661 10.8812 234.683 10.9082L224.683 20.9082C224.075 20.4749 223.45 20.0082 222.792 19.5832C220.761 18.2586 218.5 17.3285 216.125 16.8416C215.508 16.7166 214.875 16.6499 214.25 16.5666C213.269 16.4442 212.279 16.4052 211.292 16.4499C208.905 16.5208 206.553 17.0292 204.35 17.9499C201.668 19.0373 199.253 20.691 197.27 22.7981C195.286 24.9052 193.782 27.4158 192.858 30.1582L192.783 30.3249L190.483 28.5749L184.8 24.2249L181.25 21.5166C181.783 20.5416 182.283 19.5416 182.867 18.5999C187.367 11.3146 194.44 5.98507 202.683 3.66657C203.974 3.31005 205.284 3.03177 206.608 2.83324C207.092 2.75824 207.583 2.6999 208.075 2.6499C208.567 2.5999 209.217 2.4999 209.792 2.4999L210.917 2.3999Z" fill="white"/>
<path d="M234.467 62.4999C233.683 63.1499 232.942 63.8415 232.133 64.4582C228.467 67.2561 224.231 69.216 219.725 70.1999C218.667 70.4332 217.592 70.5999 216.525 70.7665C215.909 70.861 215.289 70.9222 214.667 70.9499C213.5 70.9999 212.333 71.0249 211.158 71.0332C210.675 71.0332 210.192 71.0332 209.708 70.9915C209.225 70.9499 208.875 70.9165 208.492 70.8749C207.967 70.8165 207.442 70.7832 206.925 70.6832C205.85 70.4915 204.783 70.2915 203.725 70.0332C198.918 68.8418 194.426 66.6214 190.56 63.5252C186.694 60.4291 183.546 56.5309 181.333 52.0999C181.303 52.0467 181.278 51.9909 181.258 51.9332L189.592 45.5249L192.775 43.0916C193.127 44.1437 193.562 45.1663 194.075 46.1499C196.379 50.5703 200.238 53.9812 204.908 55.7249C206.14 56.2002 207.42 56.5411 208.725 56.7415C209.293 56.8397 209.866 56.9092 210.442 56.9499C211.367 56.9499 212.292 56.9999 213.217 56.9499C214.189 56.9261 215.158 56.8314 216.117 56.6666C217.968 56.3978 219.77 55.8617 221.467 55.0749C222.167 54.7499 222.833 54.3499 223.508 53.9916L225.833 55.8332L234.467 62.4999Z" fill="white"/>
<path d="M234.467 62.5L225.833 55.8333L223.542 54.0583C224.108 53.6416 224.692 53.225 225.208 52.8083C227.106 51.2474 228.591 49.2443 229.533 46.975C229.954 45.9572 230.281 44.9027 230.508 43.825C230.508 43.825 230.508 43.7583 230.508 43.7583H212.175C212.171 43.7084 212.171 43.6582 212.175 43.6083V30.6583C212.171 30.6084 212.171 30.5582 212.175 30.5083H244.175C244.308 31.1583 244.458 31.8166 244.567 32.475C244.675 33.1333 244.775 33.95 244.867 34.6916C244.893 34.8654 244.907 35.0409 244.908 35.2166C244.908 36.05 244.908 36.9333 244.908 37.7916C244.908 38.35 244.908 38.9166 244.833 39.4583C244.717 40.6583 244.625 41.8583 244.45 43.05C243.802 47.5696 242.261 51.9151 239.917 55.8333C238.452 58.2639 236.66 60.4818 234.592 62.425C234.592 62.425 234.508 62.5 234.467 62.5Z" fill="white"/>
<path d="M192.792 43.0916L189.608 45.5249L181.275 51.9333C180.833 50.9583 180.367 49.9999 180 48.9999C179.102 46.673 178.47 44.2521 178.117 41.7833C178.025 41.1416 177.95 40.4999 177.9 39.8583C177.85 39.2166 177.817 38.5166 177.775 37.8499V35.5999C177.775 35.1583 177.775 34.7166 177.817 34.2749C177.858 33.8333 177.917 33.3333 177.967 32.8583C178.112 31.5292 178.337 30.2101 178.642 28.9083C179.206 26.4394 180.045 24.0412 181.142 21.7583C181.178 21.6752 181.22 21.5945 181.267 21.5166L184.817 24.2249L190.5 28.5749L192.8 30.3249C192.65 30.8916 192.483 31.4583 192.342 31.9916C192.083 33.0127 191.924 34.0565 191.867 35.1083C191.812 36.0881 191.812 37.0701 191.867 38.0499C191.959 39.5416 192.222 41.0178 192.65 42.4499C192.675 42.6916 192.733 42.8916 192.792 43.0916Z" fill="white"/>
<path d="M244.092 30.5082H212.092C212.147 30.4996 212.203 30.4996 212.258 30.5082H243.925C243.98 30.5012 244.036 30.5012 244.092 30.5082V30.5082Z" fill="white"/>
<path d="M212.092 43.7332H230.425C230.425 43.7332 230.425 43.7332 230.425 43.7998C230.425 43.8665 230.267 43.7998 230.192 43.7998H212.317C212.241 43.7818 212.165 43.7596 212.092 43.7332V43.7332Z" fill="white"/>
<path d="M210.917 2.3999H213.159H210.917Z" stroke="black" stroke-width="2" stroke-linecap="round" stroke-linejoin="round"/>
<path d="M177.725 35.5999V37.8498V35.5999Z" stroke="black" stroke-width="2" stroke-linecap="round" stroke-linejoin="round"/>
<path d="M210.917 2.3999H213.175C213.683 2.3999 214.192 2.44157 214.692 2.48324C215.192 2.5249 215.867 2.59157 216.45 2.65824C220.304 3.1429 224.043 4.29631 227.5 6.06657C230.053 7.36291 232.44 8.96343 234.608 10.8332C234.635 10.8561 234.661 10.8812 234.683 10.9082L224.683 20.9082C224.075 20.4749 223.45 20.0082 222.792 19.5832C220.761 18.2586 218.5 17.3285 216.125 16.8416C215.508 16.7166 214.875 16.6499 214.25 16.5666C213.269 16.4442 212.279 16.4052 211.292 16.4499C208.905 16.5208 206.553 17.0292 204.35 17.9499C201.668 19.0373 199.253 20.691 197.27 22.7981C195.286 24.9052 193.782 27.4158 192.858 30.1582L192.783 30.3249L190.483 28.5749L184.8 24.2249L181.25 21.5166C181.783 20.5416 182.283 19.5416 182.867 18.5999C187.367 11.3146 194.44 5.98507 202.683 3.66657C203.974 3.31005 205.284 3.03177 206.608 2.83324C207.092 2.75824 207.583 2.6999 208.075 2.6499C208.567 2.5999 209.217 2.4999 209.792 2.4999L210.917 2.3999Z" stroke="black" stroke-width="2" stroke-linecap="round" stroke-linejoin="round"/>
<path d="M234.467 62.4999C233.683 63.1499 232.942 63.8415 232.133 64.4582C228.467 67.2561 224.231 69.216 219.725 70.1999C218.667 70.4332 217.592 70.5999 216.525 70.7665C215.909 70.861 215.289 70.9222 214.667 70.9499C213.5 70.9999 212.333 71.0249 211.158 71.0332C210.675 71.0332 210.192 71.0332 209.708 70.9915C209.225 70.9499 208.875 70.9165 208.492 70.8749C207.967 70.8165 207.442 70.7832 206.925 70.6832C205.85 70.4915 204.783 70.2915 203.725 70.0332C198.918 68.8418 194.426 66.6214 190.56 63.5252C186.694 60.4291 183.546 56.5309 181.333 52.0999C181.303 52.0467 181.278 51.9909 181.258 51.9332L189.592 45.5249L192.775 43.0916C193.127 44.1437 193.562 45.1663 194.075 46.1499C196.379 50.5703 200.238 53.9812 204.908 55.7249C206.14 56.2002 207.42 56.5411 208.725 56.7415C209.293 56.8397 209.866 56.9092 210.442 56.9499C211.367 56.9499 212.292 56.9999 213.217 56.9499C214.189 56.9261 215.158 56.8314 216.117 56.6666C217.968 56.3978 219.77 55.8617 221.467 55.0749C222.167 54.7499 222.833 54.3499 223.508 53.9916L225.833 55.8332L234.467 62.4999Z" stroke="black" stroke-width="2" stroke-linecap="round" stroke-linejoin="round"/>
<path d="M234.467 62.5L225.833 55.8333L223.542 54.0583C224.108 53.6416 224.692 53.225 225.208 52.8083C227.106 51.2474 228.591 49.2443 229.533 46.975C229.954 45.9572 230.281 44.9027 230.508 43.825C230.508 43.825 230.508 43.7583 230.508 43.7583H212.175C212.171 43.7084 212.171 43.6582 212.175 43.6083V30.6583C212.171 30.6084 212.171 30.5582 212.175 30.5083H244.175C244.308 31.1583 244.458 31.8166 244.567 32.475C244.675 33.1333 244.775 33.95 244.867 34.6916C244.893 34.8654 244.907 35.0409 244.908 35.2166C244.908 36.05 244.908 36.9333 244.908 37.7916C244.908 38.35 244.908 38.9166 244.833 39.4583C244.717 40.6583 244.625 41.8583 244.45 43.05C243.802 47.5696 242.261 51.9151 239.917 55.8333C238.452 58.2639 236.66 60.4818 234.592 62.425C234.592 62.425 234.508 62.5 234.467 62.5Z" stroke="black" stroke-width="2" stroke-linecap="round" stroke-linejoin="round"/>
<path d="M192.792 43.0916L189.608 45.5249L181.275 51.9333C180.833 50.9583 180.367 49.9999 180 48.9999C179.102 46.673 178.47 44.2521 178.117 41.7833C178.025 41.1416 177.95 40.4999 177.9 39.8583C177.85 39.2166 177.817 38.5166 177.775 37.8499V35.5999C177.775 35.1583 177.775 34.7166 177.817 34.2749C177.858 33.8333 177.917 33.3333 177.967 32.8583C178.112 31.5292 178.337 30.2101 178.642 28.9083C179.206 26.4394 180.045 24.0412 181.142 21.7583C181.178 21.6752 181.22 21.5945 181.267 21.5166L184.817 24.2249L190.5 28.5749L192.8 30.3249C192.65 30.8916 192.483 31.4583 192.342 31.9916C192.083 33.0127 191.924 34.0565 191.867 35.1083C191.812 36.0881 191.812 37.0701 191.867 38.0499C191.959 39.5416 192.222 41.0178 192.65 42.4499C192.675 42.6916 192.733 42.8916 192.792 43.0916Z" stroke="black" stroke-width="2" stroke-linecap="round" stroke-linejoin="round"/>
<path d="M244.092 30.5082H212.092C212.147 30.4996 212.203 30.4996 212.258 30.5082H243.925C243.98 30.5012 244.036 30.5012 244.092 30.5082V30.5082Z" stroke="black" stroke-width="2" stroke-linecap="round" stroke-linejoin="round"/>
<path d="M212.092 43.7332H230.425C230.425 43.7332 230.425 43.7332 230.425 43.7998C230.425 43.8665 230.267 43.7998 230.192 43.7998H212.317C212.241 43.7818 212.165 43.7596 212.092 43.7332V43.7332Z" stroke="black" stroke-width="2" stroke-linecap="round" stroke-linejoin="round"/>
<path d="M106.05 83.6747H105.992V80.7581H106.05V83.6747Z" fill="#39BB68"/>
<path d="M105.992 80.7665V83.6832C105.652 91.8256 102.58 99.6163 97.2704 105.798C91.9606 111.981 84.7229 116.194 76.725 117.758C76.2833 117.85 75.8917 117.908 75.5917 117.95C71.8042 118.55 67.9458 118.55 64.1583 117.95C60.0282 117.316 56.0422 115.959 52.3833 113.941C49.5953 112.394 47.0232 110.486 44.7333 108.266C39.1502 103.02 35.4537 96.0776 34.2167 88.5165C32.3 76.8498 35.2667 66.5665 43.1667 57.7832C48.4035 51.86 55.5291 47.9321 63.3333 46.6665C75.425 44.6248 86.05 47.8248 95 56.2665C100.573 61.5247 104.26 68.4711 105.492 76.0332C105.75 77.5832 105.833 79.1665 105.992 80.7665Z" fill="#39BB68"/>
<path d="M100.617 79.5998H100.559V76.6665H100.617V79.5998Z" fill="white"/>
<path d="M100.559 76.6666V79.5833C100.219 87.7257 97.147 95.5164 91.8372 101.699C86.5274 107.881 79.2897 112.094 71.2919 113.658C70.9169 113.733 70.5335 113.792 70.1585 113.85C70.1585 113.85 70.1585 113.85 70.0835 113.85V88.6166H78.4835C79.0252 85.1249 79.5502 81.6583 80.0919 78.1583H70.0919C70.0858 78.0918 70.0858 78.0248 70.0919 77.9583C70.0919 75.6 70.0919 73.2333 70.0919 70.875C70.0791 69.5894 70.562 68.3482 71.4404 67.4094C72.3187 66.4705 73.5249 65.9061 74.8085 65.8333C76.2335 65.7583 77.6585 65.775 79.0752 65.7583C79.5419 65.7583 80.0002 65.7583 80.5085 65.7583V65.3833C80.5085 62.6666 80.5085 59.9499 80.5085 57.2333C80.5085 56.9166 80.4335 56.8166 80.1085 56.7666C77.2793 56.3112 74.4155 56.1049 71.5502 56.1499C69.0331 56.1814 66.5713 56.8926 64.4252 58.2083C61.8257 59.8771 59.983 62.4975 59.2919 65.5083C58.9149 66.9642 58.7273 68.4627 58.7335 69.9666C58.7335 72.5833 58.7335 75.1999 58.7335 77.8166V78.1749H49.5669V88.6416H58.7335V113.925C58.4335 113.875 58.1419 113.842 57.8502 113.783C50.8558 112.525 44.3981 109.202 39.3085 104.242C33.7254 98.9947 30.0289 92.0528 28.7919 84.4916C26.8752 72.825 29.8419 62.5416 37.7419 53.7583C42.9706 47.8088 50.1006 43.8565 57.9169 42.5749C70.0085 40.5333 80.6335 43.7333 89.5835 52.1749C95.1562 57.4332 98.8431 64.3795 100.075 71.9416C100.317 73.5083 100.392 75.1083 100.559 76.6666Z" fill="white"/>
<path d="M100.617 79.5998H100.559V76.6665H100.617V79.5998Z" stroke="black" stroke-width="2" stroke-linecap="round" stroke-linejoin="round"/>
<path d="M100.559 76.6666V79.5833C100.219 87.7257 97.147 95.5164 91.8372 101.699C86.5274 107.881 79.2897 112.094 71.2919 113.658C70.9169 113.733 70.5335 113.792 70.1585 113.85C70.1585 113.85 70.1585 113.85 70.0835 113.85V88.6166H78.4835C79.0252 85.1249 79.5502 81.6583 80.0919 78.1583H70.0919C70.0858 78.0918 70.0858 78.0248 70.0919 77.9583C70.0919 75.6 70.0919 73.2333 70.0919 70.875C70.0791 69.5894 70.562 68.3482 71.4404 67.4094C72.3187 66.4705 73.5249 65.9061 74.8085 65.8333C76.2335 65.7583 77.6585 65.775 79.0752 65.7583C79.5419 65.7583 80.0002 65.7583 80.5085 65.7583V65.3833C80.5085 62.6666 80.5085 59.9499 80.5085 57.2333C80.5085 56.9166 80.4335 56.8166 80.1085 56.7666C77.2793 56.3112 74.4155 56.1049 71.5502 56.1499C69.0331 56.1814 66.5713 56.8926 64.4252 58.2083C61.8257 59.8771 59.983 62.4975 59.2919 65.5083C58.9149 66.9642 58.7273 68.4627 58.7335 69.9666C58.7335 72.5833 58.7335 75.1999 58.7335 77.8166V78.1749H49.5669V88.6416H58.7335V113.925C58.4335 113.875 58.1419 113.842 57.8502 113.783C50.8558 112.525 44.3981 109.202 39.3085 104.242C33.7254 98.9947 30.0289 92.0528 28.7919 84.4916C26.8752 72.825 29.8419 62.5416 37.7419 53.7583C42.9706 47.8088 50.1006 43.8565 57.9169 42.5749C70.0085 40.5333 80.6335 43.7333 89.5835 52.1749C95.1562 57.4332 98.8431 64.3795 100.075 71.9416C100.317 73.5083 100.392 75.1083 100.559 76.6666Z" stroke="black" stroke-width="2" stroke-linecap="round" stroke-linejoin="round"/>
<path d="M172.541 197.942C172.44 197.928 172.339 197.906 172.241 197.875L169.3 196.508L165.833 194.917L163.741 193.992L160.958 192.758C160.35 192.483 159.758 192.192 159.158 191.925L156.45 190.708C155.475 190.267 154.508 189.817 153.533 189.383C152.558 188.95 151.675 188.55 150.75 188.142C150.125 187.858 149.516 187.55 148.891 187.308C148 186.9 147.1 186.517 146.208 186.117L144.441 185.283L141.766 184.083L139.858 183.25L137.216 182.058L135.275 181.175C134.883 180.992 134.483 180.825 134.058 180.633C134.15 180.342 134.216 180.083 134.308 179.8C134.7 178.775 135.091 177.75 135.475 176.717C135.858 175.683 136.25 174.575 136.65 173.508C136.966 172.675 137.291 171.842 137.608 171.008C137.858 170.358 138.091 169.692 138.333 169.042C138.683 168.083 139.05 167.133 139.4 166.175C139.641 165.525 139.875 164.858 140.116 164.2C140.408 163.367 140.708 162.592 141.008 161.783C141.308 160.975 141.541 160.375 141.841 159.667C142.183 158.775 142.516 157.883 142.85 156.992C143.183 156.1 143.491 155.25 143.808 154.383C144.125 153.517 144.491 152.575 144.825 151.675C145.158 150.775 145.475 149.858 145.808 148.95C146.141 148.042 146.408 147.367 146.708 146.575C147.008 145.783 147.358 144.808 147.691 143.933C148.075 142.9 148.475 141.875 148.858 140.85C149.116 140.167 149.35 139.483 149.608 138.8C149.766 138.383 149.941 137.967 150.125 137.558C150.217 137.334 150.368 137.138 150.561 136.992C150.755 136.845 150.984 136.753 151.225 136.725C151.675 136.658 152.133 136.592 152.591 136.558C154.166 136.425 155.741 136.308 157.316 136.183L159.441 136.008C162.3 135.767 168.741 133.358 174.266 131.108L184.641 130.167C184.491 129.142 183.808 125.017 180.2 122.542C179.244 121.889 178.18 121.41 177.058 121.125L174.658 117.608C175.236 117.72 175.796 117.908 176.325 118.167C177.215 118.6 177.996 119.23 178.608 120.008C179.518 120.079 180.411 120.298 181.25 120.658C185.508 122.508 186.791 127.45 187.025 128.358C187.196 129.004 187.315 129.661 187.383 130.325C187.624 131.393 188.059 132.407 188.666 133.317C189.458 134.219 189.98 135.324 190.175 136.508C190.182 136.603 190.182 136.697 190.175 136.792C190.175 137.167 189.875 137.5 189.275 139.6C188.966 140.683 188.658 141.758 188.358 142.842C188.2 143.375 188.05 143.908 187.9 144.442L187 147.575L186.5 149.367C186.283 150.15 186.075 150.933 185.866 151.708C185.843 151.785 185.824 151.863 185.808 151.942C185.575 152.7 185.341 153.458 185.116 154.217C184.891 154.975 184.691 155.775 184.483 156.558V156.633C184.258 157.408 184.016 158.175 183.791 158.95C183.566 159.725 183.375 160.483 183.166 161.25V161.325C182.983 161.892 182.8 162.45 182.625 162.992C182.45 163.533 182.316 164.067 182.166 164.6C181.85 165.692 181.541 166.792 181.233 167.883L180.4 170.817C180.091 171.883 179.791 172.95 179.483 174.025C179.316 174.608 179.158 175.192 178.991 175.783C178.825 176.375 178.7 176.8 178.55 177.308C178.25 178.35 177.958 179.392 177.658 180.433C177.358 181.475 177.058 182.492 176.775 183.525C176.525 184.417 176.291 185.317 176.05 186.217C176.05 186.3 176.008 186.392 175.983 186.483C175.766 187.2 175.533 187.917 175.325 188.642C175.116 189.367 174.891 190.225 174.683 191.025V191.1C174.475 191.792 174.25 192.483 174.041 193.183C173.883 193.708 173.733 194.25 173.591 194.783C173.391 195.483 173.208 196.192 173.008 196.892C172.758 197.233 172.641 197.592 172.541 197.942Z" fill="#39BB68"/>
<path d="M172.542 197.942C172.758 197.067 172.958 196.375 173.1 195.883C173.242 195.392 173.283 195.333 173.442 194.775C173.6 194.217 173.733 193.7 173.892 193.175C174.1 192.475 174.325 191.783 174.533 191.092V191.017C174.742 190.183 174.95 189.425 175.175 188.633C175.4 187.842 175.617 187.192 175.833 186.475C175.833 186.383 175.875 186.292 175.9 186.208C176.142 185.308 176.375 184.408 176.625 183.517C176.908 182.483 177.208 181.458 177.508 180.425C177.808 179.392 178.1 178.342 178.4 177.3C178.55 176.792 178.692 176.283 178.842 175.775C178.992 175.267 179.167 174.6 179.333 174.017C179.642 172.942 179.942 171.875 180.25 170.808L181.083 167.875C181.392 166.783 181.7 165.683 182.017 164.592C182.167 164.058 182.308 163.517 182.475 162.983C182.642 162.45 182.833 161.858 183.017 161.317V161.242C183.225 160.475 183.425 159.708 183.642 158.942C183.858 158.175 184.108 157.4 184.333 156.625V156.55C184.542 155.767 184.75 154.983 184.967 154.208C185.183 153.433 185.425 152.692 185.658 151.933C185.71 151.841 185.769 151.752 185.833 151.667C186.042 150.892 186.25 150.108 186.467 149.325L186.967 147.533L187.867 144.4C188.017 143.867 188.167 143.333 188.325 142.8C189.158 139.95 189.158 139.917 189.242 139.558C189.546 138.378 189.766 137.178 189.9 135.967C191.504 136.919 193.041 137.98 194.5 139.142C194.553 139.243 194.63 139.329 194.725 139.392C194.786 139.435 194.854 139.469 194.925 139.492C195.375 139.625 195.817 139.783 196.267 139.933L200.267 141.208C200.625 141.325 200.775 141.625 200.733 142.092C200.692 142.558 200.658 142.925 200.617 143.325C200.467 145.047 200.314 146.772 200.158 148.5C200.05 149.667 199.933 150.825 199.833 151.983C199.733 153.142 199.633 154.358 199.517 155.542C199.4 156.725 199.283 157.942 199.175 159.142C199.067 160.342 198.967 161.358 198.867 162.475L198.592 165.558C198.475 166.925 198.358 168.3 198.233 169.667C198.125 170.867 198 172.067 197.892 173.267C197.783 174.467 197.692 175.592 197.592 176.75C197.492 177.908 197.358 179.125 197.25 180.308C197.167 181.283 197.092 182.258 197 183.233C196.9 184.383 196.783 185.533 196.683 186.675C196.583 187.817 196.475 189.025 196.367 190.2C196.258 191.375 196.142 192.567 196.033 193.758C195.925 194.95 195.825 196.075 195.725 197.233C195.725 197.55 195.658 197.867 195.625 198.208C195.267 198.208 194.925 198.208 194.583 198.208L190.775 198.158L184.2 198.083C181.667 198.075 177.95 198.033 172.542 197.942Z" fill="#39BB68"/>
<path d="M167.941 194.767C167.842 194.758 167.743 194.736 167.65 194.7L164.708 193.333L161.2 191.75L159.108 190.833L156.325 189.6L154.525 188.767L151.816 187.558L148.908 186.225L146.125 185L144.258 184.167L141.575 182.975L139.808 182.142L137.133 180.942L135.225 180.108L132.583 178.917L130.641 178.033L129.425 177.492C129.516 177.208 129.591 176.942 129.683 176.658C130.066 175.625 130.466 174.6 130.85 173.575C131.233 172.55 131.625 171.433 132.016 170.367C132.333 169.533 132.666 168.7 132.983 167.867C133.225 167.208 133.458 166.55 133.708 165.892L134.766 163.033L135.483 161.058L136.383 158.633C136.641 157.933 136.908 157.225 137.216 156.517L138.225 153.842C138.541 153.008 138.858 152.1 139.183 151.233C139.508 150.367 139.866 149.433 140.191 148.525C140.516 147.617 140.85 146.708 141.183 145.8C141.516 144.892 141.783 144.217 142.075 143.425C142.366 142.633 142.725 141.658 143.058 140.783C143.45 139.758 143.85 138.733 144.233 137.7C144.483 137.025 144.716 136.333 144.975 135.65C145.133 135.233 145.316 134.817 145.491 134.417C145.586 134.194 145.737 133.999 145.93 133.853C146.123 133.707 146.351 133.614 146.591 133.583C147.05 133.517 147.5 133.458 147.958 133.417L152.691 133.05L154.808 132.875C155 132.517 155.191 132.158 155.391 131.808C155.983 130.758 156.541 129.692 157.191 128.692C157.841 127.692 158.6 126.65 159.35 125.667C160.534 124.126 161.893 122.727 163.4 121.5C164.713 120.398 166.2 119.522 167.8 118.908C169.103 118.403 170.495 118.167 171.891 118.217C172.758 118.221 173.618 118.373 174.433 118.667C175.219 118.993 175.892 119.543 176.366 120.25C176.65 120.65 176.875 121.083 177.133 121.525L178.058 121.833C178.862 122.11 179.601 122.548 180.229 123.122C180.856 123.695 181.36 124.391 181.708 125.167C182.384 126.529 182.821 127.998 183 129.508C183.05 129.858 183.083 130.208 183.133 130.592C183.209 130.614 183.287 130.628 183.366 130.633C183.966 130.592 184.566 130.55 185.166 130.492C185.573 130.446 185.984 130.497 186.366 130.642C186.091 131.567 185.816 132.492 185.533 133.417C185.25 134.342 184.941 135.475 184.65 136.508L183.725 139.75C183.575 140.292 183.416 140.825 183.266 141.358C182.966 142.4 182.666 143.442 182.375 144.483C182.2 145.083 182.033 145.683 181.866 146.283C181.658 147.058 181.441 147.842 181.233 148.625C181.218 148.701 181.198 148.776 181.175 148.85C180.95 149.608 180.708 150.367 180.491 151.133C180.275 151.9 180.066 152.692 179.85 153.467C179.853 153.494 179.853 153.522 179.85 153.55C179.616 154.317 179.375 155.083 179.158 155.858C178.941 156.633 178.733 157.392 178.525 158.158C178.525 158.158 178.525 158.217 178.525 158.242C178.341 158.8 178.15 159.367 177.975 159.908C177.8 160.45 177.666 160.975 177.516 161.508C177.208 162.608 176.9 163.7 176.583 164.792C176.266 165.883 176.016 166.75 175.75 167.725L174.766 170.833L174.266 172.592C174.125 173.1 173.975 173.608 173.833 174.117L172.933 177.242C172.641 178.275 172.341 179.3 172.05 180.333C171.8 181.233 171.566 182.125 171.333 183.025C171.333 183.117 171.333 183.208 171.266 183.292C171.041 184.017 170.816 184.733 170.608 185.45C170.4 186.167 170.175 187.042 169.958 187.833C169.958 187.833 169.958 187.883 169.958 187.908C169.741 188.6 169.525 189.292 169.316 189.992C169.158 190.525 169.008 191.058 168.858 191.592C168.666 192.292 168.475 193 168.275 193.7C168.158 194.067 168.05 194.417 167.941 194.767ZM171.666 145.7L171.55 145.567L171.366 145.425C170.131 144.536 168.741 143.886 167.266 143.508C166.491 143.275 165.683 143.15 164.883 142.992C163.231 142.698 161.54 142.684 159.883 142.95C157.548 143.291 155.353 144.272 153.541 145.783C150.908 148.038 149.186 151.176 148.7 154.608C148.554 155.641 148.579 156.692 148.775 157.717C148.963 158.748 149.345 159.735 149.9 160.625C150.591 161.717 151.35 162.767 152.108 163.817C152.821 164.684 153.336 165.696 153.616 166.783C153.749 167.304 153.764 167.848 153.66 168.376C153.556 168.903 153.336 169.401 153.016 169.833C152.713 170.265 152.287 170.595 151.794 170.781C151.3 170.966 150.762 170.999 150.25 170.875C149.577 170.732 148.935 170.466 148.358 170.092C147.094 169.303 145.968 168.312 145.025 167.158C144.716 166.8 144.433 166.425 144.133 166.058C143.791 166.433 140.85 171.733 140.8 172.042C141.311 173.031 141.971 173.937 142.758 174.725C144.545 176.606 146.804 177.973 149.3 178.683C150.592 179.093 151.947 179.265 153.3 179.192C154.767 179.081 156.191 178.643 157.466 177.909C158.741 177.175 159.835 176.163 160.666 174.95C161.687 173.511 162.431 171.895 162.858 170.183C163.132 169.198 163.275 168.181 163.283 167.158C163.274 165.26 162.76 163.399 161.791 161.767C160.961 160.397 160.016 159.101 158.966 157.892C158.304 157.129 157.71 156.309 157.191 155.442C156.946 155.066 156.79 154.64 156.735 154.195C156.68 153.75 156.728 153.299 156.875 152.875C157.139 152.095 157.69 151.446 158.416 151.058C159.26 150.64 160.217 150.508 161.141 150.683C162.866 150.935 164.506 151.595 165.925 152.608C166.283 152.85 166.633 153.1 167.016 153.375C168.583 150.833 170.116 148.283 171.666 145.7ZM163.833 132.083L174.325 131.25C175.608 126.092 175.158 121.867 173.25 120.942C172.564 120.687 171.827 120.596 171.1 120.675C169.528 120.779 168.008 121.281 166.683 122.133C165.296 123.012 164.037 124.077 162.941 125.3C161.832 126.506 160.818 127.796 159.908 129.158C159.35 129.992 158.825 130.825 158.291 131.658C158.141 131.9 158.033 132.158 157.858 132.492L163.833 132.083ZM172.891 120.658C173.797 121.369 174.421 122.38 174.65 123.508C174.908 125.017 174.125 125.925 173.875 128.333C173.777 129.245 173.777 130.164 173.875 131.075L180.675 130.733C182.341 130.925 183.808 130.525 184.158 129.675C184.433 129.025 183.575 128.358 181.916 126.133C180.158 123.767 180.341 123.492 179.566 122.708C178.791 121.925 176.883 120.55 172.891 120.658Z" fill="white"/>
<path d="M167.941 194.767C168.05 194.417 168.158 194.067 168.258 193.708C168.458 193.008 168.65 192.3 168.841 191.6C168.991 191.067 169.141 190.533 169.3 190C169.508 189.3 169.725 188.608 169.941 187.917C169.941 187.917 169.941 187.867 169.941 187.842C170.158 187.05 170.366 186.25 170.591 185.458C170.816 184.667 171.025 184.025 171.25 183.3C171.25 183.217 171.25 183.125 171.316 183.033C171.55 182.133 171.783 181.242 172.033 180.342C172.325 179.308 172.625 178.283 172.916 177.25L173.833 174.167C173.975 173.658 174.125 173.15 174.266 172.642L174.766 170.883L175.675 167.675C175.958 166.7 176.25 165.725 176.508 164.742C176.766 163.758 177.133 162.558 177.441 161.458C177.591 160.925 177.741 160.392 177.9 159.858C178.058 159.325 178.266 158.725 178.45 158.192C178.45 158.192 178.45 158.133 178.45 158.108C178.658 157.342 178.858 156.575 179.083 155.808C179.308 155.042 179.541 154.267 179.775 153.5C179.778 153.472 179.778 153.444 179.775 153.417C179.991 152.642 180.191 151.858 180.416 151.083C180.641 150.308 180.875 149.558 181.1 148.8C181.123 148.726 181.143 148.651 181.158 148.575C181.366 147.792 181.583 147.008 181.791 146.233C181.958 145.633 182.125 145.033 182.3 144.433C182.591 143.392 182.891 142.35 183.191 141.308C183.341 140.775 183.5 140.242 183.65 139.7L184.575 136.458C184.866 135.425 185.158 134.4 185.458 133.367C185.758 132.333 186 131.517 186.291 130.592C186.433 130.631 186.564 130.702 186.675 130.799C186.786 130.895 186.874 131.015 186.933 131.15L189.841 136.042C189.887 136.126 189.949 136.2 190.023 136.26C190.098 136.32 190.183 136.365 190.275 136.392C190.725 136.525 191.166 136.692 191.608 136.833L195.616 138.117C195.975 138.233 196.125 138.525 196.083 139C196.041 139.475 196 139.833 195.966 140.225C195.808 141.95 195.658 143.683 195.5 145.408C195.4 146.567 195.283 147.725 195.175 148.883C195.066 150.042 194.975 151.258 194.866 152.45C194.758 153.642 194.633 154.842 194.516 156.042L194.216 159.375L193.941 162.458C193.825 163.833 193.708 165.2 193.583 166.575C193.475 167.775 193.341 168.975 193.233 170.175C193.125 171.375 193.041 172.492 192.933 173.65C192.825 174.808 192.708 176.025 192.6 177.208C192.508 178.183 192.433 179.167 192.35 180.142L192.025 183.583C191.916 184.75 191.825 185.925 191.716 187.1C191.608 188.275 191.491 189.475 191.383 190.658C191.275 191.842 191.175 192.975 191.066 194.133C191.066 194.45 191 194.767 190.966 195.117H189.933L186.116 195.058L179.55 194.992L172.441 194.933L168.125 194.875C168.06 194.846 167.999 194.809 167.941 194.767Z" fill="white"/>
<path d="M174.308 131.267L184.391 130.333C184.258 128.908 183.865 127.518 183.233 126.233C182.625 124.992 181.433 122.575 178.966 121.808C178.446 121.643 177.904 121.562 177.358 121.567M167.941 194.767C167.842 194.758 167.743 194.736 167.65 194.7L164.708 193.333L161.2 191.75L159.108 190.833L156.325 189.6L154.525 188.767L151.816 187.558L148.908 186.225L146.125 185L144.258 184.167L141.575 182.975L139.808 182.142L137.133 180.942L135.225 180.108L132.583 178.917L130.641 178.033L129.425 177.492C129.516 177.208 129.591 176.942 129.683 176.658C130.066 175.625 130.466 174.6 130.85 173.575C131.233 172.55 131.625 171.433 132.016 170.367C132.333 169.533 132.666 168.7 132.983 167.867C133.225 167.208 133.458 166.55 133.708 165.892L134.766 163.033L135.483 161.058L136.383 158.633C136.641 157.933 136.908 157.225 137.216 156.517L138.225 153.842C138.541 153.008 138.858 152.1 139.183 151.233C139.508 150.367 139.866 149.433 140.191 148.525C140.516 147.617 140.85 146.708 141.183 145.8C141.516 144.892 141.783 144.217 142.075 143.425C142.366 142.633 142.725 141.658 143.058 140.783C143.45 139.758 143.85 138.733 144.233 137.7C144.483 137.025 144.716 136.333 144.975 135.65C145.133 135.233 145.316 134.817 145.491 134.417C145.586 134.194 145.737 133.999 145.93 133.853C146.123 133.707 146.351 133.614 146.591 133.583C147.05 133.517 147.5 133.458 147.958 133.417L152.691 133.05L154.808 132.875C155 132.517 155.191 132.158 155.391 131.808C155.983 130.758 156.541 129.692 157.191 128.692C157.841 127.692 158.6 126.65 159.35 125.667C160.534 124.126 161.893 122.727 163.4 121.5C164.713 120.398 166.2 119.522 167.8 118.908C169.103 118.403 170.495 118.167 171.891 118.217C172.758 118.221 173.618 118.373 174.433 118.667C175.182 119.053 175.84 119.592 176.366 120.25C177.641 121.833 178.483 125.808 178.2 130.942L186.366 130.625C186.091 131.55 185.816 132.475 185.533 133.4C185.25 134.325 184.941 135.458 184.65 136.492L183.725 139.733C183.575 140.275 183.416 140.808 183.266 141.342C182.966 142.383 182.666 143.425 182.375 144.467C182.2 145.067 182.033 145.667 181.866 146.267C181.658 147.042 181.441 147.825 181.233 148.608C181.218 148.684 181.198 148.759 181.175 148.833C180.95 149.592 180.708 150.35 180.491 151.117C180.275 151.883 180.066 152.675 179.85 153.45C179.853 153.478 179.853 153.506 179.85 153.533C179.616 154.3 179.375 155.067 179.158 155.842C178.941 156.617 178.733 157.375 178.525 158.142C178.525 158.142 178.525 158.2 178.525 158.225C178.341 158.783 178.15 159.35 177.975 159.892C177.8 160.433 177.666 160.958 177.516 161.492C177.208 162.592 176.9 163.683 176.583 164.775C176.266 165.867 176.016 166.733 175.75 167.708L174.766 170.833L174.266 172.592C174.125 173.1 173.975 173.608 173.833 174.117L172.933 177.242C172.641 178.275 172.341 179.3 172.05 180.333C171.8 181.233 171.566 182.125 171.333 183.025C171.333 183.117 171.333 183.208 171.266 183.292C171.041 184.017 170.816 184.733 170.608 185.45C170.4 186.167 170.175 187.042 169.958 187.833C169.958 187.833 169.958 187.883 169.958 187.908C169.741 188.6 169.525 189.292 169.316 189.992C169.158 190.525 169.008 191.058 168.858 191.592C168.666 192.292 168.475 193 168.275 193.7C168.158 194.067 168.05 194.417 167.941 194.767ZM171.666 145.7L171.55 145.567L171.366 145.425C170.131 144.536 168.741 143.886 167.266 143.508C166.491 143.275 165.683 143.15 164.883 142.992C163.231 142.698 161.54 142.684 159.883 142.95C157.548 143.291 155.353 144.272 153.541 145.783C150.908 148.038 149.186 151.176 148.7 154.608C148.554 155.641 148.579 156.692 148.775 157.717C148.963 158.748 149.345 159.735 149.9 160.625C150.591 161.717 151.35 162.767 152.108 163.817C152.821 164.684 153.336 165.696 153.616 166.783C153.749 167.304 153.764 167.848 153.66 168.376C153.556 168.903 153.336 169.401 153.016 169.833C152.713 170.265 152.287 170.595 151.794 170.781C151.3 170.966 150.762 170.999 150.25 170.875C149.577 170.732 148.935 170.466 148.358 170.092C147.094 169.303 145.968 168.312 145.025 167.158C144.716 166.8 144.433 166.425 144.133 166.058C143.791 166.433 140.85 171.733 140.8 172.042C141.311 173.031 141.971 173.937 142.758 174.725C144.545 176.606 146.804 177.973 149.3 178.683C150.592 179.093 151.947 179.265 153.3 179.192C154.767 179.081 156.191 178.643 157.466 177.909C158.741 177.175 159.835 176.163 160.666 174.95C161.687 173.511 162.431 171.895 162.858 170.183C163.132 169.198 163.275 168.181 163.283 167.158C163.274 165.26 162.76 163.399 161.791 161.767C160.961 160.397 160.016 159.101 158.966 157.892C158.304 157.129 157.71 156.309 157.191 155.442C156.946 155.066 156.79 154.64 156.735 154.195C156.68 153.75 156.728 153.299 156.875 152.875C157.139 152.095 157.69 151.446 158.416 151.058C159.26 150.64 160.217 150.508 161.141 150.683C162.866 150.935 164.506 151.595 165.925 152.608C166.283 152.85 166.633 153.1 167.016 153.375C168.583 150.833 170.116 148.283 171.666 145.7ZM174.766 131.192C175.194 129.525 175.341 127.798 175.2 126.083C175.033 124.192 174.833 121.825 173.233 120.958C172.557 120.665 171.811 120.572 171.083 120.692C169.511 120.796 167.991 121.298 166.666 122.15C165.279 123.028 164.02 124.094 162.925 125.317C161.815 126.522 160.801 127.812 159.891 129.175C159.333 130.008 158.808 130.842 158.275 131.675C158.125 131.917 158.016 132.175 157.841 132.508L174.766 131.192Z" stroke="black" stroke-width="2" stroke-linecap="round" stroke-linejoin="round"/>
<path d="M167.941 194.767C168.05 194.417 168.158 194.067 168.258 193.708C168.458 193.008 168.65 192.3 168.841 191.6C168.991 191.067 169.141 190.533 169.3 190C169.508 189.3 169.725 188.608 169.941 187.917C169.941 187.917 169.941 187.867 169.941 187.842C170.158 187.05 170.366 186.25 170.591 185.458C170.816 184.667 171.025 184.025 171.25 183.3C171.25 183.217 171.25 183.125 171.316 183.033C171.55 182.133 171.783 181.242 172.033 180.342C172.325 179.308 172.625 178.283 172.916 177.25L173.833 174.167C173.975 173.658 174.125 173.15 174.266 172.642L174.766 170.883L175.675 167.675C175.958 166.7 176.25 165.725 176.508 164.742C176.766 163.758 177.133 162.558 177.441 161.458C177.591 160.925 177.741 160.392 177.9 159.858C178.058 159.325 178.266 158.725 178.45 158.192C178.45 158.192 178.45 158.133 178.45 158.108C178.658 157.342 178.858 156.575 179.083 155.808C179.308 155.042 179.541 154.267 179.775 153.5C179.778 153.472 179.778 153.444 179.775 153.417C179.991 152.642 180.191 151.858 180.416 151.083C180.641 150.308 180.875 149.558 181.1 148.8C181.123 148.726 181.143 148.651 181.158 148.575C181.366 147.792 181.583 147.008 181.791 146.233C181.958 145.633 182.125 145.033 182.3 144.433C182.591 143.392 182.891 142.35 183.191 141.308C183.341 140.775 183.5 140.242 183.65 139.7L184.575 136.458C184.866 135.425 185.158 134.4 185.458 133.367C185.758 132.333 186 131.517 186.291 130.592C186.433 130.631 186.564 130.702 186.675 130.799C186.786 130.895 186.874 131.015 186.933 131.15L189.841 136.042C189.887 136.126 189.949 136.2 190.023 136.26C190.098 136.32 190.183 136.365 190.275 136.392C190.725 136.525 191.166 136.692 191.608 136.833L195.616 138.117C195.975 138.233 196.125 138.525 196.083 139C196.041 139.475 196 139.833 195.966 140.225C195.808 141.95 195.658 143.683 195.5 145.408C195.4 146.567 195.283 147.725 195.175 148.883C195.066 150.042 194.975 151.258 194.866 152.45C194.758 153.642 194.633 154.842 194.516 156.042L194.216 159.375L193.941 162.458C193.825 163.833 193.708 165.2 193.583 166.575C193.475 167.775 193.341 168.975 193.233 170.175C193.125 171.375 193.041 172.492 192.933 173.65C192.825 174.808 192.708 176.025 192.6 177.208C192.508 178.183 192.433 179.167 192.35 180.142L192.025 183.583C191.916 184.75 191.825 185.925 191.716 187.1C191.608 188.275 191.491 189.475 191.383 190.658C191.275 191.842 191.175 192.975 191.066 194.133C191.066 194.45 191 194.767 190.966 195.117H189.933L186.116 195.058L179.55 194.992L172.441 194.933L168.125 194.875C168.06 194.846 167.999 194.809 167.941 194.767Z" stroke="black" stroke-width="2" stroke-linecap="round" stroke-linejoin="round"/>
<path d="M177.85 124.258C178.402 124.494 178.907 124.827 179.341 125.242C179.582 125.484 179.802 125.746 180 126.025C180.722 127.235 181.24 128.555 181.533 129.933" stroke="black" stroke-width="2" stroke-linecap="round" stroke-linejoin="round"/>
</svg>
