<svg width="216" height="29" viewBox="0 0 216 29" fill="none" xmlns="http://www.w3.org/2000/svg">
<g clip-path="url(#clip0_2022_63)">
<path d="M14.174 0.588135C12.5843 0.267035 11.3725 0.0234375 9.705 0.0234375C4.91364 0.0234375 3.00154 2.29324 3.00154 6.33464V9.27984H0V14.052H3.00154V28.5787H8.849V14.052H13.1179L13.5181 9.27984H8.849V6.97684C8.849 5.68134 8.9713 4.87314 10.8389 4.87314C11.5282 4.87314 12.6287 4.99494 13.4402 5.16104L14.174 0.588135ZM31.7941 28.5787V16.0007C31.7941 10.5421 30.2934 8.47164 23.4343 8.47164C21.1553 8.47164 18.1871 8.88124 16.3195 9.44594L17.0977 13.8194C18.9653 13.4541 20.7107 13.2437 22.456 13.2437C25.5798 13.2437 25.9467 13.9412 25.9467 15.9564V17.4511H21.6778C17.6202 17.4511 15.797 19.0345 15.797 22.9983C15.797 26.3532 17.2978 28.9773 20.9552 28.9773C22.2892 28.9773 24.3236 28.5787 26.5915 27.3165L27.0028 28.5787H31.7941ZM25.9467 23.7623C25.0573 24.172 24.2013 24.4488 22.9785 24.4488C21.8446 24.4488 21.3999 24.0059 21.3999 22.9097C21.3999 21.8247 21.889 21.5036 23.1452 21.5036H25.9467V23.7623ZM41.299 16.3993C41.299 14.3841 42.1439 13.4541 44.5007 13.4541C45.6457 13.4541 47.3466 13.6534 48.5694 13.9412L49.292 9.08054C47.3021 8.63764 45.8792 8.47164 44.5007 8.47164C38.0863 8.47164 35.4516 10.8632 35.4516 16.4878V20.9721C35.4516 26.5968 38.0863 28.9773 44.5007 28.9773C45.8792 28.9773 47.3021 28.8223 49.292 28.3684L48.5694 23.5187C47.1465 23.8398 46.0014 24.0059 44.5007 24.0059C42.1439 24.0059 41.299 23.0758 41.299 21.0496V16.3993ZM68.4241 20.7728V16.6429C68.4241 12.3579 67.0011 8.47164 60.42 8.47164C53.8388 8.47164 51.9378 12.1143 51.9378 16.3661V20.9721C51.9378 25.8217 54.3724 28.9773 60.7868 28.9773C63.5438 28.9773 66.4342 28.3684 68.2129 27.7262L67.368 23.3637C65.6226 23.8841 63.1769 24.2052 61.3538 24.2052C58.6746 24.2052 57.7853 23.5962 57.7853 21.3375V20.7728H68.4241ZM62.899 16.3993H57.7853V15.5578C57.7853 14.1738 58.4301 13.0444 60.4644 13.0444C62.4877 13.0444 62.899 14.1738 62.899 15.5578V16.3993ZM90.2242 20.6842V15.591C90.2242 11.1842 88.5233 8.47164 84.1322 8.47164C81.9866 8.47164 80.119 8.95874 78.5293 9.56774V0.0234375L72.6818 0.831741V28.3351C75.4054 28.778 78.6071 28.9773 80.7193 28.9773C88.8902 28.9773 90.2242 25.3789 90.2242 20.6842ZM78.5293 14.6277C79.6298 14.052 81.0083 13.5316 82.2645 13.5316C83.8098 13.5316 84.3767 14.3398 84.3767 15.6353V20.7285C84.3767 22.5887 83.8542 23.9284 80.9305 23.9284C80.119 23.9284 79.3853 23.9284 78.5293 23.8398V14.6277ZM102.408 28.9773C109.434 28.9773 111.335 25.0578 111.335 21.0164V16.4436C111.335 12.4022 109.434 8.47164 102.408 8.47164C95.3824 8.47164 93.4703 12.4022 93.4703 16.4436V21.0164C93.4703 25.0578 95.3824 28.9773 102.408 28.9773ZM102.408 24.0834C100.296 24.0834 99.318 23.0315 99.318 21.1714V16.2775C99.318 14.4173 100.296 13.3655 102.408 13.3655C104.52 13.3655 105.488 14.4173 105.488 16.2775V21.1714C105.488 23.0315 104.52 24.0834 102.408 24.0834ZM123.519 28.9773C130.545 28.9773 132.457 25.0578 132.457 21.0164V16.4436C132.457 12.4022 130.545 8.47164 123.519 8.47164C116.493 8.47164 114.592 12.4022 114.592 16.4436V21.0164C114.592 25.0578 116.493 28.9773 123.519 28.9773ZM123.519 24.0834C121.407 24.0834 120.44 23.0315 120.44 21.1714V16.2775C120.44 14.4173 121.407 13.3655 123.519 13.3655C125.631 13.3655 126.61 14.4173 126.61 16.2775V21.1714C126.61 23.0315 125.631 24.0834 123.519 24.0834ZM142.562 28.5787V0.0234375L136.715 0.831741V28.5787H142.562ZM143.34 18.6691L148.61 28.5787H154.869L149.432 18.6691L154.624 8.88124H148.376L143.34 18.6691Z" fill="#3A589E"/>
<path d="M180.259 28.6122H182.371L173.9 4.37514H170.721L162.239 28.6122H164.362L166.63 22.2457H177.958L180.259 28.6122ZM172.288 5.61524L177.302 20.3855H167.286L172.288 5.61524ZM186.107 24.0615C186.107 27.2725 187.674 28.9776 191.143 28.9776C193.121 28.9776 195.345 28.2911 197.146 26.9403L197.246 28.6122H199.191V3.35645L197.068 3.64435V11.107C195.022 10.7084 193.455 10.5312 191.587 10.5312C187.563 10.5312 186.107 12.7457 186.107 15.9899V24.0615ZM197.068 24.8255C195.389 26.1763 193.488 27.0842 191.298 27.0842C188.886 27.0842 188.219 26.1099 188.219 24.0615V15.9899C188.219 13.5872 189.175 12.4246 191.509 12.4246C193.233 12.4246 195.134 12.635 197.068 13.0336V24.8255ZM216 24.139C216 20.8284 215.711 19.9869 210.475 18.6804C207.195 17.8389 207.04 17.5843 207.04 15.1484C207.04 13.2218 207.484 12.4246 210.586 12.4246C212.053 12.4246 214.132 12.635 215.555 12.9339L215.777 11.1402C214.388 10.7416 212.376 10.5312 210.73 10.5312C206.35 10.5312 204.927 12.1256 204.927 15.0709C204.927 18.315 205.294 19.4112 209.752 20.463C213.81 21.4042 213.876 21.6699 213.876 24.2165C213.876 26.4642 213.221 27.0842 209.93 27.0842C208.618 27.0842 206.751 26.8296 205.216 26.3645L204.85 28.0697C206.173 28.6122 208.285 28.9776 210.075 28.9776C214.833 28.9776 216 27.3389 216 24.139Z" fill="#828282"/>
</g>
<defs>
<clipPath id="clip0_2022_63">
<rect width="216" height="29" fill="white"/>
</clipPath>
</defs>
</svg>
