<svg width="550" height="566" viewBox="0 0 550 566" fill="none" xmlns="http://www.w3.org/2000/svg">
<g clip-path="url(#clip0_1127_2071)">
<rect width="550" height="566" fill="#080808"/>
<g style="mix-blend-mode:luminosity" opacity="0.4">
<path d="M671 519.038V568H559.443L485.913 436.338L671 519.038Z" fill="#74719A"/>
<path d="M671 308.68V519.039L485.913 436.338L496.178 358.067L505.565 245.319L671 308.68Z" fill="#36326D"/>
<path d="M671 169.264V308.679L505.564 245.319L483.19 204.423L671 169.264Z" fill="#080808"/>
<path d="M671 21.2432V169.264L483.19 204.423L671 21.2432Z" fill="#36326D"/>
<path d="M671 0V21.2432L483.191 204.423L416.126 171.394L447.687 93.7768L491.046 0H671Z" fill="#201D53"/>
<path d="M485.913 436.338L559.443 568H456.705L315.487 522.333L485.913 436.338Z" fill="#080808"/>
<path d="M483.191 204.423L505.565 245.319L416.126 171.394L483.191 204.423Z" fill="#080808"/>
<path d="M505.564 245.319L496.178 358.067L274.369 286.556L416.126 171.394L505.564 245.319Z" fill="#74719A"/>
<path d="M496.178 358.067L485.913 436.338L315.487 522.333L323.058 344.662L496.178 358.067Z" fill="#36326D"/>
<path d="M496.178 358.067L323.058 344.662L196.812 344.52L212.976 174.546L274.369 286.556L496.178 358.067Z" fill="#36326D"/>
<path d="M491.045 0L447.687 93.7768L330.828 127.459L290.646 49.984L340.327 0H491.045Z" fill="#74719A"/>
<path d="M456.705 568H110.493L167.944 472.008L315.487 522.333L456.705 568Z" fill="#36326D"/>
<path d="M447.688 93.7766L416.126 171.394L274.369 286.556L339.165 143.505L447.688 93.7766Z" fill="#080808"/>
<path d="M447.687 93.7766L339.165 143.505L330.828 127.459L447.687 93.7766Z" fill="#454278"/>
<path d="M340.327 0L290.646 49.984L264.699 0H340.327Z" fill="#080808"/>
<path d="M330.828 127.459L339.165 143.505L212.976 174.546L98.9514 299.024L85.2266 199.737L173.276 42.3728L330.828 127.459Z" fill="#64618F"/>
<path d="M339.165 143.505L274.369 286.556L212.976 174.547L339.165 143.505Z" fill="#36326D"/>
<path d="M290.646 49.984L330.828 127.459L173.275 42.3728L290.646 49.984Z" fill="#454278"/>
<path d="M323.058 344.662L315.487 522.333L167.944 472.008L323.058 344.662Z" fill="#080808"/>
<path d="M323.058 344.662L167.944 472.008L46.4058 435.059L196.812 344.52L323.058 344.662Z" fill="#64618F"/>
<path d="M264.699 0L290.646 49.984L173.276 42.3728L91.6069 0H264.699Z" fill="#201D53"/>
<path d="M212.975 174.546L196.812 344.52L98.9512 299.024L212.975 174.546Z" fill="#201D53"/>
<path d="M196.812 344.52L46.4057 435.059L-87.3267 430.146L-39.0628 255.6L98.9515 299.023L196.812 344.52Z" fill="#36326D"/>
<path d="M173.276 42.3728L85.2267 199.737L-16.377 121.921L43.485 0H91.607L173.276 42.3728Z" fill="#454278"/>
<path d="M167.944 472.008L110.493 568H-110.098L46.4054 435.06L167.944 472.008Z" fill="#201D53"/>
<path d="M85.2263 199.737L98.9512 299.024L-39.063 255.6L85.2263 199.737Z" fill="#454278"/>
<path d="M85.2265 199.737L-39.0629 255.6L-123 317.995V195.733L-16.3771 121.921L85.2265 199.737Z" fill="#74719A"/>
<path d="M46.4056 435.06L-110.098 568H-123V466.044L-87.3267 430.146L46.4056 435.06Z" fill="#080808"/>
<path d="M43.4848 0L-16.3771 121.921L-56.1338 0H43.4848Z" fill="#36326D"/>
</g>
</g>
<defs>
<clipPath id="clip0_1127_2071">
<rect width="550" height="566" fill="white"/>
</clipPath>
</defs>
</svg>
