<svg width="360" height="120" viewBox="0 0 360 120" fill="none" xmlns="http://www.w3.org/2000/svg">
<path d="M0 30.3467H5.65062C8.37434 30.3467 11.0359 31.1604 13.294 32.6836C15.552 34.2067 17.3035 36.3697 18.3237 38.8952L28.3989 63.8355C31.8834 72.4088 34.5624 81.653 34.5624 81.653C34.5624 81.653 37.375 72.2753 40.7237 63.9701L50.7175 38.8844C51.7213 36.3649 53.4578 34.2044 55.7025 32.6823C57.9473 31.1603 60.597 30.3467 63.3091 30.3467H68.9891L44.3888 90.1608C43.5823 92.1218 42.2113 93.7988 40.4498 94.979C38.6883 96.1591 36.6159 96.7892 34.4956 96.7892C32.3753 96.7892 30.3029 96.1592 28.5414 94.979C26.78 93.7989 25.4089 92.122 24.6024 90.1611L0 30.3467Z" fill="white"/>
<path d="M73.5089 63.5689C73.5089 44.413 85.9672 29.0076 104.184 29.0076C108.359 28.9211 112.503 29.7521 116.322 31.4418C120.14 33.1316 123.542 35.6389 126.286 38.7869V38.7869C126.286 37.6785 126.504 36.5811 126.928 35.5571C127.353 34.5331 127.974 33.6028 128.758 32.819C129.542 32.0353 130.472 31.4137 131.496 30.9895C132.52 30.5654 133.617 30.3471 134.726 30.3471H141.156V96.6561H134.591C132.389 96.6561 130.276 95.7811 128.719 94.2236C127.161 92.6661 126.286 90.5536 126.286 88.3509C121.064 94.5122 113.16 97.9956 104.184 97.9956C85.9672 97.9956 73.5089 82.5902 73.5089 63.5689ZM126.286 63.5689C126.286 51.9139 118.518 43.3406 107.936 43.3406C96.6833 43.3406 88.6462 51.9139 88.6462 63.5689C88.6462 75.2229 96.6833 83.6626 107.936 83.6626C118.382 83.6626 126.286 75.3564 126.286 63.5689Z" fill="white"/>
<path d="M157.964 30.3468H165.019C166.045 30.3468 167.061 30.549 168.01 30.9417C168.958 31.3344 169.819 31.9101 170.545 32.6358C171.271 33.3614 171.846 34.223 172.239 35.1711C172.632 36.1193 172.834 37.1355 172.834 38.1618V43.4749C175.379 36.7763 182.613 29.0073 196.812 29.0073V37.4597C196.817 39.4329 196.135 41.3465 194.883 42.8714C193.63 44.3964 191.886 45.4375 189.949 45.8158C179.339 47.8356 172.834 55.0916 172.834 69.5964V96.6558H166.206C165.123 96.6558 164.052 96.4426 163.052 96.0284C162.052 95.6142 161.143 95.0071 160.378 94.2418C159.612 93.4764 159.005 92.5678 158.591 91.5678C158.177 90.5678 157.964 89.496 157.964 88.4137L157.964 30.3468Z" fill="white"/>
<path d="M201.537 63.5686C201.537 44.2782 217.211 29.0073 236.767 29.0073C256.326 29.0073 271.999 44.2782 271.999 63.5686C271.999 82.7245 256.326 97.9953 236.767 97.9953C217.211 97.9953 201.537 82.7245 201.537 63.5686ZM256.862 63.5686C256.862 51.9136 248.155 43.3403 236.767 43.3403C225.381 43.3403 216.674 51.9136 216.674 63.5686C216.674 68.8978 218.791 74.0087 222.56 77.7771C226.328 81.5454 231.439 83.6624 236.768 83.6624C242.097 83.6624 247.208 81.5454 250.977 77.7771C254.745 74.0087 256.862 68.8978 256.862 63.5686V63.5686Z" fill="white"/>
<path d="M282.287 80.2118L284.157 76.1605C290.007 81.2081 297.463 84.0097 305.189 84.064C311.217 84.064 318.315 81.7866 318.315 77.0983C318.315 72.2754 311.617 71.0695 305.053 69.1948C292.461 65.7114 281.745 61.961 281.745 48.9665C281.745 35.973 295.007 29.0073 306.662 29.0073C316.575 29.0073 323.139 31.5528 330.373 35.8395L328.058 40.918C327.271 42.6582 325.858 44.0389 324.1 44.786C322.342 45.5331 320.367 45.5922 318.568 44.9515C314.793 43.5905 310.808 42.909 306.796 42.9387C301.838 42.9387 296.883 45.216 296.883 48.6994C296.883 53.2531 302.374 54.3256 308.269 55.5305C320.593 58.2095 333.452 63.1659 333.452 76.8302C333.452 92.3692 317.512 97.9953 305.189 97.9953C299.075 98.0241 293.028 96.728 287.463 94.1962C286.203 93.6192 285.07 92.7994 284.128 91.7838C283.187 90.7683 282.454 89.5768 281.973 88.2778C281.493 86.9788 281.273 85.5976 281.327 84.2136C281.381 82.8295 281.707 81.4696 282.287 80.2118V80.2118Z" fill="white"/>
<path d="M360 0V15.1898C360 20.6484 357.832 25.8834 353.972 29.7432L349.2 34.5152V10.8002H325.485L330.222 6.04644C332.134 4.1298 334.405 2.60916 336.906 1.57161C339.406 0.534063 342.087 -3.15614e-06 344.794 0L360 0Z" fill="url(#paint0_linear_1819_1472)"/>
<defs>
<linearGradient id="paint0_linear_1819_1472" x1="325.485" y1="17.2576" x2="360" y2="17.2576" gradientUnits="userSpaceOnUse">
<stop stop-color="#29D89B"/>
<stop offset="0.15565" stop-color="#3CD990"/>
<stop offset="0.52472" stop-color="#63DC79"/>
<stop offset="0.81906" stop-color="#7BDE6A"/>
<stop offset="1" stop-color="#84DF65"/>
</linearGradient>
</defs>
</svg>
