<svg width="300" height="200" viewBox="0 0 300 200" fill="none" xmlns="http://www.w3.org/2000/svg">
<path d="M266.592 32.0583H63.9998C61.0543 32.0583 58.6665 34.4462 58.6665 37.3917V172.642C58.6665 175.587 61.0543 177.975 63.9998 177.975H266.592C269.537 177.975 271.925 175.587 271.925 172.642V37.3917C271.925 34.4462 269.537 32.0583 266.592 32.0583Z" fill="#39BB68"/>
<path d="M254.925 22.0583H52.3333C49.3878 22.0583 47 24.4462 47 27.3917V162.642C47 165.587 49.3878 167.975 52.3333 167.975H254.925C257.871 167.975 260.258 165.587 260.258 162.642V27.3917C260.258 24.4462 257.871 22.0583 254.925 22.0583Z" fill="white"/>
<path d="M254.925 22.0583H52.3333C49.3878 22.0583 47 24.4462 47 27.3917V162.642C47 165.587 49.3878 167.975 52.3333 167.975H254.925C257.871 167.975 260.258 165.587 260.258 162.642V27.3917C260.258 24.4462 257.871 22.0583 254.925 22.0583Z" stroke="black" stroke-width="2" stroke-linecap="round" stroke-linejoin="round"/>
<path d="M49.0415 165.333C64.6415 148.583 78.3998 135 88.9415 125C108.3 106.575 116.442 100.4 126.225 101.117C139.858 102.108 142.242 115.425 152.142 114.875C171.308 113.817 178.9 61.0917 198.608 61.025C203.242 61.025 205.125 63.9167 209.442 62.5084C216.842 60.0917 216.108 50.075 227.075 40.4417C228.742 38.9857 230.523 37.6648 232.4 36.4917C231.5 38.9584 230.594 41.4223 229.683 43.8834" stroke="black" stroke-width="2" stroke-linecap="round" stroke-linejoin="round"/>
<path d="M126.842 108.383C130.694 108.383 133.817 105.272 133.817 101.433C133.817 97.595 130.694 94.4834 126.842 94.4834C122.99 94.4834 119.867 97.595 119.867 101.433C119.867 105.272 122.99 108.383 126.842 108.383Z" fill="white"/>
<path d="M126.842 105.792C129.263 105.792 131.225 103.84 131.225 101.433C131.225 99.0262 129.263 97.075 126.842 97.075C124.421 97.075 122.458 99.0262 122.458 101.433C122.458 103.84 124.421 105.792 126.842 105.792Z" fill="#39BB68"/>
<path d="M126.842 108.383C130.694 108.383 133.817 105.272 133.817 101.433C133.817 97.595 130.694 94.4834 126.842 94.4834C122.99 94.4834 119.867 97.595 119.867 101.433C119.867 105.272 122.99 108.383 126.842 108.383Z" stroke="black" stroke-width="2" stroke-linecap="round" stroke-linejoin="round"/>
<path d="M49.5835 166.417C56.0668 163.083 65.0835 158.417 75.9502 153C106.517 137.783 114.975 134.425 121.15 137.167C129.092 140.683 125.55 150.825 131.458 152.517C144.633 156.292 173 108.95 185.775 112.758C191.117 114.35 189.45 123.592 194.7 124.883C201.817 126.633 213.567 111.8 222.117 99.4668L221.592 106.133" stroke="black" stroke-width="2" stroke-linecap="round" stroke-linejoin="round"/>
<path d="M222.117 99.4668L216.483 102.975" stroke="black" stroke-width="2" stroke-linecap="round" stroke-linejoin="round"/>
<path d="M185.325 119.425C189.177 119.425 192.3 116.313 192.3 112.475C192.3 108.637 189.177 105.525 185.325 105.525C181.473 105.525 178.35 108.637 178.35 112.475C178.35 116.313 181.473 119.425 185.325 119.425Z" fill="white"/>
<path d="M185.325 116.833C187.746 116.833 189.709 114.882 189.709 112.475C189.709 110.068 187.746 108.117 185.325 108.117C182.904 108.117 180.942 110.068 180.942 112.475C180.942 114.882 182.904 116.833 185.325 116.833Z" fill="#39BB68"/>
<path d="M185.325 119.425C189.177 119.425 192.3 116.313 192.3 112.475C192.3 108.637 189.177 105.525 185.325 105.525C181.473 105.525 178.35 108.637 178.35 112.475C178.35 116.313 181.473 119.425 185.325 119.425Z" stroke="black" stroke-width="2" stroke-linecap="round" stroke-linejoin="round"/>
<path d="M232.4 36.4834L223.592 37.9751" stroke="black" stroke-width="2" stroke-linecap="round" stroke-linejoin="round"/>
</svg>
