<svg width="130" height="27" viewBox="0 0 130 27" fill="none" xmlns="http://www.w3.org/2000/svg">
<path d="M0 0H26.0694V26.2644H0V0Z" fill="white"/>
<path d="M7.73633 6.54436C7.84468 6.52269 7.9747 6.47936 8.08305 6.47936C8.64648 6.45769 9.20991 6.50102 9.77334 6.52269C9.86002 6.50102 9.90336 6.58771 9.92503 6.65272C10.7702 8.40801 11.6153 10.185 12.4821 11.9403C12.6772 12.3087 12.8289 12.6771 13.0456 13.0238C13.2189 12.7421 13.3706 12.4387 13.5223 12.1353C14.4975 10.25 15.4076 8.36467 16.3611 6.47936C16.9896 6.50103 17.618 6.43601 18.2464 6.54436C18.1381 6.91276 17.9214 7.21615 17.7697 7.56287C16.5128 9.96828 15.2343 12.3737 13.9774 14.7791C13.934 14.8658 13.9124 14.9741 13.9124 15.0825C13.9124 16.7944 13.9124 18.528 13.9124 20.24C13.3056 20.24 12.6988 20.24 12.0921 20.24C12.0921 18.5714 12.0921 16.8811 12.0921 15.2125C12.0921 15.0391 12.1137 14.8441 12.0054 14.6707C10.8352 12.482 9.68666 10.2933 8.51646 8.08296C8.25642 7.56287 7.9747 7.06445 7.73633 6.54436Z" fill="#080808"/>
<path d="M73.0071 5.2012C73.2455 5.22287 73.2889 5.50458 73.3105 5.67795C73.3755 6.56643 73.3972 7.43324 73.3972 8.32173C73.4406 9.16687 73.4406 9.99034 73.4406 10.8355C73.9173 10.4671 74.3724 10.077 74.9358 9.86032C75.8243 9.47025 76.9078 9.47025 77.7746 9.92533C78.7064 10.4021 79.3565 11.3122 79.6816 12.2874C79.985 13.2192 80.0717 14.216 80.0067 15.1912C79.92 16.3397 79.6166 17.4883 78.9448 18.4201C78.5547 18.9618 78.0347 19.4386 77.3845 19.677C76.3444 20.0454 75.1958 19.9153 74.264 19.3302C73.9823 19.1569 73.7223 18.8968 73.4622 18.6801C73.3539 19.0269 73.2672 19.3519 73.1588 19.6986C72.6604 19.6986 72.1837 19.742 71.6853 19.6553C71.8803 18.8752 71.8803 18.0517 71.902 17.2499C71.9453 14.4111 71.902 11.5723 71.8803 8.75513C71.8153 7.64995 71.902 6.54476 71.7069 5.46124C72.162 5.33122 72.5737 5.2012 73.0071 5.2012ZM76.6478 11.0522C76.2144 10.9655 75.7809 10.9655 75.3475 11.0088C74.5674 11.1172 73.939 11.659 73.4406 12.2224C73.4189 12.4174 73.4406 12.5908 73.4189 12.7858V17.2932C73.3972 17.4449 73.5272 17.5533 73.6356 17.64C74.3941 18.3767 75.5209 18.7235 76.5611 18.4634C77.0595 18.3334 77.4929 18.0084 77.7313 17.5533C78.0997 16.9248 78.2297 16.188 78.2947 15.4729C78.338 14.9312 78.4031 14.3677 78.338 13.826C78.3164 13.1975 78.1864 12.5258 77.8613 11.984C77.6013 11.5289 77.1678 11.1605 76.6478 11.0522ZM83.1055 5.59127C83.4089 5.48291 83.7556 5.50459 84.059 5.63461C84.3407 5.80797 84.5358 6.06801 84.6658 6.3714C84.8608 7.02151 84.3407 7.75829 83.6689 7.84498C83.1489 7.90999 82.5854 7.6066 82.4337 7.08652C82.217 6.52309 82.5421 5.82964 83.1055 5.59127ZM36.8828 6.78313C37.6195 6.28472 38.4864 5.89465 39.3965 5.89465C40.3283 5.87298 41.2818 5.93799 42.127 6.34973C42.4737 6.50142 42.8204 6.67478 43.1238 6.93483C42.9071 7.30322 42.6254 7.62827 42.3653 7.95333C42.0186 7.75829 41.6936 7.54159 41.3252 7.41157C40.415 7.08652 39.3748 7.0215 38.4647 7.3899C37.7062 7.69328 37.0778 8.27839 36.6877 8.99351C36.4277 9.49192 36.1893 10.0337 36.0809 10.5971C35.9943 11.1389 35.9509 11.7023 35.9293 12.2657C35.9076 13.0025 35.8642 13.761 35.9076 14.4978C36.0376 15.5379 36.3843 16.5781 37.0995 17.3582C37.7062 18.0734 38.6164 18.4851 39.5482 18.5718C40.0249 18.5934 40.5234 18.5934 41.0001 18.4851C41.5852 18.3551 42.0836 18.0517 42.6254 17.8133C42.9288 18.1167 43.2105 18.4634 43.4705 18.8318C43.0805 19.0485 42.6687 19.2652 42.2353 19.4386C41.1085 19.8937 39.8299 19.9153 38.638 19.7853C37.7712 19.612 36.9694 19.1569 36.2976 18.5934C35.5175 17.9217 34.9541 17.0332 34.629 16.058C34.3907 15.4079 34.2823 14.7145 34.2173 14.0427C34.1956 13.5226 34.1306 13.0242 34.1956 12.5041C34.2173 11.5289 34.369 10.5754 34.7591 9.66528C35.1925 8.53842 35.8859 7.47658 36.8828 6.78313Z" fill="#080808"/>
<path d="M108.547 7.30287C109.045 7.15118 109.565 7.02116 110.085 6.93448C109.999 7.88797 109.934 8.84146 109.912 9.81663C110.714 9.8383 111.537 9.8383 112.339 9.85997C112.209 10.2284 112.057 10.5968 111.884 10.9435C111.19 10.9435 110.519 10.9435 109.825 10.9435C109.825 11.832 109.825 12.7204 109.825 13.6089C109.825 14.3024 109.869 15.0175 109.847 15.711C109.869 16.5128 109.825 17.3146 109.912 18.0947C109.934 18.4197 110.237 18.6581 110.519 18.7448C111.017 18.8532 111.537 18.8098 112.014 18.7015C112.144 18.9832 112.209 19.3082 112.187 19.6116C111.754 19.85 111.234 19.8933 110.735 19.9367C110.042 19.9583 109.262 19.85 108.763 19.3082C108.352 18.9182 108.395 18.3114 108.33 17.7913C108.287 16.6644 108.308 15.5159 108.287 14.3891C108.287 13.2405 108.287 12.0703 108.287 10.9218C107.853 10.9218 107.42 10.9218 106.986 10.9218C106.965 10.5534 106.965 10.1634 106.986 9.79496C107.42 9.79496 107.832 9.79496 108.265 9.79496C108.417 8.97148 108.417 8.12634 108.547 7.30287ZM49.3 9.57825C49.7118 9.59992 50.1235 9.57825 50.5136 9.70828C51.4237 10.0117 52.1822 10.6401 52.6589 11.4636C53.0707 12.1787 53.3524 12.9805 53.374 13.804C53.4174 14.9091 53.4607 16.0577 53.114 17.1195C52.7889 18.1164 52.0955 19.0048 51.142 19.5033C50.2102 19.98 49.0833 20.0884 48.0865 19.8066C47.1763 19.5683 46.3962 18.9615 45.8761 18.1814C45.291 17.3362 45.096 16.3177 45.0743 15.2992C45.0526 14.3241 45.031 13.3272 45.356 12.3954C45.6594 11.4852 46.2445 10.6401 47.068 10.12C47.4364 9.88164 47.8481 9.68661 48.2815 9.59992C48.6282 9.55658 48.975 9.57825 49.3 9.57825ZM48.5199 10.8351C47.9998 10.9652 47.5014 11.2685 47.2197 11.7236C46.8079 12.3954 46.7429 13.1972 46.6996 13.9557C46.6562 14.5191 46.6996 15.0825 46.7429 15.6459C46.8296 16.3177 46.9596 17.0328 47.2847 17.6396C47.6314 18.2897 48.3682 18.6148 49.0833 18.6581C49.7551 18.7015 50.4919 18.5281 50.9686 18.008C51.3587 17.5746 51.5754 17.0328 51.6621 16.4477C51.7704 15.7326 51.7488 15.0175 51.7271 14.3024C51.7054 13.5656 51.6404 12.7855 51.337 12.092C51.1637 11.6586 50.8386 11.2902 50.4269 11.0735C49.8635 10.7268 49.1483 10.6834 48.5199 10.8351ZM56.0828 9.90331C56.5379 9.75162 56.993 9.64326 57.4697 9.55658C57.6648 9.98999 57.7731 10.4667 57.8165 10.9435C58.1415 10.7701 58.3799 10.5101 58.6833 10.315C59.355 9.81663 60.1785 9.51324 61.0237 9.55658C61.2187 9.57825 61.3921 9.62159 61.5654 9.70828C61.8471 9.85997 62.1505 10.0117 62.3889 10.2284C62.6273 10.4667 62.8006 10.7701 62.974 11.0735C63.3641 10.9001 63.6458 10.5968 63.9925 10.3584C64.5776 9.94665 65.2494 9.62159 65.9862 9.55658C66.6579 9.49157 67.3297 9.70828 67.8281 10.1634C68.0448 10.3801 68.2832 10.5968 68.3916 10.8785C68.4999 11.1602 68.5433 11.4636 68.5649 11.767C68.6733 13.3489 68.6083 14.9525 68.6733 16.5344C68.6733 17.5963 68.6733 18.6364 68.6733 19.6983C68.1532 19.6983 67.6331 19.72 67.0913 19.6983C67.0913 18.1164 67.0913 16.5344 67.0913 14.9525C67.0913 13.934 67.113 12.9155 67.0263 11.897C66.983 11.5719 66.8096 11.2685 66.5496 11.0735C66.2462 10.8785 65.8561 10.9001 65.5094 10.9218C64.881 10.9868 64.3826 11.3769 63.9058 11.7453C63.6891 11.9403 63.4507 12.1137 63.234 12.3087C63.169 12.3521 63.1907 12.4604 63.1907 12.5254C63.1907 14.9092 63.1907 17.2929 63.1907 19.6766C62.6706 19.6766 62.1505 19.6766 61.6304 19.6766V14.1073C61.6304 13.6523 61.6304 13.1972 61.6088 12.7638C61.5871 12.3087 61.6304 11.8103 61.4137 11.3986C61.0887 10.9435 60.4602 10.8568 59.9618 10.9868C59.1817 11.1819 58.4882 11.6586 57.9031 12.2004C57.8165 12.2654 57.8165 12.3737 57.8165 12.4821C57.8165 14.8875 57.8165 17.2929 57.8165 19.6983C57.3614 19.72 56.9063 19.72 56.4512 19.6983C56.4079 17.2495 56.4296 14.7791 56.3645 12.3087C56.3429 11.7453 56.3429 11.1819 56.2779 10.6401C56.2129 10.3801 56.1262 10.1417 56.0828 9.90331ZM82.7373 9.81663C83.2357 9.75162 83.7341 9.66493 84.2326 9.55658C84.2976 10.9435 84.2759 12.3304 84.2759 13.7173C84.2759 15.711 84.2759 17.7046 84.2759 19.6983C83.7558 19.72 83.2357 19.72 82.7156 19.6983C82.694 16.8378 82.7156 13.999 82.7156 11.1385C82.7373 10.7051 82.7156 10.25 82.7373 9.81663ZM102.826 9.6216C103.888 9.81663 104.798 10.7918 104.819 11.897C104.884 13.5439 104.798 15.1909 104.819 16.8378V17.3362C104.819 17.6613 104.841 17.9863 104.928 18.3114C104.993 18.6364 105.296 18.8098 105.534 19.0048C105.318 19.3082 105.123 19.655 104.841 19.915C104.668 20.0667 104.451 19.8933 104.321 19.8066C103.953 19.5249 103.692 19.1132 103.476 18.7015C103.129 18.8965 102.891 19.1782 102.544 19.3732C101.981 19.7416 101.309 19.9583 100.615 19.9367C100.009 19.9583 99.3801 19.85 98.8383 19.5683C97.9499 19.0915 97.4514 18.0513 97.4731 17.0762C97.4731 16.1227 97.9499 15.1909 98.7083 14.6274C99.6185 13.934 100.789 13.7173 101.894 13.6306C102.392 13.5873 102.912 13.5873 103.432 13.5656C103.454 13.0672 103.411 12.5688 103.346 12.0703C103.281 11.6586 103.086 11.2252 102.696 11.0085C102.241 10.7701 101.699 10.7485 101.179 10.8351C100.225 10.9435 99.3368 11.3552 98.5566 11.9187C98.3399 11.6153 98.1232 11.3335 97.9499 11.0085C97.8632 10.8568 97.9932 10.7268 98.1232 10.6618C99.1634 10.0767 100.312 9.57825 101.525 9.59992H102.046C102.306 9.57825 102.566 9.57826 102.826 9.6216ZM102.176 14.5841C101.699 14.6274 101.2 14.6491 100.745 14.7791C100.182 14.9308 99.6618 15.2992 99.3584 15.7976C99.1851 16.0793 99.1851 16.4261 99.1634 16.7511C99.1634 17.0979 99.1201 17.4879 99.2501 17.813C99.3801 18.1597 99.6185 18.4848 99.9652 18.6148C100.355 18.7881 100.81 18.8098 101.244 18.7665C101.764 18.7015 102.219 18.4197 102.609 18.1164C102.934 17.8346 103.259 17.4879 103.281 17.0328C103.346 16.231 103.324 15.4292 103.346 14.6274C102.956 14.6274 102.566 14.5408 102.176 14.5841ZM119.165 9.64327C120.054 9.85997 120.855 10.4017 121.375 11.1385C121.809 11.7453 122.091 12.4387 122.221 13.1755C122.329 13.869 122.372 14.5841 122.329 15.2775C122.307 16.4261 121.961 17.5746 121.267 18.4848C120.704 19.2215 119.837 19.655 118.948 19.8283C117.865 20.0233 116.695 19.8283 115.785 19.1782C114.983 18.6148 114.484 17.7046 114.203 16.7945C114.051 16.3177 114.029 15.841 113.986 15.3426C113.964 14.5191 113.964 13.6956 114.116 12.8938C114.333 11.9837 114.788 11.0952 115.481 10.4451C116.001 9.96832 116.651 9.66493 117.345 9.57825C117.952 9.51324 118.558 9.53492 119.165 9.64327ZM117.453 10.8135C116.716 10.9001 116.131 11.4852 115.893 12.157C115.589 12.8721 115.633 13.6523 115.611 14.4107C115.633 15.1259 115.633 15.841 115.763 16.5561C115.85 17.0328 116.001 17.5096 116.326 17.878C116.63 18.2464 117.085 18.4848 117.54 18.5714C117.713 18.6148 117.908 18.6364 118.082 18.6364H118.255L118.428 18.6148C118.797 18.5714 119.143 18.4631 119.468 18.2897C119.859 18.073 120.14 17.6613 120.292 17.2495C120.487 16.7511 120.509 16.2094 120.552 15.6893C120.574 15.0608 120.595 14.4324 120.552 13.804C120.509 13.1539 120.422 12.4821 120.119 11.897C119.837 11.4636 119.447 11.0952 118.97 10.8785C118.515 10.7484 117.973 10.7485 117.453 10.8135ZM124.994 9.92498C125.471 9.79496 125.926 9.64327 126.403 9.53492C126.663 10.0117 126.706 10.5751 126.728 11.0952C126.966 10.9218 127.161 10.6834 127.378 10.4667C128.05 9.79496 129.047 9.38322 130 9.55658V9.6866C129.784 10.1417 129.654 10.6401 129.458 11.1168C129.437 11.2035 129.307 11.1819 129.242 11.1819C128.83 11.1819 128.375 11.1819 128.007 11.3986C127.638 11.6153 127.313 11.897 127.053 12.2437C126.793 12.5688 126.836 13.0238 126.836 13.4139C126.815 13.9773 126.793 14.5408 126.815 15.1042C126.815 16.6211 126.815 18.1597 126.815 19.6766C126.295 19.6983 125.775 19.6983 125.254 19.6766C125.254 17.9863 125.254 16.2744 125.254 14.5841C125.254 13.4356 125.254 12.2654 125.211 11.1168C125.168 10.7268 125.038 10.3367 124.994 9.92498ZM87.3531 9.94665C87.8082 9.79496 88.2849 9.6216 88.7617 9.6216C88.935 10.0767 89.0434 10.5534 89.1084 11.0302C89.5201 10.7701 89.8668 10.4234 90.3002 10.185C91.1237 9.70828 92.1205 9.36155 93.0524 9.70828C93.5941 9.90331 94.1359 10.2067 94.4609 10.7051C94.721 11.0518 94.786 11.5286 94.8293 11.962C94.916 13.5006 94.8943 15.0392 94.8943 16.5994C94.8943 17.6396 94.916 18.6581 94.916 19.6983C94.3959 19.72 93.8758 19.72 93.3558 19.6983C93.3558 18.008 93.3124 16.2961 93.3124 14.6058C93.2907 13.6523 93.3341 12.7204 93.2257 11.767C93.074 11.3119 92.6406 10.9435 92.1639 10.9218C91.8172 10.9001 91.4488 10.9001 91.102 11.0302C90.3653 11.3119 89.6935 11.767 89.0867 12.2654C89.065 14.7358 89.0867 17.2279 89.0867 19.6983C88.6316 19.6983 88.1766 19.72 87.7215 19.6983C87.7215 18.2897 87.6781 16.8812 87.6781 15.4726C87.6565 14.0207 87.6781 12.5904 87.5915 11.1385C87.5698 10.7268 87.4398 10.3367 87.3531 9.94665Z" fill="#080808"/>
</svg>
