<svg width="16" height="16" viewBox="0 0 16 16" fill="none" xmlns="http://www.w3.org/2000/svg">
<path d="M9.5 2C9.5 1.17157 8.82843 0.5 8 0.5C7.17157 0.5 6.5 1.17157 6.5 2H9.5ZM6.5 14C6.5 14.8284 7.17157 15.5 8 15.5C8.82843 15.5 9.5 14.8284 9.5 14H6.5ZM6.5 2V14H9.5V2H6.5Z" fill="#7164FF"/>
<path d="M14 9.5C14.8284 9.5 15.5 8.82843 15.5 8C15.5 7.17157 14.8284 6.5 14 6.5L14 9.5ZM2 6.5C1.17157 6.5 0.5 7.17157 0.5 8C0.5 8.82843 1.17157 9.5 2 9.5L2 6.5ZM14 6.5L2 6.5L2 9.5L14 9.5L14 6.5Z" fill="#7164FF"/>
</svg>
